M48
INCH,LZ
;FILE_FORMAT=2:4
;TYPE=PLATED
;Layer: PTH_Through_Via
;EasyEDA v6.5.28, 2023-05-12 23:13:51
;2c4de912aade46c3ae8d467baab15760,9779bb66b829476cac46641fb3e7303a,10
;Gerber Generator version 0.2
;Holesize 1 = 0.0120 inch
T01C0.0120
;Holesize 2 = 0.0140 inch
T02C0.0140
%
G05
G90
T01
X006550Y018250
X009950Y017100
X016000Y015500
X006850Y018500
X009950Y016600
X016400Y016100
X008900Y021300
X009600Y020400
X008900Y012400
X016300Y014800
X009800Y014950
X008550Y010900
X007750Y023350
X019200Y010850
X018750Y012650
X018300Y017200
X009500Y023300
X011550Y014650
T02
X022650Y026350
X013850Y014550
X023500Y018600
X004100Y011600
X006700Y019850
X006850Y015300
X007300Y019950
X007650Y012050
X007750Y020150
X008250Y012050
X008200Y020300
X006550Y011350
X008750Y020400
X010000Y020150
X013300Y011150
X013550Y018886
X012100Y012400
X015150Y012350
X021650Y012650
X021900Y020300
X021900Y019050
X017500Y021850
X016900Y020250
X011350Y022450
X013900Y023200
X006200Y016300
X005900Y012100
X006050Y018700
X025050Y015500
X019900Y020400
X015500Y020650
X020700Y017500
X012550Y020100
X015200Y021600
X013300Y020250
X012300Y016350
X005700Y020450
X014750Y017350
X015200Y015500
X012200Y023250
X021900Y023850
X020500Y012150
X015100Y018800
X015350Y017250
X016000Y019750
X018484Y010633
X005650Y009750
X005650Y022150
X004400Y022100
X010500Y021250
X014500Y025200
X010750Y014850
X009000Y009100
X020100Y014450
M30
