M48
INCH,LZ
;FILE_FORMAT=2:4
;TYPE=PLATED
;Layer: PTH_Through
;EasyEDA v6.5.28, 2023-05-12 23:13:51
;2c4de912aade46c3ae8d467baab15760,9779bb66b829476cac46641fb3e7303a,10
;Gerber Generator version 0.2
;Holesize 1 = 0.0120 inch
T01C0.0120
;Holesize 2 = 0.0140 inch
T02C0.0140
;Holesize 3 = 0.0280 inch
T03C0.0280
;Holesize 4 = 0.0320 inch
T04C0.0320
;Holesize 5 = 0.0350 inch
T05C0.0350
;Holesize 6 = 0.0360 inch
T06C0.0360
;Holesize 7 = 0.0430 inch
T07C0.0430
;Holesize 8 = 0.0470 inch
T08C0.0470
%
G05
G90
T01
X006550Y018250
X009950Y017100
X016000Y015500
X006850Y018500
X009950Y016600
X016400Y016100
X008900Y021300
X009600Y020400
X008900Y012400
X016300Y014800
X009800Y014950
X008550Y010900
X007750Y023350
X019200Y010850
X018750Y012650
X018300Y017200
X009500Y023300
X011550Y014650
T02
X022650Y026350
X013850Y014550
X023500Y018600
X004100Y011600
X006700Y019850
X006850Y015300
X007300Y019950
X007650Y012050
X007750Y020150
X008250Y012050
X008200Y020300
X006550Y011350
X008750Y020400
X010000Y020150
X013300Y011150
X013550Y018886
X012100Y012400
X015150Y012350
X021650Y012650
X021900Y020300
X021900Y019050
X017500Y021850
X016900Y020250
X011350Y022450
X013900Y023200
X006200Y016300
X005900Y012100
X006050Y018700
X025050Y015500
X019900Y020400
X015500Y020650
X020700Y017500
X012550Y020100
X015200Y021600
X013300Y020250
X012300Y016350
X005700Y020450
X014750Y017350
X015200Y015500
X012200Y023250
X021900Y023850
X020500Y012150
X015100Y018800
X015350Y017250
X016000Y019750
X018484Y010633
X005650Y009750
X005650Y022150
X004400Y022100
X010500Y021250
X014500Y025200
X010750Y014850
X009000Y009100
X020100Y014450
T03
X024559Y014105
X024559Y012195
X025693Y011723G85X025535Y011723
X025693Y014577G85X025535Y014577
T04
X017400Y011450
X017400Y012450
X010500Y013150
X010500Y014150
X015061Y014200
X013139Y014200
T05
X023100Y008750
X023100Y009750
X006000Y027000
X007000Y027000
X013500Y027000
X012500Y027000
X011500Y027000
X010500Y027000
X009500Y027000
X008500Y027000
T06
X025650Y020150
X025650Y019150
X025650Y018150
X025650Y017150
X025650Y016150
X003700Y015300
X003700Y016300
X003700Y017300
X003700Y018300
X003700Y019300
X003700Y020300
X003700Y021300
X017050Y009199
X016050Y009199
X015050Y009199
X014050Y009199
X013050Y009199
X012050Y009199
X011050Y009199
X010050Y009201
T07
X025384Y023787
T08
X025384Y022213
X025384Y023000
X023416Y023787
X023416Y023000
X023416Y022213
M30
