G04 Layer: BottomSolderMaskLayer*
G04 EasyEDA v6.5.28, 2023-05-12 23:13:51*
G04 2c4de912aade46c3ae8d467baab15760,9779bb66b829476cac46641fb3e7303a,10*
G04 Gerber Generator version 0.2*
G04 Scale: 100 percent, Rotated: No, Reflected: No *
G04 Dimensions in inches *
G04 leading zeros omitted , absolute positions ,3 integer and 6 decimal *
%FSLAX36Y36*%
%MOIN*%

%AMMACRO1*1,1,$1,$2,$3*1,1,$1,$4,$5*1,1,$1,0-$2,0-$3*1,1,$1,0-$4,0-$5*20,1,$1,$2,$3,$4,$5,0*20,1,$1,$4,$5,0-$2,0-$3,0*20,1,$1,0-$2,0-$3,0-$4,0-$5,0*20,1,$1,0-$4,0-$5,$2,$3,0*4,1,4,$2,$3,$4,$5,0-$2,0-$3,0-$4,0-$5,$2,$3,0*%
%ADD10MACRO1,0.004X0.0689X0.0236X-0.0689X0.0236*%
%ADD11MACRO1,0.004X0.0157X-0.0197X0.0157X0.0197*%
%ADD12MACRO1,0.004X0.0159X-0.017X0.0159X0.017*%
%ADD13MACRO1,0.004X-0.0159X-0.017X-0.0159X0.017*%
%ADD14C,0.0640*%
%ADD15C,0.0670*%
%ADD16MACRO1,0.004X-0.031X0.031X0.031X0.031*%
%ADD17C,0.0660*%
%ADD18MACRO1,0.004X0.031X0.031X0.031X-0.031*%
%ADD19C,0.0789*%
%ADD20C,0.0512*%
%ADD21O,0.070929X0.05518100000000001*%
%ADD22MACRO1,0.0039X-0.0354X-0.0354X-0.0354X0.0354*%
%ADD23C,0.0748*%
%ADD24C,0.0680*%

%LPD*%
D10*
G01*
X1025119Y1140000D03*
G01*
X814879Y1140000D03*
G01*
X1224882Y1140000D03*
G01*
X1435117Y1140000D03*
D11*
G01*
X642598Y2234724D03*
G01*
X679998Y2325275D03*
G01*
X717401Y2234724D03*
D12*
G01*
X835344Y2330000D03*
D13*
G01*
X894655Y2330000D03*
D12*
G01*
X835344Y2205000D03*
D13*
G01*
X894655Y2205000D03*
D12*
G01*
X835344Y2515000D03*
D13*
G01*
X894655Y2515000D03*
D14*
G01*
X2565000Y2015000D03*
G01*
X2565000Y1915000D03*
G01*
X2565000Y1815000D03*
G01*
X2565000Y1715000D03*
G01*
X2565000Y1615000D03*
G01*
X370000Y1530000D03*
G01*
X370000Y1630000D03*
G01*
X370000Y1730000D03*
G01*
X370000Y1830000D03*
G01*
X370000Y1930000D03*
G01*
X370000Y2030000D03*
G01*
X370000Y2130000D03*
D15*
G01*
X1740000Y1145000D03*
G01*
X1740000Y1245000D03*
G01*
X1050000Y1315000D03*
G01*
X1050000Y1415000D03*
D16*
G01*
X2310000Y875000D03*
D17*
G01*
X2310000Y975000D03*
D18*
G01*
X600000Y2700000D03*
D17*
G01*
X700000Y2700000D03*
D19*
G01*
X1506059Y1420000D03*
G01*
X1313940Y1420000D03*
D20*
G01*
X2455879Y1410479D03*
G01*
X2455879Y1219540D03*
D21*
G01*
X2561390Y1172289D03*
G01*
X2561390Y1457730D03*
D17*
G01*
X1350000Y2700000D03*
G01*
X1250000Y2700000D03*
G01*
X1150000Y2700000D03*
G01*
X1050000Y2700000D03*
G01*
X950000Y2700000D03*
D16*
G01*
X850000Y2700000D03*
D22*
G01*
X2538425Y2221259D03*
D23*
G01*
X2538429Y2300000D03*
G01*
X2538429Y2378739D03*
G01*
X2341580Y2378739D03*
G01*
X2341580Y2300000D03*
G01*
X2341580Y2221260D03*
D24*
G01*
X1705029Y919879D03*
G01*
X1605020Y919879D03*
G01*
X1505020Y919879D03*
G01*
X1405020Y919879D03*
G01*
X1305020Y919879D03*
G01*
X1205020Y919879D03*
G01*
X1105020Y919859D03*
G01*
X1005029Y920070D03*
M02*
