G04 Layer: BottomPasteMaskLayer*
G04 EasyEDA v6.5.28, 2023-05-12 23:13:51*
G04 2c4de912aade46c3ae8d467baab15760,9779bb66b829476cac46641fb3e7303a,10*
G04 Gerber Generator version 0.2*
G04 Scale: 100 percent, Rotated: No, Reflected: No *
G04 Dimensions in inches *
G04 leading zeros omitted , absolute positions ,3 integer and 6 decimal *
%FSLAX36Y36*%
%MOIN*%

%AMMACRO1*21,1,$1,$2,0,0,$3*%
%ADD10MACRO1,0.1378X0.0472X0.0000*%
%ADD11MACRO1,0.0394X0.0315X90.0000*%

%LPD*%
G36*
X817960Y2347720D02*
G01*
X815980Y2345740D01*
X815980Y2314260D01*
X817960Y2312280D01*
X849440Y2312280D01*
X851420Y2314260D01*
X851420Y2323780D01*
X836860Y2323780D01*
X836860Y2336780D01*
X851420Y2336780D01*
X851420Y2345740D01*
X849440Y2347720D01*
G37*
G36*
X880939Y2347720D02*
G01*
X878980Y2345740D01*
X878980Y2336780D01*
X893940Y2336780D01*
X893940Y2323780D01*
X878980Y2323780D01*
X878980Y2314260D01*
X880939Y2312280D01*
X912039Y2312280D01*
X914020Y2314260D01*
X914020Y2345740D01*
X912039Y2347720D01*
G37*
G36*
X817960Y2222720D02*
G01*
X815980Y2220740D01*
X815980Y2189260D01*
X817960Y2187280D01*
X849440Y2187280D01*
X851420Y2189260D01*
X851420Y2198780D01*
X836860Y2198780D01*
X836860Y2211780D01*
X851420Y2211780D01*
X851420Y2220740D01*
X849440Y2222720D01*
G37*
G36*
X880939Y2222720D02*
G01*
X878980Y2220740D01*
X878980Y2211780D01*
X893940Y2211780D01*
X893940Y2198780D01*
X878980Y2198780D01*
X878980Y2189260D01*
X880939Y2187280D01*
X912039Y2187280D01*
X914020Y2189260D01*
X914020Y2220740D01*
X912039Y2222720D01*
G37*
G36*
X817960Y2532720D02*
G01*
X815980Y2530740D01*
X815980Y2499260D01*
X817960Y2497280D01*
X849440Y2497280D01*
X851420Y2499260D01*
X851420Y2508780D01*
X836860Y2508780D01*
X836860Y2521780D01*
X851420Y2521780D01*
X851420Y2530740D01*
X849440Y2532720D01*
G37*
G36*
X880939Y2532720D02*
G01*
X878980Y2530740D01*
X878980Y2521780D01*
X893940Y2521780D01*
X893940Y2508780D01*
X878980Y2508780D01*
X878980Y2499260D01*
X880939Y2497280D01*
X912039Y2497280D01*
X914020Y2499260D01*
X914020Y2530740D01*
X912039Y2532720D01*
G37*
D10*
G01*
X1025119Y1140000D03*
G01*
X814879Y1140000D03*
G01*
X1224882Y1140000D03*
G01*
X1435117Y1140000D03*
D11*
G01*
X642598Y2234724D03*
G01*
X679997Y2325275D03*
G01*
X717401Y2234724D03*
M02*
