G04 Layer: BottomSilkscreenLayer*
G04 EasyEDA v6.5.28, 2023-05-12 23:13:51*
G04 2c4de912aade46c3ae8d467baab15760,9779bb66b829476cac46641fb3e7303a,10*
G04 Gerber Generator version 0.2*
G04 Scale: 100 percent, Rotated: No, Reflected: No *
G04 Dimensions in inches *
G04 leading zeros omitted , absolute positions ,3 integer and 6 decimal *
%FSLAX36Y36*%
%MOIN*%

%ADD10C,0.0060*%
%ADD11C,0.0080*%
%ADD12C,0.0100*%

%LPD*%
G36*
X2202000Y1431699D02*
G01*
X2201100Y1431100D01*
X2201300Y1420200D01*
X2201300Y1405200D01*
X2199780Y1406740D01*
X2198160Y1408140D01*
X2196440Y1409360D01*
X2194680Y1410420D01*
X2192860Y1411260D01*
X2191000Y1411879D01*
X2189140Y1412260D01*
X2187300Y1412400D01*
X2185000Y1412200D01*
X2183020Y1411620D01*
X2181320Y1410600D01*
X2179920Y1409139D01*
X2178820Y1407220D01*
X2178040Y1404800D01*
X2177560Y1401879D01*
X2177400Y1398400D01*
X2177300Y1378200D01*
X2171900Y1377400D01*
X2171900Y1375000D01*
X2189600Y1375000D01*
X2189600Y1377400D01*
X2183800Y1378200D01*
X2183700Y1398200D01*
X2184100Y1402660D01*
X2185280Y1405560D01*
X2187280Y1407120D01*
X2190100Y1407600D01*
X2192700Y1407340D01*
X2195340Y1406459D01*
X2198100Y1404860D01*
X2201100Y1402400D01*
X2201080Y1384760D01*
X2201000Y1378200D01*
X2195700Y1377400D01*
X2195700Y1375000D01*
X2213300Y1375000D01*
X2213300Y1377400D01*
X2207600Y1378200D01*
X2207400Y1391100D01*
X2207400Y1425600D01*
X2213700Y1426200D01*
X2213700Y1428500D01*
G37*
G36*
X2312500Y1430600D02*
G01*
X2310600Y1430260D01*
X2309040Y1429300D01*
X2307980Y1427820D01*
X2307600Y1425900D01*
X2307980Y1424019D01*
X2309040Y1422480D01*
X2310600Y1421480D01*
X2312500Y1421100D01*
X2314460Y1421480D01*
X2316040Y1422480D01*
X2317120Y1424019D01*
X2317500Y1425900D01*
X2317120Y1427820D01*
X2316040Y1429300D01*
X2314460Y1430260D01*
G37*
G36*
X1955800Y1430600D02*
G01*
X1953940Y1430260D01*
X1952380Y1429300D01*
X1951300Y1427820D01*
X1950900Y1425900D01*
X1951300Y1424019D01*
X1952380Y1422480D01*
X1953940Y1421480D01*
X1955800Y1421100D01*
X1957760Y1421480D01*
X1959340Y1422480D01*
X1960420Y1424019D01*
X1960800Y1425900D01*
X1960420Y1427820D01*
X1959340Y1429300D01*
X1957760Y1430260D01*
G37*
G36*
X2355800Y1426300D02*
G01*
X2355300Y1412700D01*
X2359000Y1412700D01*
X2361100Y1423000D01*
X2373200Y1423000D01*
X2373280Y1412780D01*
X2373280Y1386060D01*
X2373200Y1378500D01*
X2365300Y1377700D01*
X2365300Y1375000D01*
X2388400Y1375000D01*
X2388400Y1377700D01*
X2380500Y1378500D01*
X2380320Y1388520D01*
X2380320Y1410220D01*
X2380500Y1423000D01*
X2392500Y1423000D01*
X2394600Y1412700D01*
X2398500Y1412700D01*
X2397800Y1426300D01*
G37*
G36*
X2014600Y1426300D02*
G01*
X2014600Y1423600D01*
X2021500Y1422700D01*
X2021600Y1395800D01*
X2021680Y1392960D01*
X2021940Y1390320D01*
X2022360Y1387920D01*
X2022920Y1385720D01*
X2023640Y1383720D01*
X2024500Y1381920D01*
X2025500Y1380340D01*
X2026620Y1378920D01*
X2027880Y1377700D01*
X2029240Y1376660D01*
X2030720Y1375800D01*
X2032320Y1375100D01*
X2034000Y1374560D01*
X2035780Y1374199D01*
X2037660Y1373980D01*
X2039600Y1373899D01*
X2041639Y1373980D01*
X2043600Y1374180D01*
X2045440Y1374540D01*
X2047200Y1375060D01*
X2048860Y1375740D01*
X2050400Y1376560D01*
X2051819Y1377560D01*
X2053120Y1378720D01*
X2054280Y1380060D01*
X2055300Y1381560D01*
X2056200Y1383260D01*
X2056940Y1385120D01*
X2057520Y1387180D01*
X2057960Y1389420D01*
X2058220Y1391860D01*
X2058300Y1394500D01*
X2058300Y1423000D01*
X2064800Y1423600D01*
X2064800Y1426300D01*
X2043300Y1426300D01*
X2043300Y1423600D01*
X2051100Y1422800D01*
X2051279Y1412780D01*
X2051300Y1396300D01*
X2051200Y1393180D01*
X2050880Y1390420D01*
X2050380Y1388020D01*
X2049680Y1385920D01*
X2048820Y1384139D01*
X2047760Y1382640D01*
X2046560Y1381440D01*
X2045180Y1380480D01*
X2043660Y1379760D01*
X2042000Y1379280D01*
X2040220Y1379000D01*
X2038300Y1378899D01*
X2036140Y1379000D01*
X2034180Y1379340D01*
X2032400Y1379900D01*
X2030820Y1380700D01*
X2029440Y1381780D01*
X2028220Y1383120D01*
X2027200Y1384740D01*
X2026380Y1386660D01*
X2025720Y1388899D01*
X2025260Y1391459D01*
X2025000Y1394360D01*
X2024900Y1397600D01*
X2024900Y1422600D01*
X2033000Y1423600D01*
X2033000Y1426300D01*
G37*
G36*
X2340000Y1412400D02*
G01*
X2337080Y1412200D01*
X2334380Y1411579D01*
X2331820Y1410580D01*
X2329300Y1409199D01*
X2329600Y1401500D01*
X2333000Y1401500D01*
X2334500Y1408000D01*
X2335860Y1408600D01*
X2337220Y1409040D01*
X2338600Y1409300D01*
X2340000Y1409400D01*
X2343240Y1408980D01*
X2345580Y1407840D01*
X2347020Y1406060D01*
X2347500Y1403800D01*
X2347100Y1401519D01*
X2345860Y1399800D01*
X2343660Y1398380D01*
X2340400Y1397000D01*
X2335060Y1394940D01*
X2332860Y1393820D01*
X2331040Y1392600D01*
X2329600Y1391279D01*
X2328520Y1389860D01*
X2327780Y1388320D01*
X2327340Y1386680D01*
X2327200Y1384900D01*
X2327440Y1382760D01*
X2328140Y1380740D01*
X2329320Y1378899D01*
X2330960Y1377280D01*
X2333060Y1375920D01*
X2335600Y1374880D01*
X2338580Y1374240D01*
X2342000Y1374000D01*
X2345140Y1374180D01*
X2348020Y1374740D01*
X2350800Y1375640D01*
X2353600Y1376900D01*
X2353700Y1385300D01*
X2350100Y1385300D01*
X2348400Y1378200D01*
X2347000Y1377680D01*
X2345520Y1377300D01*
X2343880Y1377080D01*
X2342100Y1377000D01*
X2338200Y1377440D01*
X2335460Y1378700D01*
X2333840Y1380620D01*
X2333300Y1383100D01*
X2333700Y1385360D01*
X2334980Y1387160D01*
X2337180Y1388680D01*
X2340400Y1390100D01*
X2344000Y1391300D01*
X2346040Y1392140D01*
X2347880Y1393060D01*
X2349480Y1394120D01*
X2350840Y1395300D01*
X2351920Y1396639D01*
X2352740Y1398140D01*
X2353220Y1399820D01*
X2353400Y1401699D01*
X2353180Y1403760D01*
X2352520Y1405740D01*
X2351420Y1407540D01*
X2349920Y1409139D01*
X2348020Y1410500D01*
X2345720Y1411519D01*
X2343040Y1412160D01*
G37*
G36*
X2272400Y1412400D02*
G01*
X2270120Y1412200D01*
X2268120Y1411600D01*
X2266440Y1410580D01*
X2265060Y1409120D01*
X2263980Y1407180D01*
X2263220Y1404760D01*
X2262760Y1401840D01*
X2262600Y1398400D01*
X2262580Y1388080D01*
X2262400Y1378200D01*
X2257100Y1377400D01*
X2257100Y1375000D01*
X2274700Y1375000D01*
X2274700Y1377400D01*
X2269000Y1378200D01*
X2268900Y1398200D01*
X2269260Y1402620D01*
X2270420Y1405520D01*
X2272400Y1407120D01*
X2275300Y1407600D01*
X2277840Y1407300D01*
X2280420Y1406380D01*
X2283120Y1404780D01*
X2286000Y1402400D01*
X2285980Y1388120D01*
X2285800Y1378200D01*
X2280500Y1377400D01*
X2280500Y1375000D01*
X2298100Y1375000D01*
X2298100Y1377400D01*
X2292500Y1378200D01*
X2292300Y1391100D01*
X2292320Y1398060D01*
X2292500Y1405200D01*
X2298600Y1405800D01*
X2298600Y1408100D01*
X2287900Y1412300D01*
X2286800Y1411600D01*
X2286200Y1405300D01*
X2284680Y1406860D01*
X2283060Y1408260D01*
X2281360Y1409480D01*
X2279600Y1410500D01*
X2277800Y1411320D01*
X2276000Y1411900D01*
X2274180Y1412280D01*
G37*
G36*
X2236300Y1412400D02*
G01*
X2233500Y1412220D01*
X2230940Y1411639D01*
X2228660Y1410720D01*
X2226700Y1409400D01*
X2217900Y1412300D01*
X2216800Y1411500D01*
X2216800Y1407000D01*
X2224600Y1407200D01*
X2223720Y1405620D01*
X2223060Y1403880D01*
X2222640Y1401980D01*
X2222506Y1400000D01*
X2228600Y1400000D01*
X2228720Y1402060D01*
X2229120Y1403920D01*
X2229740Y1405580D01*
X2230620Y1406980D01*
X2231720Y1408140D01*
X2233020Y1408980D01*
X2234560Y1409520D01*
X2236300Y1409700D01*
X2238040Y1409520D01*
X2239600Y1408980D01*
X2240960Y1408120D01*
X2242080Y1406960D01*
X2243000Y1405520D01*
X2243660Y1403839D01*
X2244060Y1401920D01*
X2244200Y1399800D01*
X2244060Y1397640D01*
X2243680Y1395700D01*
X2243020Y1394000D01*
X2242160Y1392540D01*
X2241040Y1391380D01*
X2239720Y1390520D01*
X2238200Y1389980D01*
X2236500Y1389800D01*
X2234760Y1390000D01*
X2233200Y1390560D01*
X2231840Y1391440D01*
X2230720Y1392640D01*
X2229800Y1394139D01*
X2229140Y1395880D01*
X2228740Y1397840D01*
X2228600Y1400000D01*
X2222506Y1400000D01*
X2222760Y1397020D01*
X2223540Y1394500D01*
X2224780Y1392320D01*
X2226440Y1390520D01*
X2228460Y1389079D01*
X2230820Y1388040D01*
X2233440Y1387420D01*
X2236300Y1387200D01*
X2237980Y1387260D01*
X2239540Y1387440D01*
X2241020Y1387740D01*
X2242400Y1388200D01*
X2243320Y1386900D01*
X2243980Y1385640D01*
X2244360Y1384400D01*
X2244500Y1383100D01*
X2244280Y1381600D01*
X2243520Y1380480D01*
X2242020Y1379760D01*
X2239600Y1379500D01*
X2229500Y1379500D01*
X2226560Y1379340D01*
X2224040Y1378839D01*
X2221920Y1378040D01*
X2220200Y1376940D01*
X2218880Y1375540D01*
X2217940Y1373880D01*
X2217380Y1371960D01*
X2217200Y1369800D01*
X2217424Y1367800D01*
X2222800Y1367800D01*
X2223200Y1370180D01*
X2224480Y1372120D01*
X2226800Y1373420D01*
X2230300Y1373899D01*
X2240220Y1373920D01*
X2242900Y1374100D01*
X2244380Y1372420D01*
X2245360Y1370760D01*
X2245920Y1369060D01*
X2246100Y1367200D01*
X2245920Y1365380D01*
X2245380Y1363839D01*
X2244520Y1362540D01*
X2243360Y1361500D01*
X2241900Y1360700D01*
X2240200Y1360140D01*
X2238260Y1359800D01*
X2236100Y1359700D01*
X2233000Y1359860D01*
X2230300Y1360320D01*
X2228020Y1361060D01*
X2226140Y1362020D01*
X2224680Y1363220D01*
X2223640Y1364600D01*
X2223020Y1366140D01*
X2222800Y1367800D01*
X2217424Y1367800D01*
X2217720Y1366540D01*
X2218380Y1364960D01*
X2219300Y1363480D01*
X2220480Y1362060D01*
X2221920Y1360780D01*
X2223640Y1359620D01*
X2225600Y1358620D01*
X2227840Y1357820D01*
X2230320Y1357220D01*
X2233080Y1356840D01*
X2236100Y1356699D01*
X2239980Y1356879D01*
X2243260Y1357400D01*
X2246000Y1358220D01*
X2248220Y1359340D01*
X2249900Y1360700D01*
X2251080Y1362320D01*
X2251780Y1364120D01*
X2252000Y1366100D01*
X2251600Y1368460D01*
X2250320Y1370620D01*
X2248040Y1372640D01*
X2244600Y1374600D01*
X2246680Y1375520D01*
X2248260Y1376800D01*
X2249260Y1378460D01*
X2249600Y1380500D01*
X2249320Y1382380D01*
X2248420Y1384340D01*
X2246780Y1386500D01*
X2244300Y1389000D01*
X2246780Y1390820D01*
X2248640Y1393240D01*
X2249800Y1396279D01*
X2250200Y1399900D01*
X2249940Y1402700D01*
X2249160Y1405180D01*
X2247940Y1407320D01*
X2246280Y1409120D01*
X2244260Y1410520D01*
X2241880Y1411560D01*
X2239220Y1412180D01*
G37*
G36*
X2105400Y1412400D02*
G01*
X2102600Y1412220D01*
X2100160Y1411680D01*
X2098120Y1410720D01*
X2096459Y1409360D01*
X2095160Y1407560D01*
X2094240Y1405280D01*
X2093680Y1402500D01*
X2093500Y1399199D01*
X2093500Y1395200D01*
X2099800Y1395200D01*
X2103760Y1393959D01*
X2106900Y1392800D01*
X2110960Y1390820D01*
X2113360Y1388720D01*
X2114500Y1386579D01*
X2114800Y1384500D01*
X2114340Y1381800D01*
X2113060Y1379920D01*
X2111080Y1378839D01*
X2108600Y1378500D01*
X2106700Y1378720D01*
X2104800Y1379480D01*
X2102600Y1380860D01*
X2099800Y1383000D01*
X2099800Y1395200D01*
X2093500Y1395200D01*
X2093500Y1382600D01*
X2093320Y1380280D01*
X2092780Y1378760D01*
X2091900Y1377940D01*
X2090700Y1377700D01*
X2089860Y1377820D01*
X2089079Y1378180D01*
X2088380Y1378760D01*
X2087700Y1379500D01*
X2086300Y1378100D01*
X2087660Y1376260D01*
X2089220Y1375060D01*
X2090920Y1374400D01*
X2092800Y1374199D01*
X2095400Y1374620D01*
X2097440Y1375820D01*
X2098900Y1377700D01*
X2099700Y1380200D01*
X2102620Y1377500D01*
X2105300Y1375560D01*
X2108060Y1374400D01*
X2111200Y1374000D01*
X2113240Y1374139D01*
X2115140Y1374600D01*
X2116860Y1375340D01*
X2118360Y1376380D01*
X2119580Y1377700D01*
X2120500Y1379319D01*
X2121100Y1381220D01*
X2121300Y1383400D01*
X2121160Y1385100D01*
X2120740Y1386680D01*
X2119940Y1388180D01*
X2118760Y1389620D01*
X2117080Y1390980D01*
X2114880Y1392320D01*
X2112120Y1393660D01*
X2108700Y1395000D01*
X2106700Y1395680D01*
X2102140Y1396940D01*
X2099800Y1397500D01*
X2099900Y1402500D01*
X2100220Y1404600D01*
X2100780Y1406240D01*
X2101540Y1407500D01*
X2102580Y1408400D01*
X2103840Y1408980D01*
X2105380Y1409300D01*
X2107200Y1409400D01*
X2109240Y1409240D01*
X2111500Y1408800D01*
X2113000Y1403600D01*
X2113580Y1402020D01*
X2114420Y1400900D01*
X2115480Y1400220D01*
X2116800Y1400000D01*
X2118200Y1400180D01*
X2119260Y1400740D01*
X2119960Y1401639D01*
X2120300Y1402900D01*
X2119580Y1405000D01*
X2118500Y1406879D01*
X2117060Y1408500D01*
X2115280Y1409860D01*
X2113220Y1410940D01*
X2110860Y1411740D01*
X2108260Y1412240D01*
G37*
G36*
X1985200Y1412400D02*
G01*
X1982920Y1412200D01*
X1980920Y1411600D01*
X1979240Y1410580D01*
X1977860Y1409120D01*
X1976780Y1407180D01*
X1976020Y1404760D01*
X1975560Y1401840D01*
X1975400Y1398400D01*
X1975300Y1378200D01*
X1969900Y1377400D01*
X1969900Y1375000D01*
X1987600Y1375000D01*
X1987600Y1377400D01*
X1981900Y1378200D01*
X1981699Y1391100D01*
X1981699Y1398200D01*
X1982060Y1402620D01*
X1983220Y1405520D01*
X1985200Y1407120D01*
X1988100Y1407600D01*
X1990640Y1407300D01*
X1993220Y1406380D01*
X1995920Y1404780D01*
X1998800Y1402400D01*
X1998779Y1384760D01*
X1998700Y1378200D01*
X1993400Y1377400D01*
X1993400Y1375000D01*
X2011000Y1375000D01*
X2011000Y1377400D01*
X2005300Y1378200D01*
X2005220Y1398060D01*
X2005400Y1405200D01*
X2011500Y1405800D01*
X2011500Y1408100D01*
X2000700Y1412300D01*
X1999700Y1411600D01*
X1999000Y1405300D01*
X1997480Y1406860D01*
X1995880Y1408260D01*
X1994180Y1409480D01*
X1992440Y1410500D01*
X1990640Y1411320D01*
X1988839Y1411900D01*
X1987020Y1412280D01*
G37*
G36*
X2310200Y1412300D02*
G01*
X2309100Y1411600D01*
X2309300Y1401399D01*
X2309280Y1388120D01*
X2309100Y1378200D01*
X2303900Y1377400D01*
X2303900Y1375000D01*
X2321500Y1375000D01*
X2321500Y1377400D01*
X2315600Y1378200D01*
X2315520Y1398080D01*
X2315700Y1405300D01*
X2321900Y1405900D01*
X2321900Y1408200D01*
G37*
G36*
X1953500Y1412300D02*
G01*
X1952500Y1411600D01*
X1952600Y1401399D01*
X1952580Y1384760D01*
X1952500Y1378200D01*
X1947200Y1377400D01*
X1947200Y1375000D01*
X1964900Y1375000D01*
X1964900Y1377400D01*
X1959000Y1378200D01*
X1958899Y1398080D01*
X1958980Y1402920D01*
X1959100Y1405300D01*
X1965300Y1405900D01*
X1965300Y1408200D01*
G37*
G36*
X2133300Y1411900D02*
G01*
X2132600Y1411100D01*
X2132800Y1400300D01*
X2132800Y1378200D01*
X2127600Y1377300D01*
X2127600Y1375000D01*
X2138200Y1374400D01*
X2138900Y1381300D01*
X2140400Y1379600D01*
X2142000Y1378140D01*
X2143660Y1376879D01*
X2145360Y1375860D01*
X2147120Y1375040D01*
X2148900Y1374460D01*
X2150700Y1374120D01*
X2152500Y1374000D01*
X2154740Y1374180D01*
X2156740Y1374740D01*
X2158460Y1375700D01*
X2159920Y1377120D01*
X2161060Y1379019D01*
X2161900Y1381420D01*
X2162420Y1384379D01*
X2162600Y1387900D01*
X2162300Y1407400D01*
X2167900Y1408500D01*
X2167900Y1410800D01*
X2156600Y1411900D01*
X2155800Y1411100D01*
X2156200Y1400300D01*
X2156200Y1388200D01*
X2155800Y1383899D01*
X2154580Y1381060D01*
X2152580Y1379480D01*
X2149800Y1379000D01*
X2147040Y1379319D01*
X2144340Y1380260D01*
X2141680Y1381819D01*
X2139100Y1384000D01*
X2138900Y1407300D01*
X2144400Y1408400D01*
X2144400Y1410700D01*
G37*
G36*
X1907600Y1411300D02*
G01*
X1907600Y1408800D01*
X1912000Y1407800D01*
X1924500Y1374500D01*
X1927600Y1374500D01*
X1941399Y1408200D01*
X1945800Y1408800D01*
X1945800Y1411300D01*
X1927400Y1411300D01*
X1927400Y1408800D01*
X1934100Y1408000D01*
X1924300Y1382200D01*
X1915500Y1407800D01*
X1921800Y1408800D01*
X1921800Y1411300D01*
G37*
G36*
X1902500Y1384500D02*
G01*
X1900460Y1384079D01*
X1898820Y1382920D01*
X1897700Y1381200D01*
X1897300Y1379100D01*
X1897700Y1377160D01*
X1898820Y1375540D01*
X1900460Y1374420D01*
X1902500Y1374000D01*
X1904540Y1374420D01*
X1906180Y1375540D01*
X1907300Y1377160D01*
X1907700Y1379100D01*
X1907300Y1381200D01*
X1906180Y1382920D01*
X1904540Y1384079D01*
G37*
G36*
X2226900Y1347800D02*
G01*
X2226900Y1314700D01*
X2226700Y1314700D01*
X2212400Y1332400D01*
X2207000Y1332400D01*
X2217700Y1319400D01*
X2205500Y1300000D01*
X2210800Y1300000D01*
X2220600Y1316000D01*
X2226900Y1308600D01*
X2226900Y1300000D01*
X2231700Y1300000D01*
X2231700Y1347800D01*
G37*
G36*
X2021500Y1347800D02*
G01*
X2021500Y1314700D01*
X2021300Y1314700D01*
X2007100Y1332400D01*
X2001600Y1332400D01*
X2012300Y1319400D01*
X2000100Y1300000D01*
X2005400Y1300000D01*
X2015200Y1316000D01*
X2021500Y1308600D01*
X2021500Y1300000D01*
X2026300Y1300000D01*
X2026300Y1347800D01*
G37*
G36*
X2040000Y1346100D02*
G01*
X2038660Y1345860D01*
X2037580Y1345200D01*
X2036860Y1344160D01*
X2036600Y1342800D01*
X2036860Y1341380D01*
X2037580Y1340320D01*
X2038660Y1339640D01*
X2040000Y1339400D01*
X2041380Y1339640D01*
X2042440Y1340320D01*
X2043160Y1341380D01*
X2043400Y1342800D01*
X2043160Y1344160D01*
X2042440Y1345200D01*
X2041380Y1345860D01*
G37*
G36*
X2321200Y1343899D02*
G01*
X2321200Y1339700D01*
X2334700Y1339700D01*
X2334700Y1300000D01*
X2339700Y1300000D01*
X2339700Y1339700D01*
X2353100Y1339700D01*
X2353100Y1343899D01*
G37*
G36*
X2144700Y1343899D02*
G01*
X2144700Y1300000D01*
X2149300Y1300000D01*
X2149300Y1325400D01*
X2149120Y1331720D01*
X2148700Y1338100D01*
X2149000Y1338100D01*
X2152400Y1328100D01*
X2161000Y1304500D01*
X2164400Y1304500D01*
X2173100Y1328100D01*
X2176600Y1338100D01*
X2176800Y1338100D01*
X2176420Y1331720D01*
X2176200Y1325400D01*
X2176200Y1300000D01*
X2180700Y1300000D01*
X2180700Y1343899D01*
X2174600Y1343899D01*
X2165900Y1319900D01*
X2162800Y1310600D01*
X2162500Y1310600D01*
X2159400Y1319900D01*
X2150800Y1343899D01*
G37*
G36*
X2068400Y1343899D02*
G01*
X2065200Y1343760D01*
X2062300Y1343300D01*
X2059740Y1342520D01*
X2057560Y1341399D01*
X2055800Y1339920D01*
X2054500Y1338080D01*
X2053680Y1335840D01*
X2053400Y1333200D01*
X2053483Y1332600D01*
X2058400Y1332600D01*
X2058560Y1334460D01*
X2059079Y1336040D01*
X2059920Y1337320D01*
X2061100Y1338320D01*
X2062620Y1339079D01*
X2064480Y1339600D01*
X2066660Y1339900D01*
X2069199Y1340000D01*
X2076200Y1340000D01*
X2076200Y1325100D01*
X2069500Y1325100D01*
X2066720Y1325240D01*
X2064400Y1325620D01*
X2062480Y1326260D01*
X2060940Y1327120D01*
X2059800Y1328200D01*
X2059000Y1329480D01*
X2058540Y1330960D01*
X2058400Y1332600D01*
X2053483Y1332600D01*
X2053839Y1330040D01*
X2055120Y1327280D01*
X2057200Y1325080D01*
X2060000Y1323600D01*
X2060000Y1323400D01*
X2058060Y1322900D01*
X2056300Y1322160D01*
X2054740Y1321180D01*
X2053420Y1319980D01*
X2052360Y1318520D01*
X2051560Y1316840D01*
X2051060Y1314940D01*
X2050914Y1313000D01*
X2055700Y1313000D01*
X2055920Y1314980D01*
X2056540Y1316680D01*
X2057580Y1318100D01*
X2059000Y1319240D01*
X2060800Y1320100D01*
X2062960Y1320720D01*
X2065460Y1321080D01*
X2068300Y1321200D01*
X2076200Y1321200D01*
X2076200Y1304000D01*
X2068300Y1304000D01*
X2065520Y1304139D01*
X2063040Y1304540D01*
X2060880Y1305220D01*
X2059079Y1306180D01*
X2057640Y1307420D01*
X2056579Y1308980D01*
X2055920Y1310840D01*
X2055700Y1313000D01*
X2050914Y1313000D01*
X2051040Y1310760D01*
X2051440Y1308899D01*
X2052100Y1307220D01*
X2053000Y1305700D01*
X2054139Y1304360D01*
X2055480Y1303220D01*
X2057040Y1302240D01*
X2058800Y1301420D01*
X2060720Y1300800D01*
X2062840Y1300360D01*
X2065100Y1300080D01*
X2067500Y1300000D01*
X2081200Y1300000D01*
X2081200Y1343899D01*
G37*
G36*
X2303000Y1333200D02*
G01*
X2301140Y1333080D01*
X2300360Y1332860D01*
X2299600Y1332500D01*
X2300500Y1328300D01*
X2301980Y1328660D01*
X2303600Y1328800D01*
X2305720Y1328400D01*
X2307940Y1327080D01*
X2310060Y1324700D01*
X2311900Y1321100D01*
X2311900Y1300000D01*
X2316800Y1300000D01*
X2316800Y1332400D01*
X2312800Y1332400D01*
X2312300Y1326500D01*
X2312200Y1326500D01*
X2310300Y1329240D01*
X2308080Y1331360D01*
X2305640Y1332720D01*
G37*
G36*
X2283700Y1333200D02*
G01*
X2280980Y1332960D01*
X2278700Y1332260D01*
X2276800Y1331120D01*
X2275280Y1329580D01*
X2274120Y1327680D01*
X2273320Y1325440D01*
X2272860Y1322900D01*
X2272700Y1320100D01*
X2272700Y1317200D01*
X2277600Y1317200D01*
X2281560Y1316620D01*
X2284860Y1315900D01*
X2287520Y1315060D01*
X2289620Y1314060D01*
X2291160Y1312920D01*
X2292220Y1311639D01*
X2292800Y1310200D01*
X2293000Y1308600D01*
X2292520Y1306120D01*
X2291240Y1304440D01*
X2289320Y1303500D01*
X2287000Y1303200D01*
X2284600Y1303480D01*
X2282300Y1304319D01*
X2280000Y1305740D01*
X2277600Y1307700D01*
X2277600Y1317200D01*
X2272700Y1317200D01*
X2272700Y1300000D01*
X2276800Y1300000D01*
X2277200Y1304000D01*
X2277400Y1304000D01*
X2279840Y1302120D01*
X2282480Y1300580D01*
X2285300Y1299580D01*
X2288300Y1299199D01*
X2290220Y1299360D01*
X2292000Y1299800D01*
X2293600Y1300560D01*
X2294980Y1301579D01*
X2296120Y1302880D01*
X2296980Y1304440D01*
X2297520Y1306240D01*
X2297700Y1308300D01*
X2297560Y1310000D01*
X2297180Y1311560D01*
X2296520Y1312980D01*
X2295580Y1314259D01*
X2294360Y1315420D01*
X2292860Y1316459D01*
X2291080Y1317380D01*
X2288980Y1318200D01*
X2286600Y1318920D01*
X2283920Y1319540D01*
X2280920Y1320060D01*
X2277600Y1320500D01*
X2277840Y1323680D01*
X2278920Y1326459D01*
X2281040Y1328440D01*
X2284500Y1329199D01*
X2287340Y1328880D01*
X2289960Y1328040D01*
X2292300Y1326879D01*
X2294300Y1325600D01*
X2296300Y1329000D01*
X2293880Y1330420D01*
X2290900Y1331780D01*
X2287460Y1332800D01*
G37*
G36*
X2249200Y1333200D02*
G01*
X2246220Y1332880D01*
X2243700Y1332040D01*
X2241540Y1330800D01*
X2239700Y1329300D01*
X2242300Y1326200D01*
X2243760Y1327380D01*
X2245340Y1328280D01*
X2247080Y1328880D01*
X2249000Y1329100D01*
X2251180Y1328860D01*
X2253180Y1328160D01*
X2254960Y1327040D01*
X2256500Y1325540D01*
X2257760Y1323660D01*
X2258700Y1321459D01*
X2259300Y1318959D01*
X2259500Y1316200D01*
X2259300Y1313440D01*
X2258740Y1310940D01*
X2257840Y1308740D01*
X2256620Y1306860D01*
X2255120Y1305360D01*
X2253340Y1304240D01*
X2251320Y1303540D01*
X2249100Y1303300D01*
X2246860Y1303560D01*
X2244780Y1304280D01*
X2242880Y1305320D01*
X2241200Y1306600D01*
X2239100Y1303400D01*
X2241400Y1301639D01*
X2243920Y1300320D01*
X2246640Y1299500D01*
X2249500Y1299199D01*
X2251580Y1299340D01*
X2253560Y1299720D01*
X2255440Y1300360D01*
X2257200Y1301220D01*
X2258800Y1302340D01*
X2260240Y1303680D01*
X2261500Y1305260D01*
X2262580Y1307040D01*
X2263440Y1309019D01*
X2264080Y1311220D01*
X2264460Y1313620D01*
X2264600Y1316200D01*
X2264460Y1318800D01*
X2264020Y1321200D01*
X2263340Y1323420D01*
X2262420Y1325400D01*
X2261300Y1327180D01*
X2259980Y1328740D01*
X2258480Y1330080D01*
X2256840Y1331200D01*
X2255060Y1332060D01*
X2253180Y1332700D01*
X2251220Y1333080D01*
G37*
G36*
X1982900Y1333200D02*
G01*
X1980020Y1332940D01*
X1977500Y1332140D01*
X1975320Y1330880D01*
X1973520Y1329139D01*
X1972080Y1326960D01*
X1971040Y1324379D01*
X1970420Y1321420D01*
X1970239Y1318700D01*
X1974500Y1318700D01*
X1974640Y1321140D01*
X1975060Y1323260D01*
X1975760Y1325080D01*
X1976720Y1326579D01*
X1977920Y1327760D01*
X1979360Y1328620D01*
X1981020Y1329120D01*
X1982900Y1329300D01*
X1984660Y1329120D01*
X1986339Y1328580D01*
X1987900Y1327720D01*
X1989280Y1326519D01*
X1990480Y1325000D01*
X1991459Y1323180D01*
X1992180Y1321080D01*
X1992600Y1318700D01*
X1970239Y1318700D01*
X1970200Y1317280D01*
X1970280Y1315760D01*
X1970400Y1315100D01*
X1992500Y1315100D01*
X1992200Y1312520D01*
X1991560Y1310180D01*
X1990560Y1308140D01*
X1989280Y1306399D01*
X1987680Y1305000D01*
X1985840Y1303959D01*
X1983740Y1303320D01*
X1981399Y1303100D01*
X1979139Y1303280D01*
X1977040Y1303820D01*
X1975060Y1304660D01*
X1973200Y1305800D01*
X1971399Y1302500D01*
X1973600Y1301220D01*
X1976060Y1300180D01*
X1978839Y1299460D01*
X1982000Y1299199D01*
X1984100Y1299340D01*
X1986120Y1299720D01*
X1988040Y1300360D01*
X1989820Y1301220D01*
X1991459Y1302340D01*
X1992920Y1303680D01*
X1994220Y1305260D01*
X1995320Y1307040D01*
X1996200Y1309019D01*
X1996860Y1311220D01*
X1997260Y1313620D01*
X1997400Y1316200D01*
X1997260Y1318740D01*
X1996840Y1321100D01*
X1996180Y1323280D01*
X1995300Y1325280D01*
X1994220Y1327060D01*
X1992960Y1328640D01*
X1991540Y1330000D01*
X1990000Y1331120D01*
X1988320Y1332020D01*
X1986579Y1332660D01*
X1984760Y1333060D01*
G37*
G36*
X2108600Y1332400D02*
G01*
X2121000Y1297000D01*
X2121880Y1294740D01*
X2122880Y1292640D01*
X2124040Y1290740D01*
X2125360Y1289079D01*
X2126880Y1287700D01*
X2128600Y1286680D01*
X2130580Y1286020D01*
X2132800Y1285800D01*
X2134840Y1286000D01*
X2136500Y1286500D01*
X2135500Y1290500D01*
X2134360Y1290140D01*
X2133000Y1290000D01*
X2130460Y1290560D01*
X2128380Y1292080D01*
X2126700Y1294379D01*
X2125400Y1297300D01*
X2124700Y1299800D01*
X2137800Y1332400D01*
X2132700Y1332400D01*
X2125020Y1311660D01*
X2122600Y1304700D01*
X2122300Y1304700D01*
X2119500Y1313899D01*
X2113400Y1332400D01*
G37*
G36*
X2037600Y1332400D02*
G01*
X2037600Y1300000D01*
X2042500Y1300000D01*
X2042500Y1332400D01*
G37*
G36*
X2189500Y1318700D02*
G01*
X2189500Y1314800D01*
X2204600Y1314800D01*
X2204600Y1318700D01*
G37*
G36*
X2089900Y1318700D02*
G01*
X2089900Y1314800D01*
X2105100Y1314800D01*
X2105100Y1318700D01*
G37*
G36*
X2230600Y1244700D02*
G01*
X2226780Y1244300D01*
X2223340Y1243200D01*
X2220320Y1241500D01*
X2217800Y1239300D01*
X2220500Y1236100D01*
X2222620Y1237860D01*
X2224980Y1239180D01*
X2227620Y1240000D01*
X2230600Y1240300D01*
X2234080Y1239820D01*
X2236760Y1238480D01*
X2238480Y1236380D01*
X2239100Y1233600D01*
X2238440Y1230720D01*
X2236720Y1228640D01*
X2234380Y1227140D01*
X2223640Y1222440D01*
X2221920Y1221460D01*
X2220340Y1220340D01*
X2218980Y1219040D01*
X2217860Y1217560D01*
X2217020Y1215820D01*
X2216480Y1213820D01*
X2216300Y1211500D01*
X2216560Y1209000D01*
X2217340Y1206660D01*
X2218580Y1204580D01*
X2220280Y1202760D01*
X2222420Y1201280D01*
X2224940Y1200160D01*
X2227860Y1199440D01*
X2231100Y1199200D01*
X2233380Y1199320D01*
X2235580Y1199660D01*
X2237660Y1200200D01*
X2239640Y1200960D01*
X2241500Y1201900D01*
X2243240Y1203040D01*
X2244840Y1204340D01*
X2246300Y1205800D01*
X2243300Y1209200D01*
X2240740Y1206900D01*
X2237740Y1205120D01*
X2234460Y1204000D01*
X2231000Y1203600D01*
X2228860Y1203740D01*
X2226960Y1204160D01*
X2225320Y1204820D01*
X2223960Y1205720D01*
X2222860Y1206820D01*
X2222060Y1208120D01*
X2221560Y1209580D01*
X2221400Y1211200D01*
X2221980Y1214180D01*
X2223580Y1216300D01*
X2225960Y1217900D01*
X2228900Y1219300D01*
X2236760Y1222800D01*
X2238340Y1223660D01*
X2239840Y1224680D01*
X2241240Y1225880D01*
X2242440Y1227320D01*
X2243380Y1229000D01*
X2243980Y1230960D01*
X2244200Y1233200D01*
X2243940Y1235620D01*
X2243180Y1237820D01*
X2241960Y1239780D01*
X2240320Y1241460D01*
X2238340Y1242820D01*
X2236020Y1243840D01*
X2233420Y1244480D01*
G37*
G36*
X2174400Y1244700D02*
G01*
X2172400Y1244600D01*
X2170480Y1244300D01*
X2168640Y1243820D01*
X2166900Y1243140D01*
X2165260Y1242280D01*
X2163720Y1241240D01*
X2162300Y1240020D01*
X2161020Y1238660D01*
X2159840Y1237100D01*
X2158820Y1235400D01*
X2157920Y1233540D01*
X2157180Y1231540D01*
X2156580Y1229380D01*
X2156160Y1227100D01*
X2155880Y1224660D01*
X2155800Y1222100D01*
X2160900Y1222100D01*
X2161000Y1224840D01*
X2161340Y1227380D01*
X2161860Y1229720D01*
X2162580Y1231840D01*
X2163480Y1233760D01*
X2164580Y1235440D01*
X2165840Y1236880D01*
X2167260Y1238100D01*
X2168840Y1239040D01*
X2170560Y1239740D01*
X2172420Y1240160D01*
X2174400Y1240300D01*
X2176360Y1240160D01*
X2178200Y1239740D01*
X2179920Y1239040D01*
X2181480Y1238100D01*
X2182880Y1236880D01*
X2184140Y1235440D01*
X2185220Y1233760D01*
X2186120Y1231840D01*
X2186840Y1229720D01*
X2187360Y1227380D01*
X2187700Y1224840D01*
X2187800Y1222100D01*
X2187700Y1219380D01*
X2187360Y1216840D01*
X2186840Y1214480D01*
X2186120Y1212320D01*
X2185220Y1210380D01*
X2184140Y1208640D01*
X2182880Y1207160D01*
X2181480Y1205900D01*
X2179920Y1204920D01*
X2178200Y1204200D01*
X2176360Y1203760D01*
X2174400Y1203600D01*
X2172420Y1203760D01*
X2170560Y1204200D01*
X2168840Y1204920D01*
X2167260Y1205900D01*
X2165840Y1207160D01*
X2164580Y1208640D01*
X2163480Y1210380D01*
X2162580Y1212320D01*
X2161860Y1214480D01*
X2161340Y1216840D01*
X2161000Y1219380D01*
X2160900Y1222100D01*
X2155800Y1222100D01*
X2155880Y1219540D01*
X2156160Y1217100D01*
X2156580Y1214780D01*
X2157180Y1212620D01*
X2157920Y1210580D01*
X2158820Y1208700D01*
X2159840Y1206980D01*
X2161020Y1205400D01*
X2162300Y1204000D01*
X2163720Y1202760D01*
X2165260Y1201700D01*
X2166900Y1200800D01*
X2168640Y1200120D01*
X2170480Y1199600D01*
X2172400Y1199300D01*
X2174400Y1199200D01*
X2176400Y1199300D01*
X2178320Y1199600D01*
X2180160Y1200120D01*
X2181880Y1200800D01*
X2183520Y1201700D01*
X2185040Y1202760D01*
X2186460Y1204000D01*
X2187740Y1205400D01*
X2188900Y1206980D01*
X2189920Y1208700D01*
X2190800Y1210580D01*
X2191540Y1212620D01*
X2192120Y1214780D01*
X2192560Y1217100D01*
X2192820Y1219540D01*
X2192900Y1222100D01*
X2192820Y1224660D01*
X2192560Y1227100D01*
X2192120Y1229380D01*
X2191540Y1231540D01*
X2190800Y1233540D01*
X2189920Y1235400D01*
X2188900Y1237100D01*
X2187740Y1238640D01*
X2186460Y1240020D01*
X2185040Y1241240D01*
X2183520Y1242280D01*
X2181880Y1243140D01*
X2180160Y1243820D01*
X2178320Y1244300D01*
X2176400Y1244600D01*
G37*
G36*
X2321000Y1243900D02*
G01*
X2335100Y1200000D01*
X2340800Y1200000D01*
X2354900Y1243900D01*
X2349700Y1243900D01*
X2340660Y1214180D01*
X2338000Y1205200D01*
X2337700Y1205200D01*
X2326100Y1243900D01*
G37*
G36*
X2289800Y1243900D02*
G01*
X2289800Y1239700D01*
X2309900Y1239700D01*
X2309900Y1225300D01*
X2293000Y1225300D01*
X2293000Y1221100D01*
X2309900Y1221100D01*
X2309900Y1204200D01*
X2289200Y1204200D01*
X2289200Y1200000D01*
X2314900Y1200000D01*
X2314900Y1243900D01*
G37*
G36*
X2266400Y1243900D02*
G01*
X2263160Y1243740D01*
X2260220Y1243260D01*
X2257640Y1242420D01*
X2255420Y1241180D01*
X2253640Y1239520D01*
X2252300Y1237400D01*
X2251480Y1234800D01*
X2251200Y1231700D01*
X2256200Y1231700D01*
X2256380Y1233780D01*
X2256920Y1235520D01*
X2257800Y1236940D01*
X2259040Y1238040D01*
X2260600Y1238880D01*
X2262480Y1239460D01*
X2264680Y1239800D01*
X2267200Y1239900D01*
X2274800Y1239900D01*
X2274800Y1223000D01*
X2267200Y1223000D01*
X2264680Y1223140D01*
X2262480Y1223540D01*
X2260600Y1224220D01*
X2259040Y1225180D01*
X2257800Y1226400D01*
X2256920Y1227900D01*
X2256380Y1229660D01*
X2256200Y1231700D01*
X2251200Y1231700D01*
X2251380Y1229240D01*
X2251920Y1227060D01*
X2252800Y1225140D01*
X2253980Y1223480D01*
X2255440Y1222080D01*
X2257200Y1220940D01*
X2259180Y1220040D01*
X2261400Y1219400D01*
X2250100Y1200000D01*
X2255600Y1200000D01*
X2266600Y1219000D01*
X2274800Y1219000D01*
X2274800Y1200000D01*
X2279800Y1200000D01*
X2279800Y1243900D01*
G37*
G36*
X2202600Y1243900D02*
G01*
X2202600Y1200000D01*
X2207600Y1200000D01*
X2207600Y1243900D01*
G37*
G36*
X2115300Y1243900D02*
G01*
X2115300Y1200000D01*
X2120500Y1200000D01*
X2137000Y1228400D01*
X2141800Y1237400D01*
X2142100Y1237400D01*
X2141680Y1230820D01*
X2141500Y1224100D01*
X2141500Y1200000D01*
X2146100Y1200000D01*
X2146100Y1243900D01*
X2141000Y1243900D01*
X2124400Y1215500D01*
X2119700Y1206500D01*
X2119400Y1206500D01*
X2119820Y1213320D01*
X2120000Y1220200D01*
X2120000Y1243900D01*
G37*
G36*
X2086300Y1235400D02*
G01*
X2057900Y1224200D01*
X2057900Y1220200D01*
X2086300Y1209000D01*
X2086300Y1213300D01*
X2062900Y1222100D01*
X2062900Y1222300D01*
X2086300Y1231100D01*
G37*
G36*
X2091200Y1218700D02*
G01*
X2091200Y1214800D01*
X2106400Y1214800D01*
X2106400Y1218700D01*
G37*
G36*
X2321200Y1182800D02*
G01*
X2321200Y1169500D01*
X2321500Y1163600D01*
X2319080Y1165380D01*
X2316520Y1166840D01*
X2313800Y1167840D01*
X2311000Y1168200D01*
X2308980Y1168060D01*
X2307120Y1167680D01*
X2305440Y1167020D01*
X2303920Y1166140D01*
X2302580Y1165040D01*
X2301400Y1163700D01*
X2300400Y1162160D01*
X2299580Y1160420D01*
X2298940Y1158500D01*
X2298480Y1156400D01*
X2298200Y1154120D01*
X2298100Y1151700D01*
X2303200Y1151700D01*
X2303320Y1154320D01*
X2303700Y1156720D01*
X2304340Y1158840D01*
X2305260Y1160640D01*
X2306500Y1162100D01*
X2308060Y1163180D01*
X2309940Y1163860D01*
X2312200Y1164100D01*
X2314340Y1163800D01*
X2316540Y1162920D01*
X2318840Y1161440D01*
X2321200Y1159400D01*
X2321200Y1141900D01*
X2318960Y1140260D01*
X2316800Y1139180D01*
X2314780Y1138580D01*
X2313000Y1138400D01*
X2310940Y1138640D01*
X2309060Y1139320D01*
X2307400Y1140440D01*
X2305960Y1141980D01*
X2304800Y1143880D01*
X2303920Y1146160D01*
X2303380Y1148780D01*
X2303200Y1151700D01*
X2298100Y1151700D01*
X2298240Y1149020D01*
X2298620Y1146540D01*
X2299240Y1144280D01*
X2300080Y1142220D01*
X2301120Y1140400D01*
X2302340Y1138780D01*
X2303700Y1137420D01*
X2305220Y1136280D01*
X2306840Y1135380D01*
X2308560Y1134720D01*
X2310340Y1134340D01*
X2312200Y1134200D01*
X2314520Y1134500D01*
X2316940Y1135320D01*
X2319320Y1136640D01*
X2321600Y1138400D01*
X2321700Y1138400D01*
X2322300Y1135000D01*
X2326100Y1135000D01*
X2326100Y1182800D01*
G37*
G36*
X2284400Y1182800D02*
G01*
X2284400Y1140600D01*
X2284280Y1139560D01*
X2283960Y1138860D01*
X2283480Y1138440D01*
X2282680Y1138300D01*
X2281800Y1138400D01*
X2281000Y1134600D01*
X2282280Y1134320D01*
X2284000Y1134200D01*
X2286380Y1134640D01*
X2288040Y1135940D01*
X2289000Y1138040D01*
X2289300Y1140900D01*
X2289300Y1182800D01*
G37*
G36*
X1992200Y1181100D02*
G01*
X1990860Y1180860D01*
X1989780Y1180200D01*
X1989060Y1179160D01*
X1988800Y1177800D01*
X1989060Y1176380D01*
X1989780Y1175320D01*
X1990860Y1174640D01*
X1992200Y1174400D01*
X1993580Y1174640D01*
X1994660Y1175320D01*
X1995340Y1176380D01*
X1995600Y1177800D01*
X1995340Y1179160D01*
X1994660Y1180200D01*
X1993580Y1180860D01*
G37*
G36*
X2401400Y1179700D02*
G01*
X2397580Y1179300D01*
X2394140Y1178200D01*
X2391120Y1176500D01*
X2388600Y1174300D01*
X2391300Y1171100D01*
X2393420Y1172860D01*
X2395780Y1174180D01*
X2398420Y1175000D01*
X2401400Y1175300D01*
X2404880Y1174820D01*
X2407560Y1173480D01*
X2409280Y1171380D01*
X2409900Y1168600D01*
X2409240Y1165720D01*
X2407520Y1163640D01*
X2405180Y1162140D01*
X2396200Y1158300D01*
X2394380Y1157440D01*
X2392660Y1156460D01*
X2391120Y1155340D01*
X2389780Y1154040D01*
X2388660Y1152560D01*
X2387820Y1150820D01*
X2387280Y1148820D01*
X2387100Y1146500D01*
X2387360Y1144000D01*
X2388140Y1141660D01*
X2389380Y1139580D01*
X2391080Y1137760D01*
X2393220Y1136280D01*
X2395740Y1135160D01*
X2398660Y1134440D01*
X2401900Y1134200D01*
X2404180Y1134320D01*
X2406360Y1134660D01*
X2408440Y1135200D01*
X2410400Y1135960D01*
X2412260Y1136900D01*
X2414000Y1138040D01*
X2415620Y1139340D01*
X2417100Y1140800D01*
X2414100Y1144200D01*
X2411480Y1141900D01*
X2408520Y1140120D01*
X2405260Y1139000D01*
X2401800Y1138600D01*
X2399660Y1138740D01*
X2397760Y1139160D01*
X2396120Y1139820D01*
X2394760Y1140720D01*
X2393660Y1141820D01*
X2392860Y1143120D01*
X2392360Y1144580D01*
X2392200Y1146200D01*
X2392780Y1149180D01*
X2394380Y1151300D01*
X2396760Y1152900D01*
X2399700Y1154300D01*
X2407560Y1157800D01*
X2409140Y1158660D01*
X2410640Y1159680D01*
X2412040Y1160880D01*
X2413240Y1162320D01*
X2414180Y1164000D01*
X2414780Y1165960D01*
X2415000Y1168200D01*
X2414740Y1170620D01*
X2413980Y1172820D01*
X2412760Y1174780D01*
X2411120Y1176460D01*
X2409140Y1177820D01*
X2406820Y1178840D01*
X2404220Y1179480D01*
G37*
G36*
X2209100Y1179700D02*
G01*
X2205360Y1179260D01*
X2202100Y1178060D01*
X2199360Y1176360D01*
X2197200Y1174400D01*
X2199900Y1171100D01*
X2201760Y1172820D01*
X2203880Y1174140D01*
X2206300Y1175000D01*
X2209000Y1175300D01*
X2211080Y1175160D01*
X2213040Y1174740D01*
X2214860Y1174040D01*
X2216520Y1173100D01*
X2218040Y1171880D01*
X2219380Y1170440D01*
X2220540Y1168760D01*
X2221500Y1166840D01*
X2222280Y1164720D01*
X2222840Y1162380D01*
X2223180Y1159840D01*
X2223300Y1157100D01*
X2223180Y1154340D01*
X2222860Y1151780D01*
X2222320Y1149400D01*
X2221580Y1147240D01*
X2220640Y1145300D01*
X2219520Y1143580D01*
X2218200Y1142100D01*
X2216720Y1140860D01*
X2215080Y1139880D01*
X2213260Y1139180D01*
X2211300Y1138740D01*
X2209200Y1138600D01*
X2206220Y1138940D01*
X2203520Y1139900D01*
X2201060Y1141460D01*
X2198800Y1143600D01*
X2196100Y1140500D01*
X2197420Y1139080D01*
X2198820Y1137820D01*
X2200340Y1136740D01*
X2201940Y1135860D01*
X2203660Y1135140D01*
X2205480Y1134620D01*
X2207420Y1134300D01*
X2209500Y1134200D01*
X2211500Y1134300D01*
X2213420Y1134600D01*
X2215260Y1135080D01*
X2217000Y1135760D01*
X2218660Y1136600D01*
X2220220Y1137640D01*
X2221680Y1138860D01*
X2223000Y1140240D01*
X2224200Y1141780D01*
X2225260Y1143500D01*
X2226200Y1145380D01*
X2226960Y1147400D01*
X2227580Y1149580D01*
X2228040Y1151920D01*
X2228300Y1154380D01*
X2228400Y1157000D01*
X2228300Y1159580D01*
X2228020Y1162020D01*
X2227580Y1164340D01*
X2226940Y1166500D01*
X2226160Y1168520D01*
X2225220Y1170380D01*
X2224140Y1172080D01*
X2222920Y1173640D01*
X2221560Y1175020D01*
X2220080Y1176240D01*
X2218500Y1177280D01*
X2216800Y1178140D01*
X2215000Y1178820D01*
X2213120Y1179300D01*
X2211140Y1179600D01*
G37*
G36*
X1831900Y1179700D02*
G01*
X1827720Y1179220D01*
X1824280Y1177980D01*
X1821500Y1176280D01*
X1819300Y1174400D01*
X1822100Y1171100D01*
X1823899Y1172760D01*
X1826060Y1174100D01*
X1828660Y1174980D01*
X1831800Y1175300D01*
X1834000Y1175160D01*
X1836060Y1174740D01*
X1837960Y1174040D01*
X1839700Y1173100D01*
X1841279Y1171880D01*
X1842660Y1170440D01*
X1843860Y1168760D01*
X1844860Y1166840D01*
X1845660Y1164720D01*
X1846220Y1162380D01*
X1846579Y1159840D01*
X1846699Y1157100D01*
X1846579Y1154340D01*
X1846260Y1151780D01*
X1845700Y1149400D01*
X1844940Y1147240D01*
X1843980Y1145300D01*
X1842820Y1143580D01*
X1841440Y1142100D01*
X1839880Y1140860D01*
X1838140Y1139880D01*
X1836200Y1139180D01*
X1834079Y1138740D01*
X1831800Y1138600D01*
X1829340Y1138780D01*
X1827040Y1139320D01*
X1825000Y1140200D01*
X1823400Y1141400D01*
X1823400Y1153400D01*
X1833000Y1153400D01*
X1833000Y1157500D01*
X1818800Y1157500D01*
X1818800Y1139300D01*
X1819940Y1138220D01*
X1821260Y1137240D01*
X1822740Y1136360D01*
X1824379Y1135620D01*
X1826140Y1135020D01*
X1828060Y1134580D01*
X1830080Y1134300D01*
X1832200Y1134200D01*
X1834319Y1134300D01*
X1836339Y1134600D01*
X1838280Y1135080D01*
X1840120Y1135760D01*
X1841840Y1136600D01*
X1843460Y1137640D01*
X1844940Y1138860D01*
X1846320Y1140240D01*
X1847540Y1141780D01*
X1848640Y1143500D01*
X1849580Y1145380D01*
X1850360Y1147400D01*
X1850980Y1149580D01*
X1851420Y1151920D01*
X1851699Y1154380D01*
X1851800Y1157000D01*
X1851699Y1159580D01*
X1851420Y1162020D01*
X1850960Y1164340D01*
X1850320Y1166500D01*
X1849520Y1168520D01*
X1848560Y1170380D01*
X1847460Y1172080D01*
X1846200Y1173640D01*
X1844820Y1175020D01*
X1843300Y1176240D01*
X1841660Y1177280D01*
X1839900Y1178140D01*
X1838040Y1178820D01*
X1836080Y1179300D01*
X1834040Y1179600D01*
G37*
G36*
X1861500Y1178900D02*
G01*
X1861500Y1135000D01*
X1866600Y1135000D01*
X1883100Y1163400D01*
X1887900Y1172400D01*
X1888200Y1172400D01*
X1887660Y1162480D01*
X1887600Y1159100D01*
X1887600Y1135000D01*
X1892300Y1135000D01*
X1892300Y1178900D01*
X1887200Y1178900D01*
X1870600Y1150500D01*
X1865800Y1141500D01*
X1865500Y1141500D01*
X1866140Y1151780D01*
X1866200Y1155200D01*
X1866200Y1178900D01*
G37*
G36*
X2374600Y1176600D02*
G01*
X2374600Y1167400D01*
X2365600Y1167400D01*
X2365600Y1163400D01*
X2374600Y1163400D01*
X2374600Y1144600D01*
X2374360Y1141920D01*
X2373520Y1139900D01*
X2371940Y1138640D01*
X2369500Y1138200D01*
X2368560Y1138280D01*
X2365700Y1139100D01*
X2364700Y1135400D01*
X2367600Y1134580D01*
X2369080Y1134300D01*
X2370500Y1134200D01*
X2372840Y1134400D01*
X2374760Y1134980D01*
X2376300Y1135900D01*
X2377500Y1137140D01*
X2378380Y1138680D01*
X2378960Y1140480D01*
X2379300Y1142540D01*
X2379400Y1144800D01*
X2379400Y1163400D01*
X2384400Y1163400D01*
X2384400Y1167100D01*
X2379300Y1167400D01*
X2378700Y1176600D01*
G37*
G36*
X2011000Y1176600D02*
G01*
X2011000Y1167400D01*
X2002100Y1167400D01*
X2002100Y1163400D01*
X2011000Y1163400D01*
X2011000Y1144600D01*
X2010760Y1141920D01*
X2009920Y1139900D01*
X2008340Y1138640D01*
X2005900Y1138200D01*
X2004960Y1138280D01*
X2002200Y1139100D01*
X2001200Y1135400D01*
X2004100Y1134580D01*
X2005580Y1134300D01*
X2007000Y1134200D01*
X2009300Y1134400D01*
X2011220Y1134980D01*
X2012760Y1135900D01*
X2013959Y1137140D01*
X2014860Y1138680D01*
X2015460Y1140480D01*
X2015800Y1142540D01*
X2015900Y1144800D01*
X2015900Y1163400D01*
X2020800Y1163400D01*
X2020800Y1167100D01*
X2015700Y1167400D01*
X2015100Y1176600D01*
G37*
G36*
X2347800Y1168200D02*
G01*
X2345060Y1167960D01*
X2342740Y1167260D01*
X2340840Y1166120D01*
X2339340Y1164580D01*
X2338200Y1162680D01*
X2337400Y1160440D01*
X2336940Y1157900D01*
X2336800Y1155100D01*
X2336800Y1152200D01*
X2341600Y1152200D01*
X2345560Y1151620D01*
X2348860Y1150900D01*
X2351520Y1150060D01*
X2353620Y1149060D01*
X2355160Y1147920D01*
X2356220Y1146640D01*
X2356800Y1145200D01*
X2357000Y1143600D01*
X2356520Y1141120D01*
X2355240Y1139440D01*
X2353320Y1138500D01*
X2351000Y1138200D01*
X2348600Y1138480D01*
X2346300Y1139320D01*
X2344000Y1140740D01*
X2341600Y1142700D01*
X2341600Y1152200D01*
X2336800Y1152200D01*
X2336800Y1135000D01*
X2340800Y1135000D01*
X2341200Y1139000D01*
X2341400Y1139000D01*
X2343840Y1137120D01*
X2346480Y1135580D01*
X2349300Y1134580D01*
X2352300Y1134200D01*
X2354260Y1134360D01*
X2356040Y1134800D01*
X2357640Y1135560D01*
X2359020Y1136580D01*
X2360140Y1137880D01*
X2361000Y1139440D01*
X2361520Y1141240D01*
X2361700Y1143300D01*
X2361580Y1145000D01*
X2361180Y1146560D01*
X2360520Y1147980D01*
X2359600Y1149260D01*
X2358400Y1150420D01*
X2356900Y1151460D01*
X2355120Y1152380D01*
X2353040Y1153200D01*
X2350640Y1153920D01*
X2347960Y1154540D01*
X2344940Y1155060D01*
X2341600Y1155500D01*
X2341900Y1158680D01*
X2342980Y1161460D01*
X2345100Y1163440D01*
X2348500Y1164200D01*
X2351340Y1163880D01*
X2353980Y1163040D01*
X2356340Y1161880D01*
X2358400Y1160600D01*
X2360400Y1164000D01*
X2357940Y1165420D01*
X2354960Y1166780D01*
X2351560Y1167800D01*
G37*
G36*
X2260600Y1168200D02*
G01*
X2257720Y1167940D01*
X2255180Y1167140D01*
X2253000Y1165880D01*
X2251160Y1164140D01*
X2249720Y1161960D01*
X2248660Y1159380D01*
X2248020Y1156420D01*
X2247839Y1153700D01*
X2252100Y1153700D01*
X2252240Y1156140D01*
X2252660Y1158260D01*
X2253360Y1160080D01*
X2254320Y1161580D01*
X2255520Y1162760D01*
X2256960Y1163620D01*
X2258620Y1164120D01*
X2260500Y1164300D01*
X2262280Y1164120D01*
X2263960Y1163580D01*
X2265520Y1162720D01*
X2266920Y1161520D01*
X2268140Y1160000D01*
X2269100Y1158180D01*
X2269800Y1156080D01*
X2270200Y1153700D01*
X2247839Y1153700D01*
X2247820Y1152280D01*
X2248000Y1150100D01*
X2270200Y1150100D01*
X2269900Y1147520D01*
X2269260Y1145180D01*
X2268260Y1143140D01*
X2266980Y1141400D01*
X2265380Y1140000D01*
X2263540Y1138960D01*
X2261440Y1138320D01*
X2259100Y1138100D01*
X2256800Y1138280D01*
X2254700Y1138820D01*
X2252740Y1139660D01*
X2250900Y1140800D01*
X2249100Y1137500D01*
X2251300Y1136220D01*
X2253760Y1135180D01*
X2256540Y1134460D01*
X2259700Y1134200D01*
X2261780Y1134340D01*
X2263780Y1134720D01*
X2265680Y1135360D01*
X2267440Y1136220D01*
X2269080Y1137340D01*
X2270540Y1138680D01*
X2271820Y1140260D01*
X2272920Y1142040D01*
X2273800Y1144020D01*
X2274460Y1146220D01*
X2274860Y1148620D01*
X2275000Y1151200D01*
X2274860Y1153740D01*
X2274440Y1156100D01*
X2273800Y1158280D01*
X2272920Y1160280D01*
X2271840Y1162060D01*
X2270580Y1163640D01*
X2269160Y1165000D01*
X2267620Y1166120D01*
X2265980Y1167020D01*
X2264240Y1167660D01*
X2262440Y1168060D01*
G37*
G36*
X2175800Y1168200D02*
G01*
X2173840Y1168080D01*
X2171960Y1167700D01*
X2170140Y1167060D01*
X2168420Y1166200D01*
X2166840Y1165080D01*
X2165380Y1163760D01*
X2164100Y1162180D01*
X2163000Y1160400D01*
X2162120Y1158420D01*
X2161460Y1156200D01*
X2161040Y1153800D01*
X2160900Y1151200D01*
X2165900Y1151200D01*
X2166080Y1153960D01*
X2166640Y1156460D01*
X2167500Y1158660D01*
X2168680Y1160540D01*
X2170120Y1162040D01*
X2171800Y1163160D01*
X2173700Y1163860D01*
X2175800Y1164100D01*
X2177880Y1163860D01*
X2179780Y1163160D01*
X2181440Y1162040D01*
X2182880Y1160540D01*
X2184020Y1158660D01*
X2184880Y1156460D01*
X2185420Y1153960D01*
X2185600Y1151200D01*
X2185420Y1148440D01*
X2184880Y1145940D01*
X2184020Y1143740D01*
X2182880Y1141860D01*
X2181440Y1140360D01*
X2179780Y1139240D01*
X2177880Y1138540D01*
X2175800Y1138300D01*
X2173700Y1138540D01*
X2171800Y1139240D01*
X2170120Y1140360D01*
X2168680Y1141860D01*
X2167500Y1143740D01*
X2166640Y1145940D01*
X2166080Y1148440D01*
X2165900Y1151200D01*
X2160900Y1151200D01*
X2161040Y1148620D01*
X2161460Y1146220D01*
X2162120Y1144020D01*
X2163000Y1142040D01*
X2164100Y1140260D01*
X2165380Y1138680D01*
X2166840Y1137340D01*
X2168420Y1136220D01*
X2170140Y1135360D01*
X2171960Y1134720D01*
X2173840Y1134340D01*
X2175800Y1134200D01*
X2177760Y1134340D01*
X2179640Y1134720D01*
X2181460Y1135360D01*
X2183180Y1136220D01*
X2184760Y1137340D01*
X2186220Y1138680D01*
X2187500Y1140260D01*
X2188600Y1142040D01*
X2189480Y1144020D01*
X2190140Y1146220D01*
X2190560Y1148620D01*
X2190700Y1151200D01*
X2190560Y1153800D01*
X2190140Y1156200D01*
X2189480Y1158420D01*
X2188600Y1160400D01*
X2187500Y1162180D01*
X2186220Y1163740D01*
X2184760Y1165080D01*
X2183180Y1166200D01*
X2181460Y1167060D01*
X2179640Y1167700D01*
X2177760Y1168080D01*
G37*
G36*
X2136500Y1168200D02*
G01*
X2134120Y1168000D01*
X2132080Y1167400D01*
X2130380Y1166400D01*
X2129000Y1165020D01*
X2127940Y1163240D01*
X2127200Y1161080D01*
X2126740Y1158520D01*
X2126600Y1155600D01*
X2126600Y1135000D01*
X2131500Y1135000D01*
X2131500Y1155000D01*
X2131860Y1159020D01*
X2133020Y1161820D01*
X2135000Y1163460D01*
X2137900Y1164000D01*
X2140360Y1163660D01*
X2142580Y1162660D01*
X2144800Y1161000D01*
X2147200Y1158700D01*
X2147200Y1135000D01*
X2152000Y1135000D01*
X2152000Y1167400D01*
X2148100Y1167400D01*
X2147600Y1162700D01*
X2147400Y1162700D01*
X2145000Y1164820D01*
X2142440Y1166580D01*
X2139620Y1167760D01*
G37*
G36*
X2100200Y1168200D02*
G01*
X2097820Y1168000D01*
X2095780Y1167400D01*
X2094079Y1166400D01*
X2092700Y1165020D01*
X2091639Y1163240D01*
X2090900Y1161080D01*
X2090440Y1158520D01*
X2090300Y1155600D01*
X2090300Y1135000D01*
X2095200Y1135000D01*
X2095200Y1155000D01*
X2095560Y1159020D01*
X2096720Y1161820D01*
X2098700Y1163460D01*
X2101600Y1164000D01*
X2104060Y1163660D01*
X2106280Y1162660D01*
X2108500Y1161000D01*
X2110900Y1158700D01*
X2110900Y1135000D01*
X2115700Y1135000D01*
X2115700Y1167400D01*
X2111800Y1167400D01*
X2111300Y1162700D01*
X2111100Y1162700D01*
X2108700Y1164820D01*
X2106140Y1166580D01*
X2103320Y1167760D01*
G37*
G36*
X2067500Y1168200D02*
G01*
X2064620Y1167940D01*
X2062080Y1167140D01*
X2059900Y1165880D01*
X2058060Y1164140D01*
X2056620Y1161960D01*
X2055560Y1159380D01*
X2054920Y1156420D01*
X2054739Y1153700D01*
X2059000Y1153700D01*
X2059139Y1156140D01*
X2059580Y1158260D01*
X2060280Y1160080D01*
X2061260Y1161580D01*
X2062460Y1162760D01*
X2063899Y1163620D01*
X2065540Y1164120D01*
X2067400Y1164300D01*
X2069180Y1164120D01*
X2070860Y1163580D01*
X2072420Y1162720D01*
X2073839Y1161520D01*
X2075060Y1160000D01*
X2076040Y1158180D01*
X2076780Y1156080D01*
X2077200Y1153700D01*
X2054739Y1153700D01*
X2054720Y1152280D01*
X2054860Y1150760D01*
X2055000Y1150100D01*
X2077100Y1150100D01*
X2076800Y1147520D01*
X2076160Y1145180D01*
X2075160Y1143140D01*
X2073880Y1141400D01*
X2072280Y1140000D01*
X2070440Y1138960D01*
X2068340Y1138320D01*
X2066000Y1138100D01*
X2063700Y1138280D01*
X2061600Y1138820D01*
X2059640Y1139660D01*
X2057800Y1140800D01*
X2056000Y1137500D01*
X2058200Y1136220D01*
X2060660Y1135180D01*
X2063440Y1134460D01*
X2066600Y1134200D01*
X2068680Y1134340D01*
X2070700Y1134720D01*
X2072600Y1135360D01*
X2074379Y1136220D01*
X2076000Y1137340D01*
X2077480Y1138680D01*
X2078779Y1140260D01*
X2079900Y1142040D01*
X2080780Y1144020D01*
X2081440Y1146220D01*
X2081860Y1148620D01*
X2082000Y1151200D01*
X2081860Y1153740D01*
X2081440Y1156100D01*
X2080780Y1158280D01*
X2079880Y1160280D01*
X2078800Y1162060D01*
X2077520Y1163640D01*
X2076100Y1165000D01*
X2074540Y1166120D01*
X2072880Y1167020D01*
X2071140Y1167660D01*
X2069340Y1168060D01*
G37*
G36*
X2033600Y1168200D02*
G01*
X2030620Y1167880D01*
X2028100Y1167040D01*
X2025960Y1165800D01*
X2024100Y1164300D01*
X2026699Y1161200D01*
X2028160Y1162380D01*
X2029740Y1163280D01*
X2031480Y1163880D01*
X2033400Y1164100D01*
X2035600Y1163860D01*
X2037620Y1163160D01*
X2039440Y1162040D01*
X2040980Y1160540D01*
X2042260Y1158660D01*
X2043200Y1156460D01*
X2043800Y1153960D01*
X2044000Y1151200D01*
X2043800Y1148440D01*
X2043240Y1145940D01*
X2042340Y1143740D01*
X2041120Y1141860D01*
X2039600Y1140360D01*
X2037800Y1139240D01*
X2035760Y1138540D01*
X2033500Y1138300D01*
X2031300Y1138560D01*
X2029220Y1139280D01*
X2027340Y1140320D01*
X2025700Y1141600D01*
X2023500Y1138400D01*
X2025800Y1136640D01*
X2028340Y1135320D01*
X2031080Y1134500D01*
X2034000Y1134200D01*
X2036080Y1134340D01*
X2038060Y1134720D01*
X2039920Y1135360D01*
X2041660Y1136220D01*
X2043260Y1137340D01*
X2044680Y1138680D01*
X2045940Y1140260D01*
X2047000Y1142040D01*
X2047860Y1144020D01*
X2048480Y1146220D01*
X2048860Y1148620D01*
X2049000Y1151200D01*
X2048860Y1153800D01*
X2048420Y1156200D01*
X2047740Y1158420D01*
X2046819Y1160400D01*
X2045700Y1162180D01*
X2044379Y1163740D01*
X2042880Y1165080D01*
X2041240Y1166200D01*
X2039460Y1167060D01*
X2037580Y1167700D01*
X2035620Y1168080D01*
G37*
G36*
X1966200Y1168200D02*
G01*
X1964220Y1168080D01*
X1962320Y1167700D01*
X1960480Y1167060D01*
X1958760Y1166200D01*
X1957160Y1165080D01*
X1955700Y1163760D01*
X1954420Y1162180D01*
X1953320Y1160400D01*
X1952420Y1158420D01*
X1951759Y1156200D01*
X1951339Y1153800D01*
X1951200Y1151200D01*
X1956300Y1151200D01*
X1956480Y1153960D01*
X1957020Y1156460D01*
X1957880Y1158660D01*
X1959040Y1160540D01*
X1960480Y1162040D01*
X1962160Y1163160D01*
X1964079Y1163860D01*
X1966200Y1164100D01*
X1968280Y1163860D01*
X1970180Y1163160D01*
X1971840Y1162040D01*
X1973280Y1160540D01*
X1974420Y1158660D01*
X1975280Y1156460D01*
X1975820Y1153960D01*
X1976000Y1151200D01*
X1975820Y1148440D01*
X1975280Y1145940D01*
X1974420Y1143740D01*
X1973280Y1141860D01*
X1971840Y1140360D01*
X1970180Y1139240D01*
X1968280Y1138540D01*
X1966200Y1138300D01*
X1964079Y1138540D01*
X1962160Y1139240D01*
X1960480Y1140360D01*
X1959040Y1141860D01*
X1957880Y1143740D01*
X1957020Y1145940D01*
X1956480Y1148440D01*
X1956300Y1151200D01*
X1951200Y1151200D01*
X1951339Y1148620D01*
X1951759Y1146220D01*
X1952420Y1144020D01*
X1953320Y1142040D01*
X1954420Y1140260D01*
X1955700Y1138680D01*
X1957160Y1137340D01*
X1958760Y1136220D01*
X1960480Y1135360D01*
X1962320Y1134720D01*
X1964220Y1134340D01*
X1966200Y1134200D01*
X1968160Y1134340D01*
X1970040Y1134720D01*
X1971840Y1135360D01*
X1973540Y1136220D01*
X1975120Y1137340D01*
X1976560Y1138680D01*
X1977840Y1140260D01*
X1978920Y1142040D01*
X1979800Y1144020D01*
X1980460Y1146220D01*
X1980860Y1148620D01*
X1981000Y1151200D01*
X1980860Y1153800D01*
X1980460Y1156200D01*
X1979800Y1158420D01*
X1978920Y1160400D01*
X1977840Y1162180D01*
X1976560Y1163740D01*
X1975120Y1165080D01*
X1973540Y1166200D01*
X1971840Y1167060D01*
X1970040Y1167700D01*
X1968160Y1168080D01*
G37*
G36*
X1926900Y1168200D02*
G01*
X1924520Y1168000D01*
X1922480Y1167400D01*
X1920780Y1166400D01*
X1919400Y1165020D01*
X1918340Y1163240D01*
X1917600Y1161080D01*
X1917140Y1158520D01*
X1917000Y1155600D01*
X1917000Y1135000D01*
X1921900Y1135000D01*
X1921900Y1155000D01*
X1922260Y1159020D01*
X1923420Y1161820D01*
X1925400Y1163460D01*
X1928300Y1164000D01*
X1930700Y1163660D01*
X1932940Y1162660D01*
X1935140Y1161000D01*
X1937500Y1158700D01*
X1937500Y1135000D01*
X1942400Y1135000D01*
X1942400Y1167400D01*
X1938400Y1167400D01*
X1938000Y1162700D01*
X1937800Y1162700D01*
X1935400Y1164820D01*
X1932840Y1166580D01*
X1930020Y1167760D01*
G37*
G36*
X1989800Y1167400D02*
G01*
X1989800Y1135000D01*
X1994700Y1135000D01*
X1994700Y1167400D01*
G37*
G36*
X2036900Y2686700D02*
G01*
X2035900Y2686100D01*
X2036100Y2675200D01*
X2036100Y2660200D01*
X2034580Y2661740D01*
X2032980Y2663140D01*
X2031279Y2664360D01*
X2029520Y2665419D01*
X2027700Y2666259D01*
X2025840Y2666880D01*
X2023980Y2667260D01*
X2022100Y2667400D01*
X2019800Y2667200D01*
X2017820Y2666620D01*
X2016120Y2665600D01*
X2014720Y2664140D01*
X2013620Y2662220D01*
X2012840Y2659800D01*
X2012360Y2656880D01*
X2012200Y2653399D01*
X2012100Y2633200D01*
X2006800Y2632400D01*
X2006800Y2630000D01*
X2024400Y2630000D01*
X2024400Y2632400D01*
X2018700Y2633200D01*
X2018500Y2646100D01*
X2018500Y2653200D01*
X2018899Y2657660D01*
X2020100Y2660560D01*
X2022120Y2662120D01*
X2025000Y2662600D01*
X2027600Y2662340D01*
X2030240Y2661460D01*
X2033000Y2659860D01*
X2036000Y2657400D01*
X2035980Y2643120D01*
X2035800Y2633200D01*
X2030500Y2632400D01*
X2030500Y2630000D01*
X2048100Y2630000D01*
X2048100Y2632400D01*
X2042400Y2633200D01*
X2042320Y2639760D01*
X2042300Y2680600D01*
X2048500Y2681200D01*
X2048500Y2683500D01*
G37*
G36*
X1840900Y2686700D02*
G01*
X1839900Y2686100D01*
X1840200Y2675200D01*
X1840200Y2660200D01*
X1838680Y2661740D01*
X1837060Y2663140D01*
X1835340Y2664360D01*
X1833580Y2665419D01*
X1831759Y2666259D01*
X1829900Y2666880D01*
X1828040Y2667260D01*
X1826200Y2667400D01*
X1823880Y2667200D01*
X1821860Y2666620D01*
X1820160Y2665600D01*
X1818779Y2664140D01*
X1817700Y2662220D01*
X1816920Y2659800D01*
X1816459Y2656880D01*
X1816300Y2653399D01*
X1816279Y2643080D01*
X1816100Y2633200D01*
X1810800Y2632400D01*
X1810800Y2630000D01*
X1828500Y2630000D01*
X1828500Y2632400D01*
X1822700Y2633200D01*
X1822600Y2653200D01*
X1823000Y2657660D01*
X1824180Y2660560D01*
X1826180Y2662120D01*
X1829000Y2662600D01*
X1831600Y2662340D01*
X1834240Y2661460D01*
X1837000Y2659860D01*
X1840000Y2657400D01*
X1839900Y2633200D01*
X1834600Y2632400D01*
X1834600Y2630000D01*
X1852200Y2630000D01*
X1852200Y2632400D01*
X1846500Y2633200D01*
X1846300Y2646100D01*
X1846300Y2680600D01*
X1852500Y2681200D01*
X1852500Y2683500D01*
G37*
G36*
X1714199Y2686700D02*
G01*
X1713200Y2686100D01*
X1713400Y2675200D01*
X1713400Y2660200D01*
X1711879Y2661740D01*
X1710280Y2663140D01*
X1708580Y2664360D01*
X1706819Y2665419D01*
X1705000Y2666259D01*
X1703140Y2666880D01*
X1701279Y2667260D01*
X1699400Y2667400D01*
X1697100Y2667200D01*
X1695120Y2666620D01*
X1693420Y2665600D01*
X1692020Y2664140D01*
X1690920Y2662220D01*
X1690140Y2659800D01*
X1689660Y2656880D01*
X1689500Y2653399D01*
X1689400Y2633200D01*
X1684100Y2632400D01*
X1684100Y2630000D01*
X1701699Y2630000D01*
X1701699Y2632400D01*
X1696000Y2633200D01*
X1695800Y2646100D01*
X1695800Y2653200D01*
X1696200Y2657660D01*
X1697400Y2660560D01*
X1699420Y2662120D01*
X1702300Y2662600D01*
X1704880Y2662340D01*
X1707480Y2661460D01*
X1710220Y2659860D01*
X1713200Y2657400D01*
X1713180Y2639760D01*
X1713100Y2633200D01*
X1707800Y2632400D01*
X1707800Y2630000D01*
X1725400Y2630000D01*
X1725400Y2632400D01*
X1719700Y2633200D01*
X1719500Y2646100D01*
X1719500Y2680600D01*
X1725800Y2681200D01*
X1725800Y2683500D01*
G37*
G36*
X1625700Y2682400D02*
G01*
X1622280Y2682140D01*
X1619340Y2681400D01*
X1616900Y2680200D01*
X1614920Y2678600D01*
X1613400Y2676620D01*
X1612340Y2674300D01*
X1611699Y2671680D01*
X1611500Y2668800D01*
X1611579Y2667160D01*
X1611840Y2665560D01*
X1612280Y2663980D01*
X1612940Y2662380D01*
X1613800Y2660720D01*
X1614880Y2659000D01*
X1616220Y2657160D01*
X1619640Y2653060D01*
X1624180Y2648140D01*
X1635900Y2635899D01*
X1609300Y2635899D01*
X1609300Y2630000D01*
X1640800Y2630000D01*
X1640800Y2634800D01*
X1629199Y2647900D01*
X1626579Y2651000D01*
X1624319Y2653880D01*
X1622420Y2656560D01*
X1620880Y2659080D01*
X1619700Y2661500D01*
X1618860Y2663840D01*
X1618360Y2666120D01*
X1618200Y2668399D01*
X1618360Y2670760D01*
X1618860Y2672880D01*
X1619640Y2674740D01*
X1620720Y2676320D01*
X1622080Y2677600D01*
X1623680Y2678519D01*
X1625540Y2679100D01*
X1627600Y2679300D01*
X1629460Y2679220D01*
X1631699Y2678900D01*
X1633200Y2673300D01*
X1633959Y2671019D01*
X1634920Y2669500D01*
X1636060Y2668660D01*
X1637400Y2668399D01*
X1638560Y2668560D01*
X1639580Y2669040D01*
X1640460Y2669800D01*
X1641100Y2670800D01*
X1640460Y2673500D01*
X1639360Y2675860D01*
X1637820Y2677860D01*
X1635920Y2679480D01*
X1633700Y2680760D01*
X1631220Y2681680D01*
X1628540Y2682220D01*
G37*
G36*
X1587300Y2682400D02*
G01*
X1584940Y2682280D01*
X1582800Y2681940D01*
X1580880Y2681400D01*
X1579199Y2680659D01*
X1577720Y2679720D01*
X1576440Y2678600D01*
X1575380Y2677320D01*
X1574500Y2675880D01*
X1573839Y2674300D01*
X1573380Y2672580D01*
X1573100Y2670740D01*
X1573000Y2668800D01*
X1573080Y2667160D01*
X1573340Y2665560D01*
X1573800Y2663980D01*
X1574460Y2662380D01*
X1575320Y2660720D01*
X1576420Y2659000D01*
X1577760Y2657160D01*
X1581180Y2653060D01*
X1585700Y2648140D01*
X1597500Y2635899D01*
X1570900Y2635899D01*
X1570900Y2630000D01*
X1602400Y2630000D01*
X1602400Y2634800D01*
X1590700Y2647900D01*
X1588100Y2651000D01*
X1585880Y2653880D01*
X1584000Y2656560D01*
X1582480Y2659080D01*
X1581300Y2661500D01*
X1580460Y2663840D01*
X1579960Y2666120D01*
X1579800Y2668399D01*
X1579960Y2670760D01*
X1580460Y2672880D01*
X1581240Y2674740D01*
X1582320Y2676320D01*
X1583660Y2677600D01*
X1585240Y2678519D01*
X1587060Y2679100D01*
X1589100Y2679300D01*
X1591040Y2679220D01*
X1593300Y2678900D01*
X1594800Y2673300D01*
X1595560Y2671019D01*
X1596480Y2669500D01*
X1597620Y2668660D01*
X1599000Y2668399D01*
X1600140Y2668560D01*
X1601140Y2669040D01*
X1602000Y2669800D01*
X1602700Y2670800D01*
X1602060Y2673500D01*
X1600940Y2675860D01*
X1599400Y2677860D01*
X1597480Y2679480D01*
X1595240Y2680760D01*
X1592780Y2681680D01*
X1590100Y2682220D01*
G37*
G36*
X2142400Y2681700D02*
G01*
X2131570Y2650000D01*
X2138600Y2650000D01*
X2146600Y2673800D01*
X2154500Y2650000D01*
X2131570Y2650000D01*
X2125900Y2633399D01*
X2119900Y2632700D01*
X2119900Y2630000D01*
X2140700Y2630000D01*
X2140700Y2632700D01*
X2133200Y2633600D01*
X2137700Y2647000D01*
X2155400Y2647000D01*
X2159800Y2633600D01*
X2152400Y2632700D01*
X2152400Y2630000D01*
X2169400Y2630000D01*
X2169400Y2632700D01*
X2163200Y2633600D01*
X2146900Y2681700D01*
G37*
G36*
X2061600Y2676900D02*
G01*
X2062100Y2666300D01*
X2051800Y2666300D01*
X2051800Y2663000D01*
X2062100Y2663000D01*
X2062100Y2638300D01*
X2061800Y2635659D01*
X2060960Y2633860D01*
X2059560Y2632820D01*
X2057700Y2632500D01*
X2056399Y2632640D01*
X2055180Y2633039D01*
X2053899Y2633720D01*
X2052500Y2634700D01*
X2050900Y2632900D01*
X2052580Y2631280D01*
X2054640Y2630059D01*
X2057040Y2629280D01*
X2059800Y2629000D01*
X2061759Y2629140D01*
X2063480Y2629540D01*
X2064960Y2630220D01*
X2066220Y2631180D01*
X2067200Y2632420D01*
X2067920Y2633980D01*
X2068360Y2635840D01*
X2068500Y2638000D01*
X2068400Y2644300D01*
X2068400Y2663000D01*
X2074900Y2663000D01*
X2074900Y2665700D01*
X2068100Y2666500D01*
X2066000Y2676900D01*
G37*
G36*
X1919000Y2667700D02*
G01*
X1916960Y2667280D01*
X1915320Y2666139D01*
X1914199Y2664460D01*
X1913800Y2662400D01*
X1914199Y2660460D01*
X1915320Y2658840D01*
X1916960Y2657720D01*
X1919000Y2657300D01*
X1921040Y2657720D01*
X1922680Y2658840D01*
X1923800Y2660460D01*
X1924199Y2662400D01*
X1923800Y2664460D01*
X1922680Y2666139D01*
X1921040Y2667280D01*
G37*
G36*
X1983400Y2667400D02*
G01*
X1981180Y2667260D01*
X1979000Y2666860D01*
X1976879Y2666180D01*
X1974860Y2665220D01*
X1972960Y2664000D01*
X1971220Y2662520D01*
X1969660Y2660760D01*
X1968320Y2658740D01*
X1967220Y2656480D01*
X1966399Y2653940D01*
X1965880Y2651139D01*
X1965700Y2648100D01*
X1972800Y2648100D01*
X1972980Y2651840D01*
X1973520Y2655120D01*
X1974379Y2657919D01*
X1975580Y2660220D01*
X1977100Y2662040D01*
X1978920Y2663340D01*
X1981020Y2664140D01*
X1983400Y2664400D01*
X1985780Y2664140D01*
X1987880Y2663340D01*
X1989700Y2662040D01*
X1991220Y2660220D01*
X1992420Y2657919D01*
X1993280Y2655120D01*
X1993820Y2651840D01*
X1994000Y2648100D01*
X1993820Y2644360D01*
X1993280Y2641120D01*
X1992420Y2638340D01*
X1991220Y2636080D01*
X1989700Y2634300D01*
X1987880Y2633020D01*
X1985780Y2632260D01*
X1983400Y2632000D01*
X1981020Y2632260D01*
X1978920Y2633020D01*
X1977100Y2634300D01*
X1975580Y2636080D01*
X1974379Y2638340D01*
X1973520Y2641120D01*
X1972980Y2644360D01*
X1972800Y2648100D01*
X1965700Y2648100D01*
X1965880Y2645059D01*
X1966380Y2642280D01*
X1967200Y2639760D01*
X1968280Y2637500D01*
X1969620Y2635520D01*
X1971180Y2633780D01*
X1972920Y2632320D01*
X1974820Y2631120D01*
X1976840Y2630200D01*
X1978959Y2629540D01*
X1981160Y2629140D01*
X1983400Y2629000D01*
X1985640Y2629140D01*
X1987820Y2629540D01*
X1989940Y2630220D01*
X1991960Y2631160D01*
X1993839Y2632360D01*
X1995580Y2633820D01*
X1997120Y2635560D01*
X1998440Y2637540D01*
X1999520Y2639800D01*
X2000320Y2642320D01*
X2000820Y2645080D01*
X2001000Y2648100D01*
X2000820Y2651120D01*
X2000320Y2653900D01*
X1999500Y2656440D01*
X1998420Y2658700D01*
X1997080Y2660720D01*
X1995540Y2662480D01*
X1993800Y2663960D01*
X1991920Y2665200D01*
X1989900Y2666160D01*
X1987800Y2666840D01*
X1985620Y2667260D01*
G37*
G36*
X1935900Y2667400D02*
G01*
X1934160Y2667200D01*
X1932580Y2666620D01*
X1931300Y2665720D01*
X1930400Y2664500D01*
X1930640Y2662340D01*
X1931380Y2660700D01*
X1932720Y2659660D01*
X1934700Y2659300D01*
X1936000Y2659440D01*
X1937220Y2659860D01*
X1938380Y2660520D01*
X1939500Y2661400D01*
X1940400Y2662300D01*
X1942540Y2660400D01*
X1944340Y2658100D01*
X1945820Y2655360D01*
X1947000Y2652100D01*
X1946900Y2633300D01*
X1940500Y2632400D01*
X1940500Y2630000D01*
X1959199Y2630000D01*
X1959199Y2632400D01*
X1953600Y2633200D01*
X1953400Y2646100D01*
X1953420Y2653060D01*
X1953600Y2660200D01*
X1959700Y2660800D01*
X1959700Y2663100D01*
X1948899Y2667300D01*
X1947900Y2666600D01*
X1947100Y2657400D01*
X1946080Y2659640D01*
X1944900Y2661620D01*
X1943600Y2663340D01*
X1942180Y2664760D01*
X1940680Y2665899D01*
X1939120Y2666720D01*
X1937520Y2667220D01*
G37*
G36*
X1789100Y2667400D02*
G01*
X1786260Y2667220D01*
X1783820Y2666680D01*
X1781780Y2665720D01*
X1780120Y2664360D01*
X1778820Y2662559D01*
X1777920Y2660280D01*
X1777380Y2657500D01*
X1777200Y2654200D01*
X1777200Y2650200D01*
X1783500Y2650200D01*
X1787380Y2648960D01*
X1790500Y2647799D01*
X1794560Y2645820D01*
X1796960Y2643720D01*
X1798100Y2641580D01*
X1798400Y2639500D01*
X1797940Y2636800D01*
X1796639Y2634920D01*
X1794680Y2633840D01*
X1792200Y2633500D01*
X1790300Y2633720D01*
X1788420Y2634480D01*
X1786260Y2635860D01*
X1783500Y2638000D01*
X1783500Y2650200D01*
X1777200Y2650200D01*
X1777200Y2637600D01*
X1777000Y2635280D01*
X1776440Y2633759D01*
X1775560Y2632940D01*
X1774400Y2632700D01*
X1773500Y2632820D01*
X1772740Y2633180D01*
X1772020Y2633759D01*
X1771300Y2634500D01*
X1769900Y2633100D01*
X1771260Y2631259D01*
X1772820Y2630059D01*
X1774560Y2629400D01*
X1776500Y2629200D01*
X1779040Y2629620D01*
X1781060Y2630820D01*
X1782500Y2632700D01*
X1783300Y2635200D01*
X1786220Y2632500D01*
X1788899Y2630560D01*
X1791660Y2629400D01*
X1794800Y2629000D01*
X1796840Y2629140D01*
X1798740Y2629600D01*
X1800460Y2630340D01*
X1801940Y2631380D01*
X1803180Y2632700D01*
X1804100Y2634320D01*
X1804700Y2636220D01*
X1804900Y2638399D01*
X1804760Y2640100D01*
X1804340Y2641680D01*
X1803540Y2643180D01*
X1802340Y2644620D01*
X1800680Y2645980D01*
X1798480Y2647320D01*
X1795720Y2648660D01*
X1792300Y2650000D01*
X1790300Y2650680D01*
X1783500Y2652500D01*
X1783600Y2657500D01*
X1783899Y2659600D01*
X1784440Y2661240D01*
X1785200Y2662500D01*
X1786200Y2663399D01*
X1787460Y2663980D01*
X1789000Y2664300D01*
X1790800Y2664400D01*
X1792840Y2664240D01*
X1795100Y2663800D01*
X1796600Y2658600D01*
X1797180Y2657020D01*
X1798020Y2655899D01*
X1799139Y2655220D01*
X1800500Y2655000D01*
X1801879Y2655179D01*
X1802920Y2655740D01*
X1803580Y2656640D01*
X1803899Y2657900D01*
X1803220Y2660000D01*
X1802160Y2661880D01*
X1800720Y2663500D01*
X1798980Y2664860D01*
X1796920Y2665940D01*
X1794560Y2666740D01*
X1791960Y2667240D01*
G37*
G36*
X1748400Y2667400D02*
G01*
X1746180Y2667260D01*
X1744000Y2666860D01*
X1741879Y2666180D01*
X1739860Y2665220D01*
X1737960Y2664000D01*
X1736220Y2662520D01*
X1734660Y2660760D01*
X1733320Y2658740D01*
X1732220Y2656480D01*
X1731399Y2653940D01*
X1730880Y2651139D01*
X1730700Y2648100D01*
X1737800Y2648100D01*
X1737980Y2651840D01*
X1738520Y2655120D01*
X1739379Y2657919D01*
X1740580Y2660220D01*
X1742100Y2662040D01*
X1743920Y2663340D01*
X1746020Y2664140D01*
X1748400Y2664400D01*
X1750780Y2664140D01*
X1752880Y2663340D01*
X1754700Y2662040D01*
X1756220Y2660220D01*
X1757420Y2657919D01*
X1758280Y2655120D01*
X1758820Y2651840D01*
X1759000Y2648100D01*
X1758820Y2644360D01*
X1758280Y2641120D01*
X1757420Y2638340D01*
X1756220Y2636080D01*
X1754700Y2634300D01*
X1752880Y2633020D01*
X1750780Y2632260D01*
X1748400Y2632000D01*
X1746020Y2632260D01*
X1743920Y2633020D01*
X1742100Y2634300D01*
X1740580Y2636080D01*
X1739379Y2638340D01*
X1738520Y2641120D01*
X1737980Y2644360D01*
X1737800Y2648100D01*
X1730700Y2648100D01*
X1730880Y2645059D01*
X1731380Y2642280D01*
X1732200Y2639760D01*
X1733280Y2637500D01*
X1734620Y2635520D01*
X1736180Y2633780D01*
X1737920Y2632320D01*
X1739820Y2631120D01*
X1741840Y2630200D01*
X1743959Y2629540D01*
X1746160Y2629140D01*
X1748400Y2629000D01*
X1750640Y2629140D01*
X1752820Y2629540D01*
X1754940Y2630220D01*
X1756960Y2631160D01*
X1758839Y2632360D01*
X1760580Y2633820D01*
X1762120Y2635560D01*
X1763440Y2637540D01*
X1764520Y2639800D01*
X1765320Y2642320D01*
X1765820Y2645080D01*
X1766000Y2648100D01*
X1765820Y2651120D01*
X1765320Y2653900D01*
X1764500Y2656440D01*
X1763420Y2658700D01*
X1762080Y2660720D01*
X1760540Y2662480D01*
X1758800Y2663960D01*
X1756920Y2665200D01*
X1754900Y2666160D01*
X1752800Y2666840D01*
X1750620Y2667260D01*
G37*
G36*
X2084199Y2666900D02*
G01*
X2083500Y2666100D01*
X2083700Y2655299D01*
X2083700Y2633200D01*
X2078400Y2632300D01*
X2078400Y2630000D01*
X2089100Y2629400D01*
X2089800Y2636300D01*
X2091300Y2634600D01*
X2092900Y2633140D01*
X2094560Y2631880D01*
X2096260Y2630860D01*
X2098020Y2630040D01*
X2099800Y2629460D01*
X2101600Y2629120D01*
X2103400Y2629000D01*
X2105640Y2629180D01*
X2107640Y2629740D01*
X2109360Y2630700D01*
X2110800Y2632120D01*
X2111940Y2634020D01*
X2112760Y2636420D01*
X2113260Y2639380D01*
X2113400Y2642900D01*
X2113200Y2662400D01*
X2118800Y2663500D01*
X2118800Y2665800D01*
X2107500Y2666900D01*
X2106700Y2666100D01*
X2107100Y2655299D01*
X2107100Y2643200D01*
X2106700Y2638900D01*
X2105480Y2636060D01*
X2103480Y2634480D01*
X2100700Y2634000D01*
X2097940Y2634320D01*
X2095240Y2635260D01*
X2092580Y2636820D01*
X2090000Y2639000D01*
X2089800Y2662300D01*
X2095200Y2663399D01*
X2095200Y2665700D01*
G37*
G36*
X1857700Y2666300D02*
G01*
X1857700Y2663900D01*
X1879700Y2632900D01*
X1862400Y2632900D01*
X1860000Y2642300D01*
X1856500Y2642300D01*
X1857300Y2630000D01*
X1887100Y2630000D01*
X1887100Y2632400D01*
X1864900Y2663500D01*
X1881100Y2663500D01*
X1883400Y2654900D01*
X1886699Y2655100D01*
X1886100Y2666300D01*
G37*
G36*
X1644500Y2666300D02*
G01*
X1644500Y2663900D01*
X1648800Y2663200D01*
X1662920Y2626080D01*
X1664160Y2623300D01*
X1665380Y2620820D01*
X1666620Y2618639D01*
X1667880Y2616740D01*
X1669139Y2615140D01*
X1670420Y2613800D01*
X1671699Y2612740D01*
X1673020Y2611920D01*
X1674360Y2611340D01*
X1675720Y2611000D01*
X1677100Y2610899D01*
X1679680Y2611240D01*
X1681860Y2612220D01*
X1683340Y2613720D01*
X1683899Y2615700D01*
X1683240Y2617120D01*
X1682120Y2618120D01*
X1680660Y2618700D01*
X1679000Y2618900D01*
X1677480Y2618720D01*
X1676120Y2618220D01*
X1674800Y2617340D01*
X1673400Y2616100D01*
X1672900Y2615500D01*
X1670500Y2617780D01*
X1668520Y2620480D01*
X1666840Y2623560D01*
X1665400Y2626900D01*
X1665100Y2627799D01*
X1679400Y2663399D01*
X1683700Y2663900D01*
X1683700Y2666300D01*
X1665500Y2666300D01*
X1665500Y2663900D01*
X1672200Y2663200D01*
X1662100Y2635899D01*
X1652400Y2663200D01*
X1659300Y2663900D01*
X1659300Y2666300D01*
G37*
G36*
X1919000Y2639500D02*
G01*
X1916960Y2639080D01*
X1915320Y2637919D01*
X1914199Y2636200D01*
X1913800Y2634100D01*
X1914199Y2632160D01*
X1915320Y2630539D01*
X1916960Y2629420D01*
X1919000Y2629000D01*
X1921040Y2629420D01*
X1922680Y2630539D01*
X1923800Y2632160D01*
X1924199Y2634100D01*
X1923800Y2636200D01*
X1922680Y2637919D01*
X1921040Y2639080D01*
G37*
D10*
X889300Y1325199D02*
G01*
X891400Y1329299D01*
X895500Y1333400D01*
X899499Y1335399D01*
X907700Y1335399D01*
X911800Y1333400D01*
X915900Y1329299D01*
X918000Y1325199D01*
X920000Y1319000D01*
X920000Y1308800D01*
X918000Y1302699D01*
X915900Y1298600D01*
X911800Y1294499D01*
X907700Y1292500D01*
X899499Y1292500D01*
X895500Y1294499D01*
X891400Y1298600D01*
X889300Y1302699D01*
X875799Y1335399D02*
G01*
X875799Y1292500D01*
X875799Y1335399D02*
G01*
X849200Y1335399D01*
X875799Y1315000D02*
G01*
X859499Y1315000D01*
X875799Y1292500D02*
G01*
X849200Y1292500D01*
X835699Y1327199D02*
G01*
X831599Y1329299D01*
X825500Y1335399D01*
X825500Y1292500D01*
X1330506Y1334785D02*
G01*
X1330506Y1304085D01*
X1328506Y1297984D01*
X1324407Y1293885D01*
X1318207Y1291885D01*
X1314107Y1291885D01*
X1308006Y1293885D01*
X1303906Y1297984D01*
X1301907Y1304085D01*
X1301907Y1334785D01*
X1263806Y1328685D02*
G01*
X1265906Y1332784D01*
X1272007Y1334785D01*
X1276107Y1334785D01*
X1282206Y1332784D01*
X1286306Y1326585D01*
X1288406Y1316385D01*
X1288406Y1306185D01*
X1286306Y1297984D01*
X1282206Y1293885D01*
X1276107Y1291885D01*
X1274007Y1291885D01*
X1267906Y1293885D01*
X1263806Y1297984D01*
X1261806Y1304085D01*
X1261806Y1306185D01*
X1263806Y1312285D01*
X1267906Y1316385D01*
X1274007Y1318384D01*
X1276107Y1318384D01*
X1282206Y1316385D01*
X1286306Y1312285D01*
X1288406Y1306185D01*
X619250Y2375050D02*
G01*
X623350Y2373049D01*
X627449Y2368950D01*
X629549Y2364850D01*
X631550Y2358649D01*
X631550Y2348449D01*
X629549Y2342350D01*
X627449Y2338249D01*
X623350Y2334149D01*
X619250Y2332150D01*
X611050Y2332150D01*
X607049Y2334149D01*
X602950Y2338249D01*
X600850Y2342350D01*
X598850Y2348449D01*
X598850Y2358649D01*
X600850Y2364850D01*
X602950Y2368950D01*
X607049Y2373049D01*
X611050Y2375050D01*
X619250Y2375050D01*
X613150Y2340250D02*
G01*
X600850Y2328049D01*
X564850Y2375050D02*
G01*
X585349Y2346450D01*
X554650Y2346450D01*
X564850Y2375050D02*
G01*
X564850Y2332150D01*
X910000Y2415399D02*
G01*
X910000Y2372500D01*
X910000Y2415399D02*
G01*
X891599Y2415399D01*
X885500Y2413400D01*
X883400Y2411300D01*
X881400Y2407199D01*
X881400Y2403099D01*
X883400Y2399000D01*
X885500Y2396999D01*
X891599Y2395000D01*
X910000Y2395000D01*
X895699Y2395000D02*
G01*
X881400Y2372500D01*
X867899Y2407199D02*
G01*
X863800Y2409299D01*
X857600Y2415399D01*
X857600Y2372500D01*
X819600Y2409299D02*
G01*
X821599Y2413400D01*
X827799Y2415399D01*
X831899Y2415399D01*
X838000Y2413400D01*
X842100Y2407199D01*
X844099Y2396999D01*
X844099Y2386799D01*
X842100Y2378600D01*
X838000Y2374499D01*
X831899Y2372500D01*
X829799Y2372500D01*
X823699Y2374499D01*
X819600Y2378600D01*
X817500Y2384699D01*
X817500Y2386799D01*
X819600Y2392899D01*
X823699Y2396999D01*
X829799Y2399000D01*
X831899Y2399000D01*
X838000Y2396999D01*
X842100Y2392899D01*
X844099Y2386799D01*
X910000Y2290399D02*
G01*
X910000Y2247500D01*
X910000Y2290399D02*
G01*
X891599Y2290399D01*
X885500Y2288400D01*
X883400Y2286300D01*
X881400Y2282199D01*
X881400Y2278099D01*
X883400Y2274000D01*
X885500Y2271999D01*
X891599Y2270000D01*
X910000Y2270000D01*
X895699Y2270000D02*
G01*
X881400Y2247500D01*
X867899Y2282199D02*
G01*
X863800Y2284299D01*
X857600Y2290399D01*
X857600Y2247500D01*
X815500Y2290399D02*
G01*
X836000Y2247500D01*
X844099Y2290399D02*
G01*
X815500Y2290399D01*
X1030000Y2540399D02*
G01*
X1030000Y2497500D01*
X1030000Y2540399D02*
G01*
X1011599Y2540399D01*
X1005500Y2538400D01*
X1003400Y2536300D01*
X1001400Y2532199D01*
X1001400Y2528099D01*
X1003400Y2524000D01*
X1005500Y2521999D01*
X1011599Y2520000D01*
X1030000Y2520000D01*
X1015699Y2520000D02*
G01*
X1001400Y2497500D01*
X987899Y2532199D02*
G01*
X983800Y2534299D01*
X977600Y2540399D01*
X977600Y2497500D01*
X953900Y2540399D02*
G01*
X960000Y2538400D01*
X962100Y2534299D01*
X962100Y2530200D01*
X960000Y2526100D01*
X956000Y2524000D01*
X947799Y2521999D01*
X941599Y2520000D01*
X937500Y2515900D01*
X935500Y2511799D01*
X935500Y2505599D01*
X937500Y2501500D01*
X939600Y2499499D01*
X945699Y2497500D01*
X953900Y2497500D01*
X960000Y2499499D01*
X962100Y2501500D01*
X964099Y2505599D01*
X964099Y2511799D01*
X962100Y2515900D01*
X958000Y2520000D01*
X951899Y2521999D01*
X943699Y2524000D01*
X939600Y2526100D01*
X937500Y2530200D01*
X937500Y2534299D01*
X939600Y2538400D01*
X945699Y2540399D01*
X953900Y2540399D01*
X2010000Y2175399D02*
G01*
X2010000Y2144699D01*
X2008000Y2138600D01*
X2003900Y2134499D01*
X1997700Y2132500D01*
X1993599Y2132500D01*
X1987500Y2134499D01*
X1983400Y2138600D01*
X1981400Y2144699D01*
X1981400Y2175399D01*
X1963800Y2175399D02*
G01*
X1941300Y2175399D01*
X1953500Y2159000D01*
X1947399Y2159000D01*
X1943299Y2156999D01*
X1941300Y2155000D01*
X1939200Y2148800D01*
X1939200Y2144699D01*
X1941300Y2138600D01*
X1945399Y2134499D01*
X1951499Y2132500D01*
X1957600Y2132500D01*
X1963800Y2134499D01*
X1965799Y2136500D01*
X1967899Y2140599D01*
D11*
X2486256Y1623202D02*
G01*
X2471956Y1585601D01*
X2457655Y1623202D02*
G01*
X2471956Y1585601D01*
X2418955Y1614301D02*
G01*
X2420756Y1617901D01*
X2424355Y1621401D01*
X2427956Y1623202D01*
X2435056Y1623202D01*
X2438656Y1621401D01*
X2442255Y1617901D01*
X2444056Y1614301D01*
X2445856Y1608901D01*
X2445856Y1600001D01*
X2444056Y1594601D01*
X2442255Y1591001D01*
X2438656Y1587402D01*
X2435056Y1585601D01*
X2427956Y1585601D01*
X2424355Y1587402D01*
X2420756Y1591001D01*
X2418955Y1594601D01*
X2380356Y1614301D02*
G01*
X2382056Y1617901D01*
X2385655Y1621401D01*
X2389255Y1623202D01*
X2396455Y1623202D01*
X2399956Y1621401D01*
X2403555Y1617901D01*
X2405356Y1614301D01*
X2407156Y1608901D01*
X2407156Y1600001D01*
X2405356Y1594601D01*
X2403555Y1591001D01*
X2399956Y1587402D01*
X2396455Y1585601D01*
X2389255Y1585601D01*
X2385655Y1587402D01*
X2382056Y1591001D01*
X2380356Y1594601D01*
X2459456Y1724540D02*
G01*
X2461156Y1728139D01*
X2464755Y1731640D01*
X2468356Y1733440D01*
X2475555Y1733440D01*
X2479056Y1731640D01*
X2482655Y1728139D01*
X2484456Y1724540D01*
X2486256Y1719140D01*
X2486256Y1710239D01*
X2484456Y1704839D01*
X2482655Y1701239D01*
X2479056Y1697640D01*
X2475555Y1695839D01*
X2468356Y1695839D01*
X2464755Y1697640D01*
X2461156Y1701239D01*
X2459456Y1704839D01*
X2459456Y1710239D01*
X2468356Y1710239D02*
G01*
X2459456Y1710239D01*
X2447556Y1733440D02*
G01*
X2447556Y1695839D01*
X2447556Y1733440D02*
G01*
X2422556Y1695839D01*
X2422556Y1733440D02*
G01*
X2422556Y1695839D01*
X2410756Y1733440D02*
G01*
X2410756Y1695839D01*
X2410756Y1733440D02*
G01*
X2398256Y1733440D01*
X2392856Y1731640D01*
X2389255Y1728139D01*
X2387456Y1724540D01*
X2385655Y1719140D01*
X2385655Y1710239D01*
X2387456Y1704839D01*
X2389255Y1701239D01*
X2392856Y1697640D01*
X2398256Y1695839D01*
X2410756Y1695839D01*
X2473737Y1843717D02*
G01*
X2473737Y1806116D01*
X2486237Y1843717D02*
G01*
X2461237Y1843717D01*
X2449436Y1843717D02*
G01*
X2424336Y1806116D01*
X2424336Y1843717D02*
G01*
X2449436Y1806116D01*
X2412537Y1843717D02*
G01*
X2412537Y1806116D01*
X2412537Y1843717D02*
G01*
X2400037Y1843717D01*
X2394637Y1841916D01*
X2391036Y1838317D01*
X2389237Y1834717D01*
X2387437Y1829416D01*
X2387437Y1820417D01*
X2389237Y1815117D01*
X2391036Y1811516D01*
X2394637Y1807917D01*
X2400037Y1806116D01*
X2412537Y1806116D01*
X2486225Y1938204D02*
G01*
X2486225Y1900605D01*
X2486225Y1938204D02*
G01*
X2470124Y1938204D01*
X2464825Y1936404D01*
X2463024Y1934605D01*
X2461225Y1931005D01*
X2461225Y1927505D01*
X2463024Y1923904D01*
X2464825Y1922105D01*
X2470124Y1920304D01*
X2486225Y1920304D01*
X2473725Y1920304D02*
G01*
X2461225Y1900605D01*
X2449425Y1938204D02*
G01*
X2424324Y1900605D01*
X2424324Y1938204D02*
G01*
X2449425Y1900605D01*
X2412524Y1938204D02*
G01*
X2412524Y1900605D01*
X2412524Y1938204D02*
G01*
X2400024Y1938204D01*
X2394624Y1936404D01*
X2391024Y1932804D01*
X2389224Y1929205D01*
X2387524Y1923904D01*
X2387524Y1914904D01*
X2389224Y1909605D01*
X2391024Y1906005D01*
X2394624Y1902404D01*
X2400024Y1900605D01*
X2412524Y1900605D01*
X2486256Y2040529D02*
G01*
X2486256Y2002930D01*
X2486256Y2040529D02*
G01*
X2470155Y2040529D01*
X2464755Y2038730D01*
X2462956Y2036930D01*
X2461156Y2033429D01*
X2461156Y2028029D01*
X2462956Y2024430D01*
X2464755Y2022629D01*
X2470155Y2020830D01*
X2486256Y2020830D01*
X2449355Y2040529D02*
G01*
X2449355Y2002930D01*
X2449355Y2040529D02*
G01*
X2433256Y2040529D01*
X2427956Y2038730D01*
X2426156Y2036930D01*
X2424355Y2033429D01*
X2424355Y2028029D01*
X2426156Y2024430D01*
X2427956Y2022629D01*
X2433256Y2020830D01*
X2449355Y2020830D01*
X2387456Y2035230D02*
G01*
X2391055Y2038730D01*
X2396455Y2040529D01*
X2403555Y2040529D01*
X2408955Y2038730D01*
X2412556Y2035230D01*
X2412556Y2031630D01*
X2410756Y2028029D01*
X2408955Y2026230D01*
X2405356Y2024430D01*
X2394656Y2020830D01*
X2391055Y2019130D01*
X2389255Y2017330D01*
X2387456Y2013730D01*
X2387456Y2008330D01*
X2391055Y2004729D01*
X2396455Y2002930D01*
X2403555Y2002930D01*
X2408955Y2004729D01*
X2412556Y2008330D01*
X2139107Y1744155D02*
G01*
X2142707Y1742456D01*
X2146207Y1738856D01*
X2148006Y1735255D01*
X2148006Y1728056D01*
X2146207Y1724555D01*
X2142707Y1720956D01*
X2139107Y1719155D01*
X2133707Y1717355D01*
X2124807Y1717355D01*
X2119407Y1719155D01*
X2115807Y1720956D01*
X2112206Y1724555D01*
X2110406Y1728056D01*
X2110406Y1735255D01*
X2112206Y1738856D01*
X2115807Y1742456D01*
X2119407Y1744155D01*
X2124807Y1744155D01*
X2124807Y1735255D02*
G01*
X2124807Y1744155D01*
X2148006Y1768555D02*
G01*
X2110406Y1768555D01*
X2148006Y1756055D02*
G01*
X2148006Y1781055D01*
X2126607Y1792856D02*
G01*
X2126607Y1825055D01*
X2148006Y1836855D02*
G01*
X2121207Y1836855D01*
X2115807Y1838656D01*
X2112206Y1842256D01*
X2110406Y1847656D01*
X2110406Y1851255D01*
X2112206Y1856556D01*
X2115807Y1860156D01*
X2121207Y1861956D01*
X2148006Y1861956D01*
X2139107Y1875556D02*
G01*
X2140906Y1875556D01*
X2144407Y1877355D01*
X2146207Y1879155D01*
X2148006Y1882755D01*
X2148006Y1889855D01*
X2146207Y1893456D01*
X2144407Y1895255D01*
X2140906Y1897055D01*
X2137307Y1897055D01*
X2133707Y1895255D01*
X2128307Y1891655D01*
X2110406Y1873755D01*
X2110406Y1898856D01*
D10*
X1847799Y2537500D02*
G01*
X1847799Y2506799D01*
X1845799Y2500700D01*
X1841700Y2496599D01*
X1835500Y2494600D01*
X1831400Y2494600D01*
X1825299Y2496599D01*
X1821199Y2500700D01*
X1819200Y2506799D01*
X1819200Y2537500D01*
X1785200Y2537500D02*
G01*
X1805699Y2508899D01*
X1775000Y2508899D01*
X1785200Y2537500D02*
G01*
X1785200Y2494600D01*
X527298Y1545399D02*
G01*
X527298Y1507199D01*
X527298Y1545399D02*
G01*
X510898Y1545399D01*
X505498Y1543499D01*
X503699Y1541698D01*
X501799Y1538099D01*
X501799Y1534499D01*
X503699Y1530799D01*
X505498Y1528998D01*
X510898Y1527199D01*
X527298Y1527199D01*
X514598Y1527199D02*
G01*
X501799Y1507199D01*
X464398Y1539899D02*
G01*
X467998Y1543499D01*
X473499Y1545399D01*
X480799Y1545399D01*
X486199Y1543499D01*
X489798Y1539899D01*
X489798Y1536298D01*
X487998Y1532599D01*
X486199Y1530799D01*
X482599Y1528998D01*
X471698Y1525399D01*
X467998Y1523499D01*
X466199Y1521698D01*
X464398Y1518099D01*
X464398Y1512599D01*
X467998Y1508998D01*
X473499Y1507199D01*
X480799Y1507199D01*
X486199Y1508998D01*
X489798Y1512599D01*
X439699Y1545399D02*
G01*
X439699Y1507199D01*
X452399Y1545399D02*
G01*
X426898Y1545399D01*
X500000Y1636298D02*
G01*
X501799Y1639899D01*
X505500Y1643499D01*
X509099Y1645399D01*
X516399Y1645399D01*
X520000Y1643499D01*
X523699Y1639899D01*
X525500Y1636298D01*
X527300Y1630799D01*
X527300Y1621698D01*
X525500Y1616298D01*
X523699Y1612599D01*
X520000Y1608998D01*
X516399Y1607199D01*
X509099Y1607199D01*
X505500Y1608998D01*
X501799Y1612599D01*
X500000Y1616298D01*
X500000Y1621698D01*
X509099Y1621698D02*
G01*
X500000Y1621698D01*
X488000Y1645399D02*
G01*
X488000Y1607199D01*
X488000Y1645399D02*
G01*
X462600Y1607199D01*
X462600Y1645399D02*
G01*
X462600Y1607199D01*
X450599Y1645399D02*
G01*
X450599Y1607199D01*
X450599Y1645399D02*
G01*
X437800Y1645399D01*
X432399Y1643499D01*
X428800Y1639899D01*
X426900Y1636298D01*
X425100Y1630799D01*
X425100Y1621698D01*
X426900Y1616298D01*
X428800Y1612599D01*
X432399Y1608998D01*
X437800Y1607199D01*
X450599Y1607199D01*
X527298Y1750399D02*
G01*
X527298Y1712199D01*
X527298Y1750399D02*
G01*
X510898Y1750399D01*
X505498Y1748499D01*
X503699Y1746698D01*
X501799Y1743099D01*
X501799Y1739499D01*
X503699Y1735799D01*
X505498Y1733998D01*
X510898Y1732199D01*
X527298Y1732199D01*
X514598Y1732199D02*
G01*
X501799Y1712199D01*
X489798Y1750399D02*
G01*
X464398Y1712199D01*
X464398Y1750399D02*
G01*
X489798Y1712199D01*
X514598Y1840399D02*
G01*
X514598Y1802199D01*
X527298Y1840399D02*
G01*
X501799Y1840399D01*
X489798Y1840399D02*
G01*
X464398Y1802199D01*
X464398Y1840399D02*
G01*
X489798Y1802199D01*
X527300Y1945399D02*
G01*
X512800Y1907199D01*
X498200Y1945399D02*
G01*
X512800Y1907199D01*
X486199Y1945399D02*
G01*
X486199Y1907199D01*
X486199Y1945399D02*
G01*
X473499Y1945399D01*
X468000Y1943499D01*
X464400Y1939899D01*
X462600Y1936298D01*
X460799Y1930799D01*
X460799Y1921698D01*
X462600Y1916298D01*
X464400Y1912599D01*
X468000Y1908998D01*
X473499Y1907199D01*
X486199Y1907199D01*
X448800Y1945399D02*
G01*
X448800Y1907199D01*
X448800Y1945399D02*
G01*
X435999Y1945399D01*
X430599Y1943499D01*
X426900Y1939899D01*
X425100Y1936298D01*
X423299Y1930799D01*
X423299Y1921698D01*
X425100Y1916298D01*
X426900Y1912599D01*
X430599Y1908998D01*
X435999Y1907199D01*
X448800Y1907199D01*
X500000Y2041298D02*
G01*
X501799Y2044899D01*
X505500Y2048499D01*
X509099Y2050399D01*
X516399Y2050399D01*
X520000Y2048499D01*
X523699Y2044899D01*
X525500Y2041298D01*
X527300Y2035799D01*
X527300Y2026698D01*
X525500Y2021298D01*
X523699Y2017599D01*
X520000Y2013998D01*
X516399Y2012199D01*
X509099Y2012199D01*
X505500Y2013998D01*
X501799Y2017599D01*
X500000Y2021298D01*
X500000Y2026698D01*
X509099Y2026698D02*
G01*
X500000Y2026698D01*
X488000Y2050399D02*
G01*
X488000Y2012199D01*
X488000Y2050399D02*
G01*
X462600Y2012199D01*
X462600Y2050399D02*
G01*
X462600Y2012199D01*
X450599Y2050399D02*
G01*
X450599Y2012199D01*
X450599Y2050399D02*
G01*
X437800Y2050399D01*
X432399Y2048499D01*
X428800Y2044899D01*
X426900Y2041298D01*
X425100Y2035799D01*
X425100Y2026698D01*
X426900Y2021298D01*
X428800Y2017599D01*
X432399Y2013998D01*
X437800Y2012199D01*
X450599Y2012199D01*
X510900Y2149899D02*
G01*
X510900Y2117199D01*
X527300Y2133499D02*
G01*
X494600Y2133499D01*
X460799Y2155399D02*
G01*
X478899Y2155399D01*
X480799Y2138998D01*
X478899Y2140799D01*
X473499Y2142599D01*
X468000Y2142599D01*
X462600Y2140799D01*
X458899Y2137199D01*
X457100Y2131698D01*
X457100Y2128099D01*
X458899Y2122599D01*
X462600Y2118998D01*
X468000Y2117199D01*
X473499Y2117199D01*
X478899Y2118998D01*
X480799Y2120799D01*
X482600Y2124499D01*
X445100Y2155399D02*
G01*
X430599Y2117199D01*
X415999Y2155399D02*
G01*
X430599Y2117199D01*
G36*
X797880Y1084140D02*
G01*
X797880Y1076340D01*
X829060Y1076340D01*
X829060Y1084140D01*
G37*
G36*
X1010939Y1084140D02*
G01*
X1010939Y1076340D01*
X1042120Y1076340D01*
X1042120Y1084140D01*
G37*
G36*
X1022640Y1106220D02*
G01*
X1022640Y1054260D01*
X1030440Y1054260D01*
X1030440Y1106220D01*
G37*
G36*
X1432640Y1106220D02*
G01*
X1432640Y1054260D01*
X1440440Y1054260D01*
X1440440Y1106220D01*
G37*
G36*
X1420940Y1084140D02*
G01*
X1420940Y1076340D01*
X1452120Y1076340D01*
X1452120Y1084140D01*
G37*
G36*
X1207880Y1084140D02*
G01*
X1207880Y1076340D01*
X1239060Y1076340D01*
X1239060Y1084140D01*
G37*
X787892Y1110891D02*
G01*
X787101Y1007098D01*
X998001Y1007098D01*
X1052902Y1061997D01*
X1052376Y1112998D01*
X1052920Y1166997D02*
G01*
X1052920Y1217952D01*
X997955Y1272917D01*
X787080Y1272917D01*
X787344Y1167860D01*
X1197888Y1110895D02*
G01*
X1197100Y1007100D01*
X1408000Y1007100D01*
X1462899Y1061999D01*
X1462373Y1113000D01*
X1197343Y1167862D02*
G01*
X1197079Y1272919D01*
X1407953Y1272919D01*
X1462920Y1217953D01*
X1462920Y1166999D01*
D12*
X654960Y2307559D02*
G01*
X620945Y2307559D01*
X620945Y2307559D02*
G01*
X620945Y2268188D01*
X692361Y2252440D02*
G01*
X667638Y2252440D01*
X739054Y2307559D02*
G01*
X705039Y2307559D01*
X739054Y2307559D02*
G01*
X739054Y2268188D01*
D10*
X848220Y2303991D02*
G01*
X810469Y2303991D01*
X810469Y2356008D01*
X848220Y2356008D01*
X881779Y2303991D02*
G01*
X919530Y2303991D01*
X919530Y2356008D01*
X881779Y2356008D01*
X848220Y2178991D02*
G01*
X810469Y2178991D01*
X810469Y2231008D01*
X848220Y2231008D01*
X881779Y2178991D02*
G01*
X919530Y2178991D01*
X919530Y2231008D01*
X881779Y2231008D01*
X848220Y2488991D02*
G01*
X810469Y2488991D01*
X810469Y2541008D01*
X848220Y2541008D01*
X881779Y2488991D02*
G01*
X919530Y2488991D01*
X919530Y2541008D01*
X881779Y2541008D01*
D12*
X1935078Y1512638D02*
G01*
X1935078Y2112638D01*
X2635078Y2112638D01*
X2635078Y1512638D01*
X1935078Y1512638D01*
X1856000Y1366999D02*
G01*
X280000Y1366999D01*
X1856000Y2466999D02*
G01*
X1856000Y1366999D01*
X280000Y2466999D02*
G01*
X280000Y1366999D01*
X1856000Y2466999D02*
G01*
X280000Y2466999D01*
M02*
