G04 Layer: BottomLayer*
G04 EasyEDA v6.5.28, 2023-05-12 23:13:51*
G04 2c4de912aade46c3ae8d467baab15760,9779bb66b829476cac46641fb3e7303a,10*
G04 Gerber Generator version 0.2*
G04 Scale: 100 percent, Rotated: No, Reflected: No *
G04 Dimensions in inches *
G04 leading zeros omitted , absolute positions ,3 integer and 6 decimal *
%FSLAX36Y36*%
%MOIN*%

%AMMACRO1*21,1,$1,$2,0,0,$3*%
%ADD10C,0.0100*%
%ADD11C,0.0295*%
%ADD12C,0.0197*%
%ADD13MACRO1,0.1378X0.0472X0.0000*%
%ADD14MACRO1,0.0394X0.0315X90.0000*%
%ADD15MACRO1,0.034X0.0318X90.0000*%
%ADD16C,0.0600*%
%ADD17C,0.0630*%
%ADD18R,0.0620X0.0620*%
%ADD19C,0.0620*%
%ADD20C,0.0709*%
%ADD21C,0.0472*%
%ADD22O,0.066929X0.051181000000000004*%
%ADD23R,0.0709X0.0709*%
%ADD24C,0.0276*%
%ADD25C,0.0240*%
%ADD26C,0.0195*%

%LPD*%
G36*
X472660Y797600D02*
G01*
X460600Y797980D01*
X448920Y799100D01*
X437340Y800939D01*
X425900Y803500D01*
X414640Y806780D01*
X403620Y810759D01*
X392860Y815420D01*
X382420Y820759D01*
X372320Y826740D01*
X362640Y833319D01*
X353380Y840520D01*
X344580Y848280D01*
X336300Y856580D01*
X328560Y865380D01*
X321380Y874640D01*
X314780Y884340D01*
X308820Y894440D01*
X303500Y904900D01*
X298860Y915660D01*
X294900Y926700D01*
X291640Y937960D01*
X289080Y949400D01*
X287260Y960980D01*
X286160Y972660D01*
X285800Y984460D01*
X285800Y2558840D01*
X286180Y2570899D01*
X287280Y2582559D01*
X289120Y2594140D01*
X291700Y2605580D01*
X294980Y2616840D01*
X298960Y2627880D01*
X303620Y2638639D01*
X308940Y2649080D01*
X314920Y2659160D01*
X321520Y2668860D01*
X328720Y2678120D01*
X336480Y2686900D01*
X344760Y2695200D01*
X353560Y2702940D01*
X362840Y2710120D01*
X372540Y2716700D01*
X382640Y2722660D01*
X393080Y2727980D01*
X403840Y2732640D01*
X414880Y2736600D01*
X426140Y2739860D01*
X437600Y2742400D01*
X449180Y2744240D01*
X460840Y2745340D01*
X472660Y2745700D01*
X559740Y2745700D01*
X561280Y2745400D01*
X562580Y2744520D01*
X563440Y2743240D01*
X563740Y2741700D01*
X563440Y2740160D01*
X562580Y2738880D01*
X561040Y2737340D01*
X559840Y2735419D01*
X559080Y2733260D01*
X558800Y2730779D01*
X558800Y2669220D01*
X559080Y2666740D01*
X559840Y2664580D01*
X561040Y2662660D01*
X562660Y2661040D01*
X564580Y2659840D01*
X566740Y2659080D01*
X569220Y2658800D01*
X630780Y2658800D01*
X633260Y2659080D01*
X635420Y2659840D01*
X637340Y2661040D01*
X638960Y2662660D01*
X640160Y2664580D01*
X640920Y2666740D01*
X641200Y2669220D01*
X641200Y2730779D01*
X640920Y2733260D01*
X640160Y2735419D01*
X638960Y2737340D01*
X637420Y2738880D01*
X636560Y2740160D01*
X636260Y2741700D01*
X636560Y2743240D01*
X637420Y2744520D01*
X638720Y2745400D01*
X640260Y2745700D01*
X682580Y2745700D01*
X684320Y2745299D01*
X685699Y2744200D01*
X686480Y2742600D01*
X686480Y2740840D01*
X685720Y2739240D01*
X684360Y2738120D01*
X679400Y2735680D01*
X674920Y2732679D01*
X670879Y2729120D01*
X667320Y2725080D01*
X664320Y2720600D01*
X661940Y2715760D01*
X660220Y2710659D01*
X659160Y2705380D01*
X658800Y2700000D01*
X659160Y2694620D01*
X660220Y2689340D01*
X661940Y2684240D01*
X664320Y2679400D01*
X667320Y2674920D01*
X670879Y2670880D01*
X674980Y2667280D01*
X698300Y2650140D01*
X763620Y2584880D01*
X764500Y2583580D01*
X764800Y2582040D01*
X764800Y2526180D01*
X764500Y2524680D01*
X763660Y2523400D01*
X762400Y2522520D01*
X760920Y2522180D01*
X759400Y2522440D01*
X758100Y2523240D01*
X757180Y2524480D01*
X756500Y2525900D01*
X752620Y2532400D01*
X748100Y2538480D01*
X743020Y2544080D01*
X737420Y2549160D01*
X731340Y2553680D01*
X724840Y2557560D01*
X718000Y2560800D01*
X710879Y2563360D01*
X703540Y2565200D01*
X696040Y2566300D01*
X688500Y2566680D01*
X680939Y2566300D01*
X673439Y2565200D01*
X666100Y2563360D01*
X658980Y2560800D01*
X652140Y2557560D01*
X645639Y2553680D01*
X639560Y2549160D01*
X633960Y2544080D01*
X628880Y2538480D01*
X624360Y2532400D01*
X620480Y2525900D01*
X617240Y2519060D01*
X614680Y2511940D01*
X612840Y2504600D01*
X611740Y2497100D01*
X611360Y2489540D01*
X611740Y2482000D01*
X612840Y2474500D01*
X614680Y2467160D01*
X617240Y2460040D01*
X620480Y2453200D01*
X624360Y2446700D01*
X628880Y2440620D01*
X633960Y2435020D01*
X639560Y2429940D01*
X645639Y2425420D01*
X652140Y2421540D01*
X658980Y2418300D01*
X666100Y2415740D01*
X673439Y2413900D01*
X680939Y2412800D01*
X688500Y2412420D01*
X696040Y2412800D01*
X703540Y2413900D01*
X710879Y2415740D01*
X718000Y2418300D01*
X724840Y2421540D01*
X731340Y2425420D01*
X737420Y2429940D01*
X743020Y2435020D01*
X748100Y2440620D01*
X752620Y2446700D01*
X756500Y2453200D01*
X757180Y2454620D01*
X758100Y2455860D01*
X759400Y2456660D01*
X760920Y2456920D01*
X762400Y2456580D01*
X763660Y2455700D01*
X764500Y2454420D01*
X764800Y2452920D01*
X764800Y2433240D01*
X764500Y2431700D01*
X763620Y2430400D01*
X694980Y2361820D01*
X686660Y2355900D01*
X685560Y2355340D01*
X684340Y2355160D01*
X664479Y2355160D01*
X661979Y2354880D01*
X659840Y2354120D01*
X657900Y2352920D01*
X656300Y2351300D01*
X655080Y2349380D01*
X654340Y2347220D01*
X654060Y2344740D01*
X654060Y2305820D01*
X654340Y2303320D01*
X655080Y2301180D01*
X656300Y2299240D01*
X657900Y2297640D01*
X659840Y2296420D01*
X661979Y2295660D01*
X664479Y2295380D01*
X695800Y2295400D01*
X697340Y2295100D01*
X698620Y2294220D01*
X699500Y2292920D01*
X699800Y2291400D01*
X699800Y2272760D01*
X699380Y2270980D01*
X695120Y2262460D01*
X693700Y2260760D01*
X692500Y2258820D01*
X691740Y2256680D01*
X691460Y2254180D01*
X691460Y2215260D01*
X691740Y2212780D01*
X692500Y2210620D01*
X693700Y2208700D01*
X695320Y2207080D01*
X697240Y2205880D01*
X699400Y2205120D01*
X701880Y2204840D01*
X732920Y2204840D01*
X735420Y2205120D01*
X737560Y2205880D01*
X739500Y2207080D01*
X741100Y2208700D01*
X742320Y2210620D01*
X743080Y2212780D01*
X743360Y2215260D01*
X743360Y2220380D01*
X743740Y2222080D01*
X744820Y2223460D01*
X745600Y2224120D01*
X765120Y2243620D01*
X766420Y2244500D01*
X767960Y2244800D01*
X870800Y2244800D01*
X872340Y2244500D01*
X873620Y2243620D01*
X874500Y2242340D01*
X874800Y2240800D01*
X874800Y2239840D01*
X874500Y2238300D01*
X869419Y2226080D01*
X868800Y2224140D01*
X868000Y2222700D01*
X866660Y2221720D01*
X865060Y2221360D01*
X863439Y2221680D01*
X862080Y2222620D01*
X861220Y2224040D01*
X860380Y2226420D01*
X859180Y2228360D01*
X857560Y2229960D01*
X855639Y2231180D01*
X853480Y2231920D01*
X851000Y2232200D01*
X845780Y2232200D01*
X845780Y2216000D01*
X864580Y2216000D01*
X866120Y2215700D01*
X867400Y2214840D01*
X868280Y2213540D01*
X868580Y2212000D01*
X868580Y2198000D01*
X868280Y2196460D01*
X867400Y2195160D01*
X866120Y2194300D01*
X864580Y2194000D01*
X845780Y2194000D01*
X845780Y2177800D01*
X851000Y2177800D01*
X853480Y2178080D01*
X855639Y2178820D01*
X857560Y2180040D01*
X859180Y2181640D01*
X860380Y2183580D01*
X861220Y2185960D01*
X862060Y2187360D01*
X863400Y2188320D01*
X865000Y2188640D01*
X866600Y2188320D01*
X867940Y2187360D01*
X868780Y2185960D01*
X869620Y2183580D01*
X870819Y2181640D01*
X872440Y2180040D01*
X874360Y2178820D01*
X876520Y2178080D01*
X879000Y2177800D01*
X910300Y2177800D01*
X912800Y2178080D01*
X914940Y2178820D01*
X916880Y2180040D01*
X918480Y2181640D01*
X919700Y2183580D01*
X920460Y2185720D01*
X920740Y2188220D01*
X920740Y2221780D01*
X920460Y2224280D01*
X919700Y2226420D01*
X918480Y2228360D01*
X916880Y2229960D01*
X914940Y2231180D01*
X912800Y2231920D01*
X910879Y2232140D01*
X909599Y2232500D01*
X908520Y2233260D01*
X907740Y2234340D01*
X905620Y2238560D01*
X905200Y2240360D01*
X905200Y2254800D01*
X904880Y2257960D01*
X904020Y2260800D01*
X902620Y2263440D01*
X900600Y2265880D01*
X895879Y2270600D01*
X893439Y2272620D01*
X890800Y2274020D01*
X887960Y2274880D01*
X884800Y2275200D01*
X760200Y2275200D01*
X757039Y2274880D01*
X754200Y2274020D01*
X751560Y2272620D01*
X749120Y2270600D01*
X742600Y2264100D01*
X741500Y2263320D01*
X740220Y2262940D01*
X738880Y2263020D01*
X737560Y2263580D01*
X735160Y2264420D01*
X733840Y2265200D01*
X732900Y2266400D01*
X730620Y2270980D01*
X730200Y2272760D01*
X730200Y2327040D01*
X730500Y2328560D01*
X731380Y2329860D01*
X747260Y2345720D01*
X748720Y2346640D01*
X750440Y2346860D01*
X752099Y2346340D01*
X753360Y2345180D01*
X754040Y2343580D01*
X753960Y2341840D01*
X753160Y2338860D01*
X752820Y2335000D01*
X753160Y2331140D01*
X754160Y2327420D01*
X755780Y2323900D01*
X758000Y2320740D01*
X760740Y2318000D01*
X763900Y2315780D01*
X767420Y2314160D01*
X771140Y2313160D01*
X775000Y2312820D01*
X778860Y2313160D01*
X782580Y2314160D01*
X786100Y2315780D01*
X788259Y2317240D01*
X792820Y2319420D01*
X794539Y2319800D01*
X801120Y2319800D01*
X802900Y2319380D01*
X807060Y2317300D01*
X808220Y2316420D01*
X809000Y2315160D01*
X809539Y2310720D01*
X810300Y2308580D01*
X811520Y2306640D01*
X813120Y2305040D01*
X815060Y2303820D01*
X817200Y2303080D01*
X819700Y2302800D01*
X851000Y2302800D01*
X853480Y2303080D01*
X855639Y2303820D01*
X857560Y2305040D01*
X859180Y2306640D01*
X860380Y2308580D01*
X861220Y2310960D01*
X862060Y2312360D01*
X863400Y2313320D01*
X865000Y2313640D01*
X866600Y2313320D01*
X867940Y2312360D01*
X868780Y2310960D01*
X869620Y2308580D01*
X870819Y2306640D01*
X872440Y2305040D01*
X874360Y2303820D01*
X876520Y2303080D01*
X879000Y2302800D01*
X910300Y2302800D01*
X912800Y2303080D01*
X914940Y2303820D01*
X916880Y2305040D01*
X918480Y2306640D01*
X919700Y2308580D01*
X920060Y2309600D01*
X920819Y2310920D01*
X922039Y2311860D01*
X927099Y2314380D01*
X928880Y2314800D01*
X930460Y2314800D01*
X932180Y2314420D01*
X936740Y2312240D01*
X938900Y2310780D01*
X942420Y2309160D01*
X946140Y2308160D01*
X950000Y2307820D01*
X953860Y2308160D01*
X957580Y2309160D01*
X959100Y2309860D01*
X960660Y2310240D01*
X962240Y2309980D01*
X963580Y2309120D01*
X964479Y2307800D01*
X964800Y2306240D01*
X964800Y2260200D01*
X965120Y2257040D01*
X965980Y2254200D01*
X967380Y2251560D01*
X969400Y2249120D01*
X1094120Y2124400D01*
X1096560Y2122380D01*
X1099200Y2120980D01*
X1102040Y2120120D01*
X1105200Y2119800D01*
X1334800Y2119800D01*
X1337960Y2120120D01*
X1340800Y2120980D01*
X1343440Y2122380D01*
X1345880Y2124400D01*
X1440120Y2218620D01*
X1441420Y2219500D01*
X1442960Y2219800D01*
X2177040Y2219800D01*
X2178580Y2219500D01*
X2179880Y2218620D01*
X2218620Y2179880D01*
X2219500Y2178580D01*
X2219800Y2177040D01*
X2219800Y1762960D01*
X2219500Y1761420D01*
X2218620Y1760120D01*
X2184880Y1726380D01*
X2183580Y1725500D01*
X2182040Y1725200D01*
X1854500Y1725200D01*
X1853040Y1725480D01*
X1851759Y1726300D01*
X1850880Y1727500D01*
X1849220Y1731100D01*
X1847000Y1734259D01*
X1844259Y1737000D01*
X1841100Y1739220D01*
X1837580Y1740840D01*
X1833860Y1741840D01*
X1830000Y1742180D01*
X1826140Y1741840D01*
X1822420Y1740840D01*
X1818899Y1739220D01*
X1815740Y1737000D01*
X1813000Y1734259D01*
X1810780Y1731100D01*
X1809160Y1727580D01*
X1808160Y1723860D01*
X1807820Y1720000D01*
X1808160Y1716140D01*
X1809160Y1712420D01*
X1810780Y1708899D01*
X1813000Y1705740D01*
X1815740Y1703000D01*
X1818899Y1700780D01*
X1822420Y1699160D01*
X1826140Y1698160D01*
X1827220Y1698020D01*
X1831940Y1697000D01*
X1832980Y1696620D01*
X1834199Y1695980D01*
X1837040Y1695120D01*
X1840200Y1694800D01*
X2189800Y1694800D01*
X2192960Y1695120D01*
X2195800Y1695980D01*
X2198440Y1697380D01*
X2200880Y1699400D01*
X2242980Y1741480D01*
X2244260Y1742340D01*
X2245800Y1742640D01*
X2247340Y1742340D01*
X2248620Y1741480D01*
X2249500Y1740180D01*
X2249800Y1738640D01*
X2249800Y1482960D01*
X2249500Y1481420D01*
X2248620Y1480120D01*
X2094880Y1326380D01*
X2093580Y1325500D01*
X2092040Y1325200D01*
X1457960Y1325200D01*
X1456420Y1325500D01*
X1455120Y1326380D01*
X1401380Y1380120D01*
X1400500Y1381420D01*
X1400200Y1382960D01*
X1400200Y1432580D01*
X1400320Y1433580D01*
X1400700Y1434520D01*
X1403839Y1440180D01*
X1406080Y1443600D01*
X1407660Y1447220D01*
X1408640Y1451060D01*
X1408959Y1455000D01*
X1408640Y1458940D01*
X1407660Y1462780D01*
X1406080Y1466399D01*
X1403920Y1469720D01*
X1401240Y1472640D01*
X1398100Y1475060D01*
X1394620Y1476940D01*
X1390880Y1478240D01*
X1386980Y1478880D01*
X1383020Y1478880D01*
X1379120Y1478240D01*
X1375380Y1476940D01*
X1371900Y1475060D01*
X1368760Y1472640D01*
X1366080Y1469720D01*
X1363920Y1466399D01*
X1362340Y1462780D01*
X1361360Y1458940D01*
X1361040Y1455000D01*
X1361360Y1451060D01*
X1362340Y1447220D01*
X1363920Y1443600D01*
X1366300Y1439940D01*
X1369300Y1434520D01*
X1369680Y1433580D01*
X1369800Y1432580D01*
X1369800Y1375200D01*
X1370120Y1372040D01*
X1370980Y1369199D01*
X1372380Y1366560D01*
X1374400Y1364120D01*
X1439120Y1299400D01*
X1441560Y1297380D01*
X1444199Y1295980D01*
X1447040Y1295120D01*
X1450200Y1294800D01*
X1454139Y1294800D01*
X1455720Y1294460D01*
X1457060Y1293540D01*
X1457900Y1292140D01*
X1458120Y1290540D01*
X1457700Y1288980D01*
X1456680Y1287700D01*
X1454120Y1285600D01*
X1424500Y1255980D01*
X1422480Y1253540D01*
X1421080Y1250900D01*
X1420220Y1248060D01*
X1419900Y1244900D01*
X1419900Y1187180D01*
X1419520Y1185480D01*
X1418440Y1184100D01*
X1416879Y1183300D01*
X1415140Y1183260D01*
X1413540Y1183960D01*
X1410020Y1186600D01*
X1311000Y1285600D01*
X1308560Y1287620D01*
X1305920Y1289019D01*
X1303080Y1289880D01*
X1299920Y1290200D01*
X1232960Y1290200D01*
X1231420Y1290500D01*
X1230120Y1291380D01*
X1171380Y1350120D01*
X1170500Y1351420D01*
X1170200Y1352960D01*
X1170200Y1445460D01*
X1170580Y1447180D01*
X1172760Y1451740D01*
X1174220Y1453899D01*
X1175840Y1457420D01*
X1176840Y1461140D01*
X1177180Y1465000D01*
X1176840Y1468860D01*
X1175840Y1472580D01*
X1174220Y1476100D01*
X1172000Y1479259D01*
X1169260Y1482000D01*
X1166100Y1484220D01*
X1162580Y1485840D01*
X1158860Y1486840D01*
X1155000Y1487180D01*
X1151140Y1486840D01*
X1147420Y1485840D01*
X1143900Y1484220D01*
X1140740Y1482000D01*
X1138000Y1479259D01*
X1135780Y1476100D01*
X1134160Y1472580D01*
X1133160Y1468860D01*
X1132820Y1465000D01*
X1133160Y1461140D01*
X1134160Y1457420D01*
X1135780Y1453899D01*
X1137240Y1451740D01*
X1139420Y1447180D01*
X1139800Y1445460D01*
X1139800Y1345200D01*
X1140120Y1342040D01*
X1140980Y1339199D01*
X1142380Y1336560D01*
X1144400Y1334120D01*
X1208180Y1270320D01*
X1209120Y1268860D01*
X1209340Y1267140D01*
X1208800Y1265480D01*
X1207620Y1264200D01*
X1206020Y1263540D01*
X1204120Y1263240D01*
X1200380Y1261940D01*
X1196900Y1260060D01*
X1195360Y1258940D01*
X1189520Y1255700D01*
X1188580Y1255320D01*
X1187580Y1255200D01*
X1012960Y1255200D01*
X1011420Y1255500D01*
X1010120Y1256380D01*
X956380Y1310120D01*
X955500Y1311420D01*
X955200Y1312960D01*
X955200Y1479199D01*
X955560Y1480840D01*
X956540Y1482180D01*
X958000Y1483020D01*
X959659Y1483180D01*
X961260Y1482640D01*
X962480Y1481500D01*
X963000Y1480740D01*
X965740Y1478000D01*
X968900Y1475780D01*
X972420Y1474160D01*
X976140Y1473160D01*
X980000Y1472820D01*
X983860Y1473160D01*
X987580Y1474160D01*
X991100Y1475780D01*
X994260Y1478000D01*
X997000Y1480740D01*
X999220Y1483899D01*
X1000840Y1487420D01*
X1001840Y1491140D01*
X1002180Y1495000D01*
X1001840Y1498860D01*
X1000840Y1502580D01*
X999220Y1506100D01*
X997760Y1508260D01*
X995580Y1512820D01*
X995200Y1514540D01*
X995200Y1537040D01*
X995500Y1538580D01*
X996380Y1539880D01*
X1000120Y1543620D01*
X1001420Y1544500D01*
X1002960Y1544800D01*
X1405800Y1544800D01*
X1407340Y1544500D01*
X1408620Y1543620D01*
X1409500Y1542340D01*
X1409800Y1540800D01*
X1409800Y1530200D01*
X1410120Y1527040D01*
X1410980Y1524199D01*
X1412380Y1521560D01*
X1414400Y1519120D01*
X1464120Y1469400D01*
X1466560Y1467380D01*
X1469199Y1465980D01*
X1472040Y1465120D01*
X1475200Y1464800D01*
X1477940Y1464800D01*
X1479580Y1464460D01*
X1480920Y1463480D01*
X1481740Y1462040D01*
X1481920Y1460380D01*
X1481399Y1458800D01*
X1480300Y1457560D01*
X1476980Y1455160D01*
X1472800Y1451240D01*
X1469160Y1446819D01*
X1466080Y1441980D01*
X1463640Y1436800D01*
X1461879Y1431339D01*
X1460800Y1425720D01*
X1460440Y1420000D01*
X1460800Y1414280D01*
X1461879Y1408660D01*
X1463640Y1403200D01*
X1466080Y1398020D01*
X1469160Y1393180D01*
X1472800Y1388760D01*
X1476980Y1384840D01*
X1481620Y1381480D01*
X1486639Y1378720D01*
X1491960Y1376600D01*
X1497520Y1375180D01*
X1503200Y1374460D01*
X1508920Y1374460D01*
X1514620Y1375180D01*
X1520160Y1376600D01*
X1525480Y1378720D01*
X1530520Y1381480D01*
X1535140Y1384840D01*
X1539319Y1388760D01*
X1542980Y1393180D01*
X1546040Y1398020D01*
X1548480Y1403200D01*
X1550260Y1408660D01*
X1551320Y1414280D01*
X1551680Y1420000D01*
X1551320Y1425720D01*
X1550260Y1431339D01*
X1548480Y1436800D01*
X1546040Y1441980D01*
X1542980Y1446819D01*
X1539319Y1451240D01*
X1535140Y1455160D01*
X1531819Y1457560D01*
X1530720Y1458800D01*
X1530200Y1460380D01*
X1530380Y1462040D01*
X1531200Y1463480D01*
X1532560Y1464460D01*
X1534180Y1464800D01*
X1610460Y1464800D01*
X1612180Y1464420D01*
X1616740Y1462240D01*
X1618899Y1460780D01*
X1622420Y1459160D01*
X1626140Y1458160D01*
X1630000Y1457820D01*
X1633860Y1458160D01*
X1637580Y1459160D01*
X1641100Y1460780D01*
X1644259Y1463000D01*
X1647280Y1466060D01*
X1648600Y1466940D01*
X1650120Y1467240D01*
X1651660Y1466940D01*
X1652960Y1466060D01*
X1653839Y1464740D01*
X1654280Y1463660D01*
X1657820Y1456900D01*
X1662020Y1450520D01*
X1666800Y1444560D01*
X1672140Y1439079D01*
X1677980Y1434160D01*
X1684259Y1429820D01*
X1690940Y1426100D01*
X1697960Y1423040D01*
X1705220Y1420680D01*
X1712680Y1419040D01*
X1720280Y1418120D01*
X1727920Y1417920D01*
X1735540Y1418480D01*
X1743060Y1419760D01*
X1750440Y1421780D01*
X1757580Y1424480D01*
X1764440Y1427880D01*
X1770940Y1431900D01*
X1777000Y1436540D01*
X1782600Y1441759D01*
X1787660Y1447480D01*
X1792160Y1453660D01*
X1796040Y1460240D01*
X1799259Y1467180D01*
X1801800Y1474379D01*
X1803620Y1481800D01*
X1804720Y1489360D01*
X1805100Y1497000D01*
X1804720Y1504640D01*
X1803620Y1512200D01*
X1801800Y1519620D01*
X1799259Y1526819D01*
X1796040Y1533760D01*
X1792160Y1540340D01*
X1787660Y1546519D01*
X1782600Y1552240D01*
X1777000Y1557460D01*
X1770940Y1562100D01*
X1764440Y1566120D01*
X1757580Y1569520D01*
X1750440Y1572220D01*
X1743060Y1574220D01*
X1735540Y1575520D01*
X1727920Y1576080D01*
X1720280Y1575880D01*
X1712680Y1574960D01*
X1705220Y1573320D01*
X1697960Y1570960D01*
X1690940Y1567900D01*
X1684259Y1564180D01*
X1677980Y1559840D01*
X1672140Y1554920D01*
X1666800Y1549440D01*
X1662320Y1543880D01*
X1661060Y1542840D01*
X1659480Y1542380D01*
X1657880Y1542600D01*
X1656480Y1543440D01*
X1655540Y1544780D01*
X1655200Y1546380D01*
X1655200Y1590460D01*
X1655580Y1592180D01*
X1657760Y1596740D01*
X1659220Y1598899D01*
X1660840Y1602420D01*
X1661840Y1606140D01*
X1662180Y1610000D01*
X1661840Y1613860D01*
X1660840Y1617580D01*
X1659220Y1621100D01*
X1657000Y1624259D01*
X1654259Y1627000D01*
X1651100Y1629220D01*
X1647580Y1630840D01*
X1643860Y1631840D01*
X1640000Y1632180D01*
X1636140Y1631840D01*
X1632420Y1630840D01*
X1628899Y1629220D01*
X1625740Y1627000D01*
X1623000Y1624259D01*
X1620780Y1621100D01*
X1619160Y1617580D01*
X1618160Y1613860D01*
X1617820Y1610000D01*
X1618160Y1606140D01*
X1619160Y1602420D01*
X1620780Y1598899D01*
X1622240Y1596740D01*
X1624420Y1592180D01*
X1624800Y1590460D01*
X1624800Y1565800D01*
X1624440Y1564160D01*
X1623460Y1562820D01*
X1622000Y1561980D01*
X1620340Y1561819D01*
X1618740Y1562360D01*
X1617520Y1563500D01*
X1617000Y1564259D01*
X1614259Y1567000D01*
X1611100Y1569220D01*
X1607580Y1570840D01*
X1603860Y1571840D01*
X1600000Y1572180D01*
X1596140Y1571840D01*
X1592420Y1570840D01*
X1588899Y1569220D01*
X1585740Y1567000D01*
X1583000Y1564259D01*
X1580780Y1561100D01*
X1579160Y1557580D01*
X1577940Y1552820D01*
X1576380Y1548420D01*
X1575440Y1546920D01*
X1569880Y1541380D01*
X1568580Y1540500D01*
X1567040Y1540200D01*
X1502960Y1540200D01*
X1501420Y1540500D01*
X1500120Y1541380D01*
X1491380Y1550120D01*
X1490500Y1551420D01*
X1490200Y1552960D01*
X1490200Y1579800D01*
X1489880Y1582960D01*
X1489019Y1585800D01*
X1487620Y1588440D01*
X1485600Y1590880D01*
X1460880Y1615600D01*
X1458440Y1617620D01*
X1455800Y1619019D01*
X1452960Y1619880D01*
X1449800Y1620200D01*
X1301360Y1620200D01*
X1299820Y1620500D01*
X1298520Y1621380D01*
X1297660Y1622660D01*
X1297360Y1624199D01*
X1297660Y1625740D01*
X1298520Y1627020D01*
X1440600Y1769120D01*
X1442620Y1771560D01*
X1444019Y1774199D01*
X1444880Y1777040D01*
X1445200Y1780200D01*
X1445200Y1904800D01*
X1444880Y1907960D01*
X1444019Y1910800D01*
X1442620Y1913440D01*
X1440600Y1915880D01*
X1390880Y1965600D01*
X1388440Y1967620D01*
X1385800Y1969019D01*
X1382960Y1969880D01*
X1379800Y1970200D01*
X1317960Y1970200D01*
X1316420Y1970500D01*
X1315120Y1971380D01*
X1281600Y2004900D01*
X1280980Y2005680D01*
X1280580Y2006620D01*
X1278820Y2012780D01*
X1278640Y2013940D01*
X1277660Y2017780D01*
X1276080Y2021399D01*
X1273920Y2024720D01*
X1271240Y2027640D01*
X1268100Y2030060D01*
X1264620Y2031940D01*
X1260880Y2033240D01*
X1258100Y2033720D01*
X1253100Y2035160D01*
X1251600Y2035980D01*
X1250560Y2037340D01*
X1250200Y2039000D01*
X1250200Y2067040D01*
X1250500Y2068580D01*
X1251380Y2069880D01*
X1260120Y2078620D01*
X1261420Y2079500D01*
X1262960Y2079800D01*
X1399800Y2079800D01*
X1402960Y2080120D01*
X1405800Y2080980D01*
X1408440Y2082380D01*
X1410880Y2084400D01*
X1470120Y2143620D01*
X1471420Y2144500D01*
X1472960Y2144800D01*
X1497580Y2144800D01*
X1498580Y2144680D01*
X1499520Y2144300D01*
X1505360Y2141060D01*
X1506900Y2139940D01*
X1510380Y2138060D01*
X1514120Y2136760D01*
X1518020Y2136120D01*
X1521980Y2136120D01*
X1525880Y2136760D01*
X1529620Y2138060D01*
X1533100Y2139940D01*
X1534640Y2141060D01*
X1540480Y2144300D01*
X1541420Y2144680D01*
X1542420Y2144800D01*
X1547040Y2144800D01*
X1548580Y2144500D01*
X1549880Y2143620D01*
X1606480Y2087020D01*
X1607340Y2085740D01*
X1607640Y2084199D01*
X1607340Y2082660D01*
X1606480Y2081380D01*
X1605180Y2080500D01*
X1603640Y2080200D01*
X1572420Y2080200D01*
X1571420Y2080320D01*
X1570480Y2080700D01*
X1564640Y2083940D01*
X1563100Y2085060D01*
X1559620Y2086940D01*
X1555880Y2088240D01*
X1551980Y2088880D01*
X1548020Y2088880D01*
X1544120Y2088240D01*
X1540380Y2086940D01*
X1536900Y2085060D01*
X1533760Y2082640D01*
X1531080Y2079720D01*
X1528920Y2076399D01*
X1527340Y2072780D01*
X1526360Y2068940D01*
X1526040Y2065000D01*
X1526360Y2061060D01*
X1527340Y2057220D01*
X1528920Y2053600D01*
X1531080Y2050280D01*
X1533760Y2047360D01*
X1536900Y2044940D01*
X1540380Y2043060D01*
X1544120Y2041759D01*
X1548020Y2041120D01*
X1551980Y2041120D01*
X1555880Y2041759D01*
X1559620Y2043060D01*
X1563100Y2044940D01*
X1564640Y2046060D01*
X1570480Y2049300D01*
X1571420Y2049680D01*
X1572420Y2049800D01*
X1617040Y2049800D01*
X1618580Y2049500D01*
X1619880Y2048620D01*
X1633620Y2034880D01*
X1634500Y2033580D01*
X1634800Y2032040D01*
X1634800Y1955200D01*
X1635120Y1952040D01*
X1635980Y1949199D01*
X1637380Y1946560D01*
X1639400Y1944120D01*
X1678620Y1904880D01*
X1679500Y1903580D01*
X1679800Y1902040D01*
X1679800Y1820200D01*
X1680120Y1817040D01*
X1680980Y1814199D01*
X1682380Y1811560D01*
X1684400Y1809120D01*
X1709120Y1784400D01*
X1711560Y1782380D01*
X1714199Y1780980D01*
X1717040Y1780120D01*
X1720200Y1779800D01*
X1839800Y1779800D01*
X1842960Y1780120D01*
X1845800Y1780980D01*
X1848440Y1782380D01*
X1850880Y1784400D01*
X1870600Y1804120D01*
X1872620Y1806560D01*
X1874019Y1809199D01*
X1874880Y1812040D01*
X1875200Y1815200D01*
X1875200Y1997040D01*
X1875500Y1998580D01*
X1876380Y1999880D01*
X1900120Y2023620D01*
X1901420Y2024500D01*
X1902960Y2024800D01*
X1967580Y2024800D01*
X1968580Y2024680D01*
X1969520Y2024300D01*
X1975360Y2021060D01*
X1976900Y2019940D01*
X1980380Y2018060D01*
X1984120Y2016759D01*
X1988020Y2016120D01*
X1991980Y2016120D01*
X1995880Y2016759D01*
X1999620Y2018060D01*
X2003100Y2019940D01*
X2006240Y2022360D01*
X2008920Y2025280D01*
X2011080Y2028600D01*
X2012660Y2032220D01*
X2013640Y2036060D01*
X2013959Y2040000D01*
X2013640Y2043940D01*
X2012660Y2047780D01*
X2011080Y2051399D01*
X2008920Y2054720D01*
X2006240Y2057640D01*
X2003100Y2060060D01*
X1999620Y2061940D01*
X1995880Y2063240D01*
X1991980Y2063880D01*
X1988020Y2063880D01*
X1984120Y2063240D01*
X1980380Y2061940D01*
X1976900Y2060060D01*
X1975360Y2058940D01*
X1969520Y2055700D01*
X1968580Y2055320D01*
X1967580Y2055200D01*
X1895200Y2055200D01*
X1892040Y2054880D01*
X1889199Y2054019D01*
X1886560Y2052620D01*
X1884120Y2050600D01*
X1849400Y2015880D01*
X1847380Y2013440D01*
X1845980Y2010800D01*
X1845120Y2007960D01*
X1844800Y2004800D01*
X1844800Y1822960D01*
X1844500Y1821420D01*
X1843620Y1820120D01*
X1834880Y1811380D01*
X1833580Y1810500D01*
X1832040Y1810200D01*
X1727960Y1810200D01*
X1726420Y1810500D01*
X1725120Y1811380D01*
X1711380Y1825120D01*
X1710500Y1826420D01*
X1710200Y1827960D01*
X1710200Y1909800D01*
X1709880Y1912960D01*
X1709019Y1915800D01*
X1707620Y1918440D01*
X1705600Y1920880D01*
X1666380Y1960120D01*
X1665500Y1961420D01*
X1665200Y1962960D01*
X1665200Y2006420D01*
X1665520Y2007980D01*
X1666420Y2009300D01*
X1667740Y2010160D01*
X1669319Y2010420D01*
X1670860Y2010060D01*
X1672140Y2009139D01*
X1673760Y2007360D01*
X1676900Y2004940D01*
X1680380Y2003060D01*
X1684120Y2001759D01*
X1688020Y2001120D01*
X1691980Y2001120D01*
X1695880Y2001759D01*
X1699620Y2003060D01*
X1701740Y2004199D01*
X1703440Y2004680D01*
X1709120Y2004960D01*
X1714920Y2004960D01*
X1716740Y2005040D01*
X1718480Y2005260D01*
X1720180Y2005640D01*
X1721860Y2006160D01*
X1723460Y2006840D01*
X1725020Y2007640D01*
X1726500Y2008580D01*
X1727880Y2009640D01*
X1729240Y2010880D01*
X1764120Y2045760D01*
X1765360Y2047120D01*
X1766420Y2048500D01*
X1767360Y2049980D01*
X1768160Y2051540D01*
X1768839Y2053140D01*
X1769360Y2054820D01*
X1769740Y2056519D01*
X1769960Y2058260D01*
X1770040Y2060080D01*
X1770040Y2165900D01*
X1770320Y2171420D01*
X1770500Y2172460D01*
X1771080Y2173600D01*
X1772660Y2177220D01*
X1773640Y2181060D01*
X1773959Y2185000D01*
X1773640Y2188940D01*
X1772660Y2192780D01*
X1771080Y2196400D01*
X1768920Y2199720D01*
X1766240Y2202640D01*
X1763100Y2205060D01*
X1759620Y2206940D01*
X1755880Y2208240D01*
X1751980Y2208880D01*
X1748020Y2208880D01*
X1744120Y2208240D01*
X1740380Y2206940D01*
X1736900Y2205060D01*
X1733760Y2202640D01*
X1731080Y2199720D01*
X1728920Y2196400D01*
X1727340Y2192780D01*
X1726360Y2188940D01*
X1726040Y2185000D01*
X1726360Y2181060D01*
X1727340Y2177220D01*
X1729480Y2172480D01*
X1729680Y2171440D01*
X1729960Y2165880D01*
X1729960Y2069960D01*
X1729660Y2068420D01*
X1728779Y2067140D01*
X1708060Y2046399D01*
X1706680Y2045500D01*
X1705040Y2045240D01*
X1703460Y2045320D01*
X1701759Y2045800D01*
X1699620Y2046940D01*
X1695880Y2048240D01*
X1693100Y2048720D01*
X1686620Y2050580D01*
X1685680Y2050980D01*
X1684900Y2051600D01*
X1565880Y2170600D01*
X1563440Y2172620D01*
X1560800Y2174020D01*
X1557960Y2174880D01*
X1554800Y2175200D01*
X1542420Y2175200D01*
X1541420Y2175320D01*
X1540480Y2175700D01*
X1534640Y2178940D01*
X1533100Y2180060D01*
X1529620Y2181940D01*
X1525880Y2183240D01*
X1521980Y2183880D01*
X1518020Y2183880D01*
X1514120Y2183240D01*
X1510380Y2181940D01*
X1506900Y2180060D01*
X1505360Y2178940D01*
X1499520Y2175700D01*
X1498580Y2175320D01*
X1497580Y2175200D01*
X1465200Y2175200D01*
X1462040Y2174880D01*
X1459199Y2174020D01*
X1456560Y2172620D01*
X1454120Y2170600D01*
X1394880Y2111380D01*
X1393580Y2110500D01*
X1392040Y2110200D01*
X1255200Y2110200D01*
X1252040Y2109880D01*
X1249200Y2109020D01*
X1246560Y2107620D01*
X1244120Y2105600D01*
X1224400Y2085880D01*
X1222380Y2083440D01*
X1220980Y2080800D01*
X1220120Y2077960D01*
X1219800Y2074800D01*
X1219800Y2030200D01*
X1220120Y2027040D01*
X1220980Y2024199D01*
X1222380Y2021560D01*
X1224400Y2019120D01*
X1228400Y2015100D01*
X1229020Y2014319D01*
X1229420Y2013380D01*
X1231180Y2007220D01*
X1231360Y2006060D01*
X1232340Y2002220D01*
X1233920Y1998600D01*
X1236080Y1995280D01*
X1238760Y1992360D01*
X1241900Y1989940D01*
X1245380Y1988060D01*
X1249120Y1986759D01*
X1251900Y1986279D01*
X1258380Y1984420D01*
X1259320Y1984019D01*
X1260100Y1983400D01*
X1291480Y1952020D01*
X1292340Y1950740D01*
X1292640Y1949199D01*
X1292340Y1947660D01*
X1291480Y1946380D01*
X1290180Y1945500D01*
X1288640Y1945200D01*
X1082960Y1945200D01*
X1081420Y1945500D01*
X1080120Y1946380D01*
X1066380Y1960120D01*
X1065500Y1961420D01*
X1065200Y1962960D01*
X1065200Y2059800D01*
X1064880Y2062960D01*
X1064020Y2065800D01*
X1062620Y2068440D01*
X1060600Y2070880D01*
X1020879Y2110600D01*
X1018439Y2112620D01*
X1015800Y2114020D01*
X1012960Y2114880D01*
X1009800Y2115200D01*
X913760Y2115200D01*
X912200Y2115520D01*
X910879Y2116420D01*
X910020Y2117760D01*
X909760Y2119340D01*
X910140Y2120900D01*
X910840Y2122420D01*
X911840Y2126140D01*
X912180Y2130000D01*
X911840Y2133860D01*
X910840Y2137580D01*
X909220Y2141100D01*
X907000Y2144260D01*
X904260Y2147000D01*
X901100Y2149220D01*
X897580Y2150840D01*
X893860Y2151840D01*
X890000Y2152180D01*
X886140Y2151840D01*
X882420Y2150840D01*
X878900Y2149220D01*
X876740Y2147760D01*
X872180Y2145580D01*
X870460Y2145200D01*
X415980Y2145200D01*
X414620Y2145440D01*
X413420Y2146120D01*
X396540Y2160200D01*
X395720Y2160780D01*
X393840Y2162360D01*
X389320Y2165240D01*
X384440Y2167500D01*
X379320Y2169100D01*
X374020Y2170000D01*
X368660Y2170160D01*
X363320Y2169640D01*
X358100Y2168380D01*
X353080Y2166460D01*
X348380Y2163880D01*
X344060Y2160700D01*
X340200Y2156960D01*
X336860Y2152740D01*
X334120Y2148120D01*
X332040Y2143180D01*
X330620Y2138000D01*
X329900Y2132680D01*
X329900Y2127320D01*
X330620Y2122000D01*
X332040Y2116820D01*
X334120Y2111880D01*
X336860Y2107260D01*
X340200Y2103040D01*
X344060Y2099300D01*
X348380Y2096120D01*
X353080Y2093540D01*
X358100Y2091620D01*
X363320Y2090360D01*
X368660Y2089840D01*
X374020Y2090020D01*
X379320Y2090900D01*
X384440Y2092500D01*
X389320Y2094760D01*
X393840Y2097640D01*
X396560Y2099820D01*
X413420Y2113880D01*
X414620Y2114560D01*
X415980Y2114800D01*
X608640Y2114800D01*
X610180Y2114500D01*
X611480Y2113620D01*
X612340Y2112340D01*
X612640Y2110800D01*
X612340Y2109260D01*
X611480Y2107980D01*
X575100Y2071600D01*
X574320Y2070980D01*
X573380Y2070580D01*
X566460Y2068620D01*
X564120Y2068240D01*
X560380Y2066940D01*
X556900Y2065060D01*
X553760Y2062640D01*
X551080Y2059720D01*
X548920Y2056399D01*
X547340Y2052780D01*
X546360Y2048940D01*
X546040Y2045000D01*
X546360Y2041060D01*
X547340Y2037220D01*
X548920Y2033600D01*
X551080Y2030280D01*
X553760Y2027360D01*
X556900Y2024940D01*
X560380Y2023060D01*
X564120Y2021759D01*
X568020Y2021120D01*
X571980Y2021120D01*
X575880Y2021759D01*
X580060Y2023240D01*
X581800Y2023440D01*
X583460Y2022880D01*
X584720Y2021660D01*
X585340Y2020040D01*
X584800Y2014800D01*
X584800Y1995200D01*
X585120Y1992040D01*
X585980Y1989199D01*
X587380Y1986560D01*
X589400Y1984120D01*
X631480Y1942020D01*
X632340Y1940740D01*
X632640Y1939199D01*
X632340Y1937660D01*
X631480Y1936380D01*
X630180Y1935500D01*
X628640Y1935200D01*
X565200Y1935200D01*
X562040Y1934880D01*
X559200Y1934019D01*
X556560Y1932620D01*
X554120Y1930600D01*
X529400Y1905880D01*
X527380Y1903440D01*
X525980Y1900800D01*
X525120Y1897960D01*
X524800Y1894800D01*
X524800Y1862960D01*
X524500Y1861420D01*
X523620Y1860120D01*
X509880Y1846380D01*
X508579Y1845500D01*
X507040Y1845200D01*
X415980Y1845200D01*
X414620Y1845440D01*
X413420Y1846120D01*
X396540Y1860200D01*
X395720Y1860780D01*
X393840Y1862360D01*
X389320Y1865240D01*
X384440Y1867500D01*
X379320Y1869100D01*
X374020Y1870000D01*
X368660Y1870160D01*
X363320Y1869640D01*
X358100Y1868380D01*
X353080Y1866459D01*
X348380Y1863880D01*
X344060Y1860700D01*
X340200Y1856960D01*
X336860Y1852740D01*
X334120Y1848120D01*
X332040Y1843180D01*
X330620Y1838000D01*
X329900Y1832680D01*
X329900Y1827320D01*
X330620Y1822000D01*
X332040Y1816819D01*
X334120Y1811879D01*
X336860Y1807260D01*
X340200Y1803040D01*
X344060Y1799300D01*
X348380Y1796120D01*
X353080Y1793540D01*
X358100Y1791620D01*
X363320Y1790360D01*
X368660Y1789840D01*
X374020Y1790020D01*
X379320Y1790900D01*
X384440Y1792500D01*
X389320Y1794760D01*
X393840Y1797640D01*
X396560Y1799820D01*
X413420Y1813880D01*
X414620Y1814560D01*
X415980Y1814800D01*
X514799Y1814800D01*
X517960Y1815120D01*
X520800Y1815980D01*
X523440Y1817380D01*
X525880Y1819400D01*
X542980Y1836480D01*
X544260Y1837340D01*
X545800Y1837640D01*
X547340Y1837340D01*
X548620Y1836480D01*
X549500Y1835180D01*
X549800Y1833640D01*
X549800Y1787960D01*
X549500Y1786420D01*
X548620Y1785120D01*
X509880Y1746380D01*
X508579Y1745500D01*
X507040Y1745200D01*
X415980Y1745200D01*
X414620Y1745440D01*
X413420Y1746120D01*
X396540Y1760200D01*
X395720Y1760780D01*
X393840Y1762360D01*
X389320Y1765240D01*
X384440Y1767500D01*
X379320Y1769100D01*
X374020Y1770000D01*
X368660Y1770160D01*
X363320Y1769640D01*
X358100Y1768380D01*
X353080Y1766459D01*
X348380Y1763880D01*
X344060Y1760700D01*
X340200Y1756960D01*
X336860Y1752740D01*
X334120Y1748120D01*
X332040Y1743180D01*
X330620Y1738000D01*
X329900Y1732680D01*
X329900Y1727320D01*
X330620Y1722000D01*
X332040Y1716819D01*
X334120Y1711879D01*
X336860Y1707260D01*
X340200Y1703040D01*
X344060Y1699300D01*
X348380Y1696120D01*
X353080Y1693540D01*
X358100Y1691620D01*
X363320Y1690360D01*
X368660Y1689840D01*
X374020Y1690020D01*
X379320Y1690900D01*
X384440Y1692500D01*
X389320Y1694760D01*
X393840Y1697640D01*
X396560Y1699820D01*
X413420Y1713880D01*
X414620Y1714560D01*
X415980Y1714800D01*
X514799Y1714800D01*
X517960Y1715120D01*
X520800Y1715980D01*
X523440Y1717380D01*
X525880Y1719400D01*
X575600Y1769120D01*
X577620Y1771560D01*
X579020Y1774199D01*
X579880Y1777040D01*
X580200Y1780200D01*
X580200Y1877040D01*
X580500Y1878580D01*
X581380Y1879880D01*
X585120Y1883620D01*
X586420Y1884500D01*
X587960Y1884800D01*
X627040Y1884800D01*
X628580Y1884500D01*
X629880Y1883620D01*
X638620Y1874880D01*
X639500Y1873580D01*
X639800Y1872040D01*
X639800Y1844540D01*
X639420Y1842820D01*
X637240Y1838260D01*
X635780Y1836100D01*
X634160Y1832580D01*
X633160Y1828860D01*
X632820Y1825000D01*
X633160Y1821140D01*
X634160Y1817420D01*
X635780Y1813899D01*
X638000Y1810740D01*
X640740Y1808000D01*
X643900Y1805780D01*
X647420Y1804160D01*
X651140Y1803160D01*
X655000Y1802820D01*
X658860Y1803160D01*
X662580Y1804160D01*
X666100Y1805780D01*
X669260Y1808000D01*
X672000Y1810740D01*
X674220Y1813899D01*
X675840Y1817420D01*
X676840Y1821140D01*
X677140Y1824480D01*
X677580Y1825980D01*
X678560Y1827200D01*
X679920Y1827960D01*
X681480Y1828120D01*
X685000Y1827820D01*
X688860Y1828160D01*
X689760Y1828400D01*
X691220Y1828520D01*
X692620Y1828100D01*
X693780Y1827200D01*
X694539Y1825960D01*
X694800Y1824540D01*
X694800Y1617960D01*
X694500Y1616420D01*
X693620Y1615120D01*
X619400Y1540880D01*
X617380Y1538440D01*
X615980Y1535800D01*
X615120Y1532960D01*
X614800Y1529800D01*
X614800Y1160200D01*
X615120Y1157040D01*
X615980Y1154200D01*
X617380Y1151560D01*
X619400Y1149120D01*
X628400Y1140100D01*
X629020Y1139320D01*
X629420Y1138380D01*
X631180Y1132220D01*
X631360Y1131060D01*
X632340Y1127220D01*
X633920Y1123600D01*
X636080Y1120280D01*
X638760Y1117360D01*
X641900Y1114940D01*
X645380Y1113060D01*
X649120Y1111760D01*
X653020Y1111120D01*
X656979Y1111120D01*
X660879Y1111760D01*
X664620Y1113060D01*
X668100Y1114940D01*
X671240Y1117360D01*
X673920Y1120280D01*
X676080Y1123600D01*
X677660Y1127220D01*
X678640Y1131060D01*
X678960Y1135000D01*
X678640Y1138940D01*
X677660Y1142780D01*
X676080Y1146400D01*
X673920Y1149720D01*
X671240Y1152640D01*
X668100Y1155060D01*
X664620Y1156940D01*
X660879Y1158240D01*
X658100Y1158720D01*
X651620Y1160580D01*
X650680Y1160980D01*
X649900Y1161600D01*
X646380Y1165120D01*
X645500Y1166420D01*
X645200Y1167960D01*
X645200Y1522040D01*
X645500Y1523580D01*
X646380Y1524880D01*
X654200Y1532700D01*
X655440Y1533560D01*
X656919Y1533880D01*
X658400Y1533640D01*
X659700Y1532860D01*
X660620Y1531660D01*
X661020Y1530200D01*
X661360Y1526060D01*
X662340Y1522220D01*
X663920Y1518600D01*
X666080Y1515280D01*
X668760Y1512360D01*
X671900Y1509940D01*
X675380Y1508060D01*
X679120Y1506759D01*
X683020Y1506120D01*
X686979Y1506120D01*
X690879Y1506759D01*
X694620Y1508060D01*
X698100Y1509940D01*
X701240Y1512360D01*
X703920Y1515280D01*
X706080Y1518600D01*
X707660Y1522220D01*
X708640Y1526060D01*
X708820Y1527220D01*
X710580Y1533380D01*
X710980Y1534319D01*
X711600Y1535100D01*
X742980Y1566480D01*
X744260Y1567340D01*
X745800Y1567640D01*
X747340Y1567340D01*
X748620Y1566480D01*
X749500Y1565180D01*
X749800Y1563640D01*
X749800Y1227420D01*
X749680Y1226420D01*
X749300Y1225480D01*
X746160Y1219820D01*
X743920Y1216400D01*
X742340Y1212780D01*
X741360Y1208940D01*
X741040Y1205000D01*
X741360Y1201060D01*
X742340Y1197220D01*
X743920Y1193600D01*
X746080Y1190280D01*
X748760Y1187360D01*
X751900Y1184940D01*
X755380Y1183060D01*
X759120Y1181760D01*
X760680Y1181140D01*
X761860Y1179920D01*
X762420Y1178340D01*
X762280Y1176660D01*
X761460Y1175180D01*
X760100Y1174180D01*
X758460Y1173820D01*
X746200Y1173820D01*
X743720Y1173540D01*
X741560Y1172780D01*
X739640Y1171580D01*
X738020Y1169960D01*
X736820Y1168040D01*
X736060Y1165880D01*
X735780Y1163400D01*
X735780Y1154320D01*
X777940Y1154320D01*
X777940Y1173820D01*
X771540Y1173820D01*
X769900Y1174180D01*
X768540Y1175180D01*
X767720Y1176660D01*
X767580Y1178340D01*
X768139Y1179920D01*
X769320Y1181140D01*
X770879Y1181760D01*
X774620Y1183060D01*
X778100Y1184940D01*
X781240Y1187360D01*
X783920Y1190280D01*
X786080Y1193600D01*
X787660Y1197220D01*
X788640Y1201060D01*
X788960Y1205000D01*
X788640Y1208940D01*
X788500Y1209480D01*
X788439Y1211200D01*
X789120Y1212800D01*
X790400Y1213940D01*
X792039Y1214460D01*
X793760Y1214220D01*
X795200Y1213300D01*
X798400Y1210100D01*
X799020Y1209320D01*
X799419Y1208380D01*
X801180Y1202220D01*
X801360Y1201060D01*
X802340Y1197220D01*
X803920Y1193600D01*
X806080Y1190280D01*
X808760Y1187360D01*
X811900Y1184940D01*
X815380Y1183060D01*
X819120Y1181760D01*
X823020Y1181120D01*
X826979Y1181120D01*
X830879Y1181760D01*
X834620Y1183060D01*
X838100Y1184940D01*
X841240Y1187360D01*
X843920Y1190280D01*
X846080Y1193600D01*
X847660Y1197220D01*
X848700Y1201260D01*
X849440Y1202760D01*
X850720Y1203820D01*
X852340Y1204280D01*
X854000Y1204020D01*
X855400Y1203100D01*
X877860Y1180660D01*
X878720Y1179360D01*
X879020Y1177820D01*
X878720Y1176300D01*
X877860Y1175000D01*
X876560Y1174120D01*
X875020Y1173820D01*
X851820Y1173820D01*
X851820Y1154320D01*
X890800Y1154320D01*
X892340Y1154000D01*
X893620Y1153140D01*
X894500Y1151840D01*
X894800Y1150320D01*
X894800Y1129680D01*
X894500Y1128160D01*
X893620Y1126860D01*
X892340Y1126000D01*
X890800Y1125680D01*
X851820Y1125680D01*
X851820Y1115100D01*
X851460Y1113400D01*
X850400Y1112040D01*
X848860Y1111240D01*
X847420Y1110840D01*
X843900Y1109220D01*
X840740Y1107000D01*
X838000Y1104260D01*
X835780Y1101100D01*
X834160Y1097580D01*
X832940Y1092820D01*
X831380Y1088420D01*
X830440Y1086920D01*
X819880Y1076380D01*
X818580Y1075500D01*
X817039Y1075200D01*
X452960Y1075200D01*
X451420Y1075500D01*
X450120Y1076380D01*
X426380Y1100120D01*
X425500Y1101420D01*
X425200Y1102960D01*
X425200Y1137580D01*
X425319Y1138580D01*
X425700Y1139520D01*
X428840Y1145180D01*
X431079Y1148600D01*
X432660Y1152220D01*
X433640Y1156060D01*
X433960Y1160000D01*
X433640Y1163940D01*
X432660Y1167780D01*
X431079Y1171400D01*
X428920Y1174720D01*
X426240Y1177640D01*
X423100Y1180060D01*
X419620Y1181940D01*
X415880Y1183240D01*
X411980Y1183880D01*
X408020Y1183880D01*
X404120Y1183240D01*
X400379Y1181940D01*
X396900Y1180060D01*
X393760Y1177640D01*
X391079Y1174720D01*
X388920Y1171400D01*
X387340Y1167780D01*
X386360Y1163940D01*
X386040Y1160000D01*
X386360Y1156060D01*
X387340Y1152220D01*
X388920Y1148600D01*
X391300Y1144940D01*
X394300Y1139520D01*
X394680Y1138580D01*
X394799Y1137580D01*
X394799Y1095200D01*
X395120Y1092040D01*
X395980Y1089200D01*
X397380Y1086560D01*
X399400Y1084120D01*
X434120Y1049400D01*
X436560Y1047380D01*
X439200Y1045980D01*
X442040Y1045120D01*
X445200Y1044800D01*
X824800Y1044800D01*
X827960Y1045120D01*
X830800Y1045980D01*
X833439Y1047380D01*
X835879Y1049400D01*
X851919Y1065440D01*
X853420Y1066380D01*
X857820Y1067940D01*
X862580Y1069160D01*
X866100Y1070780D01*
X869260Y1073000D01*
X872000Y1075740D01*
X874220Y1078900D01*
X875840Y1082420D01*
X876840Y1086140D01*
X877180Y1090000D01*
X876840Y1093860D01*
X875840Y1097580D01*
X874500Y1100480D01*
X874120Y1102040D01*
X874380Y1103620D01*
X875240Y1104960D01*
X876560Y1105860D01*
X878120Y1106180D01*
X883560Y1106180D01*
X886040Y1106460D01*
X888199Y1107220D01*
X888680Y1107520D01*
X890260Y1108080D01*
X891960Y1107960D01*
X893439Y1107140D01*
X894440Y1105780D01*
X894800Y1104120D01*
X894800Y965200D01*
X895120Y962039D01*
X895980Y959200D01*
X897380Y956560D01*
X899400Y954120D01*
X939120Y914400D01*
X941560Y912380D01*
X944200Y910980D01*
X947039Y910120D01*
X950200Y909800D01*
X957740Y909800D01*
X959340Y909479D01*
X960660Y908540D01*
X975020Y893319D01*
X979080Y889380D01*
X983400Y886200D01*
X988100Y883620D01*
X993120Y881680D01*
X998340Y880440D01*
X1003680Y879900D01*
X1009040Y880080D01*
X1014340Y880980D01*
X1019460Y882560D01*
X1024340Y884820D01*
X1028860Y887720D01*
X1032960Y891180D01*
X1036560Y895160D01*
X1039599Y899580D01*
X1042020Y904380D01*
X1043780Y909440D01*
X1044860Y914720D01*
X1045220Y920060D01*
X1044860Y925420D01*
X1043780Y930680D01*
X1042020Y935759D01*
X1039599Y940540D01*
X1036560Y944980D01*
X1032960Y948960D01*
X1028860Y952420D01*
X1024340Y955320D01*
X1019460Y957580D01*
X1014340Y959160D01*
X1009040Y960060D01*
X1003680Y960240D01*
X998340Y959700D01*
X993120Y958460D01*
X988100Y956520D01*
X983300Y953900D01*
X963080Y940840D01*
X962039Y940360D01*
X960920Y940200D01*
X957960Y940200D01*
X956420Y940500D01*
X955120Y941380D01*
X926380Y970120D01*
X925500Y971420D01*
X925200Y972960D01*
X925200Y1169800D01*
X924880Y1172960D01*
X924020Y1175800D01*
X922620Y1178440D01*
X920600Y1180880D01*
X890260Y1211240D01*
X889419Y1212480D01*
X889080Y1213960D01*
X889320Y1215440D01*
X890100Y1216720D01*
X891280Y1217640D01*
X892740Y1218060D01*
X893860Y1218160D01*
X897580Y1219160D01*
X901100Y1220780D01*
X904260Y1223000D01*
X907000Y1225740D01*
X908740Y1228240D01*
X910020Y1229400D01*
X911680Y1229940D01*
X913379Y1229700D01*
X914860Y1228780D01*
X962980Y1180660D01*
X963840Y1179360D01*
X964140Y1177820D01*
X963840Y1176300D01*
X962980Y1175000D01*
X961680Y1174120D01*
X960140Y1173820D01*
X956440Y1173820D01*
X953960Y1173540D01*
X951800Y1172780D01*
X949880Y1171580D01*
X948259Y1169960D01*
X947060Y1168040D01*
X946300Y1165880D01*
X946020Y1163400D01*
X946020Y1116600D01*
X946300Y1114120D01*
X947060Y1111960D01*
X948259Y1110040D01*
X949880Y1108420D01*
X951800Y1107220D01*
X953960Y1106460D01*
X956440Y1106180D01*
X1093800Y1106180D01*
X1096280Y1106460D01*
X1098440Y1107220D01*
X1100360Y1108420D01*
X1101980Y1110040D01*
X1103180Y1111960D01*
X1103940Y1114120D01*
X1104220Y1116600D01*
X1104220Y1163400D01*
X1103940Y1165880D01*
X1103180Y1168040D01*
X1101980Y1169960D01*
X1100360Y1171580D01*
X1098440Y1172780D01*
X1096280Y1173540D01*
X1093800Y1173820D01*
X1018660Y1173820D01*
X1017400Y1174020D01*
X1016280Y1174600D01*
X1000020Y1186600D01*
X926380Y1260240D01*
X925500Y1261540D01*
X925200Y1263080D01*
X925200Y1288640D01*
X925500Y1290180D01*
X926380Y1291480D01*
X927660Y1292340D01*
X929200Y1292640D01*
X930740Y1292340D01*
X932020Y1291480D01*
X994120Y1229400D01*
X996560Y1227380D01*
X999200Y1225980D01*
X1002039Y1225120D01*
X1005200Y1224800D01*
X1187580Y1224800D01*
X1188580Y1224680D01*
X1189520Y1224300D01*
X1195360Y1221060D01*
X1196900Y1219940D01*
X1200380Y1218060D01*
X1204120Y1216760D01*
X1208020Y1216120D01*
X1211980Y1216120D01*
X1215880Y1216760D01*
X1219620Y1218060D01*
X1223100Y1219940D01*
X1226240Y1222360D01*
X1228920Y1225280D01*
X1231080Y1228600D01*
X1232660Y1232220D01*
X1233640Y1236060D01*
X1233960Y1240000D01*
X1233640Y1243940D01*
X1232660Y1247780D01*
X1231080Y1251400D01*
X1229640Y1253620D01*
X1229020Y1255200D01*
X1229140Y1256900D01*
X1229960Y1258420D01*
X1231320Y1259440D01*
X1232980Y1259800D01*
X1292160Y1259800D01*
X1293700Y1259500D01*
X1295000Y1258620D01*
X1372980Y1180660D01*
X1373839Y1179360D01*
X1374139Y1177820D01*
X1373839Y1176300D01*
X1372980Y1175000D01*
X1371680Y1174120D01*
X1370140Y1173820D01*
X1366440Y1173820D01*
X1363959Y1173540D01*
X1361800Y1172780D01*
X1359880Y1171580D01*
X1358260Y1169960D01*
X1357060Y1168040D01*
X1356300Y1165880D01*
X1356020Y1163400D01*
X1356020Y1132260D01*
X1355700Y1130700D01*
X1354800Y1129380D01*
X1353480Y1128520D01*
X1351920Y1128260D01*
X1350360Y1128600D01*
X1349079Y1129540D01*
X1346240Y1132640D01*
X1343100Y1135060D01*
X1339620Y1136940D01*
X1335880Y1138240D01*
X1331980Y1138880D01*
X1328020Y1138880D01*
X1324120Y1138240D01*
X1320380Y1136940D01*
X1316900Y1135060D01*
X1313760Y1132640D01*
X1311080Y1129720D01*
X1309640Y1127500D01*
X1308740Y1126540D01*
X1307580Y1125900D01*
X1306279Y1125680D01*
X1261840Y1125680D01*
X1261840Y1106180D01*
X1293560Y1106180D01*
X1296040Y1106460D01*
X1298200Y1107220D01*
X1300120Y1108420D01*
X1300660Y1108960D01*
X1301940Y1109820D01*
X1303460Y1110120D01*
X1304980Y1109840D01*
X1306279Y1108980D01*
X1307160Y1107700D01*
X1308940Y1103580D01*
X1311300Y1099940D01*
X1314300Y1094520D01*
X1314680Y1093580D01*
X1314800Y1092580D01*
X1314800Y963620D01*
X1314420Y961940D01*
X1313380Y960560D01*
X1311860Y959760D01*
X1310140Y959680D01*
X1309040Y959860D01*
X1303600Y960040D01*
X1298340Y959500D01*
X1293100Y958259D01*
X1288100Y956320D01*
X1283400Y953740D01*
X1279060Y950560D01*
X1275200Y946840D01*
X1271880Y942620D01*
X1269140Y938000D01*
X1267040Y933060D01*
X1265640Y927880D01*
X1264920Y922560D01*
X1264920Y917180D01*
X1265640Y911860D01*
X1267040Y906680D01*
X1269140Y901740D01*
X1271880Y897120D01*
X1275200Y892920D01*
X1279060Y889180D01*
X1283400Y886000D01*
X1288100Y883420D01*
X1293100Y881480D01*
X1298340Y880240D01*
X1303680Y879700D01*
X1309040Y879880D01*
X1314340Y880780D01*
X1319460Y882360D01*
X1324340Y884620D01*
X1328860Y887520D01*
X1332960Y890980D01*
X1336560Y894960D01*
X1339600Y899380D01*
X1342020Y904180D01*
X1343779Y909260D01*
X1344840Y914520D01*
X1345200Y919880D01*
X1344840Y925220D01*
X1344680Y926240D01*
X1343959Y938060D01*
X1344120Y939460D01*
X1344880Y941960D01*
X1345200Y945120D01*
X1345200Y1092580D01*
X1345320Y1093580D01*
X1345700Y1094520D01*
X1348839Y1100180D01*
X1351060Y1103580D01*
X1352840Y1107700D01*
X1353720Y1108980D01*
X1355020Y1109840D01*
X1356540Y1110120D01*
X1358060Y1109820D01*
X1359340Y1108960D01*
X1359880Y1108420D01*
X1361800Y1107220D01*
X1363959Y1106460D01*
X1366440Y1106180D01*
X1485020Y1106180D01*
X1486560Y1105880D01*
X1487860Y1105000D01*
X1488720Y1103700D01*
X1489019Y1102180D01*
X1488720Y1100640D01*
X1487860Y1099340D01*
X1394400Y1005879D01*
X1392380Y1003439D01*
X1390980Y1000800D01*
X1390120Y997960D01*
X1389800Y994800D01*
X1389800Y965860D01*
X1389560Y964500D01*
X1388880Y963300D01*
X1374820Y946420D01*
X1371879Y942620D01*
X1369139Y938000D01*
X1367040Y933060D01*
X1365620Y927880D01*
X1364920Y922560D01*
X1364920Y917180D01*
X1365620Y911860D01*
X1367040Y906680D01*
X1369139Y901740D01*
X1371879Y897120D01*
X1375200Y892920D01*
X1379060Y889180D01*
X1383380Y886000D01*
X1388100Y883420D01*
X1393100Y881480D01*
X1398320Y880240D01*
X1403680Y879700D01*
X1409040Y879880D01*
X1414340Y880780D01*
X1419460Y882360D01*
X1424340Y884620D01*
X1428860Y887520D01*
X1432960Y890980D01*
X1436560Y894960D01*
X1439600Y899380D01*
X1442020Y904180D01*
X1443779Y909260D01*
X1444840Y914520D01*
X1445200Y919880D01*
X1444840Y925220D01*
X1443779Y930500D01*
X1442020Y935560D01*
X1439600Y940360D01*
X1436500Y944860D01*
X1421120Y963300D01*
X1420440Y964500D01*
X1420200Y965879D01*
X1420200Y987039D01*
X1420500Y988580D01*
X1421380Y989880D01*
X1483460Y1051960D01*
X1484940Y1052900D01*
X1486680Y1053120D01*
X1488340Y1052560D01*
X1489620Y1051360D01*
X1490240Y1049720D01*
X1489800Y1044800D01*
X1489800Y965840D01*
X1489560Y964479D01*
X1488880Y963280D01*
X1474820Y946420D01*
X1471879Y942620D01*
X1469139Y938000D01*
X1467040Y933060D01*
X1465640Y927880D01*
X1464920Y922560D01*
X1464920Y917180D01*
X1465640Y911860D01*
X1467040Y906680D01*
X1469139Y901740D01*
X1471879Y897120D01*
X1475200Y892920D01*
X1479060Y889180D01*
X1483380Y886000D01*
X1488100Y883420D01*
X1493100Y881480D01*
X1498340Y880240D01*
X1503680Y879700D01*
X1509040Y879880D01*
X1514340Y880780D01*
X1519460Y882360D01*
X1524340Y884620D01*
X1528860Y887520D01*
X1532960Y890980D01*
X1536560Y894960D01*
X1539600Y899380D01*
X1542020Y904180D01*
X1543779Y909260D01*
X1544840Y914520D01*
X1545200Y919880D01*
X1544840Y925220D01*
X1543779Y930500D01*
X1542020Y935560D01*
X1539600Y940360D01*
X1536500Y944860D01*
X1521120Y963319D01*
X1520440Y964520D01*
X1520200Y965879D01*
X1520200Y1037039D01*
X1520500Y1038580D01*
X1521380Y1039880D01*
X1600600Y1119120D01*
X1602620Y1121560D01*
X1604019Y1124200D01*
X1604880Y1127040D01*
X1605200Y1130200D01*
X1605200Y1244800D01*
X1604880Y1247960D01*
X1604019Y1250800D01*
X1602620Y1253440D01*
X1600600Y1255880D01*
X1570880Y1285600D01*
X1568320Y1287700D01*
X1567300Y1288980D01*
X1566879Y1290540D01*
X1567100Y1292140D01*
X1567940Y1293540D01*
X1569280Y1294460D01*
X1570860Y1294800D01*
X1870440Y1294800D01*
X1872040Y1294460D01*
X1873380Y1293520D01*
X1874220Y1292120D01*
X1874440Y1290500D01*
X1873980Y1288940D01*
X1872940Y1287680D01*
X1871480Y1286940D01*
X1867420Y1285840D01*
X1863899Y1284220D01*
X1860740Y1282000D01*
X1858000Y1279260D01*
X1855780Y1276100D01*
X1854160Y1272580D01*
X1853160Y1268860D01*
X1852820Y1265000D01*
X1853160Y1261140D01*
X1854160Y1257420D01*
X1855780Y1253900D01*
X1857240Y1251740D01*
X1859420Y1247180D01*
X1859800Y1245460D01*
X1859800Y1130200D01*
X1860120Y1127040D01*
X1860980Y1124200D01*
X1862380Y1121560D01*
X1864400Y1119120D01*
X1895440Y1088080D01*
X1896380Y1086580D01*
X1897940Y1082180D01*
X1899160Y1077420D01*
X1900780Y1073900D01*
X1903000Y1070740D01*
X1905740Y1068000D01*
X1908899Y1065780D01*
X1912420Y1064160D01*
X1916140Y1063160D01*
X1920000Y1062820D01*
X1923860Y1063160D01*
X1927580Y1064160D01*
X1931100Y1065780D01*
X1934259Y1068000D01*
X1937000Y1070740D01*
X1939220Y1073900D01*
X1940840Y1077420D01*
X1941840Y1081140D01*
X1942180Y1085000D01*
X1941840Y1088860D01*
X1940840Y1092580D01*
X1939220Y1096100D01*
X1937000Y1099260D01*
X1934259Y1102000D01*
X1931100Y1104220D01*
X1927580Y1105840D01*
X1922820Y1107060D01*
X1918420Y1108620D01*
X1916920Y1109560D01*
X1891380Y1135120D01*
X1890500Y1136420D01*
X1890200Y1137960D01*
X1890200Y1245460D01*
X1890580Y1247180D01*
X1892760Y1251740D01*
X1894220Y1253900D01*
X1895840Y1257420D01*
X1896840Y1261140D01*
X1897180Y1265000D01*
X1896840Y1268860D01*
X1895840Y1272580D01*
X1894220Y1276100D01*
X1892000Y1279260D01*
X1889259Y1282000D01*
X1886100Y1284220D01*
X1882580Y1285840D01*
X1878520Y1286940D01*
X1877060Y1287680D01*
X1876020Y1288940D01*
X1875560Y1290500D01*
X1875780Y1292120D01*
X1876620Y1293520D01*
X1877960Y1294460D01*
X1879560Y1294800D01*
X2099800Y1294800D01*
X2102960Y1295120D01*
X2105800Y1295980D01*
X2108440Y1297380D01*
X2110880Y1299400D01*
X2273200Y1461720D01*
X2274500Y1462580D01*
X2276040Y1462880D01*
X2277560Y1462580D01*
X2278860Y1461720D01*
X2279740Y1460420D01*
X2280040Y1458880D01*
X2280040Y1417000D01*
X2279740Y1415460D01*
X2278860Y1414160D01*
X2147460Y1282760D01*
X2144700Y1279500D01*
X2142580Y1275960D01*
X2141080Y1272120D01*
X2140240Y1268080D01*
X2140080Y1263960D01*
X2140580Y1259880D01*
X2141760Y1255940D01*
X2143560Y1252220D01*
X2145960Y1248880D01*
X2148880Y1245960D01*
X2152220Y1243560D01*
X2155940Y1241760D01*
X2159880Y1240580D01*
X2163960Y1240080D01*
X2168080Y1240240D01*
X2172120Y1241080D01*
X2175960Y1242580D01*
X2179500Y1244700D01*
X2182760Y1247460D01*
X2322560Y1387260D01*
X2325260Y1390420D01*
X2327000Y1393200D01*
X2328640Y1396980D01*
X2328900Y1397800D01*
X2329640Y1400980D01*
X2329760Y1401840D01*
X2329960Y1405120D01*
X2329960Y1837140D01*
X2330360Y1838880D01*
X2331460Y1840260D01*
X2333040Y1841040D01*
X2334820Y1841060D01*
X2336420Y1840300D01*
X2336900Y1839940D01*
X2340380Y1838060D01*
X2344120Y1836759D01*
X2348020Y1836120D01*
X2351980Y1836120D01*
X2355880Y1836759D01*
X2359620Y1838060D01*
X2363100Y1839940D01*
X2364640Y1841060D01*
X2370480Y1844300D01*
X2371420Y1844680D01*
X2372420Y1844800D01*
X2509800Y1844800D01*
X2512960Y1845120D01*
X2515800Y1845980D01*
X2518440Y1847380D01*
X2520880Y1849400D01*
X2543240Y1871740D01*
X2544360Y1872540D01*
X2545700Y1872900D01*
X2570280Y1875160D01*
X2575620Y1876240D01*
X2580700Y1878000D01*
X2585480Y1880420D01*
X2589900Y1883460D01*
X2593900Y1887060D01*
X2597360Y1891160D01*
X2600240Y1895680D01*
X2602500Y1900560D01*
X2604100Y1905680D01*
X2604980Y1910980D01*
X2605160Y1916339D01*
X2604640Y1921680D01*
X2603380Y1926900D01*
X2601460Y1931920D01*
X2598880Y1936620D01*
X2595700Y1940940D01*
X2591960Y1944800D01*
X2587740Y1948140D01*
X2583120Y1950880D01*
X2578180Y1952960D01*
X2573000Y1954379D01*
X2567679Y1955100D01*
X2562320Y1955100D01*
X2557000Y1954379D01*
X2551820Y1952960D01*
X2546880Y1950880D01*
X2542260Y1948140D01*
X2538040Y1944800D01*
X2534300Y1940940D01*
X2531120Y1936620D01*
X2528540Y1931920D01*
X2526620Y1926900D01*
X2525360Y1921680D01*
X2524880Y1917560D01*
X2522900Y1895700D01*
X2522540Y1894360D01*
X2521740Y1893240D01*
X2504880Y1876380D01*
X2503580Y1875500D01*
X2502040Y1875200D01*
X2372420Y1875200D01*
X2371420Y1875320D01*
X2370480Y1875700D01*
X2364640Y1878940D01*
X2363100Y1880060D01*
X2359620Y1881940D01*
X2355880Y1883240D01*
X2351980Y1883880D01*
X2348840Y1883880D01*
X2347320Y1884180D01*
X2346020Y1885060D01*
X2345160Y1886360D01*
X2344840Y1887880D01*
X2345160Y1889420D01*
X2346020Y1890720D01*
X2379160Y1923860D01*
X2380460Y1924740D01*
X2382000Y1925040D01*
X2419880Y1925040D01*
X2423160Y1925240D01*
X2424020Y1925360D01*
X2427200Y1926100D01*
X2428020Y1926360D01*
X2431800Y1928000D01*
X2434580Y1929740D01*
X2437740Y1932440D01*
X2472560Y1967260D01*
X2475260Y1970420D01*
X2477000Y1973200D01*
X2478640Y1976980D01*
X2478900Y1977800D01*
X2479640Y1980980D01*
X2479760Y1981840D01*
X2479960Y1985120D01*
X2479960Y2253000D01*
X2480260Y2254540D01*
X2481140Y2255840D01*
X2486100Y2260800D01*
X2487480Y2261700D01*
X2489080Y2261980D01*
X2490680Y2261580D01*
X2491960Y2260580D01*
X2492760Y2259160D01*
X2492920Y2257520D01*
X2492800Y2256460D01*
X2492800Y2186060D01*
X2493080Y2183560D01*
X2493820Y2181420D01*
X2495040Y2179480D01*
X2496640Y2177880D01*
X2498580Y2176660D01*
X2500720Y2175900D01*
X2503220Y2175620D01*
X2573639Y2175620D01*
X2576120Y2175900D01*
X2578279Y2176660D01*
X2580200Y2177880D01*
X2581820Y2179480D01*
X2583020Y2181420D01*
X2583780Y2183560D01*
X2584060Y2186060D01*
X2584060Y2256460D01*
X2583780Y2258960D01*
X2583020Y2261100D01*
X2581820Y2263040D01*
X2580200Y2264640D01*
X2578279Y2265860D01*
X2576680Y2266420D01*
X2575400Y2267160D01*
X2574460Y2268320D01*
X2574020Y2269720D01*
X2574120Y2271200D01*
X2574760Y2272540D01*
X2576940Y2275560D01*
X2579700Y2280580D01*
X2581820Y2285900D01*
X2583240Y2291460D01*
X2583960Y2297140D01*
X2583960Y2302860D01*
X2583240Y2308540D01*
X2581820Y2314100D01*
X2579700Y2319420D01*
X2576940Y2324440D01*
X2573580Y2329080D01*
X2569660Y2333260D01*
X2566000Y2336280D01*
X2564920Y2337660D01*
X2564540Y2339360D01*
X2564920Y2341080D01*
X2566000Y2342460D01*
X2569660Y2345480D01*
X2573580Y2349660D01*
X2576940Y2354300D01*
X2579700Y2359320D01*
X2581820Y2364640D01*
X2583240Y2370200D01*
X2583960Y2375880D01*
X2583960Y2381600D01*
X2583240Y2387280D01*
X2581820Y2392840D01*
X2579700Y2398160D01*
X2576940Y2403180D01*
X2573580Y2407820D01*
X2569660Y2412000D01*
X2565240Y2415660D01*
X2560400Y2418720D01*
X2555220Y2421160D01*
X2549780Y2422940D01*
X2544140Y2424000D01*
X2538420Y2424360D01*
X2532700Y2424000D01*
X2527080Y2422940D01*
X2521620Y2421160D01*
X2516440Y2418720D01*
X2511600Y2415660D01*
X2507200Y2412000D01*
X2503280Y2407820D01*
X2499900Y2403180D01*
X2497140Y2398160D01*
X2495040Y2392840D01*
X2493600Y2387280D01*
X2492880Y2381600D01*
X2492880Y2375880D01*
X2493600Y2370200D01*
X2495040Y2364640D01*
X2497140Y2359320D01*
X2499900Y2354300D01*
X2503280Y2349660D01*
X2507200Y2345480D01*
X2510860Y2342460D01*
X2511920Y2341080D01*
X2512300Y2339360D01*
X2511920Y2337660D01*
X2510860Y2336280D01*
X2509300Y2335160D01*
X2488240Y2325140D01*
X2487080Y2324780D01*
X2485960Y2324640D01*
X2482800Y2323900D01*
X2481980Y2323640D01*
X2478200Y2322000D01*
X2475420Y2320260D01*
X2472260Y2317560D01*
X2437440Y2282740D01*
X2434740Y2279580D01*
X2433000Y2276800D01*
X2431360Y2273020D01*
X2431100Y2272200D01*
X2430360Y2269020D01*
X2430240Y2268160D01*
X2430040Y2264880D01*
X2430040Y1997000D01*
X2429740Y1995460D01*
X2428860Y1994160D01*
X2410840Y1976140D01*
X2409540Y1975260D01*
X2408000Y1974960D01*
X2370120Y1974960D01*
X2366840Y1974760D01*
X2365980Y1974640D01*
X2362800Y1973899D01*
X2361980Y1973640D01*
X2358200Y1972000D01*
X2355420Y1970260D01*
X2352260Y1967560D01*
X2287440Y1902740D01*
X2285920Y1901500D01*
X2284360Y1901120D01*
X2282780Y1901380D01*
X2281440Y1902240D01*
X2280520Y1903560D01*
X2280200Y1905120D01*
X2280200Y2612580D01*
X2280320Y2613580D01*
X2280700Y2614520D01*
X2283840Y2620179D01*
X2286080Y2623600D01*
X2287660Y2627220D01*
X2288640Y2631060D01*
X2288960Y2635000D01*
X2288640Y2638940D01*
X2287660Y2642780D01*
X2286080Y2646400D01*
X2283920Y2649720D01*
X2281240Y2652640D01*
X2278100Y2655059D01*
X2274620Y2656940D01*
X2270880Y2658240D01*
X2266980Y2658880D01*
X2263020Y2658880D01*
X2259120Y2658240D01*
X2255380Y2656940D01*
X2251900Y2655059D01*
X2248760Y2652640D01*
X2246080Y2649720D01*
X2243920Y2646400D01*
X2242340Y2642780D01*
X2241360Y2638940D01*
X2241040Y2635000D01*
X2241360Y2631060D01*
X2242340Y2627220D01*
X2243920Y2623600D01*
X2246300Y2619940D01*
X2249300Y2614520D01*
X2249680Y2613580D01*
X2249800Y2612580D01*
X2249800Y2201360D01*
X2249500Y2199820D01*
X2248620Y2198520D01*
X2247340Y2197660D01*
X2245800Y2197360D01*
X2244260Y2197660D01*
X2242980Y2198520D01*
X2195880Y2245600D01*
X2193440Y2247620D01*
X2190800Y2249020D01*
X2187960Y2249880D01*
X2184800Y2250200D01*
X1731780Y2250200D01*
X1730080Y2250580D01*
X1728700Y2251640D01*
X1727900Y2253180D01*
X1727840Y2254920D01*
X1728520Y2256520D01*
X1729820Y2257680D01*
X1731480Y2258180D01*
X1735540Y2258480D01*
X1743060Y2259760D01*
X1750440Y2261780D01*
X1757580Y2264480D01*
X1764440Y2267880D01*
X1770940Y2271900D01*
X1777000Y2276540D01*
X1782600Y2281760D01*
X1787660Y2287480D01*
X1792160Y2293660D01*
X1796040Y2300240D01*
X1799259Y2307180D01*
X1801800Y2314380D01*
X1803620Y2321800D01*
X1804720Y2329360D01*
X1805100Y2337000D01*
X1804720Y2344640D01*
X1803620Y2352200D01*
X1801800Y2359620D01*
X1799259Y2366820D01*
X1796040Y2373760D01*
X1792160Y2380340D01*
X1787660Y2386520D01*
X1782600Y2392240D01*
X1777000Y2397460D01*
X1770940Y2402100D01*
X1764440Y2406120D01*
X1757580Y2409520D01*
X1750440Y2412220D01*
X1743060Y2414220D01*
X1735540Y2415520D01*
X1727920Y2416080D01*
X1720280Y2415880D01*
X1712680Y2414960D01*
X1705220Y2413320D01*
X1697960Y2410960D01*
X1690940Y2407900D01*
X1684259Y2404180D01*
X1677980Y2399840D01*
X1672140Y2394920D01*
X1666800Y2389440D01*
X1662020Y2383480D01*
X1657820Y2377100D01*
X1654280Y2370320D01*
X1651399Y2363260D01*
X1649199Y2355920D01*
X1647740Y2348420D01*
X1647000Y2340820D01*
X1647000Y2333180D01*
X1647740Y2325580D01*
X1649199Y2318080D01*
X1651399Y2310740D01*
X1654280Y2303660D01*
X1657820Y2296900D01*
X1662020Y2290520D01*
X1666800Y2284560D01*
X1672140Y2279080D01*
X1677980Y2274160D01*
X1684259Y2269820D01*
X1690940Y2266100D01*
X1697960Y2263040D01*
X1705220Y2260680D01*
X1712680Y2259040D01*
X1719800Y2258180D01*
X1721420Y2257600D01*
X1722660Y2256420D01*
X1723280Y2254820D01*
X1723180Y2253100D01*
X1722360Y2251600D01*
X1721000Y2250560D01*
X1719319Y2250200D01*
X1435200Y2250200D01*
X1432040Y2249880D01*
X1429199Y2249020D01*
X1426560Y2247620D01*
X1424120Y2245600D01*
X1329880Y2151380D01*
X1328580Y2150500D01*
X1327040Y2150200D01*
X1326360Y2150200D01*
X1324820Y2150500D01*
X1323520Y2151380D01*
X1322660Y2152660D01*
X1322360Y2154200D01*
X1322660Y2155740D01*
X1323520Y2157020D01*
X1615120Y2448620D01*
X1616420Y2449500D01*
X1617960Y2449800D01*
X1822040Y2449800D01*
X1823580Y2449500D01*
X1824880Y2448620D01*
X1899120Y2374400D01*
X1901560Y2372380D01*
X1904199Y2370980D01*
X1907040Y2370120D01*
X1910200Y2369800D01*
X2167580Y2369800D01*
X2168580Y2369680D01*
X2169520Y2369300D01*
X2175360Y2366060D01*
X2176900Y2364940D01*
X2180380Y2363060D01*
X2184120Y2361760D01*
X2188020Y2361120D01*
X2191980Y2361120D01*
X2195880Y2361760D01*
X2199620Y2363060D01*
X2203100Y2364940D01*
X2206240Y2367360D01*
X2208920Y2370280D01*
X2211080Y2373600D01*
X2212660Y2377220D01*
X2213640Y2381060D01*
X2213960Y2385000D01*
X2213640Y2388940D01*
X2212660Y2392780D01*
X2211080Y2396400D01*
X2208920Y2399720D01*
X2206240Y2402640D01*
X2203100Y2405060D01*
X2199620Y2406940D01*
X2195880Y2408240D01*
X2191980Y2408880D01*
X2188020Y2408880D01*
X2184120Y2408240D01*
X2180380Y2406940D01*
X2176900Y2405060D01*
X2175360Y2403940D01*
X2169520Y2400700D01*
X2168580Y2400320D01*
X2167580Y2400200D01*
X1917960Y2400200D01*
X1916420Y2400500D01*
X1915120Y2401380D01*
X1840880Y2475600D01*
X1838440Y2477620D01*
X1835800Y2479020D01*
X1832960Y2479880D01*
X1829800Y2480200D01*
X1610200Y2480200D01*
X1607040Y2479880D01*
X1604199Y2479020D01*
X1601560Y2477620D01*
X1599120Y2475600D01*
X1294880Y2171380D01*
X1293580Y2170500D01*
X1292040Y2170200D01*
X1277060Y2170200D01*
X1275400Y2170560D01*
X1274020Y2171580D01*
X1273220Y2173080D01*
X1273100Y2174780D01*
X1273700Y2176380D01*
X1274900Y2177580D01*
X1276500Y2178580D01*
X1277880Y2179640D01*
X1279240Y2180880D01*
X1390660Y2292320D01*
X1394760Y2296040D01*
X1396140Y2296860D01*
X1399620Y2298060D01*
X1403100Y2299940D01*
X1406240Y2302360D01*
X1408920Y2305280D01*
X1411080Y2308600D01*
X1412660Y2312220D01*
X1413640Y2316060D01*
X1413959Y2320000D01*
X1413640Y2323940D01*
X1412660Y2327780D01*
X1411080Y2331400D01*
X1408920Y2334720D01*
X1406240Y2337640D01*
X1403100Y2340060D01*
X1399620Y2341940D01*
X1395880Y2343240D01*
X1391980Y2343880D01*
X1388020Y2343880D01*
X1384120Y2343240D01*
X1380380Y2341940D01*
X1376900Y2340060D01*
X1373760Y2337640D01*
X1371080Y2334720D01*
X1368920Y2331400D01*
X1367340Y2327780D01*
X1366680Y2325660D01*
X1366120Y2324860D01*
X1362300Y2320660D01*
X1257860Y2216220D01*
X1256580Y2215340D01*
X1255040Y2215040D01*
X1129960Y2215040D01*
X1128420Y2215340D01*
X1127140Y2216220D01*
X1071220Y2272140D01*
X1070340Y2273420D01*
X1070040Y2274960D01*
X1070040Y2653759D01*
X1070200Y2654860D01*
X1070640Y2655860D01*
X1081620Y2673620D01*
X1082680Y2674920D01*
X1085680Y2679400D01*
X1088060Y2684240D01*
X1089780Y2689340D01*
X1090840Y2694620D01*
X1091200Y2700000D01*
X1090840Y2705380D01*
X1089780Y2710659D01*
X1088060Y2715760D01*
X1085680Y2720600D01*
X1082680Y2725080D01*
X1079120Y2729120D01*
X1075080Y2732679D01*
X1070600Y2735680D01*
X1065640Y2738120D01*
X1064280Y2739240D01*
X1063520Y2740840D01*
X1063520Y2742600D01*
X1064300Y2744200D01*
X1065680Y2745299D01*
X1067420Y2745700D01*
X1132580Y2745700D01*
X1134320Y2745299D01*
X1135700Y2744200D01*
X1136480Y2742600D01*
X1136480Y2740840D01*
X1135720Y2739240D01*
X1134360Y2738120D01*
X1129400Y2735680D01*
X1124920Y2732679D01*
X1120880Y2729120D01*
X1117320Y2725080D01*
X1114320Y2720600D01*
X1111940Y2715760D01*
X1110220Y2710659D01*
X1109160Y2705380D01*
X1108800Y2700000D01*
X1109160Y2694620D01*
X1110220Y2689340D01*
X1111940Y2684240D01*
X1114320Y2679400D01*
X1117320Y2674920D01*
X1120880Y2670880D01*
X1124920Y2667320D01*
X1129400Y2664320D01*
X1134240Y2661940D01*
X1139340Y2660220D01*
X1144620Y2659160D01*
X1150000Y2658800D01*
X1155380Y2659160D01*
X1160660Y2660220D01*
X1165760Y2661940D01*
X1170600Y2664320D01*
X1175080Y2667320D01*
X1179120Y2670880D01*
X1182680Y2674920D01*
X1185680Y2679400D01*
X1188060Y2684240D01*
X1189780Y2689340D01*
X1190840Y2694620D01*
X1191200Y2700000D01*
X1190840Y2705380D01*
X1189780Y2710659D01*
X1188060Y2715760D01*
X1185680Y2720600D01*
X1182680Y2725080D01*
X1179120Y2729120D01*
X1175080Y2732679D01*
X1170600Y2735680D01*
X1165640Y2738120D01*
X1164280Y2739240D01*
X1163520Y2740840D01*
X1163520Y2742600D01*
X1164300Y2744200D01*
X1165680Y2745299D01*
X1167420Y2745700D01*
X1232580Y2745700D01*
X1234320Y2745299D01*
X1235700Y2744200D01*
X1236480Y2742600D01*
X1236480Y2740840D01*
X1235720Y2739240D01*
X1234360Y2738120D01*
X1229400Y2735680D01*
X1224920Y2732679D01*
X1220880Y2729120D01*
X1217320Y2725080D01*
X1214320Y2720600D01*
X1211940Y2715760D01*
X1210220Y2710659D01*
X1209160Y2705380D01*
X1208800Y2700000D01*
X1209160Y2694620D01*
X1210220Y2689340D01*
X1211940Y2684240D01*
X1214320Y2679400D01*
X1217320Y2674920D01*
X1220880Y2670880D01*
X1224920Y2667320D01*
X1229400Y2664320D01*
X1234240Y2661940D01*
X1239340Y2660220D01*
X1244620Y2659160D01*
X1250000Y2658800D01*
X1255380Y2659160D01*
X1260660Y2660220D01*
X1265760Y2661940D01*
X1270600Y2664320D01*
X1275080Y2667320D01*
X1279120Y2670880D01*
X1282680Y2674920D01*
X1285680Y2679400D01*
X1288060Y2684240D01*
X1289780Y2689340D01*
X1290840Y2694620D01*
X1291200Y2700000D01*
X1290840Y2705380D01*
X1289780Y2710659D01*
X1288060Y2715760D01*
X1285680Y2720600D01*
X1282680Y2725080D01*
X1279120Y2729120D01*
X1275080Y2732679D01*
X1270600Y2735680D01*
X1265640Y2738120D01*
X1264280Y2739240D01*
X1263520Y2740840D01*
X1263520Y2742600D01*
X1264300Y2744200D01*
X1265680Y2745299D01*
X1267420Y2745700D01*
X1332580Y2745700D01*
X1334319Y2745299D01*
X1336000Y2745700D01*
X1364000Y2745700D01*
X1365680Y2745299D01*
X1367420Y2745700D01*
X2440720Y2745700D01*
X2452780Y2745320D01*
X2464460Y2744200D01*
X2476040Y2742360D01*
X2487480Y2739800D01*
X2498740Y2736520D01*
X2509760Y2732540D01*
X2520520Y2727880D01*
X2530960Y2722540D01*
X2541060Y2716560D01*
X2550740Y2709980D01*
X2560000Y2702780D01*
X2568800Y2695020D01*
X2577080Y2686720D01*
X2584820Y2677919D01*
X2592000Y2668660D01*
X2598600Y2658960D01*
X2604560Y2648860D01*
X2609880Y2638399D01*
X2614520Y2627640D01*
X2618480Y2616600D01*
X2621740Y2605340D01*
X2624300Y2593900D01*
X2626120Y2582320D01*
X2627220Y2570640D01*
X2627600Y2558840D01*
X2627600Y984460D01*
X2627200Y972400D01*
X2626100Y960740D01*
X2624260Y949160D01*
X2621680Y937720D01*
X2618399Y926460D01*
X2614420Y915420D01*
X2609760Y904659D01*
X2604440Y894220D01*
X2598460Y884140D01*
X2591860Y874440D01*
X2584660Y865180D01*
X2576900Y856400D01*
X2568620Y848100D01*
X2559820Y840360D01*
X2550540Y833180D01*
X2540840Y826600D01*
X2530740Y820639D01*
X2520300Y815320D01*
X2509540Y810660D01*
X2498500Y806700D01*
X2487240Y803439D01*
X2475780Y800900D01*
X2464200Y799060D01*
X2452540Y797960D01*
X2440720Y797600D01*
X2064480Y797600D01*
X2062880Y797940D01*
X2061540Y798900D01*
X2060700Y800300D01*
X2060500Y801940D01*
X2060960Y803520D01*
X2062040Y804760D01*
X2063500Y805480D01*
X2067560Y806500D01*
X2074700Y809040D01*
X2081540Y812280D01*
X2088020Y816180D01*
X2094100Y820680D01*
X2099720Y825759D01*
X2104800Y831380D01*
X2109300Y837460D01*
X2113200Y843940D01*
X2116440Y850780D01*
X2118980Y857920D01*
X2120820Y865260D01*
X2121940Y872740D01*
X2122300Y880300D01*
X2121940Y887860D01*
X2120820Y895340D01*
X2118980Y902680D01*
X2116440Y909820D01*
X2113200Y916660D01*
X2109300Y923139D01*
X2104800Y929220D01*
X2099720Y934840D01*
X2094100Y939920D01*
X2088020Y944419D01*
X2081540Y948319D01*
X2074700Y951560D01*
X2067560Y954100D01*
X2060220Y955939D01*
X2052740Y957060D01*
X2045180Y957420D01*
X2037620Y957060D01*
X2030140Y955939D01*
X2022800Y954100D01*
X2015660Y951560D01*
X2008820Y948319D01*
X2002340Y944419D01*
X1996260Y939920D01*
X1990640Y934840D01*
X1985560Y929220D01*
X1981060Y923139D01*
X1977160Y916660D01*
X1973920Y909820D01*
X1971380Y902680D01*
X1969540Y895340D01*
X1968420Y887860D01*
X1968060Y880300D01*
X1968420Y872740D01*
X1969540Y865260D01*
X1971380Y857920D01*
X1973920Y850780D01*
X1977160Y843940D01*
X1981060Y837460D01*
X1985560Y831380D01*
X1990640Y825759D01*
X1996260Y820680D01*
X2002340Y816180D01*
X2008820Y812280D01*
X2015660Y809040D01*
X2022800Y806500D01*
X2026860Y805480D01*
X2028320Y804760D01*
X2029400Y803520D01*
X2029860Y801940D01*
X2029660Y800300D01*
X2028820Y798900D01*
X2027480Y797940D01*
X2025880Y797600D01*
X707800Y797600D01*
X706180Y797940D01*
X704840Y798900D01*
X704000Y800300D01*
X703800Y801940D01*
X704280Y803520D01*
X705340Y804760D01*
X706820Y805480D01*
X710879Y806500D01*
X718000Y809040D01*
X724840Y812280D01*
X731340Y816180D01*
X737420Y820680D01*
X743020Y825759D01*
X748100Y831380D01*
X752620Y837460D01*
X756500Y843940D01*
X759740Y850780D01*
X762300Y857920D01*
X764140Y865260D01*
X765240Y872740D01*
X765620Y880300D01*
X765240Y887860D01*
X764140Y895340D01*
X762300Y902680D01*
X759740Y909820D01*
X756500Y916660D01*
X752620Y923139D01*
X748100Y929220D01*
X743020Y934840D01*
X737420Y939920D01*
X731340Y944419D01*
X724840Y948319D01*
X718000Y951560D01*
X710879Y954100D01*
X703540Y955939D01*
X696040Y957060D01*
X688500Y957420D01*
X680939Y957060D01*
X673439Y955939D01*
X666100Y954100D01*
X658980Y951560D01*
X652140Y948319D01*
X645639Y944419D01*
X639560Y939920D01*
X633960Y934840D01*
X628880Y929220D01*
X624360Y923139D01*
X620480Y916660D01*
X617240Y909820D01*
X614680Y902680D01*
X612840Y895340D01*
X611740Y887860D01*
X611360Y880300D01*
X611740Y872740D01*
X612840Y865260D01*
X614680Y857920D01*
X617240Y850780D01*
X620480Y843940D01*
X624360Y837460D01*
X628880Y831380D01*
X633960Y825759D01*
X639560Y820680D01*
X645639Y816180D01*
X652140Y812280D01*
X658980Y809040D01*
X666100Y806500D01*
X670160Y805480D01*
X671640Y804760D01*
X672700Y803520D01*
X673180Y801940D01*
X672980Y800300D01*
X672140Y798900D01*
X670800Y797940D01*
X669180Y797600D01*
G37*

%LPC*%
G36*
X2279220Y833800D02*
G01*
X2340780Y833800D01*
X2343260Y834080D01*
X2345420Y834840D01*
X2347340Y836040D01*
X2348960Y837660D01*
X2350160Y839580D01*
X2350920Y841740D01*
X2351200Y844220D01*
X2351200Y905780D01*
X2350920Y908259D01*
X2350160Y910420D01*
X2348960Y912340D01*
X2347340Y913960D01*
X2345420Y915160D01*
X2343260Y915920D01*
X2340780Y916200D01*
X2279220Y916200D01*
X2276740Y915920D01*
X2274580Y915160D01*
X2272660Y913960D01*
X2271040Y912340D01*
X2269840Y910420D01*
X2269080Y908259D01*
X2268800Y905780D01*
X2268800Y844220D01*
X2269080Y841740D01*
X2269840Y839580D01*
X2271040Y837660D01*
X2272660Y836040D01*
X2274580Y834840D01*
X2276740Y834080D01*
G37*
G36*
X434860Y875660D02*
G01*
X441960Y876200D01*
X448980Y877480D01*
X455820Y879479D01*
X462420Y882159D01*
X468720Y885520D01*
X474640Y889500D01*
X480100Y894060D01*
X485080Y899160D01*
X489520Y904760D01*
X493340Y910780D01*
X496520Y917140D01*
X499040Y923820D01*
X500860Y930720D01*
X501960Y937760D01*
X502320Y944880D01*
X501960Y952000D01*
X500860Y959040D01*
X499040Y965939D01*
X496520Y972620D01*
X493340Y978980D01*
X489520Y985000D01*
X485080Y990600D01*
X480100Y995699D01*
X474640Y1000260D01*
X468720Y1004240D01*
X462420Y1007600D01*
X455820Y1010280D01*
X448980Y1012280D01*
X441960Y1013560D01*
X434860Y1014100D01*
X427720Y1013920D01*
X420660Y1013000D01*
X413720Y1011380D01*
X406980Y1009020D01*
X400520Y1006000D01*
X394420Y1002340D01*
X388700Y998060D01*
X383480Y993220D01*
X378760Y987860D01*
X374640Y982039D01*
X371120Y975840D01*
X368280Y969300D01*
X366100Y962520D01*
X364640Y955540D01*
X363920Y948439D01*
X363920Y941320D01*
X364640Y934220D01*
X366100Y927240D01*
X368280Y920460D01*
X371120Y913920D01*
X374640Y907720D01*
X378760Y901900D01*
X383480Y896540D01*
X388700Y891700D01*
X394420Y887420D01*
X400520Y883760D01*
X406980Y880740D01*
X413720Y878379D01*
X420660Y876760D01*
X427720Y875840D01*
G37*
G36*
X2482100Y875660D02*
G01*
X2489200Y876200D01*
X2496220Y877480D01*
X2503060Y879479D01*
X2509660Y882159D01*
X2515960Y885520D01*
X2521880Y889500D01*
X2527340Y894060D01*
X2532320Y899160D01*
X2536760Y904760D01*
X2540580Y910780D01*
X2543760Y917140D01*
X2546280Y923820D01*
X2548100Y930720D01*
X2549200Y937760D01*
X2549560Y944880D01*
X2549200Y952000D01*
X2548100Y959040D01*
X2546280Y965939D01*
X2543760Y972620D01*
X2540580Y978980D01*
X2536760Y985000D01*
X2532320Y990600D01*
X2527340Y995699D01*
X2521880Y1000260D01*
X2515960Y1004240D01*
X2509660Y1007600D01*
X2503060Y1010280D01*
X2496220Y1012280D01*
X2489200Y1013560D01*
X2482100Y1014100D01*
X2474960Y1013920D01*
X2467900Y1013000D01*
X2460960Y1011380D01*
X2454220Y1009020D01*
X2447760Y1006000D01*
X2441660Y1002340D01*
X2435940Y998060D01*
X2430720Y993220D01*
X2426000Y987860D01*
X2421880Y982039D01*
X2418360Y975840D01*
X2415520Y969300D01*
X2413340Y962520D01*
X2411880Y955540D01*
X2411160Y948439D01*
X2411160Y941320D01*
X2411880Y934220D01*
X2413340Y927240D01*
X2415520Y920460D01*
X2418360Y913920D01*
X2421880Y907720D01*
X2426000Y901900D01*
X2430720Y896540D01*
X2435940Y891700D01*
X2441660Y887420D01*
X2447760Y883760D01*
X2454220Y880740D01*
X2460960Y878379D01*
X2467900Y876760D01*
X2474960Y875840D01*
G37*
G36*
X1103680Y879680D02*
G01*
X1109040Y879860D01*
X1114340Y880759D01*
X1119460Y882340D01*
X1124340Y884599D01*
X1128860Y887500D01*
X1132960Y890960D01*
X1136560Y894940D01*
X1139600Y899360D01*
X1142020Y904160D01*
X1143780Y909240D01*
X1144840Y914500D01*
X1145200Y919860D01*
X1144840Y925200D01*
X1143780Y930460D01*
X1142020Y935540D01*
X1139600Y940340D01*
X1136560Y944760D01*
X1132960Y948740D01*
X1128860Y952200D01*
X1124340Y955100D01*
X1119460Y957360D01*
X1114340Y958940D01*
X1109040Y959840D01*
X1103680Y960020D01*
X1098340Y959479D01*
X1093100Y958240D01*
X1088100Y956300D01*
X1083380Y953720D01*
X1079060Y950540D01*
X1075200Y946820D01*
X1071880Y942600D01*
X1069140Y937980D01*
X1067040Y933040D01*
X1065640Y927860D01*
X1064920Y922540D01*
X1064920Y917159D01*
X1065640Y911840D01*
X1067040Y906660D01*
X1069140Y901720D01*
X1071880Y897099D01*
X1075200Y892900D01*
X1079060Y889160D01*
X1083380Y885980D01*
X1088100Y883400D01*
X1093100Y881460D01*
X1098340Y880220D01*
G37*
G36*
X1603680Y879700D02*
G01*
X1609040Y879880D01*
X1614340Y880780D01*
X1619460Y882360D01*
X1624340Y884620D01*
X1628860Y887520D01*
X1632960Y890980D01*
X1636560Y894960D01*
X1639600Y899380D01*
X1642020Y904180D01*
X1643779Y909260D01*
X1644840Y914520D01*
X1645200Y919880D01*
X1644840Y925220D01*
X1643779Y930500D01*
X1642020Y935560D01*
X1639600Y940360D01*
X1636560Y944780D01*
X1632960Y948760D01*
X1628860Y952220D01*
X1624340Y955120D01*
X1619460Y957380D01*
X1614340Y958960D01*
X1609040Y959860D01*
X1603680Y960040D01*
X1598340Y959500D01*
X1593100Y958259D01*
X1588100Y956320D01*
X1583400Y953740D01*
X1579060Y950560D01*
X1575200Y946840D01*
X1571879Y942620D01*
X1569139Y938000D01*
X1567040Y933060D01*
X1565640Y927880D01*
X1564920Y922560D01*
X1564920Y917180D01*
X1565640Y911860D01*
X1567040Y906680D01*
X1569139Y901740D01*
X1571879Y897120D01*
X1575200Y892920D01*
X1579060Y889180D01*
X1583400Y886000D01*
X1588100Y883420D01*
X1593100Y881480D01*
X1598340Y880240D01*
G37*
G36*
X1203680Y879700D02*
G01*
X1209040Y879880D01*
X1214340Y880780D01*
X1219460Y882360D01*
X1224320Y884620D01*
X1228860Y887520D01*
X1232960Y890980D01*
X1236560Y894960D01*
X1239600Y899380D01*
X1242020Y904180D01*
X1243780Y909260D01*
X1244840Y914520D01*
X1245200Y919880D01*
X1244840Y925220D01*
X1243780Y930500D01*
X1242020Y935560D01*
X1239600Y940360D01*
X1236560Y944780D01*
X1232960Y948760D01*
X1228860Y952220D01*
X1224320Y955120D01*
X1219460Y957380D01*
X1214340Y958960D01*
X1209040Y959860D01*
X1203680Y960040D01*
X1198320Y959500D01*
X1193100Y958259D01*
X1188100Y956320D01*
X1183380Y953740D01*
X1179060Y950560D01*
X1175200Y946840D01*
X1171880Y942620D01*
X1169140Y938000D01*
X1167040Y933060D01*
X1165620Y927880D01*
X1164920Y922560D01*
X1164920Y917180D01*
X1165620Y911860D01*
X1167040Y906680D01*
X1169140Y901740D01*
X1171880Y897120D01*
X1175200Y892920D01*
X1179060Y889180D01*
X1183380Y886000D01*
X1188100Y883420D01*
X1193100Y881480D01*
X1198320Y880240D01*
G37*
G36*
X1687520Y883740D02*
G01*
X1687520Y902380D01*
X1668880Y902380D01*
X1669160Y901740D01*
X1671879Y897120D01*
X1675220Y892920D01*
X1679079Y889180D01*
X1683400Y886000D01*
G37*
G36*
X1722520Y883780D02*
G01*
X1724340Y884620D01*
X1728860Y887520D01*
X1732960Y890980D01*
X1736560Y894960D01*
X1739600Y899380D01*
X1741120Y902380D01*
X1722520Y902380D01*
G37*
G36*
X1722520Y937380D02*
G01*
X1741120Y937380D01*
X1739600Y940360D01*
X1736560Y944780D01*
X1732960Y948760D01*
X1728860Y952220D01*
X1724340Y955120D01*
X1722520Y955960D01*
G37*
G36*
X1668880Y937380D02*
G01*
X1687520Y937380D01*
X1687520Y956000D01*
X1683400Y953740D01*
X1679079Y950560D01*
X1675220Y946840D01*
X1671879Y942620D01*
X1669160Y938000D01*
G37*
G36*
X2292000Y938040D02*
G01*
X2292000Y957000D01*
X2273040Y957000D01*
X2274320Y954400D01*
X2277320Y949920D01*
X2280880Y945879D01*
X2284920Y942320D01*
X2289400Y939320D01*
G37*
G36*
X2328000Y938040D02*
G01*
X2330600Y939320D01*
X2335080Y942320D01*
X2339120Y945879D01*
X2342680Y949920D01*
X2345680Y954400D01*
X2346960Y957000D01*
X2328000Y957000D01*
G37*
G36*
X2273040Y993000D02*
G01*
X2292000Y993000D01*
X2292000Y1011960D01*
X2289400Y1010680D01*
X2284920Y1007680D01*
X2280880Y1004120D01*
X2277320Y1000080D01*
X2274320Y995600D01*
G37*
G36*
X2328000Y993000D02*
G01*
X2346960Y993000D01*
X2345680Y995600D01*
X2342680Y1000080D01*
X2339120Y1004120D01*
X2335080Y1007680D01*
X2330600Y1010680D01*
X2328000Y1011960D01*
G37*
G36*
X746200Y1106180D02*
G01*
X777940Y1106180D01*
X777940Y1125680D01*
X735780Y1125680D01*
X735780Y1116600D01*
X736060Y1114120D01*
X736820Y1111960D01*
X738020Y1110040D01*
X739640Y1108420D01*
X741560Y1107220D01*
X743720Y1106460D01*
G37*
G36*
X1156200Y1106180D02*
G01*
X1187940Y1106180D01*
X1187940Y1125680D01*
X1145780Y1125680D01*
X1145780Y1116600D01*
X1146060Y1114120D01*
X1146820Y1111960D01*
X1148020Y1110040D01*
X1149640Y1108420D01*
X1151560Y1107220D01*
X1153720Y1106460D01*
G37*
G36*
X1758240Y1107620D02*
G01*
X1760840Y1108900D01*
X1765380Y1111920D01*
X1769480Y1115520D01*
X1773080Y1119620D01*
X1776100Y1124160D01*
X1777380Y1126760D01*
X1758240Y1126760D01*
G37*
G36*
X1721759Y1107620D02*
G01*
X1721759Y1126760D01*
X1702620Y1126760D01*
X1703899Y1124160D01*
X1706920Y1119620D01*
X1710520Y1115520D01*
X1714620Y1111920D01*
X1719160Y1108900D01*
G37*
G36*
X2553660Y1136500D02*
G01*
X2569120Y1136500D01*
X2574140Y1136860D01*
X2578920Y1137840D01*
X2583519Y1139480D01*
X2587860Y1141720D01*
X2591840Y1144540D01*
X2595419Y1147880D01*
X2598500Y1151660D01*
X2601040Y1155840D01*
X2602980Y1160320D01*
X2604300Y1165020D01*
X2604960Y1169860D01*
X2604960Y1174740D01*
X2604300Y1179580D01*
X2602980Y1184280D01*
X2601040Y1188760D01*
X2598500Y1192940D01*
X2595419Y1196720D01*
X2591840Y1200060D01*
X2587860Y1202880D01*
X2583519Y1205120D01*
X2578920Y1206760D01*
X2574140Y1207740D01*
X2569120Y1208100D01*
X2553660Y1208100D01*
X2548640Y1207740D01*
X2543860Y1206760D01*
X2539260Y1205120D01*
X2534920Y1202880D01*
X2530940Y1200060D01*
X2527360Y1196720D01*
X2524280Y1192940D01*
X2521740Y1188760D01*
X2519800Y1184280D01*
X2518480Y1179580D01*
X2517820Y1174740D01*
X2517820Y1169860D01*
X2518480Y1165020D01*
X2519800Y1160320D01*
X2521740Y1155840D01*
X2524280Y1151660D01*
X2527360Y1147880D01*
X2530940Y1144540D01*
X2534920Y1141720D01*
X2539260Y1139480D01*
X2543860Y1137840D01*
X2548640Y1136860D01*
G37*
G36*
X1145780Y1154320D02*
G01*
X1187940Y1154320D01*
X1187940Y1173820D01*
X1156200Y1173820D01*
X1153720Y1173540D01*
X1151560Y1172780D01*
X1149640Y1171580D01*
X1148020Y1169960D01*
X1146820Y1168040D01*
X1146060Y1165880D01*
X1145780Y1163400D01*
G37*
G36*
X1261840Y1154320D02*
G01*
X1303980Y1154320D01*
X1303980Y1163400D01*
X1303700Y1165880D01*
X1302940Y1168040D01*
X1301740Y1169960D01*
X1300120Y1171580D01*
X1298200Y1172780D01*
X1296040Y1173540D01*
X1293560Y1173820D01*
X1261840Y1173820D01*
G37*
G36*
X1702620Y1163240D02*
G01*
X1721759Y1163240D01*
X1721759Y1182380D01*
X1719160Y1181100D01*
X1714620Y1178080D01*
X1710520Y1174480D01*
X1706920Y1170380D01*
X1703899Y1165840D01*
G37*
G36*
X1758240Y1163240D02*
G01*
X1777380Y1163240D01*
X1776100Y1165840D01*
X1773080Y1170380D01*
X1769480Y1174480D01*
X1765380Y1178080D01*
X1760840Y1181100D01*
X1758240Y1182380D01*
G37*
G36*
X2455880Y1185740D02*
G01*
X2460680Y1186080D01*
X2465400Y1187100D01*
X2469920Y1188780D01*
X2474160Y1191100D01*
X2478020Y1194000D01*
X2481440Y1197400D01*
X2484320Y1201260D01*
X2486640Y1205500D01*
X2488320Y1210020D01*
X2489340Y1214740D01*
X2489680Y1219540D01*
X2489340Y1224360D01*
X2488320Y1229080D01*
X2486640Y1233600D01*
X2484320Y1237820D01*
X2481440Y1241680D01*
X2478020Y1245100D01*
X2474160Y1247980D01*
X2469920Y1250300D01*
X2465400Y1251980D01*
X2460680Y1253020D01*
X2455880Y1253360D01*
X2451060Y1253020D01*
X2446360Y1251980D01*
X2441840Y1250300D01*
X2437600Y1247980D01*
X2433740Y1245100D01*
X2430320Y1241680D01*
X2427440Y1237820D01*
X2425120Y1233600D01*
X2423440Y1229080D01*
X2422400Y1224360D01*
X2422060Y1219540D01*
X2422400Y1214740D01*
X2423440Y1210020D01*
X2425120Y1205500D01*
X2427440Y1201260D01*
X2430320Y1197400D01*
X2433740Y1194000D01*
X2437600Y1191100D01*
X2441840Y1188780D01*
X2446360Y1187100D01*
X2451060Y1186080D01*
G37*
G36*
X1740000Y1203320D02*
G01*
X1745440Y1203660D01*
X1750780Y1204740D01*
X1755960Y1206480D01*
X1760840Y1208900D01*
X1765380Y1211920D01*
X1769480Y1215520D01*
X1773080Y1219620D01*
X1776100Y1224160D01*
X1778520Y1229040D01*
X1780260Y1234220D01*
X1781339Y1239560D01*
X1781680Y1245000D01*
X1781339Y1250440D01*
X1780260Y1255780D01*
X1778520Y1260960D01*
X1776100Y1265840D01*
X1773080Y1270380D01*
X1769480Y1274480D01*
X1765380Y1278080D01*
X1760840Y1281100D01*
X1755960Y1283520D01*
X1750780Y1285260D01*
X1745440Y1286339D01*
X1740000Y1286680D01*
X1734560Y1286339D01*
X1729220Y1285260D01*
X1724040Y1283520D01*
X1719160Y1281100D01*
X1714620Y1278080D01*
X1710520Y1274480D01*
X1706920Y1270380D01*
X1703899Y1265840D01*
X1701480Y1260960D01*
X1699740Y1255780D01*
X1698660Y1250440D01*
X1698320Y1245000D01*
X1698660Y1239560D01*
X1699740Y1234220D01*
X1701480Y1229040D01*
X1703899Y1224160D01*
X1706920Y1219620D01*
X1710520Y1215520D01*
X1714620Y1211920D01*
X1719160Y1208900D01*
X1724040Y1206480D01*
X1729220Y1204740D01*
X1734560Y1203660D01*
G37*
G36*
X1031760Y1277620D02*
G01*
X1031760Y1296759D01*
X1012620Y1296759D01*
X1013900Y1294160D01*
X1016919Y1289620D01*
X1020520Y1285520D01*
X1024620Y1281920D01*
X1029160Y1278900D01*
G37*
G36*
X1068240Y1277620D02*
G01*
X1070840Y1278900D01*
X1075380Y1281920D01*
X1079480Y1285520D01*
X1083080Y1289620D01*
X1086100Y1294160D01*
X1087380Y1296759D01*
X1068240Y1296759D01*
G37*
G36*
X1068240Y1333240D02*
G01*
X1087380Y1333240D01*
X1086100Y1335840D01*
X1083080Y1340380D01*
X1079480Y1344480D01*
X1075380Y1348080D01*
X1070840Y1351100D01*
X1068240Y1352380D01*
G37*
G36*
X1012620Y1333240D02*
G01*
X1031760Y1333240D01*
X1031760Y1352380D01*
X1029160Y1351100D01*
X1024620Y1348080D01*
X1020520Y1344480D01*
X1016919Y1340380D01*
X1013900Y1335840D01*
G37*
G36*
X1050000Y1373320D02*
G01*
X1055440Y1373660D01*
X1060780Y1374740D01*
X1065960Y1376480D01*
X1070840Y1378899D01*
X1075380Y1381920D01*
X1079480Y1385520D01*
X1083080Y1389620D01*
X1086100Y1394160D01*
X1088520Y1399040D01*
X1090260Y1404220D01*
X1091340Y1409560D01*
X1091680Y1415000D01*
X1091340Y1420440D01*
X1090260Y1425780D01*
X1088520Y1430960D01*
X1086100Y1435840D01*
X1083080Y1440380D01*
X1079480Y1444480D01*
X1075380Y1448080D01*
X1070840Y1451100D01*
X1065960Y1453520D01*
X1060780Y1455260D01*
X1055440Y1456339D01*
X1050000Y1456680D01*
X1044560Y1456339D01*
X1039220Y1455260D01*
X1034040Y1453520D01*
X1029160Y1451100D01*
X1024620Y1448080D01*
X1020520Y1444480D01*
X1016919Y1440380D01*
X1013900Y1435840D01*
X1011480Y1430960D01*
X1009740Y1425780D01*
X1008660Y1420440D01*
X1008319Y1415000D01*
X1008660Y1409560D01*
X1009740Y1404220D01*
X1011480Y1399040D01*
X1013900Y1394160D01*
X1016919Y1389620D01*
X1020520Y1385520D01*
X1024620Y1381920D01*
X1029160Y1378899D01*
X1034040Y1376480D01*
X1039220Y1374740D01*
X1044560Y1373660D01*
G37*
G36*
X1311080Y1374460D02*
G01*
X1316800Y1374460D01*
X1322480Y1375180D01*
X1328040Y1376600D01*
X1333360Y1378720D01*
X1338380Y1381480D01*
X1343020Y1384840D01*
X1347200Y1388760D01*
X1350840Y1393180D01*
X1353920Y1398020D01*
X1356360Y1403200D01*
X1358120Y1408660D01*
X1359199Y1414280D01*
X1359560Y1420000D01*
X1359199Y1425720D01*
X1358120Y1431339D01*
X1356360Y1436800D01*
X1353920Y1441980D01*
X1350840Y1446819D01*
X1347200Y1451240D01*
X1343020Y1455160D01*
X1338380Y1458520D01*
X1333360Y1461279D01*
X1328040Y1463400D01*
X1322480Y1464820D01*
X1316800Y1465540D01*
X1311080Y1465540D01*
X1305380Y1464820D01*
X1299840Y1463400D01*
X1294520Y1461279D01*
X1289480Y1458520D01*
X1284860Y1455160D01*
X1280680Y1451240D01*
X1277020Y1446819D01*
X1273960Y1441980D01*
X1271520Y1436800D01*
X1269740Y1431339D01*
X1268680Y1425720D01*
X1268320Y1420000D01*
X1268680Y1414280D01*
X1269740Y1408660D01*
X1271520Y1403200D01*
X1273960Y1398020D01*
X1277020Y1393180D01*
X1280680Y1388760D01*
X1284860Y1384840D01*
X1289480Y1381480D01*
X1294520Y1378720D01*
X1299840Y1376600D01*
X1305380Y1375180D01*
G37*
G36*
X2455880Y1376680D02*
G01*
X2460680Y1377020D01*
X2465400Y1378040D01*
X2469920Y1379740D01*
X2474160Y1382040D01*
X2478020Y1384940D01*
X2481440Y1388340D01*
X2484320Y1392200D01*
X2486640Y1396440D01*
X2488320Y1400960D01*
X2489340Y1405680D01*
X2489680Y1410480D01*
X2489340Y1415300D01*
X2488320Y1420020D01*
X2486640Y1424540D01*
X2484320Y1428760D01*
X2481440Y1432640D01*
X2478020Y1436040D01*
X2474160Y1438940D01*
X2469920Y1441240D01*
X2465400Y1442940D01*
X2460680Y1443959D01*
X2455880Y1444300D01*
X2451060Y1443959D01*
X2446360Y1442940D01*
X2441840Y1441240D01*
X2437600Y1438940D01*
X2433740Y1436040D01*
X2430320Y1432640D01*
X2427440Y1428760D01*
X2425120Y1424540D01*
X2423440Y1420020D01*
X2422400Y1415300D01*
X2422060Y1410480D01*
X2422400Y1405680D01*
X2423440Y1400960D01*
X2425120Y1396440D01*
X2427440Y1392200D01*
X2430320Y1388340D01*
X2433740Y1384940D01*
X2437600Y1382040D01*
X2441840Y1379740D01*
X2446360Y1378040D01*
X2451060Y1377020D01*
G37*
G36*
X2553660Y1421940D02*
G01*
X2569120Y1421940D01*
X2574140Y1422280D01*
X2578920Y1423280D01*
X2583519Y1424920D01*
X2587860Y1427160D01*
X2591840Y1429980D01*
X2595419Y1433320D01*
X2598500Y1437100D01*
X2601040Y1441279D01*
X2602980Y1445760D01*
X2604300Y1450460D01*
X2604960Y1455300D01*
X2604960Y1460180D01*
X2604300Y1465020D01*
X2602980Y1469720D01*
X2601040Y1474199D01*
X2598500Y1478360D01*
X2595419Y1482160D01*
X2591840Y1485480D01*
X2587860Y1488300D01*
X2583519Y1490560D01*
X2578920Y1492180D01*
X2574140Y1493180D01*
X2569120Y1493520D01*
X2553660Y1493520D01*
X2548640Y1493180D01*
X2543860Y1492180D01*
X2539260Y1490560D01*
X2534920Y1488300D01*
X2530940Y1485480D01*
X2527360Y1482160D01*
X2524280Y1478360D01*
X2521740Y1474199D01*
X2519800Y1469720D01*
X2518480Y1465020D01*
X2517820Y1460180D01*
X2517820Y1455300D01*
X2518480Y1450460D01*
X2519800Y1445760D01*
X2521740Y1441279D01*
X2524280Y1437100D01*
X2527360Y1433320D01*
X2530940Y1429980D01*
X2534920Y1427160D01*
X2539260Y1424920D01*
X2543860Y1423280D01*
X2548640Y1422280D01*
G37*
G36*
X368660Y1489840D02*
G01*
X374020Y1490020D01*
X379320Y1490900D01*
X384440Y1492500D01*
X389320Y1494760D01*
X393840Y1497640D01*
X397939Y1501120D01*
X401540Y1505100D01*
X404580Y1509520D01*
X407000Y1514319D01*
X408760Y1519379D01*
X409840Y1524640D01*
X410200Y1530000D01*
X409840Y1535360D01*
X408760Y1540620D01*
X407000Y1545700D01*
X404580Y1550480D01*
X401540Y1554900D01*
X397939Y1558899D01*
X393840Y1562360D01*
X389320Y1565240D01*
X384440Y1567500D01*
X379320Y1569100D01*
X374020Y1570000D01*
X368660Y1570160D01*
X363320Y1569640D01*
X358100Y1568380D01*
X353080Y1566459D01*
X348380Y1563880D01*
X344060Y1560700D01*
X340200Y1556960D01*
X336860Y1552740D01*
X334120Y1548120D01*
X332040Y1543180D01*
X330620Y1538000D01*
X329900Y1532680D01*
X329900Y1527320D01*
X330620Y1522000D01*
X332040Y1516819D01*
X334120Y1511879D01*
X336860Y1507260D01*
X340200Y1503040D01*
X344060Y1499300D01*
X348380Y1496120D01*
X353080Y1493540D01*
X358100Y1491620D01*
X363320Y1490360D01*
G37*
G36*
X2565000Y1574800D02*
G01*
X2570360Y1575160D01*
X2575620Y1576240D01*
X2580700Y1578000D01*
X2585480Y1580420D01*
X2589900Y1583460D01*
X2593900Y1587060D01*
X2597360Y1591160D01*
X2600240Y1595680D01*
X2602500Y1600560D01*
X2604100Y1605680D01*
X2604980Y1610980D01*
X2605160Y1616339D01*
X2604640Y1621680D01*
X2603380Y1626900D01*
X2601460Y1631920D01*
X2598880Y1636620D01*
X2595700Y1640940D01*
X2591960Y1644800D01*
X2587740Y1648140D01*
X2583120Y1650880D01*
X2578180Y1652960D01*
X2573000Y1654379D01*
X2567679Y1655100D01*
X2562320Y1655100D01*
X2557000Y1654379D01*
X2551820Y1652960D01*
X2546880Y1650880D01*
X2542260Y1648140D01*
X2538040Y1644800D01*
X2534300Y1640940D01*
X2531120Y1636620D01*
X2528540Y1631920D01*
X2526620Y1626900D01*
X2525360Y1621680D01*
X2524840Y1616339D01*
X2525020Y1610980D01*
X2525900Y1605680D01*
X2527500Y1600560D01*
X2529760Y1595680D01*
X2532640Y1591160D01*
X2536100Y1587060D01*
X2540100Y1583460D01*
X2544520Y1580420D01*
X2549300Y1578000D01*
X2554380Y1576240D01*
X2559640Y1575160D01*
G37*
G36*
X352500Y1593860D02*
G01*
X352500Y1612500D01*
X333860Y1612500D01*
X334120Y1611879D01*
X336860Y1607260D01*
X340200Y1603040D01*
X344060Y1599300D01*
X348380Y1596120D01*
G37*
G36*
X387500Y1593920D02*
G01*
X389320Y1594760D01*
X393840Y1597640D01*
X397939Y1601120D01*
X401540Y1605100D01*
X404580Y1609520D01*
X406079Y1612500D01*
X387500Y1612500D01*
G37*
G36*
X387500Y1647500D02*
G01*
X406079Y1647500D01*
X404580Y1650480D01*
X401540Y1654900D01*
X397939Y1658899D01*
X393840Y1662360D01*
X389320Y1665240D01*
X387500Y1666080D01*
G37*
G36*
X333860Y1647500D02*
G01*
X352500Y1647500D01*
X352500Y1666140D01*
X348380Y1663880D01*
X344060Y1660700D01*
X340200Y1656960D01*
X336860Y1652740D01*
X334120Y1648120D01*
G37*
G36*
X2547500Y1678920D02*
G01*
X2547500Y1697500D01*
X2528920Y1697500D01*
X2529760Y1695680D01*
X2532640Y1691160D01*
X2536100Y1687060D01*
X2540100Y1683460D01*
X2544520Y1680420D01*
G37*
G36*
X2582500Y1678920D02*
G01*
X2585480Y1680420D01*
X2589900Y1683460D01*
X2593900Y1687060D01*
X2597360Y1691160D01*
X2600240Y1695680D01*
X2601080Y1697500D01*
X2582500Y1697500D01*
G37*
G36*
X2528860Y1732500D02*
G01*
X2547500Y1732500D01*
X2547500Y1751140D01*
X2546880Y1750880D01*
X2542260Y1748140D01*
X2538040Y1744800D01*
X2534300Y1740940D01*
X2531120Y1736620D01*
G37*
G36*
X2582500Y1732500D02*
G01*
X2601139Y1732500D01*
X2598880Y1736620D01*
X2595700Y1740940D01*
X2591960Y1744800D01*
X2587740Y1748140D01*
X2583120Y1750880D01*
X2582500Y1751140D01*
G37*
G36*
X2565000Y1774800D02*
G01*
X2570360Y1775160D01*
X2575620Y1776240D01*
X2580700Y1778000D01*
X2585480Y1780420D01*
X2589900Y1783460D01*
X2593900Y1787060D01*
X2597360Y1791160D01*
X2600240Y1795680D01*
X2602500Y1800560D01*
X2604100Y1805680D01*
X2604980Y1810980D01*
X2605160Y1816339D01*
X2604640Y1821680D01*
X2603380Y1826900D01*
X2601460Y1831920D01*
X2598880Y1836620D01*
X2595700Y1840940D01*
X2591960Y1844800D01*
X2587740Y1848140D01*
X2583120Y1850880D01*
X2578180Y1852960D01*
X2573000Y1854379D01*
X2567679Y1855100D01*
X2562320Y1855100D01*
X2557000Y1854379D01*
X2551820Y1852960D01*
X2546880Y1850880D01*
X2542260Y1848140D01*
X2538040Y1844800D01*
X2534300Y1840940D01*
X2531120Y1836620D01*
X2528540Y1831920D01*
X2526620Y1826900D01*
X2525360Y1821680D01*
X2524840Y1816339D01*
X2525020Y1810980D01*
X2525900Y1805680D01*
X2527500Y1800560D01*
X2529760Y1795680D01*
X2532640Y1791160D01*
X2536100Y1787060D01*
X2540100Y1783460D01*
X2544520Y1780420D01*
X2549300Y1778000D01*
X2554380Y1776240D01*
X2559640Y1775160D01*
G37*
G36*
X368660Y1889840D02*
G01*
X374020Y1890020D01*
X379320Y1890900D01*
X384440Y1892500D01*
X389320Y1894760D01*
X393840Y1897640D01*
X397939Y1901120D01*
X401540Y1905100D01*
X404580Y1909520D01*
X407000Y1914319D01*
X408760Y1919379D01*
X409840Y1924640D01*
X410200Y1930000D01*
X409840Y1935360D01*
X408760Y1940620D01*
X407000Y1945700D01*
X404580Y1950480D01*
X401540Y1954900D01*
X397939Y1958899D01*
X393840Y1962360D01*
X389320Y1965240D01*
X384440Y1967500D01*
X379320Y1969100D01*
X374020Y1970000D01*
X368660Y1970160D01*
X363320Y1969640D01*
X358100Y1968380D01*
X353080Y1966459D01*
X348380Y1963880D01*
X344060Y1960700D01*
X340200Y1956960D01*
X336860Y1952740D01*
X334120Y1948120D01*
X332040Y1943180D01*
X330620Y1938000D01*
X329900Y1932680D01*
X329900Y1927320D01*
X330620Y1922000D01*
X332040Y1916819D01*
X334120Y1911879D01*
X336860Y1907260D01*
X340200Y1903040D01*
X344060Y1899300D01*
X348380Y1896120D01*
X353080Y1893540D01*
X358100Y1891620D01*
X363320Y1890360D01*
G37*
G36*
X2565000Y1974800D02*
G01*
X2570360Y1975160D01*
X2575620Y1976240D01*
X2580700Y1978000D01*
X2585480Y1980420D01*
X2589900Y1983460D01*
X2593900Y1987060D01*
X2597360Y1991160D01*
X2600240Y1995680D01*
X2602500Y2000560D01*
X2604100Y2005680D01*
X2604980Y2010980D01*
X2605160Y2016339D01*
X2604640Y2021680D01*
X2603380Y2026900D01*
X2601460Y2031920D01*
X2598880Y2036620D01*
X2595700Y2040940D01*
X2591960Y2044800D01*
X2587740Y2048140D01*
X2583120Y2050880D01*
X2578180Y2052960D01*
X2573000Y2054379D01*
X2567679Y2055100D01*
X2562320Y2055100D01*
X2557000Y2054379D01*
X2551820Y2052960D01*
X2546880Y2050880D01*
X2542260Y2048140D01*
X2538040Y2044800D01*
X2534300Y2040940D01*
X2531120Y2036620D01*
X2528540Y2031920D01*
X2526620Y2026900D01*
X2525360Y2021680D01*
X2524840Y2016339D01*
X2525020Y2010980D01*
X2525900Y2005680D01*
X2527500Y2000560D01*
X2529760Y1995680D01*
X2532640Y1991160D01*
X2536100Y1987060D01*
X2540100Y1983460D01*
X2544520Y1980420D01*
X2549300Y1978000D01*
X2554380Y1976240D01*
X2559640Y1975160D01*
G37*
G36*
X352500Y1993860D02*
G01*
X352500Y2012500D01*
X333860Y2012500D01*
X334120Y2011879D01*
X336860Y2007260D01*
X340200Y2003040D01*
X344060Y1999300D01*
X348380Y1996120D01*
G37*
G36*
X387500Y1993920D02*
G01*
X389320Y1994760D01*
X393840Y1997640D01*
X397939Y2001120D01*
X401540Y2005100D01*
X404580Y2009520D01*
X406079Y2012500D01*
X387500Y2012500D01*
G37*
G36*
X387500Y2047500D02*
G01*
X406079Y2047500D01*
X404580Y2050480D01*
X401540Y2054900D01*
X397939Y2058899D01*
X393840Y2062360D01*
X389320Y2065240D01*
X387500Y2066080D01*
G37*
G36*
X333860Y2047500D02*
G01*
X352500Y2047500D01*
X352500Y2066140D01*
X348380Y2063880D01*
X344060Y2060700D01*
X340200Y2056960D01*
X336860Y2052740D01*
X334120Y2048120D01*
G37*
G36*
X2341580Y2175640D02*
G01*
X2347300Y2176000D01*
X2352920Y2177060D01*
X2358380Y2178840D01*
X2363560Y2181280D01*
X2368400Y2184340D01*
X2372800Y2188000D01*
X2376720Y2192180D01*
X2380100Y2196820D01*
X2382860Y2201840D01*
X2384960Y2207160D01*
X2386400Y2212720D01*
X2387120Y2218400D01*
X2387120Y2224120D01*
X2386400Y2229800D01*
X2384960Y2235360D01*
X2382860Y2240680D01*
X2380100Y2245700D01*
X2376720Y2250340D01*
X2372800Y2254520D01*
X2369140Y2257540D01*
X2368080Y2258920D01*
X2367700Y2260620D01*
X2368080Y2262340D01*
X2369140Y2263720D01*
X2372800Y2266740D01*
X2376720Y2270920D01*
X2380100Y2275560D01*
X2382860Y2280580D01*
X2384960Y2285900D01*
X2386400Y2291460D01*
X2387120Y2297140D01*
X2387120Y2302860D01*
X2386400Y2308540D01*
X2384960Y2314100D01*
X2382860Y2319420D01*
X2380100Y2324440D01*
X2376720Y2329080D01*
X2372800Y2333260D01*
X2369140Y2336280D01*
X2368080Y2337660D01*
X2367700Y2339360D01*
X2368080Y2341080D01*
X2369140Y2342460D01*
X2372800Y2345480D01*
X2376720Y2349660D01*
X2380100Y2354300D01*
X2382860Y2359320D01*
X2384960Y2364640D01*
X2386400Y2370200D01*
X2387120Y2375880D01*
X2387120Y2381600D01*
X2386400Y2387280D01*
X2384960Y2392840D01*
X2382860Y2398160D01*
X2380100Y2403180D01*
X2376720Y2407820D01*
X2372800Y2412000D01*
X2368400Y2415660D01*
X2363560Y2418720D01*
X2358380Y2421160D01*
X2352920Y2422940D01*
X2347300Y2424000D01*
X2341580Y2424360D01*
X2335860Y2424000D01*
X2330220Y2422940D01*
X2324780Y2421160D01*
X2319600Y2418720D01*
X2314760Y2415660D01*
X2310340Y2412000D01*
X2306420Y2407820D01*
X2303060Y2403180D01*
X2300300Y2398160D01*
X2298180Y2392840D01*
X2296760Y2387280D01*
X2296040Y2381600D01*
X2296040Y2375880D01*
X2296760Y2370200D01*
X2298180Y2364640D01*
X2300300Y2359320D01*
X2303060Y2354300D01*
X2306420Y2349660D01*
X2310340Y2345480D01*
X2314000Y2342460D01*
X2315080Y2341080D01*
X2315460Y2339360D01*
X2315080Y2337660D01*
X2314000Y2336280D01*
X2310340Y2333260D01*
X2306420Y2329080D01*
X2303060Y2324440D01*
X2300300Y2319420D01*
X2298180Y2314100D01*
X2296760Y2308540D01*
X2296040Y2302860D01*
X2296040Y2297140D01*
X2296760Y2291460D01*
X2298180Y2285900D01*
X2300300Y2280580D01*
X2303060Y2275560D01*
X2306420Y2270920D01*
X2310340Y2266740D01*
X2314000Y2263720D01*
X2315080Y2262340D01*
X2315460Y2260620D01*
X2315080Y2258920D01*
X2314000Y2257540D01*
X2310340Y2254520D01*
X2306420Y2250340D01*
X2303060Y2245700D01*
X2300300Y2240680D01*
X2298180Y2235360D01*
X2296760Y2229800D01*
X2296040Y2224120D01*
X2296040Y2218400D01*
X2296760Y2212720D01*
X2298180Y2207160D01*
X2300300Y2201840D01*
X2303060Y2196820D01*
X2306420Y2192180D01*
X2310340Y2188000D01*
X2314760Y2184340D01*
X2319600Y2181280D01*
X2324780Y2178840D01*
X2330220Y2177060D01*
X2335860Y2176000D01*
G37*
G36*
X819700Y2177800D02*
G01*
X824900Y2177800D01*
X824900Y2194000D01*
X809260Y2194000D01*
X809260Y2188220D01*
X809539Y2185720D01*
X810300Y2183580D01*
X811520Y2181640D01*
X813120Y2180040D01*
X815060Y2178820D01*
X817200Y2178080D01*
G37*
G36*
X627080Y2204840D02*
G01*
X632220Y2204840D01*
X632220Y2222380D01*
X616660Y2222380D01*
X616660Y2215260D01*
X616940Y2212780D01*
X617680Y2210620D01*
X618900Y2208700D01*
X620500Y2207080D01*
X622440Y2205880D01*
X624580Y2205120D01*
G37*
G36*
X652980Y2204840D02*
G01*
X658120Y2204840D01*
X660620Y2205120D01*
X662760Y2205880D01*
X664680Y2207080D01*
X666300Y2208700D01*
X667520Y2210620D01*
X668259Y2212780D01*
X668540Y2215260D01*
X668540Y2222380D01*
X652980Y2222380D01*
G37*
G36*
X809260Y2216000D02*
G01*
X824900Y2216000D01*
X824900Y2232200D01*
X819700Y2232200D01*
X817200Y2231920D01*
X815060Y2231180D01*
X813120Y2229960D01*
X811520Y2228360D01*
X810300Y2226420D01*
X809539Y2224280D01*
X809260Y2221780D01*
G37*
G36*
X616660Y2247060D02*
G01*
X632220Y2247060D01*
X632220Y2264600D01*
X627080Y2264600D01*
X624580Y2264320D01*
X622440Y2263580D01*
X620500Y2262360D01*
X618900Y2260760D01*
X617680Y2258820D01*
X616940Y2256680D01*
X616660Y2254180D01*
G37*
G36*
X652980Y2247060D02*
G01*
X668540Y2247060D01*
X668540Y2254180D01*
X668259Y2256680D01*
X667520Y2258820D01*
X666300Y2260760D01*
X664680Y2262360D01*
X662760Y2263580D01*
X660620Y2264320D01*
X658120Y2264600D01*
X652980Y2264600D01*
G37*
G36*
X412920Y2257920D02*
G01*
X420540Y2258480D01*
X428060Y2259760D01*
X435439Y2261780D01*
X442580Y2264480D01*
X449440Y2267880D01*
X455940Y2271900D01*
X462000Y2276540D01*
X467600Y2281760D01*
X472660Y2287480D01*
X477160Y2293660D01*
X481040Y2300240D01*
X484260Y2307180D01*
X486800Y2314380D01*
X488620Y2321800D01*
X489720Y2329360D01*
X490100Y2337000D01*
X489720Y2344640D01*
X488620Y2352200D01*
X486800Y2359620D01*
X484260Y2366820D01*
X481040Y2373760D01*
X477160Y2380340D01*
X472660Y2386520D01*
X467600Y2392240D01*
X462000Y2397460D01*
X455940Y2402100D01*
X449440Y2406120D01*
X442580Y2409520D01*
X435439Y2412220D01*
X428060Y2414220D01*
X420540Y2415520D01*
X412920Y2416080D01*
X405280Y2415880D01*
X397680Y2414960D01*
X390220Y2413320D01*
X382960Y2410960D01*
X375940Y2407900D01*
X369260Y2404180D01*
X362980Y2399840D01*
X357140Y2394920D01*
X351800Y2389440D01*
X347020Y2383480D01*
X342819Y2377100D01*
X339280Y2370320D01*
X336400Y2363260D01*
X334200Y2355920D01*
X332740Y2348420D01*
X332000Y2340820D01*
X332000Y2333180D01*
X332740Y2325580D01*
X334200Y2318080D01*
X336400Y2310740D01*
X339280Y2303660D01*
X342819Y2296900D01*
X347020Y2290520D01*
X351800Y2284560D01*
X357140Y2279080D01*
X362980Y2274160D01*
X369260Y2269820D01*
X375940Y2266100D01*
X382960Y2263040D01*
X390220Y2260680D01*
X397680Y2259040D01*
X405280Y2258120D01*
G37*
G36*
X2045180Y2412420D02*
G01*
X2052740Y2412800D01*
X2060220Y2413900D01*
X2067560Y2415740D01*
X2074700Y2418300D01*
X2081540Y2421540D01*
X2088020Y2425420D01*
X2094100Y2429940D01*
X2099720Y2435020D01*
X2104800Y2440620D01*
X2109300Y2446700D01*
X2113200Y2453200D01*
X2116440Y2460040D01*
X2118980Y2467160D01*
X2120820Y2474500D01*
X2121940Y2482000D01*
X2122300Y2489540D01*
X2121940Y2497100D01*
X2120820Y2504600D01*
X2118980Y2511940D01*
X2116440Y2519060D01*
X2113200Y2525900D01*
X2109300Y2532400D01*
X2104800Y2538480D01*
X2099720Y2544080D01*
X2094100Y2549160D01*
X2088020Y2553680D01*
X2081540Y2557560D01*
X2074700Y2560800D01*
X2067560Y2563360D01*
X2060220Y2565200D01*
X2052740Y2566300D01*
X2045180Y2566680D01*
X2037620Y2566300D01*
X2030140Y2565200D01*
X2022800Y2563360D01*
X2015660Y2560800D01*
X2008820Y2557560D01*
X2002340Y2553680D01*
X1996260Y2549160D01*
X1990640Y2544080D01*
X1985560Y2538480D01*
X1981060Y2532400D01*
X1977160Y2525900D01*
X1973920Y2519060D01*
X1971380Y2511940D01*
X1969540Y2504600D01*
X1968420Y2497100D01*
X1968060Y2489540D01*
X1968420Y2482000D01*
X1969540Y2474500D01*
X1971380Y2467160D01*
X1973920Y2460040D01*
X1977160Y2453200D01*
X1981060Y2446700D01*
X1985560Y2440620D01*
X1990640Y2435020D01*
X1996260Y2429940D01*
X2002340Y2425420D01*
X2008820Y2421540D01*
X2015660Y2418300D01*
X2022800Y2415740D01*
X2030140Y2413900D01*
X2037620Y2412800D01*
G37*
G36*
X434860Y2529200D02*
G01*
X441960Y2529740D01*
X448980Y2531020D01*
X455820Y2533020D01*
X462420Y2535700D01*
X468720Y2539060D01*
X474640Y2543040D01*
X480100Y2547600D01*
X485080Y2552700D01*
X489520Y2558300D01*
X493340Y2564320D01*
X496520Y2570680D01*
X499040Y2577360D01*
X500860Y2584260D01*
X501960Y2591300D01*
X502320Y2598420D01*
X501960Y2605539D01*
X500860Y2612580D01*
X499040Y2619480D01*
X496520Y2626160D01*
X493340Y2632520D01*
X489520Y2638540D01*
X485080Y2644140D01*
X480100Y2649240D01*
X474640Y2653800D01*
X468720Y2657780D01*
X462420Y2661139D01*
X455820Y2663820D01*
X448980Y2665820D01*
X441960Y2667100D01*
X434860Y2667640D01*
X427720Y2667460D01*
X420660Y2666540D01*
X413720Y2664920D01*
X406980Y2662559D01*
X400520Y2659540D01*
X394420Y2655880D01*
X388700Y2651600D01*
X383480Y2646760D01*
X378760Y2641400D01*
X374640Y2635580D01*
X371120Y2629380D01*
X368280Y2622840D01*
X366100Y2616060D01*
X364640Y2609080D01*
X363920Y2601980D01*
X363920Y2594860D01*
X364640Y2587760D01*
X366100Y2580779D01*
X368280Y2574000D01*
X371120Y2567460D01*
X374640Y2561259D01*
X378760Y2555440D01*
X383480Y2550080D01*
X388700Y2545240D01*
X394420Y2540960D01*
X400520Y2537300D01*
X406980Y2534280D01*
X413720Y2531920D01*
X420660Y2530300D01*
X427720Y2529380D01*
G37*
G36*
X2482100Y2529200D02*
G01*
X2489200Y2529740D01*
X2496220Y2531020D01*
X2503060Y2533020D01*
X2509660Y2535700D01*
X2515960Y2539060D01*
X2521880Y2543040D01*
X2527340Y2547600D01*
X2532320Y2552700D01*
X2536760Y2558300D01*
X2540580Y2564320D01*
X2543760Y2570680D01*
X2546280Y2577360D01*
X2548100Y2584260D01*
X2549200Y2591300D01*
X2549560Y2598420D01*
X2549200Y2605539D01*
X2548100Y2612580D01*
X2546280Y2619480D01*
X2543760Y2626160D01*
X2540580Y2632520D01*
X2536760Y2638540D01*
X2532320Y2644140D01*
X2527340Y2649240D01*
X2521880Y2653800D01*
X2515960Y2657780D01*
X2509660Y2661139D01*
X2503060Y2663820D01*
X2496220Y2665820D01*
X2489200Y2667100D01*
X2482100Y2667640D01*
X2474960Y2667460D01*
X2467900Y2666540D01*
X2460960Y2664920D01*
X2454220Y2662559D01*
X2447760Y2659540D01*
X2441660Y2655880D01*
X2435940Y2651600D01*
X2430720Y2646760D01*
X2426000Y2641400D01*
X2421880Y2635580D01*
X2418360Y2629380D01*
X2415520Y2622840D01*
X2413340Y2616060D01*
X2411880Y2609080D01*
X2411160Y2601980D01*
X2411160Y2594860D01*
X2411880Y2587760D01*
X2413340Y2580779D01*
X2415520Y2574000D01*
X2418360Y2567460D01*
X2421880Y2561259D01*
X2426000Y2555440D01*
X2430720Y2550080D01*
X2435940Y2545240D01*
X2441660Y2540960D01*
X2447760Y2537300D01*
X2454220Y2534280D01*
X2460960Y2531920D01*
X2467900Y2530300D01*
X2474960Y2529380D01*
G37*
G36*
X1332000Y2663039D02*
G01*
X1332000Y2682000D01*
X1313040Y2682000D01*
X1314319Y2679400D01*
X1317320Y2674920D01*
X1320880Y2670880D01*
X1324920Y2667320D01*
X1329400Y2664320D01*
G37*
G36*
X1368000Y2663039D02*
G01*
X1370600Y2664320D01*
X1375080Y2667320D01*
X1379120Y2670880D01*
X1382680Y2674920D01*
X1385680Y2679400D01*
X1386960Y2682000D01*
X1368000Y2682000D01*
G37*
G36*
X1313040Y2718000D02*
G01*
X1332000Y2718000D01*
X1332000Y2736960D01*
X1329400Y2735680D01*
X1324920Y2732679D01*
X1320880Y2729120D01*
X1317320Y2725080D01*
X1314319Y2720600D01*
G37*
G36*
X1368000Y2718000D02*
G01*
X1386960Y2718000D01*
X1385680Y2720600D01*
X1382680Y2725080D01*
X1379120Y2729120D01*
X1375080Y2732679D01*
X1370600Y2735680D01*
X1368000Y2736960D01*
G37*

%LPD*%
G36*
X727720Y2686120D02*
G01*
X682780Y2674220D01*
X705200Y2657720D01*
X716400Y2660680D01*
G37*
G36*
X1320980Y2689100D02*
G01*
X1325160Y2664300D01*
X1344840Y2656800D01*
X1364440Y2672580D01*
G37*
G36*
X1026760Y2679500D02*
G01*
X1040160Y2657799D01*
X1059840Y2657799D01*
X1073240Y2679500D01*
G37*
G36*
X980819Y2703420D02*
G01*
X949539Y2669000D01*
X977860Y2667919D01*
X984599Y2675299D01*
G37*
G36*
X2515000Y2326580D02*
G01*
X2490180Y2314760D01*
X2490180Y2285240D01*
X2515000Y2273420D01*
G37*
G36*
X1500020Y960720D02*
G01*
X1482520Y939720D01*
X1527520Y939720D01*
X1510020Y960720D01*
G37*
G36*
X1400000Y960720D02*
G01*
X1382520Y939720D01*
X1427520Y939740D01*
X1410000Y960720D01*
G37*
G36*
X1303100Y949820D02*
G01*
X1334960Y918040D01*
X1333540Y941400D01*
X1326459Y948460D01*
G37*
G36*
X988040Y944800D02*
G01*
X965100Y930000D01*
X963880Y920000D01*
X982620Y900140D01*
G37*
G36*
X2535060Y1916879D02*
G01*
X2532580Y1889660D01*
X2539660Y1882580D01*
X2566880Y1885060D01*
G37*
G36*
X2535060Y1716879D02*
G01*
X2532580Y1689660D01*
X2539660Y1682580D01*
X2566880Y1685060D01*
G37*
G36*
X389840Y1752500D02*
G01*
X389840Y1707500D01*
X410840Y1725000D01*
X410840Y1735000D01*
G37*
G36*
X389840Y1852500D02*
G01*
X389840Y1807500D01*
X410840Y1825000D01*
X410840Y1835000D01*
G37*
G36*
X389840Y2152500D02*
G01*
X389840Y2107500D01*
X410840Y2125000D01*
X410840Y2135000D01*
G37*
G36*
X2254660Y2625880D02*
G01*
X2260000Y2616240D01*
X2270000Y2616240D01*
X2275340Y2625880D01*
G37*
G36*
X1374660Y1445880D02*
G01*
X1380000Y1436240D01*
X1390000Y1436240D01*
X1395340Y1445880D01*
G37*
G36*
X2359120Y1870340D02*
G01*
X2359120Y1849660D01*
X2368760Y1855000D01*
X2368760Y1865000D01*
G37*
G36*
X399660Y1150880D02*
G01*
X405000Y1141240D01*
X415000Y1141240D01*
X420340Y1150880D01*
G37*
G36*
X683760Y1985860D02*
G01*
X669140Y1971240D01*
X679740Y1968200D01*
X686800Y1975260D01*
G37*
G36*
X694740Y1546800D02*
G01*
X684140Y1543760D01*
X698760Y1529139D01*
X701800Y1539740D01*
G37*
G36*
X743760Y1995860D02*
G01*
X729140Y1981240D01*
X739740Y1978200D01*
X746800Y1985260D01*
G37*
G36*
X760000Y1223760D02*
G01*
X754659Y1214120D01*
X775340Y1214120D01*
X770000Y1223760D01*
G37*
G36*
X788060Y2010620D02*
G01*
X769020Y2002580D01*
X777320Y1995620D01*
X787260Y1999800D01*
G37*
G36*
X815260Y1221800D02*
G01*
X808199Y1214740D01*
X811240Y1204140D01*
X825860Y1218760D01*
G37*
G36*
X810260Y2046800D02*
G01*
X803199Y2039740D01*
X806240Y2029139D01*
X820860Y2043760D01*
G37*
G36*
X645260Y1151800D02*
G01*
X638200Y1144740D01*
X641240Y1134140D01*
X655860Y1148760D01*
G37*
G36*
X861220Y2039800D02*
G01*
X859000Y2029000D01*
X866580Y2022500D01*
X876919Y2026360D01*
G37*
G36*
X995000Y2033760D02*
G01*
X989659Y2024120D01*
X1010340Y2024120D01*
X1005000Y2033760D01*
G37*
G36*
X1319660Y1105880D02*
G01*
X1325000Y1096240D01*
X1335000Y1096240D01*
X1340340Y1105880D01*
G37*
G36*
X1345900Y1898920D02*
G01*
X1336240Y1893600D01*
X1336240Y1883600D01*
X1345880Y1878260D01*
G37*
G36*
X1200880Y1250340D02*
G01*
X1191240Y1245000D01*
X1191240Y1235000D01*
X1200880Y1229660D01*
G37*
G36*
X1528200Y1238940D02*
G01*
X1517260Y1221400D01*
X1528260Y1220820D01*
X1533560Y1229300D01*
G37*
G36*
X2179660Y2020880D02*
G01*
X2180160Y2011240D01*
X2199840Y2011240D01*
X2200340Y2020880D01*
G37*
G36*
X2180160Y1923760D02*
G01*
X2179660Y1914120D01*
X2200340Y1914120D01*
X2199840Y1923760D01*
G37*
G36*
X2179660Y1895880D02*
G01*
X2185000Y1886240D01*
X2195000Y1886240D01*
X2200340Y1895880D01*
G37*
G36*
X1739660Y2175880D02*
G01*
X1740160Y2166240D01*
X1759840Y2166240D01*
X1760340Y2175880D01*
G37*
G36*
X1680260Y2041800D02*
G01*
X1673200Y2034740D01*
X1676240Y2024139D01*
X1690860Y2038760D01*
G37*
G36*
X1699120Y2035340D02*
G01*
X1699120Y2014660D01*
X1708760Y2015160D01*
X1708760Y2034840D01*
G37*
G36*
X1144120Y2255340D02*
G01*
X1144120Y2234660D01*
X1153760Y2235160D01*
X1153760Y2254840D01*
G37*
G36*
X1376240Y2320860D02*
G01*
X1369780Y2313700D01*
X1383700Y2299780D01*
X1390860Y2306240D01*
G37*
G36*
X609660Y1620880D02*
G01*
X610160Y1611240D01*
X629840Y1611240D01*
X630340Y1620880D01*
G37*
G36*
X615000Y1648760D02*
G01*
X609660Y1639120D01*
X630340Y1639120D01*
X625000Y1648760D01*
G37*
G36*
X580160Y1228760D02*
G01*
X579660Y1219120D01*
X600340Y1219120D01*
X599840Y1228760D01*
G37*
G36*
X618760Y1870860D02*
G01*
X604140Y1856240D01*
X614740Y1853200D01*
X621800Y1860260D01*
G37*
G36*
X2500000Y1568760D02*
G01*
X2494660Y1559120D01*
X2515340Y1559120D01*
X2510000Y1568760D01*
G37*
G36*
X1980880Y2050340D02*
G01*
X1971240Y2045000D01*
X1971240Y2035000D01*
X1980880Y2029660D01*
G37*
G36*
X1559120Y2075340D02*
G01*
X1559120Y2054660D01*
X1568760Y2060000D01*
X1568760Y2070000D01*
G37*
G36*
X2079120Y1760340D02*
G01*
X2079120Y1739660D01*
X2088760Y1745000D01*
X2088760Y1755000D01*
G37*
G36*
X2060880Y1760340D02*
G01*
X2051240Y1755000D01*
X2051240Y1745000D01*
X2060880Y1739660D01*
G37*
G36*
X1245260Y2026800D02*
G01*
X1238200Y2019740D01*
X1241240Y2009139D01*
X1255860Y2023760D01*
G37*
G36*
X1268760Y2010860D02*
G01*
X1254140Y1996240D01*
X1264740Y1993200D01*
X1271800Y2000260D01*
G37*
G36*
X1510880Y2170340D02*
G01*
X1501240Y2165000D01*
X1501240Y2155000D01*
X1510880Y2149660D01*
G37*
G36*
X1529120Y2170340D02*
G01*
X1529120Y2149660D01*
X1538760Y2155000D01*
X1538760Y2165000D01*
G37*
G36*
X1339120Y2035340D02*
G01*
X1339120Y2014660D01*
X1348760Y2020000D01*
X1348760Y2030000D01*
G37*
G36*
X1239740Y1651800D02*
G01*
X1229140Y1648760D01*
X1243760Y1634139D01*
X1246800Y1644740D01*
G37*
G36*
X1239120Y1645340D02*
G01*
X1239120Y1624660D01*
X1248760Y1630000D01*
X1248760Y1640000D01*
G37*
G36*
X579740Y2061800D02*
G01*
X569140Y2058760D01*
X583760Y2044139D01*
X586800Y2054740D01*
G37*
G36*
X1484120Y1745340D02*
G01*
X1484120Y1724660D01*
X1493760Y1730000D01*
X1493760Y1740000D01*
G37*
G36*
X1515000Y1568760D02*
G01*
X1509660Y1559120D01*
X1530340Y1559120D01*
X1525000Y1568760D01*
G37*
G36*
X1229740Y2341800D02*
G01*
X1219140Y2338760D01*
X1233760Y2324140D01*
X1236800Y2334740D01*
G37*
G36*
X2180880Y2395340D02*
G01*
X2171240Y2390000D01*
X2171240Y2380000D01*
X2180880Y2374660D01*
G37*
G36*
X1591160Y1992280D02*
G01*
X1583740Y1985600D01*
X1586220Y1974860D01*
X1601579Y1988680D01*
G37*
G36*
X1613760Y1975860D02*
G01*
X1599139Y1961240D01*
X1609740Y1958200D01*
X1616800Y1965260D01*
G37*
G36*
X650000Y1841339D02*
G01*
X646000Y1832940D01*
X664000Y1832940D01*
X660000Y1841339D01*
G37*
G36*
X1002940Y1719000D02*
G01*
X1002940Y1701000D01*
X1011340Y1705000D01*
X1011340Y1715000D01*
G37*
G36*
X1588020Y1550760D02*
G01*
X1584920Y1541980D01*
X1591980Y1534920D01*
X1600760Y1538020D01*
G37*
G36*
X680000Y1866339D02*
G01*
X676000Y1857940D01*
X694000Y1857940D01*
X690000Y1866339D01*
G37*
G36*
X1002940Y1669000D02*
G01*
X1002940Y1651000D01*
X1011340Y1655000D01*
X1011340Y1665000D01*
G37*
G36*
X1631000Y1602060D02*
G01*
X1635000Y1593660D01*
X1645000Y1593660D01*
X1649000Y1602060D01*
G37*
G36*
X882060Y2139000D02*
G01*
X873660Y2135000D01*
X873660Y2125000D01*
X882060Y2121000D01*
G37*
G36*
X951000Y2032060D02*
G01*
X955000Y2023660D01*
X965000Y2023660D01*
X969000Y2032060D01*
G37*
G36*
X885000Y1256340D02*
G01*
X881000Y1247940D01*
X899000Y1247940D01*
X895000Y1256340D01*
G37*
G36*
X1622060Y1489000D02*
G01*
X1613660Y1485000D01*
X1613660Y1475000D01*
X1622060Y1471000D01*
G37*
G36*
X975000Y1511339D02*
G01*
X971000Y1502940D01*
X989000Y1502940D01*
X985000Y1511339D01*
G37*
G36*
X843020Y1090760D02*
G01*
X839920Y1081980D01*
X846979Y1074920D01*
X855759Y1078020D01*
G37*
G36*
X782940Y2344000D02*
G01*
X782940Y2326000D01*
X791340Y2330000D01*
X791340Y2340000D01*
G37*
G36*
X1911980Y1100080D02*
G01*
X1904920Y1093020D01*
X1908020Y1084240D01*
X1920760Y1096980D01*
G37*
G36*
X1866000Y1257060D02*
G01*
X1870000Y1248660D01*
X1880000Y1248660D01*
X1884000Y1257060D01*
G37*
G36*
X1841980Y1720760D02*
G01*
X1829240Y1708020D01*
X1836459Y1706459D01*
X1843540Y1713540D01*
G37*
G36*
X942060Y2339000D02*
G01*
X933660Y2335000D01*
X933660Y2325000D01*
X942060Y2321000D01*
G37*
G36*
X1146000Y1457060D02*
G01*
X1150000Y1448660D01*
X1160000Y1448660D01*
X1164000Y1457060D01*
G37*
G36*
X979419Y1178620D02*
G01*
X989000Y1163620D01*
X1014000Y1163620D01*
X993560Y1178620D01*
G37*
G36*
X1389420Y1178620D02*
G01*
X1399000Y1163620D01*
X1424000Y1163620D01*
X1403580Y1178620D01*
G37*
G36*
X1430120Y1178620D02*
G01*
X1422620Y1163620D01*
X1447620Y1163620D01*
X1440120Y1178620D01*
G37*
G36*
X701860Y2354200D02*
G01*
X688900Y2344960D01*
X695740Y2320920D01*
X705000Y2343200D01*
G37*
G36*
X733139Y2247220D02*
G01*
X733139Y2222220D01*
X734720Y2229720D01*
X734720Y2239720D01*
G37*
G36*
X710000Y2269400D02*
G01*
X702500Y2254400D01*
X727500Y2254400D01*
X720000Y2269400D01*
G37*
G36*
X819460Y2347000D02*
G01*
X804460Y2340000D01*
X804460Y2330000D01*
X819460Y2322500D01*
G37*
G36*
X910540Y2342500D02*
G01*
X910540Y2317500D01*
X925540Y2325000D01*
X925540Y2335000D01*
G37*
G36*
X885000Y2237000D02*
G01*
X878780Y2222000D01*
X902500Y2222000D01*
X895000Y2237000D01*
G37*
G36*
X822820Y2498000D02*
G01*
X830320Y2483000D01*
X840320Y2483000D01*
X847820Y2498000D01*
G37*
G36*
X882159Y2498000D02*
G01*
X889659Y2483000D01*
X899659Y2483000D01*
X907159Y2498000D01*
G37*
D10*
X835299Y2455000D02*
G01*
X835299Y2515000D01*
X1510000Y2235000D02*
G01*
X1435000Y2235000D01*
X1335000Y2135000D01*
X1105000Y2135000D01*
X980000Y2260000D01*
X980000Y2415000D01*
X940000Y2455000D01*
X920000Y2455000D01*
X894700Y2480300D01*
X894700Y2515000D01*
X1435100Y1140000D02*
G01*
X1300100Y1275000D01*
X1225000Y1275000D01*
X1155000Y1345000D01*
X1155000Y1465000D01*
X950000Y2330000D02*
G01*
X894700Y2330000D01*
X1505000Y919899D02*
G01*
X1505000Y1045000D01*
X1590000Y1130000D01*
X1590000Y1245000D01*
X1560000Y1275000D01*
X1465000Y1275000D01*
X1435100Y1245100D01*
X1435100Y1140000D01*
X950000Y2700000D02*
G01*
X1005000Y2650000D01*
X1000000Y2270000D01*
X1115000Y2155000D01*
X1300000Y2155000D01*
X1610000Y2465000D01*
X1830000Y2465000D01*
X1910000Y2385000D01*
X2190000Y2385000D01*
X1830000Y1720000D02*
G01*
X1840000Y1710000D01*
X2190000Y1710000D01*
X2235000Y1755000D01*
X2235000Y2185000D01*
X2185000Y2235000D01*
X1510000Y2235000D01*
X1920000Y1085000D02*
G01*
X1875000Y1130000D01*
X1875000Y1265000D01*
X835299Y2330000D02*
G01*
X830299Y2335000D01*
X775000Y2335000D01*
X894700Y2205000D02*
G01*
X890000Y2209699D01*
X890000Y2255000D01*
X885000Y2260000D01*
X760000Y2260000D01*
X734699Y2234699D01*
X717399Y2234699D01*
X717399Y2234699D02*
G01*
X715000Y2237100D01*
X715000Y2335000D01*
X835299Y2455000D01*
X680000Y2325300D02*
G01*
X780000Y2425300D01*
X780000Y2590000D01*
X700000Y2670000D01*
X700000Y2700000D01*
X855000Y1090000D02*
G01*
X825000Y1060000D01*
X445000Y1060000D01*
X410000Y1095000D01*
X410000Y1160000D01*
X1630000Y1480000D02*
G01*
X1475000Y1480000D01*
X1455000Y1500000D01*
X1425000Y1530000D01*
X1425000Y1550000D01*
X1415000Y1560000D01*
X1275000Y1560000D01*
X995000Y1560000D01*
X980000Y1545000D01*
X980000Y1495000D01*
X1005029Y920070D02*
G01*
X1000100Y925000D01*
X950000Y925000D01*
X910000Y965000D01*
X910000Y1170000D01*
X1000000Y2015000D02*
G01*
X1000000Y2045000D01*
X980000Y2065000D01*
X945000Y2065000D01*
X930000Y2050000D01*
X930000Y1875000D01*
X890000Y1835000D01*
X890000Y1240000D01*
X875000Y2040000D02*
G01*
X845000Y2005000D01*
X845000Y1235000D01*
X910000Y1170000D01*
X960000Y2040000D02*
G01*
X960000Y1870000D01*
X910000Y1820000D01*
X910000Y1255100D01*
X1025100Y1140000D01*
X370000Y2130000D02*
G01*
X890000Y2130000D01*
X995000Y1660000D02*
G01*
X1095000Y1660000D01*
X1175000Y1580000D01*
X1435000Y1580000D01*
X1445000Y1570000D01*
X1445000Y1540000D01*
X1480000Y1505000D01*
X1600000Y1505000D01*
X1640000Y1545000D01*
X1640000Y1610000D01*
X540000Y1855000D02*
G01*
X540000Y1895000D01*
X565000Y1920000D01*
X640000Y1920000D01*
X685000Y1875000D01*
X685000Y1850000D01*
X995000Y1710000D02*
G01*
X1085000Y1710000D01*
X1190000Y1605000D01*
X1450000Y1605000D01*
X1475000Y1580000D01*
X1475000Y1545000D01*
X1495000Y1525000D01*
X1575000Y1525000D01*
X1600000Y1550000D01*
X370000Y1730000D02*
G01*
X515000Y1730000D01*
X565000Y1780000D01*
X565000Y1885000D01*
X580000Y1900000D01*
X635000Y1900000D01*
X655000Y1880000D01*
X655000Y1825000D01*
X370000Y1830000D02*
G01*
X515000Y1830000D01*
X540000Y1855000D01*
X775000Y2015000D02*
G01*
X775000Y2005000D01*
X800000Y1980000D01*
X800000Y1230000D01*
X825000Y1205000D01*
D11*
X2538400Y2300000D02*
G01*
X2490000Y2300000D01*
X2455000Y2265000D01*
X2455000Y1985000D01*
X2420000Y1950000D01*
X2370000Y1950000D01*
X2305000Y1885000D01*
X2305000Y1405000D01*
X2165000Y1265000D01*
D10*
X2350000Y1860000D02*
G01*
X2510000Y1860000D01*
X2565000Y1915000D01*
X670000Y1985000D02*
G01*
X740000Y1915000D01*
X740000Y1760000D01*
X740000Y1585000D01*
X685000Y1530000D01*
X730000Y1995000D02*
G01*
X765000Y1960000D01*
X765000Y1205000D01*
X820000Y2030000D02*
G01*
X785000Y2065000D01*
X720000Y2065000D01*
X650000Y2065000D01*
X600000Y2015000D01*
X600000Y1995000D01*
X710000Y1885000D01*
X710000Y1610000D01*
X630000Y1530000D01*
X630000Y1160000D01*
X655000Y1135000D01*
X1330000Y1115000D02*
G01*
X1330000Y944929D01*
X1304989Y919920D01*
D12*
X2190000Y2030000D02*
G01*
X2190000Y1905000D01*
X1135000Y2245000D02*
G01*
X1255000Y2245000D01*
X1335000Y2325000D01*
X1335000Y2685000D01*
X1350000Y2700000D01*
X1050000Y2700000D02*
G01*
X1050000Y2265000D01*
X1120000Y2195000D01*
X1265000Y2195000D01*
X1390000Y2320000D01*
X620000Y1630000D02*
G01*
X620000Y1580000D01*
X590000Y1550000D01*
X590000Y1210000D01*
D10*
X605000Y1870000D02*
G01*
X620000Y1855000D01*
X620000Y1629998D01*
X2505000Y1550000D02*
G01*
X2505000Y1655000D01*
X2565000Y1715000D01*
X1990000Y2040000D02*
G01*
X1895000Y2040000D01*
X1860000Y2005000D01*
X1860000Y1970000D01*
X1860000Y1815000D01*
X1840000Y1795000D01*
X1720000Y1795000D01*
X1695000Y1820000D01*
X1695000Y1910000D01*
X1650000Y1955000D01*
X1650000Y2040000D01*
X1625000Y2065000D01*
X1550000Y2065000D01*
X2070000Y1750000D02*
G01*
X2165000Y1750000D01*
X2190000Y1775000D01*
X2190000Y1917166D01*
X1255000Y2010000D02*
G01*
X1235000Y2030000D01*
X1235000Y2075000D01*
X1255000Y2095000D01*
X1400000Y2095000D01*
X1465000Y2160000D01*
X1520000Y2160000D01*
X1230000Y1635000D02*
G01*
X1385000Y1790000D01*
X1385000Y1905000D01*
X1360000Y1930000D01*
X1075000Y1930000D01*
X1050000Y1955000D01*
X1050000Y2060000D01*
X1010000Y2100000D01*
X740000Y2100000D01*
X625000Y2100000D01*
X570000Y2045000D01*
X1255000Y2010000D02*
G01*
X1310000Y1955000D01*
X1380000Y1955000D01*
X1430000Y1905000D01*
X1430000Y1780000D01*
X1475000Y1735000D02*
G01*
X1505000Y1735000D01*
X1520000Y1720000D01*
X1520000Y1550000D01*
X1430000Y1780000D02*
G01*
X1285000Y1635000D01*
X1230000Y1635000D01*
X1690000Y2025000D02*
G01*
X1555000Y2160000D01*
X1520000Y2160000D01*
X1330000Y2025000D02*
G01*
X1555000Y2025000D01*
X1600000Y1975000D01*
X1600000Y1975000D02*
G01*
X1600000Y1975000D01*
X1670000Y1905000D01*
X1670000Y1800000D01*
X1720000Y1750000D01*
X2070000Y1750000D01*
X1220000Y2325000D02*
G01*
X1245000Y2350000D01*
X1300000Y2350000D01*
X1335000Y2385000D01*
X1335000Y2395794D01*
D12*
X1750000Y2185000D02*
G01*
X1750000Y2060000D01*
X1715000Y2025000D01*
X1690000Y2025000D01*
D10*
X1355000Y1888600D02*
G01*
X1018599Y1888600D01*
X940000Y1810000D01*
X940000Y1305000D01*
X1005000Y1240000D01*
X1210000Y1240000D01*
X2265000Y2635000D02*
G01*
X2265000Y1475000D01*
X2100000Y1310000D01*
X1450000Y1310000D01*
X1385000Y1375000D01*
X1385000Y1455000D01*
X1515000Y1235000D02*
G01*
X1555000Y1210000D01*
X1555000Y1145000D01*
X1405000Y995000D01*
X1405000Y919899D01*
D13*
G01*
X1025119Y1140000D03*
G01*
X814879Y1140000D03*
G01*
X1224882Y1140000D03*
G01*
X1435117Y1140000D03*
D14*
G01*
X642598Y2234724D03*
G01*
X679998Y2325275D03*
G01*
X717401Y2234724D03*
D15*
G01*
X835344Y2330000D03*
G01*
X894655Y2330000D03*
G01*
X835344Y2205000D03*
G01*
X894655Y2205000D03*
G01*
X835344Y2515000D03*
G01*
X894655Y2515000D03*
D16*
G01*
X2565000Y2015000D03*
G01*
X2565000Y1915000D03*
G01*
X2565000Y1815000D03*
G01*
X2565000Y1715000D03*
G01*
X2565000Y1615000D03*
G01*
X370000Y1530000D03*
G01*
X370000Y1630000D03*
G01*
X370000Y1730000D03*
G01*
X370000Y1830000D03*
G01*
X370000Y1930000D03*
G01*
X370000Y2030000D03*
G01*
X370000Y2130000D03*
D17*
G01*
X1740000Y1145000D03*
G01*
X1740000Y1245000D03*
G01*
X1050000Y1315000D03*
G01*
X1050000Y1415000D03*
D18*
G01*
X2310000Y875000D03*
D19*
G01*
X2310000Y975000D03*
D18*
G01*
X600000Y2700000D03*
D19*
G01*
X700000Y2700000D03*
D20*
G01*
X1506059Y1420000D03*
G01*
X1313940Y1420000D03*
D21*
G01*
X2455879Y1410479D03*
G01*
X2455879Y1219540D03*
D22*
G01*
X2561390Y1172289D03*
G01*
X2561390Y1457730D03*
D19*
G01*
X1350000Y2700000D03*
G01*
X1250000Y2700000D03*
G01*
X1150000Y2700000D03*
G01*
X1050000Y2700000D03*
G01*
X950000Y2700000D03*
D18*
G01*
X850000Y2700000D03*
D23*
G01*
X2538429Y2221260D03*
D20*
G01*
X2538429Y2300000D03*
G01*
X2538429Y2378739D03*
G01*
X2341580Y2378739D03*
G01*
X2341580Y2300000D03*
G01*
X2341580Y2221260D03*
D16*
G01*
X1705029Y919879D03*
G01*
X1605020Y919879D03*
G01*
X1505020Y919879D03*
G01*
X1405020Y919879D03*
G01*
X1305020Y919879D03*
G01*
X1205020Y919879D03*
G01*
X1105020Y919859D03*
G01*
X1005029Y920070D03*
D24*
G01*
X2265000Y2635000D03*
G01*
X1385000Y1455000D03*
G01*
X2350000Y1860000D03*
G01*
X410000Y1160000D03*
G01*
X670000Y1985000D03*
G01*
X685000Y1530000D03*
G01*
X730000Y1995000D03*
G01*
X765000Y1205000D03*
G01*
X775000Y2015000D03*
G01*
X825000Y1205000D03*
G01*
X820000Y2030000D03*
G01*
X655000Y1135000D03*
G01*
X875000Y2040000D03*
G01*
X1000000Y2015000D03*
G01*
X1330000Y1115000D03*
G01*
X1355000Y1888580D03*
G01*
X1210000Y1240000D03*
G01*
X1515000Y1235000D03*
G01*
X2165000Y1265000D03*
G01*
X2190000Y2030000D03*
G01*
X2190000Y1905000D03*
G01*
X1750000Y2185000D03*
G01*
X1690000Y2025000D03*
G01*
X1135000Y2245000D03*
G01*
X1390000Y2320000D03*
G01*
X620000Y1630000D03*
G01*
X590000Y1210000D03*
G01*
X605000Y1870000D03*
G01*
X2505000Y1550000D03*
G01*
X1990000Y2040000D03*
G01*
X1550000Y2065000D03*
G01*
X2070000Y1750000D03*
G01*
X1255000Y2010000D03*
G01*
X1520000Y2160000D03*
G01*
X1330000Y2025000D03*
G01*
X1230000Y1635000D03*
G01*
X570000Y2045000D03*
G01*
X1475000Y1735000D03*
G01*
X1520000Y1550000D03*
G01*
X1220000Y2325000D03*
G01*
X2190000Y2385000D03*
G01*
X2050000Y1215000D03*
G01*
X1510000Y1880000D03*
G01*
X1535000Y1725000D03*
G01*
X1600000Y1975000D03*
G01*
X1848429Y1063339D03*
G01*
X565000Y975000D03*
D25*
G01*
X655000Y1825000D03*
G01*
X995000Y1710000D03*
G01*
X1600000Y1550000D03*
G01*
X685000Y1850000D03*
G01*
X995000Y1660000D03*
G01*
X1640000Y1610000D03*
G01*
X890000Y2130000D03*
G01*
X960000Y2040000D03*
G01*
X890000Y1240000D03*
G01*
X1630000Y1480000D03*
G01*
X980000Y1495000D03*
G01*
X855000Y1090000D03*
G01*
X775000Y2335000D03*
G01*
X1920000Y1085000D03*
G01*
X1875000Y1265000D03*
G01*
X1830000Y1720000D03*
G01*
X950000Y2330000D03*
D24*
G01*
X565000Y2215000D03*
G01*
X440000Y2210000D03*
D25*
G01*
X1155000Y1465000D03*
D24*
G01*
X1050000Y2125000D03*
G01*
X1450000Y2520000D03*
G01*
X1075000Y1485000D03*
G01*
X900000Y910000D03*
G01*
X2010000Y1445000D03*
M02*
