G04 Layer: TopLayer*
G04 EasyEDA v6.5.28, 2023-05-12 23:13:51*
G04 2c4de912aade46c3ae8d467baab15760,9779bb66b829476cac46641fb3e7303a,10*
G04 Gerber Generator version 0.2*
G04 Scale: 100 percent, Rotated: No, Reflected: No *
G04 Dimensions in inches *
G04 leading zeros omitted , absolute positions ,3 integer and 6 decimal *
%FSLAX36Y36*%
%MOIN*%

%AMMACRO1*21,1,$1,$2,0,0,$3*%
%ADD10C,0.0100*%
%ADD11C,0.0197*%
%ADD12C,0.0295*%
%ADD13R,0.0354X0.0315*%
%ADD14MACRO1,0.034X0.0318X90.0000*%
%ADD15R,0.0315X0.0472*%
%ADD16R,0.0630X0.0157*%
%ADD17R,0.0354X0.0551*%
%ADD18R,0.0315X0.0354*%
%ADD19MACRO1,0.0531X0.0555X-90.0000*%
%ADD20R,0.0644X0.0630*%
%ADD21MACRO1,0.034X0.0318X-90.0000*%
%ADD22O,0.010629999999999999X0.059054999999999996*%
%ADD23O,0.059054999999999996X0.010629999999999999*%
%ADD24MACRO1,0.0386X0.0972X90.0000*%
%ADD25MACRO1,0.1417X0.0972X-90.0000*%
%ADD26C,0.0600*%
%ADD27C,0.0630*%
%ADD28R,0.0620X0.0620*%
%ADD29C,0.0620*%
%ADD30C,0.0709*%
%ADD31C,0.0472*%
%ADD32O,0.066929X0.051181000000000004*%
%ADD33R,0.0709X0.0709*%
%ADD34C,0.0276*%
%ADD35C,0.0240*%
%ADD36C,0.0101*%

%LPD*%
G36*
X472660Y797600D02*
G01*
X460600Y797980D01*
X448920Y799100D01*
X437340Y800939D01*
X425900Y803500D01*
X414640Y806780D01*
X403620Y810759D01*
X392860Y815420D01*
X382420Y820759D01*
X372320Y826740D01*
X362640Y833319D01*
X353380Y840520D01*
X344580Y848280D01*
X336300Y856580D01*
X328560Y865380D01*
X321380Y874640D01*
X314780Y884340D01*
X308820Y894440D01*
X303500Y904900D01*
X298860Y915660D01*
X294900Y926700D01*
X291640Y937960D01*
X289080Y949400D01*
X287260Y960980D01*
X286160Y972660D01*
X285800Y984460D01*
X285800Y2558840D01*
X286180Y2570899D01*
X287280Y2582559D01*
X289120Y2594140D01*
X291700Y2605580D01*
X294980Y2616840D01*
X298960Y2627880D01*
X303620Y2638639D01*
X308940Y2649080D01*
X314920Y2659160D01*
X321520Y2668860D01*
X328720Y2678120D01*
X336480Y2686900D01*
X344760Y2695200D01*
X353560Y2702940D01*
X362840Y2710120D01*
X372540Y2716700D01*
X382640Y2722660D01*
X393080Y2727980D01*
X403840Y2732640D01*
X414880Y2736600D01*
X426140Y2739860D01*
X437600Y2742400D01*
X449180Y2744240D01*
X460840Y2745340D01*
X472660Y2745700D01*
X559740Y2745700D01*
X561280Y2745400D01*
X562580Y2744520D01*
X563440Y2743240D01*
X563740Y2741700D01*
X563440Y2740160D01*
X562580Y2738880D01*
X561040Y2737340D01*
X559840Y2735419D01*
X559080Y2733260D01*
X558800Y2730779D01*
X558800Y2669220D01*
X559080Y2666740D01*
X559840Y2664580D01*
X561040Y2662660D01*
X562660Y2661040D01*
X564580Y2659840D01*
X566740Y2659080D01*
X569220Y2658800D01*
X578720Y2658800D01*
X580160Y2658540D01*
X581420Y2657760D01*
X582300Y2656580D01*
X584380Y2652440D01*
X584800Y2650640D01*
X584800Y2455200D01*
X585120Y2452040D01*
X585980Y2449200D01*
X587380Y2446560D01*
X589400Y2444120D01*
X659120Y2374400D01*
X661560Y2372380D01*
X664200Y2370980D01*
X667039Y2370120D01*
X670200Y2369800D01*
X717039Y2369800D01*
X718580Y2369500D01*
X719880Y2368620D01*
X750440Y2338080D01*
X751380Y2336580D01*
X752940Y2332180D01*
X754160Y2327420D01*
X755780Y2323900D01*
X758000Y2320740D01*
X760740Y2318000D01*
X763900Y2315780D01*
X767420Y2314160D01*
X771140Y2313160D01*
X775000Y2312820D01*
X778860Y2313160D01*
X782580Y2314160D01*
X786100Y2315780D01*
X789260Y2318000D01*
X792000Y2320740D01*
X794220Y2323900D01*
X795840Y2327420D01*
X796840Y2331140D01*
X797180Y2335000D01*
X796840Y2338860D01*
X795840Y2342580D01*
X794220Y2346100D01*
X792000Y2349260D01*
X789260Y2352000D01*
X786100Y2354220D01*
X782580Y2355840D01*
X777820Y2357060D01*
X773420Y2358620D01*
X771919Y2359560D01*
X735879Y2395600D01*
X733439Y2397620D01*
X730800Y2399020D01*
X727960Y2399880D01*
X724800Y2400200D01*
X677960Y2400200D01*
X676420Y2400500D01*
X675120Y2401380D01*
X669180Y2407320D01*
X668259Y2408760D01*
X668020Y2410480D01*
X668520Y2412120D01*
X669680Y2413400D01*
X671260Y2414080D01*
X673439Y2413900D01*
X680939Y2412800D01*
X688500Y2412420D01*
X696040Y2412800D01*
X703540Y2413900D01*
X710879Y2415740D01*
X718000Y2418300D01*
X724840Y2421540D01*
X731340Y2425420D01*
X737420Y2429940D01*
X743020Y2435020D01*
X748100Y2440620D01*
X752620Y2446700D01*
X756500Y2453200D01*
X759740Y2460040D01*
X762300Y2467160D01*
X764140Y2474500D01*
X765240Y2482000D01*
X765620Y2489540D01*
X765240Y2497100D01*
X764140Y2504600D01*
X762300Y2511940D01*
X759740Y2519060D01*
X756500Y2525900D01*
X752620Y2532400D01*
X748100Y2538480D01*
X743020Y2544080D01*
X737420Y2549160D01*
X731340Y2553680D01*
X724840Y2557560D01*
X718000Y2560800D01*
X710879Y2563360D01*
X703540Y2565200D01*
X696040Y2566300D01*
X688500Y2566680D01*
X680939Y2566300D01*
X673439Y2565200D01*
X666100Y2563360D01*
X658980Y2560800D01*
X652140Y2557560D01*
X645639Y2553680D01*
X639560Y2549160D01*
X633960Y2544080D01*
X628880Y2538480D01*
X624360Y2532400D01*
X622640Y2529500D01*
X621440Y2528260D01*
X619860Y2527620D01*
X618140Y2527700D01*
X616620Y2528520D01*
X615580Y2529880D01*
X615200Y2531560D01*
X615200Y2650640D01*
X615620Y2652440D01*
X617700Y2656580D01*
X618580Y2657760D01*
X619840Y2658540D01*
X621280Y2658800D01*
X630780Y2658800D01*
X633260Y2659080D01*
X635420Y2659840D01*
X637340Y2661040D01*
X638960Y2662660D01*
X640160Y2664580D01*
X640920Y2666740D01*
X641200Y2669220D01*
X641200Y2730779D01*
X640920Y2733260D01*
X640160Y2735419D01*
X638960Y2737340D01*
X637420Y2738880D01*
X636560Y2740160D01*
X636260Y2741700D01*
X636560Y2743240D01*
X637420Y2744520D01*
X638720Y2745400D01*
X640260Y2745700D01*
X682580Y2745700D01*
X684320Y2745299D01*
X685699Y2744200D01*
X686480Y2742600D01*
X686480Y2740840D01*
X685720Y2739240D01*
X684360Y2738120D01*
X679400Y2735680D01*
X674920Y2732679D01*
X670879Y2729120D01*
X667320Y2725080D01*
X664320Y2720600D01*
X661940Y2715760D01*
X660220Y2710659D01*
X659160Y2705380D01*
X658800Y2700000D01*
X659160Y2694620D01*
X660220Y2689340D01*
X661940Y2684240D01*
X664320Y2679400D01*
X667320Y2674920D01*
X670879Y2670880D01*
X674920Y2667320D01*
X679400Y2664320D01*
X684240Y2661940D01*
X689340Y2660220D01*
X694620Y2659160D01*
X700000Y2658800D01*
X705380Y2659160D01*
X710660Y2660220D01*
X715759Y2661940D01*
X720600Y2664320D01*
X725080Y2667320D01*
X729120Y2670880D01*
X732680Y2674920D01*
X735680Y2679400D01*
X738060Y2684240D01*
X739780Y2689340D01*
X740840Y2694620D01*
X741200Y2700000D01*
X740840Y2705380D01*
X739780Y2710659D01*
X738060Y2715760D01*
X735680Y2720600D01*
X732680Y2725080D01*
X729120Y2729120D01*
X725080Y2732679D01*
X720600Y2735680D01*
X715639Y2738120D01*
X714280Y2739240D01*
X713520Y2740840D01*
X713520Y2742600D01*
X714300Y2744200D01*
X715680Y2745299D01*
X717420Y2745700D01*
X809740Y2745700D01*
X811280Y2745400D01*
X812580Y2744520D01*
X813439Y2743240D01*
X813740Y2741700D01*
X813439Y2740160D01*
X812580Y2738880D01*
X811040Y2737340D01*
X809840Y2735419D01*
X809080Y2733260D01*
X808800Y2730779D01*
X808800Y2669220D01*
X809080Y2666740D01*
X809840Y2664580D01*
X811040Y2662660D01*
X812660Y2661040D01*
X814580Y2659840D01*
X818199Y2658700D01*
X819280Y2657940D01*
X820060Y2656880D01*
X829539Y2637900D01*
X829960Y2636120D01*
X829960Y2244960D01*
X829659Y2243420D01*
X828780Y2242140D01*
X742860Y2156220D01*
X741580Y2155340D01*
X740040Y2155040D01*
X412320Y2155040D01*
X410700Y2155380D01*
X391560Y2163880D01*
X389320Y2165240D01*
X384440Y2167500D01*
X379320Y2169100D01*
X374020Y2170000D01*
X368660Y2170160D01*
X363320Y2169640D01*
X358100Y2168380D01*
X353080Y2166460D01*
X348380Y2163880D01*
X344060Y2160700D01*
X340200Y2156960D01*
X336860Y2152740D01*
X334120Y2148120D01*
X332040Y2143180D01*
X330620Y2138000D01*
X329900Y2132680D01*
X329900Y2127320D01*
X330620Y2122000D01*
X332040Y2116820D01*
X334120Y2111880D01*
X336860Y2107260D01*
X340200Y2103040D01*
X344060Y2099300D01*
X348380Y2096120D01*
X353080Y2093540D01*
X358100Y2091620D01*
X363320Y2090360D01*
X368660Y2089840D01*
X374020Y2090020D01*
X379320Y2090900D01*
X384440Y2092500D01*
X389320Y2094760D01*
X393840Y2097640D01*
X397939Y2101120D01*
X399240Y2102460D01*
X414180Y2114120D01*
X415340Y2114740D01*
X416640Y2114960D01*
X749920Y2114960D01*
X751740Y2115040D01*
X753480Y2115260D01*
X755180Y2115640D01*
X756860Y2116160D01*
X758460Y2116840D01*
X760020Y2117640D01*
X761500Y2118580D01*
X762880Y2119640D01*
X764240Y2120880D01*
X864120Y2220760D01*
X865360Y2222120D01*
X866420Y2223500D01*
X867360Y2224980D01*
X868160Y2226540D01*
X868840Y2228140D01*
X869360Y2229820D01*
X869740Y2231520D01*
X869960Y2233260D01*
X870040Y2235080D01*
X870040Y2636120D01*
X870460Y2637900D01*
X879940Y2656880D01*
X880720Y2657940D01*
X881800Y2658700D01*
X883259Y2659080D01*
X885420Y2659840D01*
X887340Y2661040D01*
X888960Y2662660D01*
X890160Y2664580D01*
X891300Y2668200D01*
X892060Y2669280D01*
X893120Y2670059D01*
X906500Y2676740D01*
X907800Y2677140D01*
X909140Y2677060D01*
X910400Y2676560D01*
X923620Y2668380D01*
X924920Y2667320D01*
X929400Y2664320D01*
X934240Y2661940D01*
X939340Y2660220D01*
X944620Y2659160D01*
X950000Y2658800D01*
X955380Y2659160D01*
X960660Y2660220D01*
X965759Y2661940D01*
X970600Y2664320D01*
X975080Y2667320D01*
X979120Y2670880D01*
X982680Y2674920D01*
X985680Y2679400D01*
X988060Y2684240D01*
X989780Y2689340D01*
X990840Y2694620D01*
X991200Y2700000D01*
X990840Y2705380D01*
X989780Y2710659D01*
X988060Y2715760D01*
X985680Y2720600D01*
X982680Y2725080D01*
X979120Y2729120D01*
X975080Y2732679D01*
X970600Y2735680D01*
X965639Y2738120D01*
X964280Y2739240D01*
X963520Y2740840D01*
X963520Y2742600D01*
X964300Y2744200D01*
X965680Y2745299D01*
X967420Y2745700D01*
X1032580Y2745700D01*
X1034320Y2745299D01*
X1035699Y2744200D01*
X1036480Y2742600D01*
X1036480Y2740840D01*
X1035720Y2739240D01*
X1034360Y2738120D01*
X1029400Y2735680D01*
X1024920Y2732679D01*
X1020879Y2729120D01*
X1017320Y2725080D01*
X1014320Y2720600D01*
X1011940Y2715760D01*
X1010220Y2710659D01*
X1009160Y2705380D01*
X1008800Y2700000D01*
X1009160Y2694620D01*
X1010220Y2689340D01*
X1011940Y2684240D01*
X1014200Y2679640D01*
X1022099Y2659100D01*
X1022360Y2657660D01*
X1022360Y2403620D01*
X1022280Y2402860D01*
X1016720Y2374900D01*
X1016500Y2372500D01*
X1016500Y2361380D01*
X1016280Y2360100D01*
X1012200Y2347920D01*
X1011380Y2346500D01*
X1010040Y2345540D01*
X1008420Y2345200D01*
X969539Y2345200D01*
X967820Y2345580D01*
X963259Y2347760D01*
X961100Y2349220D01*
X957580Y2350840D01*
X953860Y2351840D01*
X950000Y2352180D01*
X946140Y2351840D01*
X942420Y2350840D01*
X938900Y2349220D01*
X935740Y2347000D01*
X933000Y2344260D01*
X930780Y2341100D01*
X929160Y2337580D01*
X928160Y2333860D01*
X927820Y2330000D01*
X928160Y2326140D01*
X929160Y2322420D01*
X930780Y2318900D01*
X933000Y2315740D01*
X935740Y2313000D01*
X938900Y2310780D01*
X942420Y2309160D01*
X946140Y2308160D01*
X950000Y2307820D01*
X953860Y2308160D01*
X957580Y2309160D01*
X961100Y2310780D01*
X963259Y2312240D01*
X967820Y2314420D01*
X969539Y2314800D01*
X1017240Y2314800D01*
X1020400Y2315120D01*
X1023240Y2315980D01*
X1025879Y2317380D01*
X1028319Y2319400D01*
X1030840Y2321900D01*
X1031960Y2322700D01*
X1040460Y2326700D01*
X1042159Y2327080D01*
X1057960Y2327080D01*
X1060460Y2327360D01*
X1062600Y2328120D01*
X1064540Y2329320D01*
X1066140Y2330940D01*
X1066620Y2331680D01*
X1067720Y2332840D01*
X1069200Y2333480D01*
X1070800Y2333480D01*
X1072280Y2332840D01*
X1073380Y2331680D01*
X1073860Y2330940D01*
X1075460Y2329320D01*
X1077400Y2328120D01*
X1079540Y2327360D01*
X1082040Y2327080D01*
X1087180Y2327080D01*
X1087180Y2343640D01*
X1072400Y2343640D01*
X1070860Y2343940D01*
X1069560Y2344820D01*
X1068700Y2346120D01*
X1068400Y2347640D01*
X1068400Y2362360D01*
X1068700Y2363880D01*
X1069560Y2365180D01*
X1070860Y2366060D01*
X1072400Y2366360D01*
X1087180Y2366360D01*
X1087180Y2382920D01*
X1082040Y2382920D01*
X1079540Y2382640D01*
X1077400Y2381880D01*
X1075460Y2380680D01*
X1073680Y2378900D01*
X1072240Y2377980D01*
X1070540Y2377740D01*
X1068920Y2378240D01*
X1067620Y2379360D01*
X1066940Y2380940D01*
X1062520Y2402880D01*
X1062440Y2403680D01*
X1062440Y2651259D01*
X1062700Y2652679D01*
X1063460Y2653920D01*
X1076500Y2668540D01*
X1079120Y2670880D01*
X1082680Y2674920D01*
X1085680Y2679400D01*
X1088060Y2684240D01*
X1089780Y2689340D01*
X1090840Y2694620D01*
X1091200Y2700000D01*
X1090840Y2705380D01*
X1089780Y2710659D01*
X1088060Y2715760D01*
X1085680Y2720600D01*
X1082680Y2725080D01*
X1079120Y2729120D01*
X1075080Y2732679D01*
X1070600Y2735680D01*
X1065640Y2738120D01*
X1064280Y2739240D01*
X1063520Y2740840D01*
X1063520Y2742600D01*
X1064300Y2744200D01*
X1065680Y2745299D01*
X1067420Y2745700D01*
X1132580Y2745700D01*
X1134320Y2745299D01*
X1135700Y2744200D01*
X1136480Y2742600D01*
X1136480Y2740840D01*
X1135720Y2739240D01*
X1134360Y2738120D01*
X1129400Y2735680D01*
X1124920Y2732679D01*
X1120880Y2729120D01*
X1117320Y2725080D01*
X1114320Y2720600D01*
X1111940Y2715760D01*
X1110220Y2710659D01*
X1109160Y2705380D01*
X1108800Y2700000D01*
X1109160Y2694620D01*
X1110220Y2689340D01*
X1111940Y2684240D01*
X1114320Y2679400D01*
X1117360Y2674860D01*
X1133860Y2655200D01*
X1134560Y2653980D01*
X1134800Y2652620D01*
X1134800Y2505200D01*
X1135120Y2502040D01*
X1135980Y2499200D01*
X1137380Y2496560D01*
X1139400Y2494120D01*
X1173620Y2459880D01*
X1174500Y2458580D01*
X1174800Y2457040D01*
X1174800Y1945200D01*
X1175120Y1942040D01*
X1176060Y1938940D01*
X1176180Y1937220D01*
X1175600Y1935620D01*
X1174380Y1934400D01*
X1172780Y1933820D01*
X1171060Y1933940D01*
X1167960Y1934880D01*
X1164800Y1935200D01*
X1102960Y1935200D01*
X1101420Y1935500D01*
X1100120Y1936380D01*
X1026600Y2009900D01*
X1025980Y2010680D01*
X1025580Y2011620D01*
X1023820Y2017780D01*
X1023640Y2018940D01*
X1022660Y2022780D01*
X1021080Y2026399D01*
X1018920Y2029720D01*
X1016240Y2032640D01*
X1013100Y2035060D01*
X1009620Y2036940D01*
X1005879Y2038240D01*
X1001979Y2038880D01*
X998020Y2038880D01*
X994120Y2038240D01*
X990380Y2036940D01*
X988040Y2035680D01*
X986400Y2035200D01*
X984700Y2035460D01*
X983280Y2036399D01*
X982360Y2037860D01*
X981840Y2043860D01*
X980840Y2047580D01*
X979220Y2051100D01*
X977760Y2053260D01*
X975580Y2057820D01*
X975200Y2059540D01*
X975200Y2099800D01*
X974880Y2102960D01*
X974020Y2105800D01*
X972620Y2108440D01*
X970600Y2110880D01*
X940879Y2140600D01*
X938439Y2142620D01*
X935800Y2144020D01*
X932960Y2144880D01*
X929800Y2145200D01*
X909539Y2145200D01*
X907820Y2145580D01*
X903259Y2147760D01*
X901100Y2149220D01*
X897580Y2150840D01*
X893860Y2151840D01*
X890000Y2152180D01*
X886140Y2151840D01*
X882420Y2150840D01*
X878900Y2149220D01*
X875740Y2147000D01*
X873000Y2144260D01*
X870780Y2141100D01*
X869160Y2137580D01*
X868160Y2133860D01*
X867820Y2130000D01*
X868160Y2126140D01*
X869160Y2122420D01*
X870780Y2118900D01*
X873000Y2115740D01*
X875740Y2113000D01*
X878900Y2110780D01*
X882420Y2109160D01*
X886140Y2108160D01*
X890000Y2107820D01*
X893860Y2108160D01*
X897580Y2109160D01*
X901100Y2110780D01*
X903259Y2112240D01*
X907820Y2114420D01*
X909539Y2114800D01*
X922039Y2114800D01*
X923580Y2114500D01*
X924880Y2113620D01*
X943620Y2094880D01*
X944500Y2093580D01*
X944800Y2092040D01*
X944800Y2059540D01*
X944419Y2057820D01*
X942240Y2053260D01*
X940780Y2051100D01*
X939760Y2048880D01*
X938920Y2047700D01*
X937720Y2046900D01*
X936300Y2046579D01*
X934860Y2046780D01*
X930800Y2049019D01*
X927960Y2049880D01*
X924800Y2050200D01*
X900120Y2050200D01*
X898640Y2050480D01*
X897380Y2051300D01*
X894500Y2054040D01*
X891240Y2057640D01*
X888100Y2060060D01*
X884620Y2061940D01*
X880879Y2063240D01*
X876979Y2063880D01*
X873020Y2063880D01*
X869120Y2063240D01*
X865380Y2061940D01*
X861900Y2060060D01*
X858760Y2057640D01*
X856080Y2054720D01*
X853920Y2051399D01*
X852340Y2047780D01*
X851360Y2043940D01*
X851040Y2040000D01*
X851360Y2036060D01*
X852340Y2032220D01*
X854000Y2028420D01*
X854340Y2026900D01*
X854040Y2025340D01*
X853199Y2024019D01*
X851900Y2023140D01*
X850360Y2022820D01*
X848820Y2023120D01*
X847500Y2024000D01*
X845980Y2025680D01*
X845580Y2026620D01*
X843820Y2032780D01*
X843640Y2033940D01*
X842660Y2037780D01*
X841080Y2041399D01*
X838920Y2044720D01*
X836240Y2047640D01*
X833100Y2050060D01*
X829620Y2051940D01*
X825879Y2053240D01*
X821979Y2053880D01*
X818020Y2053880D01*
X814120Y2053240D01*
X810380Y2051940D01*
X806900Y2050060D01*
X803760Y2047640D01*
X801080Y2044720D01*
X798920Y2041399D01*
X797340Y2037780D01*
X796740Y2035440D01*
X796060Y2034019D01*
X794880Y2032980D01*
X793400Y2032460D01*
X791820Y2032580D01*
X790400Y2033280D01*
X788100Y2035060D01*
X784620Y2036940D01*
X780879Y2038240D01*
X776979Y2038880D01*
X773020Y2038880D01*
X769120Y2038240D01*
X765380Y2036940D01*
X761900Y2035060D01*
X758760Y2032640D01*
X756080Y2029720D01*
X753920Y2026399D01*
X752340Y2022780D01*
X751360Y2018940D01*
X751160Y2016639D01*
X750660Y2015000D01*
X749539Y2013720D01*
X747980Y2013040D01*
X746260Y2013060D01*
X744720Y2013800D01*
X743100Y2015060D01*
X739620Y2016940D01*
X735879Y2018240D01*
X731979Y2018880D01*
X728020Y2018880D01*
X724120Y2018240D01*
X720380Y2016940D01*
X716900Y2015060D01*
X713760Y2012640D01*
X711080Y2009720D01*
X708920Y2006399D01*
X707340Y2002780D01*
X706360Y1998940D01*
X706040Y1995000D01*
X706360Y1991060D01*
X707340Y1987220D01*
X708920Y1983600D01*
X711080Y1980280D01*
X713760Y1977360D01*
X716900Y1974940D01*
X720380Y1973060D01*
X724120Y1971759D01*
X726900Y1971279D01*
X733379Y1969420D01*
X734320Y1969019D01*
X735100Y1968400D01*
X759120Y1944400D01*
X761560Y1942380D01*
X764200Y1940980D01*
X767039Y1940120D01*
X770200Y1939800D01*
X867039Y1939800D01*
X868580Y1939500D01*
X869880Y1938620D01*
X871480Y1937020D01*
X872340Y1935740D01*
X872640Y1934199D01*
X872340Y1932660D01*
X871480Y1931380D01*
X870180Y1930500D01*
X868640Y1930200D01*
X747960Y1930200D01*
X746420Y1930500D01*
X745120Y1931380D01*
X696600Y1979900D01*
X695980Y1980680D01*
X695580Y1981620D01*
X693820Y1987780D01*
X693640Y1988940D01*
X692660Y1992780D01*
X691080Y1996399D01*
X688920Y1999720D01*
X686240Y2002640D01*
X683100Y2005060D01*
X679620Y2006940D01*
X675879Y2008240D01*
X671979Y2008880D01*
X668020Y2008880D01*
X664120Y2008240D01*
X660380Y2006940D01*
X656900Y2005060D01*
X653760Y2002640D01*
X651080Y1999720D01*
X648920Y1996399D01*
X647340Y1992780D01*
X646360Y1988940D01*
X646040Y1985000D01*
X646360Y1981060D01*
X647340Y1977220D01*
X648920Y1973600D01*
X651080Y1970280D01*
X653760Y1967360D01*
X656900Y1964940D01*
X660380Y1963060D01*
X664120Y1961759D01*
X666900Y1961279D01*
X673379Y1959420D01*
X674320Y1959019D01*
X675100Y1958400D01*
X729120Y1904400D01*
X731560Y1902380D01*
X734200Y1900980D01*
X737039Y1900120D01*
X740200Y1899800D01*
X872039Y1899800D01*
X873580Y1899500D01*
X874880Y1898620D01*
X984120Y1789400D01*
X986560Y1787380D01*
X989200Y1785980D01*
X992039Y1785120D01*
X995200Y1784800D01*
X1132040Y1784800D01*
X1133580Y1784500D01*
X1134880Y1783620D01*
X1178320Y1740200D01*
X1180760Y1738180D01*
X1183400Y1736780D01*
X1186240Y1735920D01*
X1189400Y1735600D01*
X1239000Y1735600D01*
X1240620Y1735260D01*
X1241960Y1734280D01*
X1242800Y1732860D01*
X1243280Y1728080D01*
X1244160Y1725180D01*
X1245240Y1723160D01*
X1245660Y1721920D01*
X1245660Y1720620D01*
X1245240Y1719379D01*
X1244140Y1717360D01*
X1243920Y1716579D01*
X1252620Y1716579D01*
X1253780Y1716399D01*
X1255440Y1715900D01*
X1258660Y1715580D01*
X1306699Y1715580D01*
X1309920Y1715900D01*
X1311579Y1716399D01*
X1312740Y1716579D01*
X1321440Y1716579D01*
X1321200Y1717360D01*
X1320120Y1719379D01*
X1319700Y1720600D01*
X1319700Y1721900D01*
X1320120Y1723140D01*
X1321220Y1725180D01*
X1322100Y1728080D01*
X1322400Y1731100D01*
X1322100Y1734120D01*
X1321220Y1737040D01*
X1320120Y1739060D01*
X1319700Y1740300D01*
X1319700Y1741600D01*
X1320120Y1742840D01*
X1321200Y1744860D01*
X1322080Y1747760D01*
X1322380Y1750800D01*
X1322080Y1753820D01*
X1321200Y1756720D01*
X1320120Y1758740D01*
X1319700Y1759980D01*
X1319700Y1761279D01*
X1320120Y1762520D01*
X1321220Y1764540D01*
X1321440Y1765320D01*
X1312740Y1765320D01*
X1311579Y1765480D01*
X1309920Y1766000D01*
X1306699Y1766300D01*
X1258500Y1766300D01*
X1243280Y1766000D01*
X1197160Y1766000D01*
X1195620Y1766300D01*
X1194320Y1767180D01*
X1193320Y1768180D01*
X1192460Y1769460D01*
X1192160Y1771000D01*
X1192460Y1772540D01*
X1193320Y1773820D01*
X1194620Y1774700D01*
X1196160Y1775000D01*
X1243380Y1775000D01*
X1258160Y1774660D01*
X1306699Y1774640D01*
X1309920Y1774960D01*
X1311540Y1775460D01*
X1312700Y1775640D01*
X1321440Y1775640D01*
X1321220Y1776399D01*
X1320120Y1778440D01*
X1319700Y1779680D01*
X1319700Y1780980D01*
X1320120Y1782200D01*
X1321200Y1784240D01*
X1322080Y1787140D01*
X1322380Y1790160D01*
X1322080Y1793180D01*
X1321200Y1796100D01*
X1320120Y1798120D01*
X1319700Y1799340D01*
X1319700Y1800640D01*
X1320120Y1801879D01*
X1321220Y1803920D01*
X1322100Y1806819D01*
X1322400Y1809840D01*
X1322100Y1812860D01*
X1321220Y1815780D01*
X1320120Y1817800D01*
X1319700Y1819040D01*
X1319700Y1820340D01*
X1320120Y1821579D01*
X1321200Y1823600D01*
X1322080Y1826500D01*
X1322380Y1829540D01*
X1322080Y1832560D01*
X1321200Y1835460D01*
X1320120Y1837480D01*
X1319700Y1838720D01*
X1319700Y1840020D01*
X1320120Y1841260D01*
X1321220Y1843280D01*
X1322100Y1846180D01*
X1322400Y1849220D01*
X1322100Y1852240D01*
X1321220Y1855140D01*
X1320120Y1857180D01*
X1319700Y1858420D01*
X1319700Y1859720D01*
X1320120Y1860940D01*
X1321200Y1862980D01*
X1322080Y1865880D01*
X1322560Y1870660D01*
X1323400Y1872080D01*
X1324740Y1873060D01*
X1326360Y1873400D01*
X1332560Y1873400D01*
X1333560Y1873280D01*
X1334500Y1872900D01*
X1340360Y1869660D01*
X1341900Y1868520D01*
X1345380Y1866639D01*
X1349120Y1865340D01*
X1353020Y1864700D01*
X1356980Y1864700D01*
X1360880Y1865340D01*
X1364620Y1866639D01*
X1368100Y1868520D01*
X1371240Y1870940D01*
X1373920Y1873860D01*
X1376080Y1877180D01*
X1377660Y1880800D01*
X1378640Y1884640D01*
X1378959Y1888580D01*
X1378640Y1892520D01*
X1377660Y1896360D01*
X1376080Y1899980D01*
X1373920Y1903300D01*
X1371240Y1906220D01*
X1368100Y1908640D01*
X1364620Y1910520D01*
X1360880Y1911819D01*
X1356980Y1912460D01*
X1353020Y1912460D01*
X1349120Y1911819D01*
X1345380Y1910520D01*
X1341900Y1908640D01*
X1340380Y1907540D01*
X1334520Y1904300D01*
X1333580Y1903920D01*
X1332580Y1903800D01*
X1326360Y1903800D01*
X1324740Y1904139D01*
X1323400Y1905120D01*
X1322560Y1906540D01*
X1322080Y1911300D01*
X1321200Y1914199D01*
X1319780Y1916879D01*
X1317840Y1919240D01*
X1315500Y1921160D01*
X1312820Y1922580D01*
X1309920Y1923480D01*
X1306699Y1923779D01*
X1258500Y1923779D01*
X1243300Y1923500D01*
X1234660Y1923500D01*
X1233120Y1923800D01*
X1231820Y1924680D01*
X1206380Y1950120D01*
X1205500Y1951420D01*
X1205200Y1952960D01*
X1205200Y2464800D01*
X1204880Y2467960D01*
X1204020Y2470800D01*
X1202620Y2473440D01*
X1200600Y2475880D01*
X1166380Y2510120D01*
X1165500Y2511420D01*
X1165200Y2512960D01*
X1165200Y2652620D01*
X1165440Y2653980D01*
X1166140Y2655200D01*
X1182640Y2674860D01*
X1185680Y2679400D01*
X1188060Y2684240D01*
X1189780Y2689340D01*
X1190840Y2694620D01*
X1191200Y2700000D01*
X1190840Y2705380D01*
X1189780Y2710659D01*
X1188060Y2715760D01*
X1185680Y2720600D01*
X1182680Y2725080D01*
X1179120Y2729120D01*
X1175080Y2732679D01*
X1170600Y2735680D01*
X1165640Y2738120D01*
X1164280Y2739240D01*
X1163520Y2740840D01*
X1163520Y2742600D01*
X1164300Y2744200D01*
X1165680Y2745299D01*
X1167420Y2745700D01*
X1232580Y2745700D01*
X1234320Y2745299D01*
X1235700Y2744200D01*
X1236480Y2742600D01*
X1236480Y2740840D01*
X1235720Y2739240D01*
X1234360Y2738120D01*
X1229400Y2735680D01*
X1224920Y2732679D01*
X1220880Y2729120D01*
X1217320Y2725080D01*
X1214320Y2720600D01*
X1211940Y2715760D01*
X1210220Y2710659D01*
X1209160Y2705380D01*
X1208800Y2700000D01*
X1209160Y2694620D01*
X1210220Y2689340D01*
X1211940Y2684240D01*
X1214320Y2679400D01*
X1217360Y2674860D01*
X1233860Y2655200D01*
X1234560Y2653980D01*
X1234800Y2652620D01*
X1234800Y2075200D01*
X1235120Y2072040D01*
X1235980Y2069199D01*
X1237380Y2066560D01*
X1239400Y2064120D01*
X1259120Y2044400D01*
X1261560Y2042380D01*
X1264200Y2040980D01*
X1267040Y2040120D01*
X1270200Y2039800D01*
X1347040Y2039800D01*
X1348580Y2039500D01*
X1349880Y2038620D01*
X1364720Y2023779D01*
X1365600Y2022480D01*
X1365900Y2020940D01*
X1365900Y2006660D01*
X1365580Y1991780D01*
X1365580Y1943300D01*
X1365900Y1940080D01*
X1366399Y1938400D01*
X1366579Y1937240D01*
X1366579Y1928560D01*
X1367360Y1928779D01*
X1369379Y1929860D01*
X1370600Y1930280D01*
X1371920Y1930280D01*
X1373140Y1929860D01*
X1375160Y1928779D01*
X1378080Y1927900D01*
X1381100Y1927600D01*
X1384120Y1927900D01*
X1387020Y1928779D01*
X1389060Y1929880D01*
X1390300Y1930300D01*
X1391600Y1930300D01*
X1392840Y1929880D01*
X1394860Y1928779D01*
X1397760Y1927900D01*
X1400800Y1927600D01*
X1403820Y1927900D01*
X1406720Y1928779D01*
X1408740Y1929860D01*
X1409980Y1930280D01*
X1411279Y1930280D01*
X1412520Y1929860D01*
X1414540Y1928779D01*
X1417440Y1927900D01*
X1420460Y1927600D01*
X1423500Y1927900D01*
X1426399Y1928779D01*
X1428420Y1929880D01*
X1429660Y1930300D01*
X1430960Y1930300D01*
X1432200Y1929880D01*
X1434240Y1928779D01*
X1437140Y1927900D01*
X1440160Y1927600D01*
X1443180Y1927900D01*
X1446100Y1928779D01*
X1448120Y1929860D01*
X1449340Y1930280D01*
X1450660Y1930280D01*
X1451879Y1929860D01*
X1453899Y1928779D01*
X1456819Y1927900D01*
X1459840Y1927600D01*
X1462860Y1927900D01*
X1465760Y1928779D01*
X1467800Y1929880D01*
X1469040Y1930300D01*
X1470340Y1930300D01*
X1471579Y1929880D01*
X1473600Y1928779D01*
X1476500Y1927900D01*
X1479540Y1927600D01*
X1482560Y1927900D01*
X1485460Y1928779D01*
X1487480Y1929860D01*
X1488720Y1930280D01*
X1490020Y1930280D01*
X1491260Y1929860D01*
X1493280Y1928779D01*
X1496180Y1927900D01*
X1499199Y1927600D01*
X1502240Y1927900D01*
X1505140Y1928779D01*
X1507160Y1929880D01*
X1508400Y1930300D01*
X1509700Y1930300D01*
X1510940Y1929880D01*
X1512980Y1928779D01*
X1515880Y1927900D01*
X1518899Y1927600D01*
X1521920Y1927900D01*
X1524840Y1928779D01*
X1526860Y1929860D01*
X1528080Y1930280D01*
X1529400Y1930280D01*
X1530620Y1929860D01*
X1532640Y1928779D01*
X1535560Y1927900D01*
X1538580Y1927600D01*
X1541600Y1927900D01*
X1544500Y1928779D01*
X1546540Y1929880D01*
X1547780Y1930300D01*
X1549079Y1930300D01*
X1550320Y1929880D01*
X1552340Y1928779D01*
X1555240Y1927900D01*
X1558280Y1927600D01*
X1561300Y1927900D01*
X1564199Y1928779D01*
X1566879Y1930220D01*
X1569220Y1932140D01*
X1571160Y1934500D01*
X1572580Y1937180D01*
X1573460Y1940080D01*
X1573779Y1943300D01*
X1573779Y1991339D01*
X1573460Y1994560D01*
X1572580Y1997460D01*
X1571160Y2000140D01*
X1569220Y2002480D01*
X1566879Y2004420D01*
X1564199Y2005840D01*
X1561300Y2006720D01*
X1558280Y2007020D01*
X1555240Y2006720D01*
X1552340Y2005840D01*
X1550320Y2004760D01*
X1549079Y2004340D01*
X1547780Y2004340D01*
X1546540Y2004760D01*
X1544500Y2005840D01*
X1541600Y2006720D01*
X1538580Y2007020D01*
X1535560Y2006720D01*
X1532640Y2005840D01*
X1530620Y2004760D01*
X1529400Y2004340D01*
X1528080Y2004340D01*
X1526860Y2004760D01*
X1524840Y2005840D01*
X1521920Y2006720D01*
X1518899Y2007020D01*
X1515880Y2006720D01*
X1512980Y2005840D01*
X1510940Y2004760D01*
X1509700Y2004340D01*
X1508400Y2004340D01*
X1507160Y2004760D01*
X1505140Y2005840D01*
X1502240Y2006720D01*
X1497440Y2007200D01*
X1496020Y2008040D01*
X1495040Y2009379D01*
X1494700Y2011000D01*
X1494700Y2041540D01*
X1495000Y2043080D01*
X1495880Y2044379D01*
X1500120Y2048620D01*
X1501420Y2049500D01*
X1502960Y2049800D01*
X1527580Y2049800D01*
X1528580Y2049680D01*
X1529520Y2049300D01*
X1535360Y2046060D01*
X1536900Y2044940D01*
X1540380Y2043060D01*
X1544120Y2041759D01*
X1548020Y2041120D01*
X1551980Y2041120D01*
X1555880Y2041759D01*
X1559620Y2043060D01*
X1563100Y2044940D01*
X1566240Y2047360D01*
X1568920Y2050280D01*
X1571080Y2053600D01*
X1572660Y2057220D01*
X1573640Y2061060D01*
X1573959Y2065000D01*
X1573640Y2068940D01*
X1572660Y2072780D01*
X1572040Y2074199D01*
X1571720Y2075740D01*
X1572000Y2077280D01*
X1572860Y2078600D01*
X1574160Y2079480D01*
X1575720Y2079800D01*
X1812040Y2079800D01*
X1813580Y2079500D01*
X1814880Y2078620D01*
X1828620Y2064880D01*
X1829500Y2063580D01*
X1829800Y2062040D01*
X1829800Y1990200D01*
X1830120Y1987040D01*
X1830980Y1984199D01*
X1832380Y1981560D01*
X1834400Y1979120D01*
X1849040Y1964480D01*
X1849900Y1963180D01*
X1850200Y1961639D01*
X1849900Y1960120D01*
X1849040Y1958820D01*
X1847740Y1957940D01*
X1846200Y1957640D01*
X1798640Y1957640D01*
X1797860Y1957720D01*
X1769900Y1963280D01*
X1767480Y1963500D01*
X1732500Y1963500D01*
X1729940Y1963220D01*
X1728400Y1962740D01*
X1725240Y1961500D01*
X1723740Y1961220D01*
X1722220Y1961540D01*
X1720960Y1962400D01*
X1711220Y1972140D01*
X1710340Y1973420D01*
X1710040Y1974960D01*
X1710040Y2006080D01*
X1710320Y2011420D01*
X1710500Y2012460D01*
X1711080Y2013600D01*
X1712660Y2017220D01*
X1713640Y2021060D01*
X1713959Y2025000D01*
X1713640Y2028940D01*
X1712660Y2032780D01*
X1711080Y2036399D01*
X1708920Y2039720D01*
X1706240Y2042640D01*
X1703100Y2045060D01*
X1699620Y2046940D01*
X1695880Y2048240D01*
X1691980Y2048880D01*
X1688020Y2048880D01*
X1684120Y2048240D01*
X1680380Y2046940D01*
X1676900Y2045060D01*
X1673760Y2042640D01*
X1671080Y2039720D01*
X1668920Y2036399D01*
X1667340Y2032780D01*
X1666360Y2028940D01*
X1666040Y2025000D01*
X1666360Y2021060D01*
X1667340Y2017220D01*
X1669480Y2012480D01*
X1669680Y2011440D01*
X1669960Y2005880D01*
X1669960Y1965080D01*
X1670040Y1963260D01*
X1670260Y1961519D01*
X1670640Y1959820D01*
X1671220Y1958000D01*
X1671399Y1956519D01*
X1671020Y1955080D01*
X1670120Y1953880D01*
X1668860Y1953080D01*
X1667400Y1952800D01*
X1646800Y1952800D01*
X1643640Y1952480D01*
X1640800Y1951620D01*
X1638160Y1950220D01*
X1635720Y1948200D01*
X1623600Y1936160D01*
X1607800Y1924560D01*
X1606680Y1923980D01*
X1605420Y1923779D01*
X1593300Y1923779D01*
X1590080Y1923460D01*
X1587180Y1922580D01*
X1584500Y1921160D01*
X1582140Y1919220D01*
X1580220Y1916879D01*
X1578779Y1914199D01*
X1577900Y1911300D01*
X1577600Y1908260D01*
X1577900Y1905240D01*
X1578779Y1902340D01*
X1579880Y1900300D01*
X1580300Y1899060D01*
X1580300Y1897760D01*
X1579880Y1896540D01*
X1578800Y1894500D01*
X1578560Y1893740D01*
X1587300Y1893740D01*
X1588460Y1893560D01*
X1590080Y1893060D01*
X1593300Y1892760D01*
X1641339Y1892760D01*
X1644560Y1893060D01*
X1646180Y1893560D01*
X1647340Y1893740D01*
X1656080Y1893740D01*
X1655860Y1894500D01*
X1654760Y1896540D01*
X1654340Y1897780D01*
X1654340Y1899079D01*
X1654760Y1900320D01*
X1655840Y1902340D01*
X1656720Y1905240D01*
X1657020Y1908260D01*
X1656720Y1911300D01*
X1655840Y1914199D01*
X1654600Y1916519D01*
X1654139Y1918080D01*
X1654360Y1919720D01*
X1655200Y1921120D01*
X1656540Y1922060D01*
X1658140Y1922400D01*
X1703020Y1922400D01*
X1704379Y1922160D01*
X1707380Y1920240D01*
X1708940Y1919440D01*
X1710540Y1918760D01*
X1712160Y1918260D01*
X1715500Y1917540D01*
X1725660Y1913480D01*
X1727100Y1912480D01*
X1727980Y1910980D01*
X1728140Y1909240D01*
X1727540Y1907600D01*
X1724319Y1904540D01*
X1723120Y1902600D01*
X1722360Y1900460D01*
X1722080Y1897960D01*
X1722080Y1892820D01*
X1738640Y1892820D01*
X1738640Y1907600D01*
X1738940Y1909139D01*
X1739820Y1910440D01*
X1741120Y1911300D01*
X1742640Y1911600D01*
X1757360Y1911600D01*
X1758880Y1911300D01*
X1760180Y1910440D01*
X1761060Y1909139D01*
X1761360Y1907600D01*
X1761360Y1892820D01*
X1777920Y1892820D01*
X1777920Y1897960D01*
X1777640Y1900460D01*
X1776879Y1902600D01*
X1775680Y1904540D01*
X1773899Y1906320D01*
X1772980Y1907760D01*
X1772740Y1909460D01*
X1773240Y1911100D01*
X1774360Y1912380D01*
X1775940Y1913060D01*
X1797860Y1917480D01*
X1798660Y1917560D01*
X1842440Y1917560D01*
X1843980Y1917260D01*
X1845260Y1916380D01*
X1920760Y1840880D01*
X1922120Y1839640D01*
X1923500Y1838580D01*
X1924980Y1837640D01*
X1926540Y1836840D01*
X1928140Y1836160D01*
X1929820Y1835640D01*
X1931519Y1835260D01*
X1933260Y1835040D01*
X1935080Y1834960D01*
X1980300Y1834960D01*
X1981339Y1834820D01*
X2000880Y1829620D01*
X2002160Y1829000D01*
X2003160Y1827980D01*
X2003740Y1826680D01*
X2007340Y1811500D01*
X2007660Y1809120D01*
X2008040Y1807420D01*
X2008560Y1805740D01*
X2009240Y1804139D01*
X2010040Y1802580D01*
X2010980Y1801100D01*
X2012040Y1799720D01*
X2013280Y1798360D01*
X2025760Y1785880D01*
X2027120Y1784640D01*
X2028500Y1783580D01*
X2029980Y1782640D01*
X2031540Y1781840D01*
X2033140Y1781160D01*
X2034820Y1780640D01*
X2036519Y1780260D01*
X2038260Y1780040D01*
X2040080Y1779960D01*
X2235040Y1779960D01*
X2236580Y1779660D01*
X2237860Y1778779D01*
X2398360Y1618280D01*
X2399720Y1617040D01*
X2401100Y1615980D01*
X2402580Y1615040D01*
X2404140Y1614240D01*
X2405740Y1613560D01*
X2407420Y1613040D01*
X2409120Y1612660D01*
X2411480Y1612340D01*
X2434700Y1606819D01*
X2437520Y1606500D01*
X2472520Y1606500D01*
X2474900Y1606720D01*
X2502860Y1612280D01*
X2503640Y1612360D01*
X2516160Y1612360D01*
X2517400Y1612160D01*
X2518500Y1611579D01*
X2519400Y1610700D01*
X2528660Y1597860D01*
X2529760Y1595680D01*
X2532640Y1591160D01*
X2536100Y1587060D01*
X2540100Y1583460D01*
X2544520Y1580420D01*
X2549300Y1578000D01*
X2554380Y1576240D01*
X2559640Y1575160D01*
X2565000Y1574800D01*
X2570360Y1575160D01*
X2575620Y1576240D01*
X2580700Y1578000D01*
X2585480Y1580420D01*
X2589900Y1583460D01*
X2593900Y1587060D01*
X2597360Y1591160D01*
X2600240Y1595680D01*
X2602500Y1600560D01*
X2604100Y1605680D01*
X2604980Y1610980D01*
X2605160Y1616339D01*
X2604640Y1621680D01*
X2603380Y1626900D01*
X2601460Y1631920D01*
X2598880Y1636620D01*
X2595700Y1640940D01*
X2591960Y1644800D01*
X2587740Y1648140D01*
X2583120Y1650880D01*
X2578180Y1652960D01*
X2573000Y1654379D01*
X2567679Y1655100D01*
X2562320Y1655100D01*
X2557000Y1654379D01*
X2555000Y1653920D01*
X2532220Y1652440D01*
X2503660Y1652440D01*
X2502860Y1652520D01*
X2480940Y1656940D01*
X2479360Y1657620D01*
X2478240Y1658899D01*
X2477740Y1660540D01*
X2477980Y1662240D01*
X2478900Y1663680D01*
X2480680Y1665460D01*
X2481880Y1667400D01*
X2482640Y1669540D01*
X2482920Y1672040D01*
X2482920Y1677180D01*
X2466360Y1677180D01*
X2466360Y1662400D01*
X2466060Y1660860D01*
X2465180Y1659560D01*
X2463880Y1658700D01*
X2462360Y1658400D01*
X2447640Y1658400D01*
X2446120Y1658700D01*
X2444820Y1659560D01*
X2443940Y1660860D01*
X2443640Y1662400D01*
X2443640Y1677180D01*
X2427080Y1677180D01*
X2427080Y1672040D01*
X2427360Y1669540D01*
X2428120Y1667400D01*
X2429320Y1665480D01*
X2431300Y1663520D01*
X2432220Y1662100D01*
X2432480Y1660440D01*
X2432020Y1658800D01*
X2430940Y1657520D01*
X2429420Y1656780D01*
X2421240Y1654820D01*
X2419880Y1654720D01*
X2418580Y1655100D01*
X2417460Y1655880D01*
X2259240Y1814120D01*
X2257880Y1815360D01*
X2256500Y1816420D01*
X2255020Y1817360D01*
X2253460Y1818160D01*
X2251860Y1818839D01*
X2250180Y1819360D01*
X2248480Y1819740D01*
X2246740Y1819960D01*
X2244920Y1820040D01*
X2103180Y1820040D01*
X2101620Y1820360D01*
X2100320Y1821260D01*
X2099460Y1822600D01*
X2099180Y1824180D01*
X2099560Y1825720D01*
X2100500Y1827000D01*
X2101860Y1827820D01*
X2102720Y1828120D01*
X2104640Y1829319D01*
X2106260Y1830940D01*
X2107480Y1832860D01*
X2108220Y1835020D01*
X2108500Y1837500D01*
X2108500Y1843640D01*
X2092920Y1843640D01*
X2092920Y1824040D01*
X2092620Y1822520D01*
X2091759Y1821220D01*
X2090460Y1820340D01*
X2088920Y1820040D01*
X2076180Y1820040D01*
X2074660Y1820340D01*
X2073360Y1821220D01*
X2072480Y1822520D01*
X2072180Y1824040D01*
X2072180Y1843640D01*
X2057400Y1843640D01*
X2055860Y1843940D01*
X2054560Y1844820D01*
X2053700Y1846120D01*
X2053400Y1847640D01*
X2053400Y1862360D01*
X2053700Y1863880D01*
X2054560Y1865180D01*
X2055860Y1866060D01*
X2057400Y1866360D01*
X2072180Y1866360D01*
X2072180Y1882920D01*
X2067040Y1882920D01*
X2064540Y1882640D01*
X2062400Y1881879D01*
X2060460Y1880680D01*
X2058860Y1879060D01*
X2058380Y1878320D01*
X2057280Y1877160D01*
X2055800Y1876519D01*
X2054199Y1876519D01*
X2052720Y1877160D01*
X2051620Y1878320D01*
X2051140Y1879060D01*
X2049540Y1880680D01*
X2047600Y1881879D01*
X2045460Y1882640D01*
X2042960Y1882920D01*
X2011960Y1882920D01*
X2008820Y1882500D01*
X1981339Y1875180D01*
X1980300Y1875040D01*
X1944960Y1875040D01*
X1943420Y1875340D01*
X1942140Y1876220D01*
X1890380Y1927980D01*
X1889500Y1929259D01*
X1889199Y1930800D01*
X1889500Y1932340D01*
X1890380Y1933620D01*
X1891680Y1934500D01*
X1893200Y1934800D01*
X2402040Y1934800D01*
X2403580Y1934500D01*
X2404880Y1933620D01*
X2423620Y1914880D01*
X2424500Y1913580D01*
X2424800Y1912040D01*
X2424800Y1887960D01*
X2424500Y1886420D01*
X2423620Y1885120D01*
X2414880Y1876380D01*
X2413580Y1875500D01*
X2412040Y1875200D01*
X2372420Y1875200D01*
X2371420Y1875320D01*
X2370480Y1875700D01*
X2364640Y1878940D01*
X2363100Y1880060D01*
X2359620Y1881940D01*
X2355880Y1883240D01*
X2351980Y1883880D01*
X2348020Y1883880D01*
X2344120Y1883240D01*
X2340380Y1881940D01*
X2336900Y1880060D01*
X2333760Y1877640D01*
X2331080Y1874720D01*
X2328920Y1871399D01*
X2327340Y1867780D01*
X2326360Y1863940D01*
X2326040Y1860000D01*
X2326360Y1856060D01*
X2327340Y1852220D01*
X2328920Y1848600D01*
X2331080Y1845280D01*
X2333760Y1842360D01*
X2336900Y1839940D01*
X2340380Y1838060D01*
X2344120Y1836759D01*
X2348020Y1836120D01*
X2351980Y1836120D01*
X2355880Y1836759D01*
X2359620Y1838060D01*
X2363100Y1839940D01*
X2364640Y1841060D01*
X2370480Y1844300D01*
X2371420Y1844680D01*
X2372420Y1844800D01*
X2419800Y1844800D01*
X2422960Y1845120D01*
X2425800Y1845980D01*
X2428440Y1847380D01*
X2430880Y1849400D01*
X2442980Y1861480D01*
X2444260Y1862340D01*
X2445800Y1862640D01*
X2447340Y1862340D01*
X2448620Y1861480D01*
X2449500Y1860180D01*
X2449800Y1858640D01*
X2449800Y1845200D01*
X2450120Y1842040D01*
X2450980Y1839199D01*
X2452380Y1836560D01*
X2454400Y1834120D01*
X2479120Y1809400D01*
X2481560Y1807380D01*
X2484200Y1805980D01*
X2487040Y1805120D01*
X2490200Y1804800D01*
X2517700Y1804800D01*
X2519300Y1804480D01*
X2520620Y1803540D01*
X2536040Y1787120D01*
X2540100Y1783460D01*
X2544520Y1780420D01*
X2549300Y1778000D01*
X2554380Y1776240D01*
X2559640Y1775160D01*
X2565000Y1774800D01*
X2570360Y1775160D01*
X2575620Y1776240D01*
X2580700Y1778000D01*
X2585480Y1780420D01*
X2589900Y1783460D01*
X2593900Y1787060D01*
X2597360Y1791160D01*
X2600240Y1795680D01*
X2602500Y1800560D01*
X2604100Y1805680D01*
X2604980Y1810980D01*
X2605160Y1816339D01*
X2604640Y1821680D01*
X2603380Y1826900D01*
X2601460Y1831920D01*
X2598880Y1836620D01*
X2595700Y1840940D01*
X2591960Y1844800D01*
X2587740Y1848140D01*
X2583120Y1850880D01*
X2578180Y1852960D01*
X2573000Y1854379D01*
X2567679Y1855100D01*
X2562320Y1855100D01*
X2557000Y1854379D01*
X2551820Y1852960D01*
X2546860Y1850860D01*
X2542480Y1848300D01*
X2523080Y1835840D01*
X2522040Y1835360D01*
X2520920Y1835200D01*
X2497960Y1835200D01*
X2496420Y1835500D01*
X2495120Y1836380D01*
X2481380Y1850120D01*
X2480500Y1851420D01*
X2480200Y1852960D01*
X2480200Y1939800D01*
X2479880Y1942960D01*
X2479020Y1945800D01*
X2477620Y1948440D01*
X2475600Y1950880D01*
X2448520Y1977980D01*
X2447660Y1979259D01*
X2447360Y1980800D01*
X2447660Y1982340D01*
X2448520Y1983620D01*
X2449820Y1984500D01*
X2451360Y1984800D01*
X2526780Y1984800D01*
X2528000Y1984620D01*
X2551480Y1977140D01*
X2552440Y1976920D01*
X2554380Y1976240D01*
X2559640Y1975160D01*
X2565000Y1974800D01*
X2570360Y1975160D01*
X2575620Y1976240D01*
X2580700Y1978000D01*
X2585480Y1980420D01*
X2589900Y1983460D01*
X2593900Y1987060D01*
X2597360Y1991160D01*
X2600240Y1995680D01*
X2602500Y2000560D01*
X2604100Y2005680D01*
X2604980Y2010980D01*
X2605160Y2016339D01*
X2604640Y2021680D01*
X2603380Y2026900D01*
X2601460Y2031920D01*
X2598880Y2036620D01*
X2595700Y2040940D01*
X2591960Y2044800D01*
X2587740Y2048140D01*
X2583120Y2050880D01*
X2578180Y2052960D01*
X2573000Y2054379D01*
X2567679Y2055100D01*
X2562320Y2055100D01*
X2557000Y2054379D01*
X2551820Y2052960D01*
X2546880Y2050880D01*
X2542260Y2048140D01*
X2538040Y2044800D01*
X2534300Y2040940D01*
X2531120Y2036620D01*
X2520200Y2017240D01*
X2519320Y2016160D01*
X2518100Y2015440D01*
X2516720Y2015200D01*
X2037960Y2015200D01*
X2036420Y2015500D01*
X2035120Y2016380D01*
X2016600Y2034900D01*
X2015980Y2035680D01*
X2015580Y2036620D01*
X2013820Y2042780D01*
X2013640Y2043940D01*
X2012660Y2047780D01*
X2011080Y2051399D01*
X2008920Y2054720D01*
X2006240Y2057640D01*
X2003100Y2060060D01*
X1999620Y2061940D01*
X1995880Y2063240D01*
X1991980Y2063880D01*
X1988020Y2063880D01*
X1984120Y2063240D01*
X1980380Y2061940D01*
X1976900Y2060060D01*
X1973760Y2057640D01*
X1971080Y2054720D01*
X1968920Y2051399D01*
X1967340Y2047780D01*
X1966360Y2043940D01*
X1966040Y2040000D01*
X1966360Y2036060D01*
X1967340Y2032220D01*
X1968920Y2028600D01*
X1971080Y2025280D01*
X1973760Y2022360D01*
X1976900Y2019940D01*
X1980380Y2018060D01*
X1984120Y2016759D01*
X1986900Y2016279D01*
X1993380Y2014420D01*
X1994319Y2014019D01*
X1995100Y2013400D01*
X2011480Y1997020D01*
X2012340Y1995740D01*
X2012640Y1994199D01*
X2012340Y1992660D01*
X2011480Y1991380D01*
X2010180Y1990500D01*
X2008640Y1990200D01*
X1897960Y1990200D01*
X1896420Y1990500D01*
X1895120Y1991380D01*
X1881380Y2005120D01*
X1880500Y2006420D01*
X1880200Y2007960D01*
X1880200Y2079800D01*
X1879880Y2082960D01*
X1879019Y2085800D01*
X1877620Y2088440D01*
X1875600Y2090880D01*
X1840880Y2125600D01*
X1838440Y2127620D01*
X1835800Y2129020D01*
X1832960Y2129880D01*
X1829800Y2130200D01*
X1530720Y2130200D01*
X1529160Y2130520D01*
X1527840Y2131420D01*
X1526980Y2132760D01*
X1526720Y2134340D01*
X1527100Y2135900D01*
X1528060Y2137180D01*
X1533100Y2139940D01*
X1536240Y2142360D01*
X1538920Y2145280D01*
X1541080Y2148600D01*
X1542660Y2152220D01*
X1543640Y2156060D01*
X1543959Y2160000D01*
X1543640Y2163940D01*
X1542660Y2167780D01*
X1541080Y2171400D01*
X1538920Y2174720D01*
X1536240Y2177640D01*
X1533100Y2180060D01*
X1529620Y2181940D01*
X1525880Y2183240D01*
X1521980Y2183880D01*
X1518020Y2183880D01*
X1514120Y2183240D01*
X1510380Y2181940D01*
X1506900Y2180060D01*
X1505360Y2178940D01*
X1499520Y2175700D01*
X1498580Y2175320D01*
X1497580Y2175200D01*
X1452960Y2175200D01*
X1451420Y2175500D01*
X1450120Y2176380D01*
X1413820Y2212680D01*
X1412940Y2213980D01*
X1412640Y2215520D01*
X1412640Y2311620D01*
X1412760Y2312600D01*
X1413640Y2316060D01*
X1413959Y2320000D01*
X1413640Y2323940D01*
X1412660Y2327780D01*
X1411080Y2331400D01*
X1408920Y2334720D01*
X1406240Y2337640D01*
X1403100Y2340060D01*
X1399620Y2341940D01*
X1395880Y2343240D01*
X1391980Y2343880D01*
X1388020Y2343880D01*
X1384120Y2343240D01*
X1380380Y2341940D01*
X1376900Y2340060D01*
X1373760Y2337640D01*
X1371080Y2334720D01*
X1368920Y2331400D01*
X1367340Y2327780D01*
X1366360Y2323940D01*
X1366040Y2320000D01*
X1366360Y2316060D01*
X1367340Y2312220D01*
X1368920Y2308600D01*
X1371120Y2305220D01*
X1371720Y2303740D01*
X1372500Y2299460D01*
X1372560Y2298740D01*
X1372560Y2143680D01*
X1372480Y2142880D01*
X1368060Y2120940D01*
X1367380Y2119360D01*
X1366080Y2118240D01*
X1364460Y2117740D01*
X1362760Y2117980D01*
X1361320Y2118900D01*
X1359540Y2120680D01*
X1357600Y2121880D01*
X1355460Y2122640D01*
X1352960Y2122920D01*
X1347820Y2122920D01*
X1347820Y2106360D01*
X1362600Y2106360D01*
X1364139Y2106060D01*
X1365440Y2105180D01*
X1366300Y2103880D01*
X1366600Y2102360D01*
X1366600Y2087640D01*
X1366300Y2086120D01*
X1365440Y2084820D01*
X1364139Y2083940D01*
X1362600Y2083640D01*
X1347820Y2083640D01*
X1347820Y2074199D01*
X1347520Y2072660D01*
X1346639Y2071380D01*
X1345340Y2070500D01*
X1343820Y2070200D01*
X1331080Y2070200D01*
X1329540Y2070500D01*
X1328240Y2071380D01*
X1327380Y2072660D01*
X1327080Y2074199D01*
X1327080Y2083640D01*
X1311500Y2083640D01*
X1311500Y2077500D01*
X1311819Y2074640D01*
X1311660Y2072980D01*
X1310820Y2071540D01*
X1309480Y2070540D01*
X1307840Y2070200D01*
X1277960Y2070200D01*
X1276420Y2070500D01*
X1275120Y2071380D01*
X1266380Y2080120D01*
X1265500Y2081420D01*
X1265200Y2082960D01*
X1265200Y2652620D01*
X1265440Y2653980D01*
X1266140Y2655200D01*
X1282640Y2674860D01*
X1285680Y2679400D01*
X1288060Y2684240D01*
X1289780Y2689340D01*
X1290840Y2694620D01*
X1291200Y2700000D01*
X1290840Y2705380D01*
X1289780Y2710659D01*
X1288060Y2715760D01*
X1285680Y2720600D01*
X1282680Y2725080D01*
X1279120Y2729120D01*
X1275080Y2732679D01*
X1270600Y2735680D01*
X1265640Y2738120D01*
X1264280Y2739240D01*
X1263520Y2740840D01*
X1263520Y2742600D01*
X1264300Y2744200D01*
X1265680Y2745299D01*
X1267420Y2745700D01*
X1332580Y2745700D01*
X1334319Y2745299D01*
X1336000Y2745700D01*
X1364000Y2745700D01*
X1365680Y2745299D01*
X1367420Y2745700D01*
X1503320Y2745700D01*
X1504860Y2745400D01*
X1506140Y2744520D01*
X1507020Y2743240D01*
X1507320Y2741700D01*
X1507020Y2740160D01*
X1506140Y2738880D01*
X1505120Y2737840D01*
X1503899Y2735920D01*
X1503160Y2733759D01*
X1502880Y2731280D01*
X1502880Y2668740D01*
X1503200Y2666060D01*
X1503640Y2664620D01*
X1520060Y2622980D01*
X1520340Y2621500D01*
X1520340Y2604820D01*
X1520540Y2601540D01*
X1520660Y2600680D01*
X1521399Y2597500D01*
X1521660Y2596680D01*
X1523300Y2592900D01*
X1525040Y2590120D01*
X1527740Y2586960D01*
X1612260Y2502440D01*
X1615420Y2499740D01*
X1618200Y2498000D01*
X1621980Y2496360D01*
X1622800Y2496100D01*
X1625980Y2495360D01*
X1626840Y2495240D01*
X1630120Y2495040D01*
X1833000Y2495040D01*
X1834540Y2494740D01*
X1835840Y2493860D01*
X1917260Y2412440D01*
X1918140Y2411140D01*
X1918440Y2409600D01*
X1918440Y2333520D01*
X1918020Y2331720D01*
X1901279Y2298280D01*
X1900400Y2297100D01*
X1899160Y2296340D01*
X1897720Y2296060D01*
X1894980Y2296060D01*
X1892500Y2295780D01*
X1890340Y2295040D01*
X1888420Y2293820D01*
X1886800Y2292200D01*
X1885600Y2290280D01*
X1884840Y2288140D01*
X1884560Y2285640D01*
X1884560Y2278380D01*
X1884300Y2276940D01*
X1883520Y2275680D01*
X1882360Y2274800D01*
X1863680Y2265460D01*
X1861879Y2265040D01*
X1810080Y2265040D01*
X1808260Y2264960D01*
X1806519Y2264740D01*
X1804820Y2264360D01*
X1803140Y2263840D01*
X1801540Y2263160D01*
X1799980Y2262360D01*
X1798500Y2261420D01*
X1797120Y2260360D01*
X1795760Y2259120D01*
X1749340Y2212680D01*
X1745240Y2208960D01*
X1743860Y2208140D01*
X1740380Y2206940D01*
X1736900Y2205060D01*
X1733760Y2202640D01*
X1731080Y2199720D01*
X1728920Y2196400D01*
X1727340Y2192780D01*
X1726360Y2188940D01*
X1726040Y2185000D01*
X1726360Y2181060D01*
X1727340Y2177220D01*
X1728920Y2173600D01*
X1731080Y2170280D01*
X1733760Y2167360D01*
X1736900Y2164940D01*
X1740380Y2163060D01*
X1744120Y2161760D01*
X1748020Y2161120D01*
X1751980Y2161120D01*
X1755880Y2161760D01*
X1759620Y2163060D01*
X1763100Y2164940D01*
X1766240Y2167360D01*
X1768920Y2170280D01*
X1771080Y2173600D01*
X1772660Y2177220D01*
X1773320Y2179340D01*
X1773880Y2180140D01*
X1777700Y2184340D01*
X1817140Y2223780D01*
X1818420Y2224660D01*
X1819960Y2224960D01*
X1861879Y2224960D01*
X1863680Y2224540D01*
X1882360Y2215200D01*
X1883520Y2214300D01*
X1884300Y2213060D01*
X1884560Y2211620D01*
X1884560Y2144360D01*
X1884840Y2141860D01*
X1885600Y2139720D01*
X1886800Y2137800D01*
X1888420Y2136180D01*
X1890340Y2134960D01*
X1892500Y2134220D01*
X1894980Y2133940D01*
X1991780Y2133940D01*
X1994280Y2134220D01*
X1996420Y2134960D01*
X1998360Y2136180D01*
X1999960Y2137800D01*
X2001180Y2139720D01*
X2001920Y2141860D01*
X2002200Y2144360D01*
X2002200Y2285640D01*
X2001920Y2288140D01*
X2001180Y2290280D01*
X1999960Y2292200D01*
X1998360Y2293820D01*
X1996420Y2295040D01*
X1994280Y2295780D01*
X1991780Y2296060D01*
X1989079Y2296060D01*
X1987640Y2296340D01*
X1986399Y2297100D01*
X1985500Y2298280D01*
X1968779Y2331720D01*
X1968360Y2333500D01*
X1968360Y2421480D01*
X1968160Y2424760D01*
X1968040Y2425620D01*
X1967300Y2428800D01*
X1967040Y2429620D01*
X1965400Y2433400D01*
X1963660Y2436180D01*
X1960960Y2439340D01*
X1862740Y2537560D01*
X1859580Y2540260D01*
X1856800Y2542000D01*
X1853020Y2543640D01*
X1852200Y2543900D01*
X1849019Y2544640D01*
X1848160Y2544760D01*
X1844880Y2544960D01*
X1642000Y2544960D01*
X1640460Y2545260D01*
X1639160Y2546140D01*
X1571440Y2613860D01*
X1570560Y2615160D01*
X1570260Y2616700D01*
X1570260Y2621520D01*
X1570540Y2623000D01*
X1586860Y2664560D01*
X1587520Y2667060D01*
X1587640Y2668639D01*
X1587640Y2731280D01*
X1587360Y2733759D01*
X1586600Y2735920D01*
X1585400Y2737840D01*
X1584360Y2738880D01*
X1583500Y2740160D01*
X1583200Y2741700D01*
X1583500Y2743240D01*
X1584360Y2744520D01*
X1585660Y2745400D01*
X1587200Y2745700D01*
X1622800Y2745700D01*
X1624340Y2745400D01*
X1625640Y2744520D01*
X1626500Y2743240D01*
X1626800Y2741700D01*
X1626500Y2740160D01*
X1625640Y2738880D01*
X1624600Y2737840D01*
X1623400Y2735920D01*
X1622640Y2733759D01*
X1622360Y2731280D01*
X1622360Y2668720D01*
X1622640Y2666240D01*
X1623400Y2664080D01*
X1624600Y2662160D01*
X1626220Y2660539D01*
X1628140Y2659340D01*
X1630300Y2658580D01*
X1632780Y2658300D01*
X1696699Y2658300D01*
X1699300Y2658600D01*
X1700660Y2659000D01*
X1742400Y2674780D01*
X1743800Y2675040D01*
X1900020Y2675040D01*
X1943899Y2672799D01*
X1976000Y2672799D01*
X1978480Y2673080D01*
X1980640Y2673820D01*
X1982560Y2675040D01*
X1984180Y2676640D01*
X1985380Y2678580D01*
X1986220Y2680960D01*
X1987060Y2682360D01*
X1988400Y2683320D01*
X1990000Y2683639D01*
X1991600Y2683320D01*
X1992940Y2682360D01*
X1993779Y2680960D01*
X1994620Y2678580D01*
X1995820Y2676640D01*
X1997440Y2675040D01*
X1999360Y2673820D01*
X2001519Y2673080D01*
X2004000Y2672799D01*
X2035300Y2672799D01*
X2037800Y2673080D01*
X2039940Y2673820D01*
X2041879Y2675040D01*
X2043480Y2676640D01*
X2044700Y2678580D01*
X2045060Y2679600D01*
X2045820Y2680920D01*
X2047040Y2681860D01*
X2052100Y2684380D01*
X2053880Y2684800D01*
X2192040Y2684800D01*
X2193580Y2684500D01*
X2194880Y2683620D01*
X2238400Y2640100D01*
X2239020Y2639320D01*
X2239420Y2638380D01*
X2241180Y2632220D01*
X2241360Y2631060D01*
X2242340Y2627220D01*
X2243920Y2623600D01*
X2246080Y2620280D01*
X2248760Y2617360D01*
X2251900Y2614940D01*
X2255380Y2613060D01*
X2259120Y2611760D01*
X2263020Y2611120D01*
X2266980Y2611120D01*
X2270880Y2611760D01*
X2274620Y2613060D01*
X2278100Y2614940D01*
X2281240Y2617360D01*
X2283920Y2620280D01*
X2286080Y2623600D01*
X2287660Y2627220D01*
X2288640Y2631060D01*
X2288960Y2635000D01*
X2288640Y2638940D01*
X2287660Y2642780D01*
X2286080Y2646400D01*
X2283920Y2649720D01*
X2281240Y2652640D01*
X2278100Y2655059D01*
X2274620Y2656940D01*
X2270880Y2658240D01*
X2268100Y2658720D01*
X2261620Y2660580D01*
X2260680Y2660980D01*
X2259900Y2661600D01*
X2210880Y2710600D01*
X2208440Y2712620D01*
X2205800Y2714020D01*
X2202960Y2714880D01*
X2199800Y2715200D01*
X2053880Y2715200D01*
X2052100Y2715620D01*
X2047040Y2718159D01*
X2045820Y2719080D01*
X2045060Y2720400D01*
X2044700Y2721420D01*
X2043480Y2723360D01*
X2041879Y2724960D01*
X2039940Y2726180D01*
X2037800Y2726920D01*
X2035300Y2727200D01*
X2004000Y2727200D01*
X2001519Y2726920D01*
X1999360Y2726180D01*
X1997440Y2724960D01*
X1995820Y2723360D01*
X1994620Y2721420D01*
X1993779Y2719040D01*
X1992940Y2717640D01*
X1991600Y2716680D01*
X1990000Y2716360D01*
X1988400Y2716680D01*
X1987060Y2717640D01*
X1986220Y2719040D01*
X1985380Y2721420D01*
X1984180Y2723360D01*
X1982560Y2724960D01*
X1980640Y2726180D01*
X1978480Y2726920D01*
X1976000Y2727200D01*
X1943899Y2727200D01*
X1900020Y2724960D01*
X1743800Y2724960D01*
X1742400Y2725220D01*
X1708680Y2737960D01*
X1707340Y2738800D01*
X1706440Y2740080D01*
X1706100Y2741620D01*
X1706380Y2743180D01*
X1707240Y2744500D01*
X1708540Y2745380D01*
X1710100Y2745700D01*
X2440720Y2745700D01*
X2452780Y2745320D01*
X2464460Y2744200D01*
X2476040Y2742360D01*
X2487480Y2739800D01*
X2498740Y2736520D01*
X2509760Y2732540D01*
X2520520Y2727880D01*
X2530960Y2722540D01*
X2541060Y2716560D01*
X2550740Y2709980D01*
X2560000Y2702780D01*
X2568800Y2695020D01*
X2577080Y2686720D01*
X2584820Y2677919D01*
X2592000Y2668660D01*
X2598600Y2658960D01*
X2604560Y2648860D01*
X2609880Y2638399D01*
X2614520Y2627640D01*
X2618480Y2616600D01*
X2621740Y2605340D01*
X2624300Y2593900D01*
X2626120Y2582320D01*
X2627220Y2570640D01*
X2627600Y2558840D01*
X2627600Y1427640D01*
X2627280Y1426120D01*
X2626420Y1424820D01*
X2625120Y1423940D01*
X2623600Y1423640D01*
X2599020Y1423640D01*
X2596500Y1423360D01*
X2595640Y1423080D01*
X2594120Y1422880D01*
X2592620Y1423280D01*
X2592100Y1423680D01*
X2592260Y1422960D01*
X2591980Y1421380D01*
X2590840Y1419780D01*
X2589620Y1417860D01*
X2588880Y1415700D01*
X2588600Y1413220D01*
X2588600Y1366420D01*
X2588880Y1363940D01*
X2589620Y1361780D01*
X2590840Y1359860D01*
X2592440Y1358240D01*
X2594380Y1357040D01*
X2596520Y1356279D01*
X2599020Y1356000D01*
X2623600Y1356000D01*
X2625120Y1355700D01*
X2626420Y1354820D01*
X2627280Y1353520D01*
X2627600Y1352000D01*
X2627600Y1278040D01*
X2627280Y1276500D01*
X2626420Y1275200D01*
X2625120Y1274340D01*
X2623600Y1274040D01*
X2599020Y1274040D01*
X2596520Y1273760D01*
X2594380Y1273000D01*
X2592440Y1271800D01*
X2590840Y1270180D01*
X2589620Y1268260D01*
X2588880Y1266100D01*
X2588600Y1263620D01*
X2588600Y1216820D01*
X2588880Y1214320D01*
X2589620Y1212180D01*
X2591980Y1208660D01*
X2592260Y1207060D01*
X2592120Y1206460D01*
X2592600Y1206820D01*
X2594100Y1207200D01*
X2595640Y1206980D01*
X2596520Y1206680D01*
X2599020Y1206400D01*
X2623600Y1206400D01*
X2625120Y1206080D01*
X2626420Y1205220D01*
X2627280Y1203920D01*
X2627600Y1202400D01*
X2627600Y984460D01*
X2627200Y972400D01*
X2626100Y960740D01*
X2624260Y949160D01*
X2621680Y937720D01*
X2618399Y926460D01*
X2614420Y915420D01*
X2609760Y904659D01*
X2604440Y894220D01*
X2598460Y884140D01*
X2591860Y874440D01*
X2584660Y865180D01*
X2576900Y856400D01*
X2568620Y848100D01*
X2559820Y840360D01*
X2550540Y833180D01*
X2540840Y826600D01*
X2530740Y820639D01*
X2520300Y815320D01*
X2509540Y810660D01*
X2498500Y806700D01*
X2487240Y803439D01*
X2475780Y800900D01*
X2464200Y799060D01*
X2452540Y797960D01*
X2440720Y797600D01*
X2064480Y797600D01*
X2062880Y797940D01*
X2061540Y798900D01*
X2060700Y800300D01*
X2060500Y801940D01*
X2060960Y803520D01*
X2062040Y804760D01*
X2063500Y805480D01*
X2067560Y806500D01*
X2074700Y809040D01*
X2081540Y812280D01*
X2088020Y816180D01*
X2094100Y820680D01*
X2099720Y825759D01*
X2104800Y831380D01*
X2109300Y837460D01*
X2113200Y843940D01*
X2116440Y850780D01*
X2118980Y857920D01*
X2120820Y865260D01*
X2121940Y872740D01*
X2122300Y880300D01*
X2121940Y887860D01*
X2120820Y895340D01*
X2118980Y902680D01*
X2116440Y909820D01*
X2113200Y916660D01*
X2109300Y923139D01*
X2104800Y929220D01*
X2099720Y934840D01*
X2094100Y939920D01*
X2088020Y944419D01*
X2081540Y948319D01*
X2074700Y951560D01*
X2067560Y954100D01*
X2060220Y955939D01*
X2052740Y957060D01*
X2045180Y957420D01*
X2037620Y957060D01*
X2030140Y955939D01*
X2022800Y954100D01*
X2015660Y951560D01*
X2008820Y948319D01*
X2002340Y944419D01*
X1996260Y939920D01*
X1990640Y934840D01*
X1985560Y929220D01*
X1981060Y923139D01*
X1977160Y916660D01*
X1973920Y909820D01*
X1971380Y902680D01*
X1969540Y895340D01*
X1968420Y887860D01*
X1968060Y880300D01*
X1968420Y872740D01*
X1969540Y865260D01*
X1971380Y857920D01*
X1973920Y850780D01*
X1977160Y843940D01*
X1981060Y837460D01*
X1985560Y831380D01*
X1990640Y825759D01*
X1996260Y820680D01*
X2002340Y816180D01*
X2008820Y812280D01*
X2015660Y809040D01*
X2022800Y806500D01*
X2026860Y805480D01*
X2028320Y804760D01*
X2029400Y803520D01*
X2029860Y801940D01*
X2029660Y800300D01*
X2028820Y798900D01*
X2027480Y797940D01*
X2025880Y797600D01*
X707800Y797600D01*
X706180Y797940D01*
X704840Y798900D01*
X704000Y800300D01*
X703800Y801940D01*
X704280Y803520D01*
X705340Y804760D01*
X706820Y805480D01*
X710879Y806500D01*
X718000Y809040D01*
X724840Y812280D01*
X731340Y816180D01*
X737420Y820680D01*
X743020Y825759D01*
X748100Y831380D01*
X752620Y837460D01*
X756500Y843940D01*
X759740Y850780D01*
X762300Y857920D01*
X764140Y865260D01*
X765240Y872740D01*
X765620Y880300D01*
X765240Y887860D01*
X764140Y895340D01*
X762300Y902680D01*
X759740Y909820D01*
X756500Y916660D01*
X752620Y923139D01*
X748100Y929220D01*
X743020Y934840D01*
X737420Y939920D01*
X731340Y944419D01*
X724840Y948319D01*
X718000Y951560D01*
X710879Y954100D01*
X703540Y955939D01*
X696040Y957060D01*
X688500Y957420D01*
X680939Y957060D01*
X673439Y955939D01*
X666100Y954100D01*
X658980Y951560D01*
X652140Y948319D01*
X645639Y944419D01*
X639560Y939920D01*
X633960Y934840D01*
X628880Y929220D01*
X624360Y923139D01*
X620480Y916660D01*
X617240Y909820D01*
X614680Y902680D01*
X612840Y895340D01*
X611740Y887860D01*
X611360Y880300D01*
X611740Y872740D01*
X612840Y865260D01*
X614680Y857920D01*
X617240Y850780D01*
X620480Y843940D01*
X624360Y837460D01*
X628880Y831380D01*
X633960Y825759D01*
X639560Y820680D01*
X645639Y816180D01*
X652140Y812280D01*
X658980Y809040D01*
X666100Y806500D01*
X670160Y805480D01*
X671640Y804760D01*
X672700Y803520D01*
X673180Y801940D01*
X672980Y800300D01*
X672140Y798900D01*
X670800Y797940D01*
X669180Y797600D01*
G37*

%LPC*%
G36*
X910200Y824800D02*
G01*
X1124880Y824800D01*
X1128040Y825120D01*
X1130880Y825980D01*
X1133500Y827380D01*
X1135960Y829400D01*
X1183200Y876640D01*
X1184340Y877440D01*
X1185680Y877800D01*
X1208960Y879860D01*
X1214340Y880780D01*
X1219460Y882360D01*
X1224320Y884620D01*
X1228860Y887520D01*
X1232960Y890980D01*
X1236560Y894960D01*
X1239600Y899380D01*
X1242020Y904180D01*
X1243780Y909260D01*
X1244840Y914520D01*
X1245200Y919880D01*
X1244840Y925220D01*
X1243780Y930500D01*
X1242020Y935560D01*
X1239600Y940360D01*
X1236560Y944780D01*
X1232960Y948760D01*
X1228860Y952220D01*
X1224320Y955120D01*
X1219460Y957380D01*
X1214340Y958960D01*
X1209040Y959860D01*
X1203680Y960040D01*
X1198320Y959500D01*
X1193100Y958259D01*
X1188100Y956320D01*
X1183380Y953740D01*
X1179060Y950560D01*
X1175200Y946840D01*
X1171880Y942620D01*
X1169140Y938000D01*
X1167040Y933060D01*
X1165620Y927880D01*
X1164880Y922340D01*
X1162880Y900620D01*
X1162520Y899280D01*
X1161740Y898160D01*
X1119940Y856380D01*
X1118640Y855500D01*
X1117120Y855200D01*
X917960Y855200D01*
X916420Y855500D01*
X915120Y856380D01*
X671380Y1100120D01*
X670500Y1101420D01*
X670200Y1102960D01*
X670200Y1112580D01*
X670320Y1113580D01*
X670699Y1114520D01*
X673840Y1120180D01*
X676080Y1123600D01*
X677660Y1127220D01*
X678640Y1131060D01*
X678960Y1135000D01*
X678640Y1138940D01*
X677660Y1142780D01*
X676080Y1146400D01*
X673920Y1149720D01*
X671240Y1152640D01*
X668100Y1155060D01*
X664620Y1156940D01*
X660879Y1158240D01*
X656979Y1158880D01*
X653020Y1158880D01*
X649120Y1158240D01*
X645380Y1156940D01*
X641900Y1155060D01*
X638760Y1152640D01*
X636080Y1149720D01*
X633920Y1146400D01*
X632340Y1142780D01*
X631360Y1138940D01*
X631040Y1135000D01*
X631360Y1131060D01*
X632340Y1127220D01*
X633920Y1123600D01*
X636300Y1119940D01*
X639300Y1114520D01*
X639680Y1113580D01*
X639800Y1112580D01*
X639800Y1095200D01*
X640120Y1092040D01*
X640980Y1089200D01*
X642380Y1086560D01*
X644400Y1084120D01*
X899120Y829400D01*
X901560Y827380D01*
X904200Y825980D01*
X907039Y825120D01*
G37*
G36*
X2279220Y833800D02*
G01*
X2340780Y833800D01*
X2343260Y834080D01*
X2345420Y834840D01*
X2347340Y836040D01*
X2348960Y837660D01*
X2350160Y839580D01*
X2350920Y841740D01*
X2351200Y844220D01*
X2351200Y905780D01*
X2350920Y908259D01*
X2350160Y910420D01*
X2348960Y912340D01*
X2347340Y913960D01*
X2345420Y915160D01*
X2343260Y915920D01*
X2340780Y916200D01*
X2279220Y916200D01*
X2276740Y915920D01*
X2274580Y915160D01*
X2272660Y913960D01*
X2271040Y912340D01*
X2269840Y910420D01*
X2269080Y908259D01*
X2268800Y905780D01*
X2268800Y896280D01*
X2268540Y894840D01*
X2267760Y893580D01*
X2266580Y892700D01*
X2262440Y890620D01*
X2260640Y890200D01*
X2219200Y890200D01*
X2217660Y890500D01*
X2216380Y891380D01*
X2215500Y892660D01*
X2215200Y894200D01*
X2215200Y1009460D01*
X2214880Y1012620D01*
X2214020Y1015460D01*
X2212620Y1018100D01*
X2210600Y1020540D01*
X2195860Y1035300D01*
X2195280Y1036040D01*
X2194880Y1036900D01*
X2190920Y1049260D01*
X2190740Y1050480D01*
X2190740Y1061780D01*
X2190460Y1064280D01*
X2189700Y1066420D01*
X2188480Y1068360D01*
X2186880Y1069960D01*
X2184940Y1071180D01*
X2182800Y1071920D01*
X2180300Y1072200D01*
X2149000Y1072200D01*
X2146520Y1071920D01*
X2144360Y1071180D01*
X2142440Y1069960D01*
X2140820Y1068360D01*
X2139620Y1066420D01*
X2138780Y1064040D01*
X2137940Y1062640D01*
X2136600Y1061680D01*
X2135000Y1061360D01*
X2133400Y1061680D01*
X2132060Y1062640D01*
X2131220Y1064040D01*
X2130380Y1066420D01*
X2129180Y1068360D01*
X2127560Y1069960D01*
X2125640Y1071180D01*
X2123480Y1071920D01*
X2121000Y1072200D01*
X2089700Y1072200D01*
X2087200Y1071920D01*
X2085060Y1071180D01*
X2083120Y1069960D01*
X2081519Y1068360D01*
X2080300Y1066420D01*
X2079940Y1065400D01*
X2079180Y1064080D01*
X2077960Y1063140D01*
X2074280Y1061320D01*
X2073120Y1060940D01*
X2071879Y1060940D01*
X2070720Y1061320D01*
X2067040Y1063160D01*
X2065820Y1064080D01*
X2065060Y1065400D01*
X2064700Y1066420D01*
X2063480Y1068360D01*
X2061879Y1069960D01*
X2059940Y1071180D01*
X2057800Y1071920D01*
X2055300Y1072200D01*
X2024000Y1072200D01*
X2021519Y1071920D01*
X2019360Y1071180D01*
X2017440Y1069960D01*
X2015820Y1068360D01*
X2014620Y1066420D01*
X2013779Y1064040D01*
X2012940Y1062640D01*
X2011600Y1061680D01*
X2010000Y1061360D01*
X2008400Y1061680D01*
X2007060Y1062640D01*
X2006220Y1064040D01*
X2005380Y1066420D01*
X2004180Y1068360D01*
X2002560Y1069960D01*
X2000640Y1071180D01*
X1998480Y1071920D01*
X1996000Y1072200D01*
X1981819Y1072200D01*
X1980360Y1072480D01*
X1971200Y1076100D01*
X1969840Y1076980D01*
X1951220Y1095600D01*
X1948779Y1097620D01*
X1946140Y1099020D01*
X1943300Y1099880D01*
X1939540Y1100200D01*
X1937820Y1100580D01*
X1933260Y1102760D01*
X1931100Y1104220D01*
X1927580Y1105840D01*
X1923860Y1106840D01*
X1920000Y1107180D01*
X1916140Y1106840D01*
X1912420Y1105840D01*
X1908899Y1104220D01*
X1905740Y1102000D01*
X1903000Y1099260D01*
X1900780Y1096100D01*
X1899160Y1092580D01*
X1898160Y1088860D01*
X1897820Y1085000D01*
X1898160Y1081140D01*
X1899160Y1077420D01*
X1900780Y1073900D01*
X1903000Y1070740D01*
X1905740Y1068000D01*
X1908899Y1065780D01*
X1912420Y1064160D01*
X1916140Y1063160D01*
X1920000Y1062820D01*
X1923860Y1063160D01*
X1927580Y1064160D01*
X1931100Y1065780D01*
X1932440Y1066740D01*
X1933700Y1067320D01*
X1935080Y1067440D01*
X1936420Y1067080D01*
X1937560Y1066280D01*
X1939040Y1064800D01*
X1939880Y1063580D01*
X1940220Y1062120D01*
X1940000Y1060660D01*
X1939259Y1059380D01*
X1938100Y1058440D01*
X1936560Y1057620D01*
X1934120Y1055600D01*
X1919379Y1040879D01*
X1917400Y1038480D01*
X1916000Y1035840D01*
X1915120Y1033000D01*
X1914800Y1029840D01*
X1914600Y955440D01*
X1914160Y953660D01*
X1911360Y948060D01*
X1910720Y947159D01*
X1909880Y946440D01*
X1907420Y944940D01*
X1905820Y943360D01*
X1904620Y941420D01*
X1903779Y939040D01*
X1902940Y937640D01*
X1901600Y936680D01*
X1900000Y936360D01*
X1898400Y936680D01*
X1897060Y937640D01*
X1896220Y939040D01*
X1895380Y941420D01*
X1894180Y943360D01*
X1892560Y944960D01*
X1890640Y946180D01*
X1888480Y946919D01*
X1886000Y947200D01*
X1880780Y947200D01*
X1880780Y931000D01*
X1899580Y931000D01*
X1901120Y930699D01*
X1902400Y929840D01*
X1903280Y928540D01*
X1903580Y927000D01*
X1903580Y913000D01*
X1903280Y911460D01*
X1902400Y910160D01*
X1901120Y909300D01*
X1899580Y909000D01*
X1880780Y909000D01*
X1880780Y892800D01*
X1886000Y892800D01*
X1888480Y893080D01*
X1890640Y893820D01*
X1892560Y895040D01*
X1894180Y896640D01*
X1895380Y898580D01*
X1896220Y900960D01*
X1897060Y902360D01*
X1898400Y903319D01*
X1900000Y903640D01*
X1901600Y903319D01*
X1902940Y902360D01*
X1903779Y900960D01*
X1904620Y898580D01*
X1905820Y896640D01*
X1907440Y895040D01*
X1909360Y893820D01*
X1911519Y893080D01*
X1914000Y892800D01*
X1945300Y892800D01*
X1947800Y893080D01*
X1949940Y893820D01*
X1951879Y895040D01*
X1953480Y896640D01*
X1954700Y898580D01*
X1955460Y900720D01*
X1955740Y903220D01*
X1955740Y936780D01*
X1955460Y939280D01*
X1954700Y941420D01*
X1953480Y943360D01*
X1951879Y944960D01*
X1949580Y946400D01*
X1948760Y947099D01*
X1948140Y948000D01*
X1945420Y953480D01*
X1945000Y955280D01*
X1945180Y1022039D01*
X1945480Y1023560D01*
X1946339Y1024860D01*
X1947840Y1026340D01*
X1949240Y1027260D01*
X1950860Y1027520D01*
X1952960Y1026840D01*
X1954180Y1025920D01*
X1954940Y1024599D01*
X1955300Y1023580D01*
X1956519Y1021640D01*
X1958120Y1020040D01*
X1960060Y1018820D01*
X1962200Y1018080D01*
X1964700Y1017800D01*
X1996000Y1017800D01*
X1998480Y1018080D01*
X2000640Y1018820D01*
X2002560Y1020040D01*
X2004180Y1021640D01*
X2005380Y1023580D01*
X2006220Y1025960D01*
X2007060Y1027360D01*
X2008400Y1028319D01*
X2010000Y1028640D01*
X2011600Y1028319D01*
X2012940Y1027360D01*
X2013779Y1025960D01*
X2014620Y1023580D01*
X2015820Y1021640D01*
X2017440Y1020040D01*
X2019360Y1018820D01*
X2021519Y1018080D01*
X2024000Y1017800D01*
X2055300Y1017800D01*
X2057800Y1018080D01*
X2059940Y1018820D01*
X2061879Y1020040D01*
X2063480Y1021640D01*
X2064700Y1023580D01*
X2065060Y1024599D01*
X2065820Y1025920D01*
X2067040Y1026860D01*
X2070720Y1028680D01*
X2071879Y1029060D01*
X2073120Y1029060D01*
X2074280Y1028680D01*
X2077960Y1026840D01*
X2079180Y1025920D01*
X2079940Y1024599D01*
X2080300Y1023580D01*
X2081519Y1021640D01*
X2083120Y1020040D01*
X2085060Y1018820D01*
X2087200Y1018080D01*
X2089700Y1017800D01*
X2121000Y1017800D01*
X2123480Y1018080D01*
X2125640Y1018820D01*
X2127560Y1020040D01*
X2129180Y1021640D01*
X2130380Y1023580D01*
X2131220Y1025960D01*
X2132060Y1027360D01*
X2133400Y1028319D01*
X2135000Y1028640D01*
X2136600Y1028319D01*
X2137940Y1027360D01*
X2138780Y1025960D01*
X2139620Y1023580D01*
X2140820Y1021640D01*
X2142440Y1020040D01*
X2144360Y1018820D01*
X2146520Y1018080D01*
X2149000Y1017800D01*
X2163180Y1017800D01*
X2164640Y1017520D01*
X2173800Y1013900D01*
X2175160Y1013020D01*
X2183620Y1004539D01*
X2184500Y1003240D01*
X2184800Y1001700D01*
X2184800Y885200D01*
X2185120Y882039D01*
X2185980Y879200D01*
X2187380Y876560D01*
X2189400Y874120D01*
X2199120Y864400D01*
X2201560Y862380D01*
X2204200Y860980D01*
X2207040Y860120D01*
X2210200Y859800D01*
X2260640Y859800D01*
X2262440Y859380D01*
X2266580Y857300D01*
X2267760Y856420D01*
X2268540Y855160D01*
X2268800Y853720D01*
X2268800Y844220D01*
X2269080Y841740D01*
X2269840Y839580D01*
X2271040Y837660D01*
X2272660Y836040D01*
X2274580Y834840D01*
X2276740Y834080D01*
G37*
G36*
X434860Y875660D02*
G01*
X441960Y876200D01*
X448980Y877480D01*
X455820Y879479D01*
X462420Y882159D01*
X468720Y885520D01*
X474640Y889500D01*
X480100Y894060D01*
X485080Y899160D01*
X489520Y904760D01*
X493340Y910780D01*
X496520Y917140D01*
X499040Y923820D01*
X500860Y930720D01*
X501960Y937760D01*
X502320Y944880D01*
X501960Y952000D01*
X500860Y959040D01*
X499040Y965939D01*
X496520Y972620D01*
X493340Y978980D01*
X489520Y985000D01*
X485080Y990600D01*
X480100Y995699D01*
X474640Y1000260D01*
X468720Y1004240D01*
X462420Y1007600D01*
X455820Y1010280D01*
X448980Y1012280D01*
X441960Y1013560D01*
X434860Y1014100D01*
X427720Y1013920D01*
X420660Y1013000D01*
X413720Y1011380D01*
X406980Y1009020D01*
X400520Y1006000D01*
X394420Y1002340D01*
X388700Y998060D01*
X383480Y993220D01*
X378760Y987860D01*
X374640Y982039D01*
X371120Y975840D01*
X368280Y969300D01*
X366100Y962520D01*
X364640Y955540D01*
X363920Y948439D01*
X363920Y941320D01*
X364640Y934220D01*
X366100Y927240D01*
X368280Y920460D01*
X371120Y913920D01*
X374640Y907720D01*
X378760Y901900D01*
X383480Y896540D01*
X388700Y891700D01*
X394420Y887420D01*
X400520Y883760D01*
X406980Y880740D01*
X413720Y878379D01*
X420660Y876760D01*
X427720Y875840D01*
G37*
G36*
X2482100Y875660D02*
G01*
X2489200Y876200D01*
X2496220Y877480D01*
X2503060Y879479D01*
X2509660Y882159D01*
X2515960Y885520D01*
X2521880Y889500D01*
X2527340Y894060D01*
X2532320Y899160D01*
X2536760Y904760D01*
X2540580Y910780D01*
X2543760Y917140D01*
X2546280Y923820D01*
X2548100Y930720D01*
X2549200Y937760D01*
X2549560Y944880D01*
X2549200Y952000D01*
X2548100Y959040D01*
X2546280Y965939D01*
X2543760Y972620D01*
X2540580Y978980D01*
X2536760Y985000D01*
X2532320Y990600D01*
X2527340Y995699D01*
X2521880Y1000260D01*
X2515960Y1004240D01*
X2509660Y1007600D01*
X2503060Y1010280D01*
X2496220Y1012280D01*
X2489200Y1013560D01*
X2482100Y1014100D01*
X2474960Y1013920D01*
X2467900Y1013000D01*
X2460960Y1011380D01*
X2454220Y1009020D01*
X2447760Y1006000D01*
X2441660Y1002340D01*
X2435940Y998060D01*
X2430720Y993220D01*
X2426000Y987860D01*
X2421880Y982039D01*
X2418360Y975840D01*
X2415520Y969300D01*
X2413340Y962520D01*
X2411880Y955540D01*
X2411160Y948439D01*
X2411160Y941320D01*
X2411880Y934220D01*
X2413340Y927240D01*
X2415520Y920460D01*
X2418360Y913920D01*
X2421880Y907720D01*
X2426000Y901900D01*
X2430720Y896540D01*
X2435940Y891700D01*
X2441660Y887420D01*
X2447760Y883760D01*
X2454220Y880740D01*
X2460960Y878379D01*
X2467900Y876760D01*
X2474960Y875840D01*
G37*
G36*
X1103680Y879680D02*
G01*
X1109040Y879860D01*
X1114340Y880759D01*
X1119460Y882340D01*
X1124340Y884599D01*
X1128860Y887500D01*
X1132960Y890960D01*
X1136560Y894940D01*
X1139600Y899360D01*
X1142020Y904160D01*
X1143780Y909240D01*
X1144840Y914500D01*
X1145200Y919860D01*
X1144840Y925200D01*
X1143780Y930460D01*
X1142020Y935540D01*
X1139600Y940340D01*
X1136500Y944840D01*
X1121120Y963280D01*
X1120440Y964479D01*
X1120200Y965860D01*
X1120200Y984800D01*
X1119880Y987960D01*
X1119020Y990800D01*
X1117620Y993439D01*
X1115600Y995879D01*
X1090880Y1020600D01*
X1088440Y1022620D01*
X1085800Y1024020D01*
X1082960Y1024880D01*
X1079800Y1025200D01*
X807960Y1025200D01*
X806420Y1025500D01*
X805120Y1026380D01*
X726380Y1105120D01*
X725500Y1106420D01*
X725200Y1107960D01*
X725200Y1192040D01*
X725500Y1193580D01*
X726380Y1194880D01*
X734599Y1203100D01*
X736000Y1204020D01*
X737660Y1204280D01*
X739280Y1203820D01*
X740560Y1202760D01*
X741300Y1201260D01*
X742340Y1197220D01*
X743920Y1193600D01*
X746300Y1189940D01*
X749300Y1184520D01*
X749680Y1183580D01*
X749800Y1182580D01*
X749800Y1100200D01*
X750120Y1097040D01*
X750980Y1094200D01*
X752380Y1091560D01*
X754400Y1089120D01*
X804120Y1039400D01*
X806560Y1037380D01*
X809200Y1035980D01*
X812039Y1035120D01*
X815200Y1034800D01*
X1473080Y1034800D01*
X1474620Y1034500D01*
X1475920Y1033620D01*
X1476780Y1032340D01*
X1477080Y1030800D01*
X1477080Y1006919D01*
X1477360Y1004440D01*
X1478120Y1002280D01*
X1479319Y1000360D01*
X1480940Y998740D01*
X1482860Y997520D01*
X1484740Y996880D01*
X1486060Y996100D01*
X1487000Y994880D01*
X1489379Y990120D01*
X1489800Y988340D01*
X1489800Y965860D01*
X1489560Y964500D01*
X1488880Y963300D01*
X1474820Y946420D01*
X1471879Y942620D01*
X1469139Y938000D01*
X1467040Y933060D01*
X1465640Y927880D01*
X1464920Y922560D01*
X1464920Y917180D01*
X1465640Y911860D01*
X1467040Y906680D01*
X1469139Y901740D01*
X1471879Y897120D01*
X1475200Y892920D01*
X1479060Y889180D01*
X1483380Y886000D01*
X1488100Y883420D01*
X1493100Y881480D01*
X1498340Y880240D01*
X1503680Y879700D01*
X1509040Y879880D01*
X1514340Y880780D01*
X1519460Y882360D01*
X1524340Y884620D01*
X1528860Y887520D01*
X1532960Y890980D01*
X1536560Y894960D01*
X1539600Y899380D01*
X1542020Y904180D01*
X1543779Y909260D01*
X1544840Y914520D01*
X1545200Y919880D01*
X1544840Y925220D01*
X1543779Y930500D01*
X1542020Y935560D01*
X1539600Y940360D01*
X1536500Y944860D01*
X1521120Y963300D01*
X1520440Y964500D01*
X1520200Y965879D01*
X1520200Y988340D01*
X1520620Y990120D01*
X1523000Y994880D01*
X1523940Y996100D01*
X1525260Y996880D01*
X1527140Y997520D01*
X1529060Y998740D01*
X1530680Y1000360D01*
X1531879Y1002280D01*
X1532640Y1004440D01*
X1532920Y1006919D01*
X1532920Y1030800D01*
X1533220Y1032340D01*
X1534079Y1033620D01*
X1535380Y1034500D01*
X1536920Y1034800D01*
X1587040Y1034800D01*
X1588580Y1034500D01*
X1589880Y1033620D01*
X1613620Y1009880D01*
X1614500Y1008580D01*
X1614800Y1007039D01*
X1614800Y963620D01*
X1614420Y961940D01*
X1613380Y960560D01*
X1611860Y959760D01*
X1610140Y959680D01*
X1609040Y959860D01*
X1603600Y960040D01*
X1598340Y959500D01*
X1593100Y958259D01*
X1588100Y956320D01*
X1583400Y953740D01*
X1579060Y950560D01*
X1575200Y946840D01*
X1571879Y942620D01*
X1569139Y938000D01*
X1567040Y933060D01*
X1565640Y927880D01*
X1564920Y922560D01*
X1564920Y917180D01*
X1565640Y911860D01*
X1567040Y906680D01*
X1569139Y901740D01*
X1571879Y897120D01*
X1575200Y892920D01*
X1579060Y889180D01*
X1583400Y886000D01*
X1588100Y883420D01*
X1593100Y881480D01*
X1598340Y880240D01*
X1603680Y879700D01*
X1609040Y879880D01*
X1614340Y880780D01*
X1619460Y882360D01*
X1624340Y884620D01*
X1628860Y887520D01*
X1632960Y890980D01*
X1636560Y894960D01*
X1639600Y899380D01*
X1642020Y904180D01*
X1643779Y909260D01*
X1644840Y914520D01*
X1645200Y919880D01*
X1644840Y925220D01*
X1644680Y926240D01*
X1643959Y938060D01*
X1644120Y939460D01*
X1644880Y941960D01*
X1645200Y945120D01*
X1645200Y1014800D01*
X1644880Y1017960D01*
X1644019Y1020800D01*
X1642620Y1023439D01*
X1640600Y1025879D01*
X1605880Y1060600D01*
X1603440Y1062620D01*
X1600800Y1064020D01*
X1597960Y1064880D01*
X1594800Y1065200D01*
X1536920Y1065200D01*
X1535560Y1065440D01*
X1534360Y1066120D01*
X1533460Y1067180D01*
X1515820Y1067180D01*
X1514920Y1066120D01*
X1513720Y1065440D01*
X1512360Y1065200D01*
X1497640Y1065200D01*
X1496279Y1065440D01*
X1495080Y1066120D01*
X1494180Y1067180D01*
X1476540Y1067180D01*
X1475640Y1066120D01*
X1474440Y1065440D01*
X1473080Y1065200D01*
X870800Y1065200D01*
X869160Y1065560D01*
X867820Y1066540D01*
X866979Y1068000D01*
X866820Y1069660D01*
X867360Y1071260D01*
X868500Y1072480D01*
X869260Y1073000D01*
X872000Y1075740D01*
X874220Y1078900D01*
X875840Y1082420D01*
X876840Y1086140D01*
X877180Y1090000D01*
X876840Y1093860D01*
X875840Y1097580D01*
X874220Y1101100D01*
X872760Y1103260D01*
X870580Y1107820D01*
X870200Y1109540D01*
X870200Y1219200D01*
X870580Y1220900D01*
X871620Y1222260D01*
X873160Y1223060D01*
X874900Y1223140D01*
X876500Y1222480D01*
X878900Y1220780D01*
X882420Y1219160D01*
X887180Y1217940D01*
X891580Y1216380D01*
X893080Y1215440D01*
X924120Y1184400D01*
X926560Y1182380D01*
X929200Y1180980D01*
X932039Y1180120D01*
X935200Y1179800D01*
X1242040Y1179800D01*
X1243580Y1179500D01*
X1244880Y1178620D01*
X1303400Y1120100D01*
X1304019Y1119320D01*
X1304420Y1118380D01*
X1306180Y1112220D01*
X1306360Y1111060D01*
X1307340Y1107220D01*
X1308920Y1103600D01*
X1311080Y1100280D01*
X1313760Y1097360D01*
X1316900Y1094940D01*
X1320380Y1093060D01*
X1324120Y1091760D01*
X1328020Y1091120D01*
X1331980Y1091120D01*
X1335880Y1091760D01*
X1339620Y1093060D01*
X1343100Y1094940D01*
X1346240Y1097360D01*
X1348920Y1100280D01*
X1351080Y1103600D01*
X1352660Y1107220D01*
X1353640Y1111060D01*
X1353959Y1115000D01*
X1353640Y1118940D01*
X1352660Y1122780D01*
X1351080Y1126400D01*
X1348920Y1129720D01*
X1346240Y1132640D01*
X1343100Y1135060D01*
X1339620Y1136940D01*
X1335880Y1138240D01*
X1333100Y1138720D01*
X1326620Y1140580D01*
X1325680Y1140980D01*
X1324900Y1141600D01*
X1260880Y1205600D01*
X1258440Y1207620D01*
X1255800Y1209020D01*
X1252960Y1209880D01*
X1249800Y1210200D01*
X1220720Y1210200D01*
X1219160Y1210520D01*
X1217840Y1211420D01*
X1216980Y1212760D01*
X1216720Y1214340D01*
X1217100Y1215900D01*
X1218060Y1217180D01*
X1223100Y1219940D01*
X1224640Y1221060D01*
X1230480Y1224300D01*
X1231420Y1224680D01*
X1232420Y1224800D01*
X1489860Y1224800D01*
X1491339Y1224520D01*
X1492620Y1223700D01*
X1495740Y1220720D01*
X1498779Y1217360D01*
X1501900Y1214940D01*
X1505380Y1213060D01*
X1509120Y1211760D01*
X1513020Y1211120D01*
X1516980Y1211120D01*
X1520880Y1211760D01*
X1524620Y1213060D01*
X1528100Y1214940D01*
X1531240Y1217360D01*
X1533920Y1220280D01*
X1536080Y1223600D01*
X1537660Y1227220D01*
X1538640Y1231060D01*
X1538959Y1235000D01*
X1538640Y1238940D01*
X1537660Y1242780D01*
X1536080Y1246400D01*
X1533920Y1249720D01*
X1531240Y1252640D01*
X1528100Y1255060D01*
X1524620Y1256940D01*
X1520880Y1258240D01*
X1516980Y1258880D01*
X1513020Y1258880D01*
X1509120Y1258240D01*
X1505920Y1257160D01*
X1497600Y1255300D01*
X1496720Y1255200D01*
X1232420Y1255200D01*
X1231420Y1255320D01*
X1230480Y1255700D01*
X1224640Y1258940D01*
X1223100Y1260060D01*
X1219620Y1261940D01*
X1215880Y1263240D01*
X1211980Y1263880D01*
X1208020Y1263880D01*
X1204120Y1263240D01*
X1200380Y1261940D01*
X1196900Y1260060D01*
X1193760Y1257640D01*
X1191080Y1254720D01*
X1188920Y1251400D01*
X1187340Y1247780D01*
X1186360Y1243940D01*
X1186040Y1240000D01*
X1186360Y1236060D01*
X1187340Y1232220D01*
X1188920Y1228600D01*
X1191080Y1225280D01*
X1193760Y1222360D01*
X1196900Y1219940D01*
X1201940Y1217180D01*
X1202900Y1215900D01*
X1203280Y1214340D01*
X1203020Y1212760D01*
X1202160Y1211420D01*
X1200840Y1210520D01*
X1199280Y1210200D01*
X942960Y1210200D01*
X941420Y1210500D01*
X940120Y1211380D01*
X914560Y1236920D01*
X913620Y1238420D01*
X912060Y1242820D01*
X910840Y1247580D01*
X909220Y1251100D01*
X907520Y1253500D01*
X906860Y1255100D01*
X906940Y1256840D01*
X907740Y1258380D01*
X909100Y1259420D01*
X910800Y1259800D01*
X929800Y1259800D01*
X932960Y1260120D01*
X935800Y1260980D01*
X938439Y1262380D01*
X940879Y1264400D01*
X960600Y1284120D01*
X962620Y1286560D01*
X964020Y1289199D01*
X964880Y1292040D01*
X965200Y1295200D01*
X965200Y1457040D01*
X965500Y1458580D01*
X966380Y1459880D01*
X976919Y1470440D01*
X978420Y1471380D01*
X982820Y1472940D01*
X987580Y1474160D01*
X991100Y1475780D01*
X994260Y1478000D01*
X997000Y1480740D01*
X999220Y1483899D01*
X1000840Y1487420D01*
X1001840Y1491140D01*
X1002180Y1495000D01*
X1001840Y1498860D01*
X1000840Y1502580D01*
X999220Y1506100D01*
X997000Y1509259D01*
X994260Y1512000D01*
X991100Y1514220D01*
X987580Y1515840D01*
X983860Y1516840D01*
X980000Y1517180D01*
X976140Y1516840D01*
X972420Y1515840D01*
X968900Y1514220D01*
X965740Y1512000D01*
X963000Y1509259D01*
X960780Y1506100D01*
X959160Y1502580D01*
X957940Y1497820D01*
X956380Y1493420D01*
X955440Y1491920D01*
X939400Y1475880D01*
X937380Y1473440D01*
X935980Y1470800D01*
X935120Y1467960D01*
X934800Y1464800D01*
X934800Y1302960D01*
X934500Y1301420D01*
X933620Y1300120D01*
X924880Y1291380D01*
X923580Y1290500D01*
X922039Y1290200D01*
X865200Y1290200D01*
X862039Y1289880D01*
X859200Y1289019D01*
X856560Y1287620D01*
X854120Y1285600D01*
X844400Y1275880D01*
X842380Y1273440D01*
X840980Y1270800D01*
X840120Y1267960D01*
X839800Y1264800D01*
X839800Y1230780D01*
X839520Y1229280D01*
X838700Y1228020D01*
X837460Y1227140D01*
X836000Y1226780D01*
X834500Y1227000D01*
X830879Y1228240D01*
X828100Y1228720D01*
X821620Y1230580D01*
X820680Y1230980D01*
X819900Y1231600D01*
X800879Y1250600D01*
X798439Y1252620D01*
X795800Y1254020D01*
X792960Y1254880D01*
X789800Y1255200D01*
X759040Y1255200D01*
X757500Y1255500D01*
X756200Y1256380D01*
X755340Y1257660D01*
X755040Y1259200D01*
X755340Y1260740D01*
X757480Y1264020D01*
X758220Y1266160D01*
X758500Y1268640D01*
X758500Y1321360D01*
X758220Y1323839D01*
X757480Y1325980D01*
X756260Y1327920D01*
X754659Y1329520D01*
X752520Y1330880D01*
X751680Y1331579D01*
X751060Y1332480D01*
X740960Y1352660D01*
X740540Y1354460D01*
X740540Y1379420D01*
X740460Y1381240D01*
X740240Y1382980D01*
X739860Y1384680D01*
X739340Y1386360D01*
X738660Y1387960D01*
X737860Y1389520D01*
X736919Y1391000D01*
X735860Y1392380D01*
X734620Y1393740D01*
X680340Y1448020D01*
X678980Y1449259D01*
X677600Y1450320D01*
X676120Y1451260D01*
X674560Y1452060D01*
X672960Y1452740D01*
X671280Y1453260D01*
X669580Y1453640D01*
X667840Y1453860D01*
X666020Y1453940D01*
X524640Y1453940D01*
X522860Y1454360D01*
X502400Y1464600D01*
X501500Y1465220D01*
X500800Y1466040D01*
X499720Y1467760D01*
X498120Y1469360D01*
X496180Y1470580D01*
X494040Y1471339D01*
X491540Y1471620D01*
X456560Y1471620D01*
X454060Y1471339D01*
X451920Y1470580D01*
X449980Y1469360D01*
X448380Y1467760D01*
X447160Y1465820D01*
X446420Y1463680D01*
X446140Y1461180D01*
X446140Y1406519D01*
X446420Y1404019D01*
X447160Y1401879D01*
X448380Y1399960D01*
X449980Y1398340D01*
X451920Y1397120D01*
X454060Y1396380D01*
X456560Y1396100D01*
X491540Y1396100D01*
X494040Y1396380D01*
X496180Y1397120D01*
X498120Y1398340D01*
X499720Y1399960D01*
X500880Y1401800D01*
X501580Y1402620D01*
X502480Y1403240D01*
X522860Y1413440D01*
X524640Y1413860D01*
X656140Y1413860D01*
X657680Y1413560D01*
X658960Y1412680D01*
X699280Y1372360D01*
X700160Y1371080D01*
X700460Y1369540D01*
X700460Y1354460D01*
X700040Y1352660D01*
X689900Y1332380D01*
X689280Y1331480D01*
X688439Y1330780D01*
X686460Y1329520D01*
X684840Y1327920D01*
X683379Y1325600D01*
X682280Y1324440D01*
X680800Y1323820D01*
X679200Y1323820D01*
X677720Y1324440D01*
X676620Y1325600D01*
X675160Y1327920D01*
X673540Y1329520D01*
X671620Y1330740D01*
X669460Y1331500D01*
X666979Y1331780D01*
X611920Y1331780D01*
X609420Y1331500D01*
X607280Y1330740D01*
X605340Y1329520D01*
X603740Y1327920D01*
X602820Y1326740D01*
X601920Y1326120D01*
X580600Y1315460D01*
X578820Y1315040D01*
X419960Y1315040D01*
X418420Y1315340D01*
X417140Y1316220D01*
X377120Y1356240D01*
X376240Y1357520D01*
X375940Y1359060D01*
X375940Y1374900D01*
X376079Y1375920D01*
X383440Y1403400D01*
X383860Y1406560D01*
X383860Y1461180D01*
X383579Y1463680D01*
X382819Y1465820D01*
X381620Y1467760D01*
X380000Y1469360D01*
X378080Y1470580D01*
X375920Y1471339D01*
X373440Y1471620D01*
X338440Y1471620D01*
X335959Y1471339D01*
X333800Y1470580D01*
X331880Y1469360D01*
X330260Y1467760D01*
X329060Y1465820D01*
X328300Y1463680D01*
X328020Y1461180D01*
X328020Y1406560D01*
X328440Y1403420D01*
X335720Y1375940D01*
X335860Y1374920D01*
X335860Y1349180D01*
X335940Y1347360D01*
X336160Y1345620D01*
X336540Y1343920D01*
X337060Y1342240D01*
X337740Y1340640D01*
X338540Y1339079D01*
X339480Y1337600D01*
X340540Y1336220D01*
X341780Y1334860D01*
X395760Y1280880D01*
X397120Y1279640D01*
X398500Y1278580D01*
X399980Y1277640D01*
X401540Y1276840D01*
X403140Y1276160D01*
X404820Y1275640D01*
X406520Y1275260D01*
X408260Y1275040D01*
X410080Y1274960D01*
X578820Y1274960D01*
X580600Y1274540D01*
X601920Y1263880D01*
X602820Y1263260D01*
X603740Y1262080D01*
X605340Y1260480D01*
X607280Y1259260D01*
X609420Y1258500D01*
X611920Y1258220D01*
X666979Y1258220D01*
X669460Y1258500D01*
X671620Y1259260D01*
X673540Y1260480D01*
X675160Y1262080D01*
X676620Y1264400D01*
X677720Y1265560D01*
X679200Y1266180D01*
X680800Y1266180D01*
X682280Y1265560D01*
X683379Y1264400D01*
X684840Y1262080D01*
X686460Y1260480D01*
X688379Y1259260D01*
X690540Y1258500D01*
X693020Y1258220D01*
X737220Y1258220D01*
X738800Y1257900D01*
X740140Y1256960D01*
X740980Y1255580D01*
X741200Y1253960D01*
X740780Y1252400D01*
X739760Y1251140D01*
X739120Y1250600D01*
X699400Y1210880D01*
X697380Y1208440D01*
X695980Y1205800D01*
X695120Y1202960D01*
X694800Y1199800D01*
X694800Y1100200D01*
X695120Y1097040D01*
X695980Y1094200D01*
X697380Y1091560D01*
X699400Y1089120D01*
X789120Y999400D01*
X791560Y997380D01*
X794200Y995980D01*
X797039Y995120D01*
X800200Y994800D01*
X1072040Y994800D01*
X1073580Y994500D01*
X1074880Y993620D01*
X1088620Y979880D01*
X1089500Y978580D01*
X1089800Y977039D01*
X1089800Y965840D01*
X1089560Y964479D01*
X1088880Y963280D01*
X1074820Y946400D01*
X1071880Y942600D01*
X1069140Y937980D01*
X1067040Y933040D01*
X1065640Y927860D01*
X1064920Y922540D01*
X1064920Y917159D01*
X1065640Y911840D01*
X1067040Y906660D01*
X1069140Y901720D01*
X1071880Y897099D01*
X1075200Y892900D01*
X1079060Y889160D01*
X1083380Y885980D01*
X1088100Y883400D01*
X1093100Y881460D01*
X1098340Y880220D01*
G37*
G36*
X1303680Y879700D02*
G01*
X1309040Y879880D01*
X1314340Y880780D01*
X1319460Y882360D01*
X1324340Y884620D01*
X1328860Y887520D01*
X1332960Y890980D01*
X1336560Y894960D01*
X1339600Y899380D01*
X1342020Y904180D01*
X1343779Y909260D01*
X1344840Y914520D01*
X1345200Y919880D01*
X1344840Y925220D01*
X1343779Y930500D01*
X1342020Y935560D01*
X1339600Y940360D01*
X1336560Y944780D01*
X1332960Y948760D01*
X1328860Y952220D01*
X1324340Y955120D01*
X1319460Y957380D01*
X1314340Y958960D01*
X1309040Y959860D01*
X1303680Y960040D01*
X1298340Y959500D01*
X1293100Y958259D01*
X1288100Y956320D01*
X1283400Y953740D01*
X1279060Y950560D01*
X1275200Y946840D01*
X1271880Y942620D01*
X1269140Y938000D01*
X1267040Y933060D01*
X1265640Y927880D01*
X1264920Y922560D01*
X1264920Y917180D01*
X1265640Y911860D01*
X1267040Y906680D01*
X1269140Y901740D01*
X1271880Y897120D01*
X1275200Y892920D01*
X1279060Y889180D01*
X1283400Y886000D01*
X1288100Y883420D01*
X1293100Y881480D01*
X1298340Y880240D01*
G37*
G36*
X1403680Y879700D02*
G01*
X1409040Y879880D01*
X1414340Y880780D01*
X1419460Y882360D01*
X1424340Y884620D01*
X1428860Y887520D01*
X1432960Y890980D01*
X1436560Y894960D01*
X1439600Y899380D01*
X1442020Y904180D01*
X1443779Y909260D01*
X1444840Y914520D01*
X1445200Y919880D01*
X1444840Y925220D01*
X1443779Y930500D01*
X1442020Y935560D01*
X1439600Y940360D01*
X1436560Y944780D01*
X1432960Y948760D01*
X1428860Y952220D01*
X1424340Y955120D01*
X1419460Y957380D01*
X1414340Y958960D01*
X1409040Y959860D01*
X1403680Y960040D01*
X1398320Y959500D01*
X1393100Y958259D01*
X1388100Y956320D01*
X1383380Y953740D01*
X1379060Y950560D01*
X1375200Y946840D01*
X1371879Y942620D01*
X1369139Y938000D01*
X1367040Y933060D01*
X1365620Y927880D01*
X1364920Y922560D01*
X1364920Y917180D01*
X1365620Y911860D01*
X1367040Y906680D01*
X1369139Y901740D01*
X1371879Y897120D01*
X1375200Y892920D01*
X1379060Y889180D01*
X1383380Y886000D01*
X1388100Y883420D01*
X1393100Y881480D01*
X1398320Y880240D01*
G37*
G36*
X1003680Y879900D02*
G01*
X1009040Y880080D01*
X1014340Y880980D01*
X1019460Y882560D01*
X1024340Y884820D01*
X1028860Y887720D01*
X1032960Y891180D01*
X1036560Y895160D01*
X1039599Y899580D01*
X1042020Y904380D01*
X1043780Y909440D01*
X1044860Y914720D01*
X1045220Y920060D01*
X1044860Y925420D01*
X1043780Y930680D01*
X1042020Y935759D01*
X1039599Y940540D01*
X1036560Y944980D01*
X1032960Y948960D01*
X1028860Y952420D01*
X1024340Y955320D01*
X1019460Y957580D01*
X1014340Y959160D01*
X1009040Y960060D01*
X1003680Y960240D01*
X998340Y959700D01*
X993120Y958460D01*
X988100Y956520D01*
X983400Y953940D01*
X979080Y950759D01*
X975220Y947020D01*
X971880Y942820D01*
X969160Y938199D01*
X967060Y933259D01*
X965639Y928080D01*
X964920Y922760D01*
X964920Y917380D01*
X965639Y912060D01*
X967060Y906880D01*
X969160Y901940D01*
X971880Y897320D01*
X975220Y893100D01*
X979080Y889380D01*
X983400Y886200D01*
X988100Y883620D01*
X993120Y881680D01*
X998340Y880440D01*
G37*
G36*
X1687520Y883740D02*
G01*
X1687520Y902380D01*
X1668880Y902380D01*
X1669160Y901740D01*
X1671879Y897120D01*
X1675220Y892920D01*
X1679079Y889180D01*
X1683400Y886000D01*
G37*
G36*
X1722520Y883780D02*
G01*
X1724340Y884620D01*
X1728860Y887520D01*
X1732960Y890980D01*
X1736560Y894960D01*
X1739600Y899380D01*
X1741120Y902380D01*
X1722520Y902380D01*
G37*
G36*
X1854700Y892800D02*
G01*
X1859900Y892800D01*
X1859900Y909000D01*
X1844259Y909000D01*
X1844259Y903220D01*
X1844540Y900720D01*
X1845300Y898580D01*
X1846519Y896640D01*
X1848120Y895040D01*
X1850060Y893820D01*
X1852200Y893080D01*
G37*
G36*
X1844259Y931000D02*
G01*
X1859900Y931000D01*
X1859900Y947200D01*
X1854700Y947200D01*
X1852200Y946919D01*
X1850060Y946180D01*
X1848120Y944960D01*
X1846519Y943360D01*
X1845300Y941420D01*
X1844540Y939280D01*
X1844259Y936780D01*
G37*
G36*
X1722520Y937380D02*
G01*
X1741120Y937380D01*
X1739600Y940360D01*
X1736560Y944780D01*
X1732960Y948760D01*
X1728860Y952220D01*
X1724340Y955120D01*
X1722520Y955960D01*
G37*
G36*
X1668880Y937380D02*
G01*
X1687520Y937380D01*
X1687520Y956000D01*
X1683400Y953740D01*
X1679079Y950560D01*
X1675220Y946840D01*
X1671879Y942620D01*
X1669160Y938000D01*
G37*
G36*
X2328000Y938040D02*
G01*
X2330600Y939320D01*
X2335080Y942320D01*
X2339120Y945879D01*
X2342680Y949920D01*
X2345680Y954400D01*
X2346960Y957000D01*
X2328000Y957000D01*
G37*
G36*
X2292000Y938040D02*
G01*
X2292000Y957000D01*
X2273040Y957000D01*
X2274320Y954400D01*
X2277320Y949920D01*
X2280880Y945879D01*
X2284920Y942320D01*
X2289400Y939320D01*
G37*
G36*
X2328000Y993000D02*
G01*
X2346960Y993000D01*
X2345680Y995600D01*
X2342680Y1000080D01*
X2339120Y1004120D01*
X2335080Y1007680D01*
X2330600Y1010680D01*
X2328000Y1011960D01*
G37*
G36*
X2273040Y993000D02*
G01*
X2292000Y993000D01*
X2292000Y1011960D01*
X2289400Y1010680D01*
X2284920Y1007680D01*
X2280880Y1004120D01*
X2277320Y1000080D01*
X2274320Y995600D01*
G37*
G36*
X1477080Y1087920D02*
G01*
X1493640Y1087920D01*
X1493640Y1103500D01*
X1487500Y1103500D01*
X1485020Y1103220D01*
X1482860Y1102480D01*
X1480940Y1101260D01*
X1479319Y1099640D01*
X1478120Y1097720D01*
X1477360Y1095560D01*
X1477080Y1093080D01*
G37*
G36*
X1516360Y1087920D02*
G01*
X1532920Y1087920D01*
X1532920Y1093080D01*
X1532640Y1095560D01*
X1531879Y1097720D01*
X1530680Y1099640D01*
X1529060Y1101260D01*
X1527140Y1102480D01*
X1524980Y1103220D01*
X1522500Y1103500D01*
X1516360Y1103500D01*
G37*
G36*
X1721759Y1107620D02*
G01*
X1721759Y1126760D01*
X1702620Y1126760D01*
X1703899Y1124160D01*
X1706920Y1119620D01*
X1710520Y1115520D01*
X1714620Y1111920D01*
X1719160Y1108900D01*
G37*
G36*
X1758240Y1107620D02*
G01*
X1760840Y1108900D01*
X1765380Y1111920D01*
X1769480Y1115520D01*
X1773080Y1119620D01*
X1776100Y1124160D01*
X1777380Y1126760D01*
X1758240Y1126760D01*
G37*
G36*
X485400Y1128380D02*
G01*
X491540Y1128380D01*
X494040Y1128660D01*
X496180Y1129420D01*
X498120Y1130620D01*
X499720Y1132240D01*
X500940Y1134160D01*
X501680Y1136320D01*
X501960Y1138800D01*
X501960Y1149860D01*
X485400Y1149860D01*
G37*
G36*
X456560Y1128380D02*
G01*
X462700Y1128380D01*
X462700Y1149860D01*
X446140Y1149860D01*
X446140Y1138800D01*
X446420Y1136320D01*
X447160Y1134160D01*
X448380Y1132240D01*
X449980Y1130620D01*
X451920Y1129420D01*
X454060Y1128660D01*
G37*
G36*
X338440Y1128380D02*
G01*
X373440Y1128380D01*
X375920Y1128660D01*
X378080Y1129420D01*
X380000Y1130620D01*
X381620Y1132240D01*
X382819Y1134160D01*
X383579Y1136320D01*
X383860Y1138800D01*
X383860Y1142920D01*
X384180Y1144460D01*
X385080Y1145780D01*
X386420Y1146640D01*
X387980Y1146900D01*
X389520Y1146540D01*
X390820Y1145600D01*
X393780Y1142360D01*
X396900Y1139940D01*
X400379Y1138060D01*
X404120Y1136760D01*
X408020Y1136120D01*
X411980Y1136120D01*
X415880Y1136760D01*
X419620Y1138060D01*
X423100Y1139940D01*
X426240Y1142360D01*
X428920Y1145280D01*
X431079Y1148600D01*
X432660Y1152220D01*
X433640Y1156060D01*
X433960Y1160000D01*
X433640Y1163940D01*
X432660Y1167780D01*
X431079Y1171400D01*
X428920Y1174720D01*
X426240Y1177640D01*
X423100Y1180060D01*
X419620Y1181940D01*
X415880Y1183240D01*
X411980Y1183880D01*
X408020Y1183880D01*
X404120Y1183240D01*
X402340Y1182680D01*
X393500Y1181340D01*
X392020Y1181300D01*
X390220Y1181720D01*
X386060Y1183800D01*
X384900Y1184680D01*
X384120Y1185940D01*
X383860Y1187380D01*
X383860Y1193480D01*
X383579Y1195960D01*
X382819Y1198120D01*
X381620Y1200040D01*
X380000Y1201660D01*
X378080Y1202860D01*
X375920Y1203620D01*
X373440Y1203900D01*
X338440Y1203900D01*
X335959Y1203620D01*
X333800Y1202860D01*
X331880Y1201660D01*
X330260Y1200040D01*
X329060Y1198120D01*
X328300Y1195960D01*
X328020Y1193480D01*
X328020Y1138800D01*
X328300Y1136320D01*
X329060Y1134160D01*
X330260Y1132240D01*
X331880Y1130620D01*
X333800Y1129420D01*
X335959Y1128660D01*
G37*
G36*
X2553660Y1136500D02*
G01*
X2569120Y1136500D01*
X2574140Y1136860D01*
X2578920Y1137840D01*
X2583519Y1139480D01*
X2587860Y1141720D01*
X2591840Y1144540D01*
X2595419Y1147880D01*
X2598500Y1151660D01*
X2601040Y1155840D01*
X2602980Y1160320D01*
X2604300Y1165020D01*
X2604960Y1169860D01*
X2604960Y1174740D01*
X2604300Y1179580D01*
X2602980Y1184280D01*
X2601040Y1188760D01*
X2598500Y1192940D01*
X2595419Y1196720D01*
X2591580Y1200280D01*
X2590680Y1201540D01*
X2590320Y1203040D01*
X2590460Y1203920D01*
X2589560Y1203380D01*
X2587960Y1203180D01*
X2586420Y1203620D01*
X2583519Y1205120D01*
X2578920Y1206760D01*
X2574140Y1207740D01*
X2569120Y1208100D01*
X2553660Y1208100D01*
X2548640Y1207740D01*
X2543860Y1206760D01*
X2539260Y1205120D01*
X2534920Y1202880D01*
X2530940Y1200060D01*
X2527360Y1196720D01*
X2524280Y1192940D01*
X2521740Y1188760D01*
X2519800Y1184280D01*
X2518480Y1179580D01*
X2517820Y1174740D01*
X2517820Y1169860D01*
X2518480Y1165020D01*
X2519800Y1160320D01*
X2521740Y1155840D01*
X2524280Y1151660D01*
X2527360Y1147880D01*
X2530940Y1144540D01*
X2534920Y1141720D01*
X2539260Y1139480D01*
X2543860Y1137840D01*
X2548640Y1136860D01*
G37*
G36*
X1702620Y1163240D02*
G01*
X1721759Y1163240D01*
X1721759Y1182380D01*
X1719160Y1181100D01*
X1714620Y1178080D01*
X1710520Y1174480D01*
X1706920Y1170380D01*
X1703899Y1165840D01*
G37*
G36*
X1758240Y1163240D02*
G01*
X1777380Y1163240D01*
X1776100Y1165840D01*
X1773080Y1170380D01*
X1769480Y1174480D01*
X1765380Y1178080D01*
X1760840Y1181100D01*
X1758240Y1182380D01*
G37*
G36*
X485400Y1182420D02*
G01*
X501960Y1182420D01*
X501960Y1193480D01*
X501680Y1195960D01*
X500940Y1198120D01*
X499720Y1200040D01*
X498120Y1201660D01*
X496180Y1202860D01*
X494040Y1203620D01*
X491540Y1203900D01*
X485400Y1203900D01*
G37*
G36*
X446140Y1182420D02*
G01*
X462700Y1182420D01*
X462700Y1203900D01*
X456560Y1203900D01*
X454060Y1203620D01*
X451920Y1202860D01*
X449980Y1201660D01*
X448380Y1200040D01*
X447160Y1198120D01*
X446420Y1195960D01*
X446140Y1193480D01*
G37*
G36*
X2455880Y1185740D02*
G01*
X2460680Y1186080D01*
X2465400Y1187100D01*
X2469920Y1188780D01*
X2474160Y1191100D01*
X2478020Y1194000D01*
X2481440Y1197400D01*
X2484320Y1201260D01*
X2486640Y1205500D01*
X2488320Y1210020D01*
X2489340Y1214740D01*
X2489680Y1219540D01*
X2489340Y1224360D01*
X2488320Y1229080D01*
X2486640Y1233600D01*
X2484320Y1237820D01*
X2481440Y1241680D01*
X2478020Y1245100D01*
X2476880Y1245940D01*
X2475880Y1247040D01*
X2475360Y1248420D01*
X2475360Y1249900D01*
X2476060Y1251540D01*
X2476820Y1253700D01*
X2477100Y1256180D01*
X2477100Y1271480D01*
X2476820Y1273980D01*
X2476360Y1275300D01*
X2476120Y1276640D01*
X2476360Y1277960D01*
X2476820Y1279280D01*
X2477100Y1281780D01*
X2477100Y1297080D01*
X2476820Y1299560D01*
X2476360Y1300900D01*
X2476120Y1302220D01*
X2476360Y1303540D01*
X2476820Y1304880D01*
X2477100Y1307360D01*
X2477100Y1322660D01*
X2476820Y1325160D01*
X2476360Y1326500D01*
X2476120Y1327820D01*
X2476360Y1329139D01*
X2476820Y1330460D01*
X2477100Y1332960D01*
X2477100Y1348260D01*
X2476820Y1350740D01*
X2476360Y1352080D01*
X2476120Y1353400D01*
X2476360Y1354720D01*
X2476820Y1356060D01*
X2477100Y1358540D01*
X2477100Y1359760D01*
X2452380Y1359760D01*
X2451120Y1358959D01*
X2449660Y1358680D01*
X2421160Y1358680D01*
X2419680Y1358959D01*
X2418420Y1359760D01*
X2393700Y1359760D01*
X2393700Y1358540D01*
X2393980Y1356060D01*
X2394460Y1354720D01*
X2394680Y1353400D01*
X2394460Y1352080D01*
X2393980Y1350740D01*
X2393700Y1348260D01*
X2393700Y1332960D01*
X2393980Y1330460D01*
X2394460Y1329139D01*
X2394680Y1327820D01*
X2394460Y1326500D01*
X2393980Y1325160D01*
X2393700Y1322660D01*
X2393700Y1307360D01*
X2393980Y1304880D01*
X2394460Y1303540D01*
X2394680Y1302220D01*
X2394460Y1300900D01*
X2393980Y1299560D01*
X2393700Y1297080D01*
X2393700Y1287840D01*
X2393400Y1286320D01*
X2392540Y1285020D01*
X2391240Y1284139D01*
X2389700Y1283839D01*
X2185140Y1283839D01*
X2179820Y1284460D01*
X2178400Y1284900D01*
X2174620Y1286940D01*
X2170880Y1288240D01*
X2166980Y1288880D01*
X2163020Y1288880D01*
X2159120Y1288240D01*
X2155380Y1286940D01*
X2151900Y1285060D01*
X2148760Y1282640D01*
X2146080Y1279720D01*
X2143920Y1276400D01*
X2142340Y1272780D01*
X2141360Y1268940D01*
X2141040Y1265000D01*
X2141360Y1261060D01*
X2142340Y1257220D01*
X2143920Y1253600D01*
X2146080Y1250280D01*
X2148760Y1247360D01*
X2151900Y1244940D01*
X2155380Y1243060D01*
X2159120Y1241760D01*
X2163020Y1241120D01*
X2166980Y1241120D01*
X2170880Y1241760D01*
X2174620Y1243060D01*
X2175960Y1243640D01*
X2176940Y1243760D01*
X2423940Y1243760D01*
X2425540Y1243420D01*
X2426880Y1242460D01*
X2427720Y1241040D01*
X2427920Y1239420D01*
X2427440Y1237840D01*
X2425120Y1233600D01*
X2423440Y1229080D01*
X2422400Y1224360D01*
X2422060Y1219540D01*
X2422400Y1214740D01*
X2423440Y1210020D01*
X2425120Y1205500D01*
X2427440Y1201260D01*
X2430320Y1197400D01*
X2433740Y1194000D01*
X2437600Y1191100D01*
X2441840Y1188780D01*
X2446360Y1187100D01*
X2451060Y1186080D01*
G37*
G36*
X1740000Y1203320D02*
G01*
X1745440Y1203660D01*
X1750780Y1204740D01*
X1755960Y1206480D01*
X1760840Y1208900D01*
X1765380Y1211920D01*
X1769480Y1215520D01*
X1773080Y1219620D01*
X1776100Y1224160D01*
X1778520Y1229040D01*
X1780260Y1234220D01*
X1781339Y1239560D01*
X1781680Y1245000D01*
X1781339Y1250440D01*
X1780260Y1255780D01*
X1778520Y1260960D01*
X1776100Y1265840D01*
X1773080Y1270380D01*
X1756140Y1290500D01*
X1755440Y1291699D01*
X1755200Y1293080D01*
X1755200Y1359800D01*
X1754880Y1362960D01*
X1754019Y1365800D01*
X1752620Y1368440D01*
X1750600Y1370880D01*
X1715880Y1405600D01*
X1713440Y1407620D01*
X1710800Y1409019D01*
X1707960Y1409880D01*
X1704800Y1410200D01*
X1560500Y1410200D01*
X1558880Y1410540D01*
X1557540Y1411500D01*
X1556699Y1412900D01*
X1549600Y1433680D01*
X1549199Y1434580D01*
X1548480Y1436800D01*
X1546040Y1441980D01*
X1542980Y1446819D01*
X1540180Y1450300D01*
X1533340Y1458180D01*
X1532580Y1459480D01*
X1532360Y1460980D01*
X1532720Y1462460D01*
X1533580Y1463700D01*
X1534860Y1464520D01*
X1536360Y1464800D01*
X1610460Y1464800D01*
X1612180Y1464420D01*
X1616740Y1462240D01*
X1618899Y1460780D01*
X1622420Y1459160D01*
X1626140Y1458160D01*
X1630000Y1457820D01*
X1633860Y1458160D01*
X1637580Y1459160D01*
X1641100Y1460780D01*
X1644259Y1463000D01*
X1647280Y1466060D01*
X1648600Y1466940D01*
X1650120Y1467240D01*
X1651660Y1466940D01*
X1652960Y1466060D01*
X1653839Y1464740D01*
X1654280Y1463660D01*
X1657820Y1456900D01*
X1662020Y1450520D01*
X1666800Y1444560D01*
X1672140Y1439079D01*
X1677980Y1434160D01*
X1684259Y1429820D01*
X1690940Y1426100D01*
X1697960Y1423040D01*
X1705220Y1420680D01*
X1712680Y1419040D01*
X1720280Y1418120D01*
X1727920Y1417920D01*
X1735540Y1418480D01*
X1743060Y1419760D01*
X1750440Y1421780D01*
X1757580Y1424480D01*
X1764440Y1427880D01*
X1770940Y1431900D01*
X1777000Y1436540D01*
X1782600Y1441759D01*
X1787660Y1447480D01*
X1792160Y1453660D01*
X1796040Y1460240D01*
X1799259Y1467180D01*
X1801800Y1474379D01*
X1803620Y1481800D01*
X1804720Y1489360D01*
X1805100Y1497000D01*
X1804720Y1504640D01*
X1803620Y1512200D01*
X1801800Y1519620D01*
X1799259Y1526819D01*
X1796040Y1533760D01*
X1792160Y1540340D01*
X1787660Y1546519D01*
X1782600Y1552240D01*
X1777000Y1557460D01*
X1770940Y1562100D01*
X1764440Y1566120D01*
X1762240Y1567220D01*
X1760860Y1568340D01*
X1760100Y1569940D01*
X1760120Y1571720D01*
X1760880Y1573300D01*
X1762280Y1574400D01*
X1764000Y1574800D01*
X1827040Y1574800D01*
X1828580Y1574500D01*
X1829880Y1573620D01*
X1833620Y1569880D01*
X1834500Y1568580D01*
X1834800Y1567040D01*
X1834800Y1290200D01*
X1835120Y1287040D01*
X1835980Y1284199D01*
X1837380Y1281560D01*
X1839400Y1279120D01*
X1850440Y1268080D01*
X1851380Y1266580D01*
X1852940Y1262180D01*
X1854160Y1257420D01*
X1855780Y1253900D01*
X1858000Y1250740D01*
X1860740Y1248000D01*
X1863899Y1245780D01*
X1867420Y1244160D01*
X1871140Y1243160D01*
X1875000Y1242820D01*
X1878860Y1243160D01*
X1882580Y1244160D01*
X1886100Y1245780D01*
X1889259Y1248000D01*
X1892000Y1250740D01*
X1894220Y1253900D01*
X1895840Y1257420D01*
X1896840Y1261140D01*
X1897180Y1265000D01*
X1896840Y1268860D01*
X1895840Y1272580D01*
X1894220Y1276100D01*
X1892000Y1279260D01*
X1889259Y1282000D01*
X1886100Y1284220D01*
X1882580Y1285840D01*
X1877820Y1287060D01*
X1873420Y1288620D01*
X1871920Y1289560D01*
X1866380Y1295120D01*
X1865500Y1296420D01*
X1865200Y1297960D01*
X1865200Y1574800D01*
X1864880Y1577960D01*
X1864019Y1580800D01*
X1862620Y1583440D01*
X1860600Y1585880D01*
X1845880Y1600600D01*
X1843440Y1602620D01*
X1840800Y1604019D01*
X1837960Y1604880D01*
X1834800Y1605200D01*
X1695200Y1605200D01*
X1692040Y1604880D01*
X1689199Y1604019D01*
X1686560Y1602620D01*
X1684120Y1600600D01*
X1628880Y1545360D01*
X1627520Y1544480D01*
X1625920Y1544199D01*
X1624360Y1544560D01*
X1623060Y1545540D01*
X1622240Y1546940D01*
X1622060Y1548540D01*
X1622180Y1550000D01*
X1621840Y1553860D01*
X1620840Y1557580D01*
X1619220Y1561100D01*
X1617760Y1563260D01*
X1615580Y1567820D01*
X1615200Y1569540D01*
X1615200Y1594199D01*
X1615560Y1595840D01*
X1616540Y1597180D01*
X1618000Y1598020D01*
X1619660Y1598180D01*
X1621260Y1597640D01*
X1622480Y1596500D01*
X1623000Y1595740D01*
X1625740Y1593000D01*
X1628899Y1590780D01*
X1632420Y1589160D01*
X1636140Y1588160D01*
X1640000Y1587820D01*
X1643860Y1588160D01*
X1647580Y1589160D01*
X1651100Y1590780D01*
X1654259Y1593000D01*
X1657000Y1595740D01*
X1659220Y1598899D01*
X1660840Y1602420D01*
X1661840Y1606140D01*
X1662180Y1610000D01*
X1661840Y1613860D01*
X1660840Y1617580D01*
X1659220Y1621100D01*
X1657000Y1624259D01*
X1654259Y1627000D01*
X1651100Y1629220D01*
X1647580Y1630840D01*
X1642820Y1632060D01*
X1638420Y1633620D01*
X1636920Y1634560D01*
X1633700Y1637800D01*
X1632820Y1639100D01*
X1632520Y1640640D01*
X1632520Y1668060D01*
X1632940Y1669860D01*
X1635020Y1674000D01*
X1635900Y1675180D01*
X1637160Y1675940D01*
X1638600Y1676220D01*
X1641339Y1676220D01*
X1644560Y1676519D01*
X1647460Y1677420D01*
X1650140Y1678839D01*
X1652500Y1680760D01*
X1654420Y1683120D01*
X1655860Y1685800D01*
X1656740Y1688700D01*
X1657040Y1691720D01*
X1656740Y1694760D01*
X1655860Y1697660D01*
X1654760Y1699700D01*
X1654340Y1700920D01*
X1654340Y1702220D01*
X1654760Y1703460D01*
X1655840Y1705480D01*
X1656720Y1708400D01*
X1657020Y1711420D01*
X1656720Y1714440D01*
X1655840Y1717340D01*
X1654760Y1719360D01*
X1654340Y1720600D01*
X1654340Y1721900D01*
X1654760Y1723140D01*
X1655860Y1725160D01*
X1656740Y1728080D01*
X1657040Y1731100D01*
X1656740Y1734120D01*
X1655860Y1737020D01*
X1654760Y1739060D01*
X1654340Y1740300D01*
X1654340Y1741600D01*
X1654760Y1742840D01*
X1655840Y1744860D01*
X1656720Y1747760D01*
X1657020Y1750780D01*
X1656960Y1751519D01*
X1657120Y1753140D01*
X1657920Y1754560D01*
X1659220Y1755520D01*
X1660800Y1755920D01*
X1662400Y1755640D01*
X1663760Y1754740D01*
X1709120Y1709400D01*
X1711560Y1707380D01*
X1714199Y1705980D01*
X1717040Y1705120D01*
X1720200Y1704800D01*
X1810460Y1704800D01*
X1812180Y1704420D01*
X1816740Y1702240D01*
X1818899Y1700780D01*
X1822420Y1699160D01*
X1826140Y1698160D01*
X1830000Y1697820D01*
X1833860Y1698160D01*
X1837580Y1699160D01*
X1841100Y1700780D01*
X1844259Y1703000D01*
X1847000Y1705740D01*
X1849220Y1708899D01*
X1850840Y1712420D01*
X1851840Y1716140D01*
X1852180Y1720000D01*
X1851840Y1723860D01*
X1850840Y1727580D01*
X1849220Y1731100D01*
X1847000Y1734259D01*
X1844259Y1737000D01*
X1841100Y1739220D01*
X1837580Y1740840D01*
X1833860Y1741840D01*
X1830000Y1742180D01*
X1826140Y1741840D01*
X1822420Y1740840D01*
X1818899Y1739220D01*
X1816740Y1737760D01*
X1812180Y1735580D01*
X1810460Y1735200D01*
X1727960Y1735200D01*
X1726420Y1735500D01*
X1725120Y1736380D01*
X1660720Y1800780D01*
X1658100Y1802960D01*
X1657260Y1803940D01*
X1656780Y1805140D01*
X1656699Y1806420D01*
X1657040Y1809840D01*
X1656740Y1812860D01*
X1655860Y1815760D01*
X1654760Y1817800D01*
X1654340Y1819040D01*
X1654340Y1820340D01*
X1654760Y1821579D01*
X1655840Y1823600D01*
X1656720Y1826500D01*
X1657020Y1829520D01*
X1656720Y1832560D01*
X1655840Y1835460D01*
X1654760Y1837480D01*
X1654340Y1838720D01*
X1654340Y1840020D01*
X1654760Y1841240D01*
X1655860Y1843280D01*
X1656740Y1846180D01*
X1657040Y1849199D01*
X1656740Y1852240D01*
X1655860Y1855140D01*
X1654760Y1857180D01*
X1654340Y1858400D01*
X1654340Y1859700D01*
X1654760Y1860940D01*
X1655840Y1862960D01*
X1656720Y1865880D01*
X1657020Y1868899D01*
X1656720Y1871920D01*
X1655840Y1874820D01*
X1654760Y1876840D01*
X1654340Y1878080D01*
X1654340Y1879379D01*
X1654760Y1880620D01*
X1655860Y1882640D01*
X1656080Y1883420D01*
X1647380Y1883420D01*
X1646220Y1883600D01*
X1644560Y1884100D01*
X1641339Y1884420D01*
X1593300Y1884420D01*
X1590080Y1884100D01*
X1588420Y1883600D01*
X1587260Y1883420D01*
X1578560Y1883420D01*
X1578800Y1882640D01*
X1579880Y1880620D01*
X1580300Y1879400D01*
X1580300Y1878100D01*
X1579880Y1876860D01*
X1578779Y1874820D01*
X1577900Y1871920D01*
X1577600Y1868899D01*
X1577900Y1865880D01*
X1578779Y1862960D01*
X1579880Y1860940D01*
X1580300Y1859700D01*
X1580300Y1858400D01*
X1579880Y1857160D01*
X1578800Y1855140D01*
X1577920Y1852240D01*
X1577620Y1849199D01*
X1577920Y1846180D01*
X1578800Y1843280D01*
X1579880Y1841260D01*
X1580300Y1840020D01*
X1580300Y1838720D01*
X1579880Y1837480D01*
X1578779Y1835460D01*
X1577900Y1832560D01*
X1577600Y1829520D01*
X1577900Y1826500D01*
X1578779Y1823600D01*
X1579880Y1821560D01*
X1580300Y1820320D01*
X1580300Y1819019D01*
X1579880Y1817800D01*
X1578800Y1815760D01*
X1577920Y1812860D01*
X1577620Y1809840D01*
X1577920Y1806819D01*
X1578800Y1803899D01*
X1579880Y1801879D01*
X1580300Y1800660D01*
X1580300Y1799360D01*
X1579880Y1798120D01*
X1578779Y1796080D01*
X1577900Y1793180D01*
X1577600Y1790160D01*
X1577900Y1787140D01*
X1578779Y1784220D01*
X1579880Y1782200D01*
X1580300Y1780960D01*
X1580300Y1779660D01*
X1579880Y1778420D01*
X1578800Y1776399D01*
X1577920Y1773500D01*
X1577620Y1770460D01*
X1577920Y1767440D01*
X1578800Y1764540D01*
X1579880Y1762520D01*
X1580300Y1761279D01*
X1580300Y1759980D01*
X1579880Y1758740D01*
X1578779Y1756720D01*
X1577900Y1753820D01*
X1577600Y1750780D01*
X1577900Y1747760D01*
X1578779Y1744860D01*
X1579880Y1742820D01*
X1580300Y1741579D01*
X1580300Y1740280D01*
X1579880Y1739060D01*
X1578800Y1737020D01*
X1577920Y1734120D01*
X1577620Y1731100D01*
X1577920Y1728080D01*
X1578800Y1725160D01*
X1579880Y1723140D01*
X1580300Y1721920D01*
X1580300Y1720620D01*
X1579880Y1719379D01*
X1578779Y1717340D01*
X1577900Y1714440D01*
X1577600Y1711420D01*
X1577900Y1708400D01*
X1578779Y1705480D01*
X1579880Y1703460D01*
X1580300Y1702220D01*
X1580300Y1700920D01*
X1579880Y1699680D01*
X1578800Y1697660D01*
X1577920Y1694760D01*
X1577620Y1691720D01*
X1577920Y1688700D01*
X1578800Y1685800D01*
X1580220Y1683120D01*
X1582160Y1680760D01*
X1584500Y1678839D01*
X1587180Y1677420D01*
X1590080Y1676519D01*
X1593300Y1676220D01*
X1596040Y1676220D01*
X1597480Y1675940D01*
X1598740Y1675180D01*
X1599620Y1674000D01*
X1601699Y1669860D01*
X1602120Y1668060D01*
X1602120Y1632880D01*
X1602440Y1629720D01*
X1603300Y1626879D01*
X1604700Y1624240D01*
X1606720Y1621800D01*
X1615440Y1613080D01*
X1616380Y1611579D01*
X1616759Y1610500D01*
X1616980Y1609000D01*
X1616620Y1607500D01*
X1615720Y1606260D01*
X1614440Y1605440D01*
X1612920Y1605160D01*
X1611420Y1605480D01*
X1610160Y1606339D01*
X1586160Y1630400D01*
X1574560Y1646200D01*
X1573980Y1647320D01*
X1573779Y1648560D01*
X1573779Y1656699D01*
X1573460Y1659920D01*
X1572580Y1662820D01*
X1571160Y1665500D01*
X1569220Y1667860D01*
X1566879Y1669780D01*
X1564199Y1671220D01*
X1561300Y1672100D01*
X1558280Y1672400D01*
X1555240Y1672100D01*
X1552340Y1671220D01*
X1550320Y1670120D01*
X1549079Y1669700D01*
X1547780Y1669700D01*
X1546540Y1670120D01*
X1544500Y1671220D01*
X1541600Y1672100D01*
X1538580Y1672400D01*
X1535560Y1672100D01*
X1532640Y1671220D01*
X1530620Y1670140D01*
X1529400Y1669720D01*
X1528080Y1669720D01*
X1526860Y1670140D01*
X1524840Y1671220D01*
X1521920Y1672100D01*
X1517180Y1672520D01*
X1515800Y1673260D01*
X1514820Y1674480D01*
X1514360Y1675960D01*
X1514079Y1678760D01*
X1513220Y1681600D01*
X1511819Y1684240D01*
X1509800Y1686680D01*
X1495880Y1700600D01*
X1493440Y1702620D01*
X1490800Y1704019D01*
X1487960Y1704880D01*
X1484800Y1705200D01*
X1326180Y1705200D01*
X1324720Y1705480D01*
X1323460Y1706260D01*
X1312700Y1706260D01*
X1311540Y1706440D01*
X1309920Y1706940D01*
X1306699Y1707240D01*
X1258520Y1707240D01*
X1243320Y1706900D01*
X1140600Y1706900D01*
X1139120Y1707180D01*
X1137840Y1708000D01*
X1136960Y1709240D01*
X1136600Y1710720D01*
X1136820Y1712220D01*
X1137640Y1714540D01*
X1137920Y1717040D01*
X1137920Y1722180D01*
X1121360Y1722180D01*
X1121360Y1709560D01*
X1121000Y1707920D01*
X1120000Y1706560D01*
X1114660Y1703620D01*
X1113300Y1703400D01*
X1102640Y1703400D01*
X1101120Y1703700D01*
X1099820Y1704560D01*
X1098940Y1705860D01*
X1098640Y1707400D01*
X1098640Y1722180D01*
X1082080Y1722180D01*
X1082080Y1717040D01*
X1082360Y1714540D01*
X1083120Y1712400D01*
X1084320Y1710460D01*
X1085940Y1708860D01*
X1086680Y1708380D01*
X1087840Y1707280D01*
X1088480Y1705800D01*
X1088480Y1704199D01*
X1087840Y1702720D01*
X1086680Y1701620D01*
X1085940Y1701140D01*
X1084320Y1699540D01*
X1083120Y1697600D01*
X1082360Y1695460D01*
X1082080Y1692960D01*
X1082080Y1661920D01*
X1082360Y1659440D01*
X1083120Y1657280D01*
X1084320Y1655360D01*
X1085940Y1653740D01*
X1087860Y1652520D01*
X1090020Y1651780D01*
X1092500Y1651500D01*
X1103540Y1651500D01*
X1104820Y1651279D01*
X1118680Y1646620D01*
X1120240Y1645660D01*
X1136020Y1629880D01*
X1136900Y1628580D01*
X1137200Y1627040D01*
X1137200Y1575320D01*
X1136940Y1573899D01*
X1132220Y1561480D01*
X1131780Y1560060D01*
X1131500Y1557500D01*
X1131500Y1522500D01*
X1131780Y1520020D01*
X1132520Y1517860D01*
X1133740Y1515940D01*
X1135360Y1514319D01*
X1137560Y1512940D01*
X1138400Y1512240D01*
X1139000Y1511339D01*
X1141820Y1505720D01*
X1142240Y1503940D01*
X1142240Y1486220D01*
X1142060Y1485060D01*
X1141560Y1484000D01*
X1139420Y1480760D01*
X1138000Y1479259D01*
X1135780Y1476100D01*
X1134160Y1472580D01*
X1133160Y1468860D01*
X1132820Y1465000D01*
X1133160Y1461140D01*
X1134160Y1457420D01*
X1135780Y1453899D01*
X1138000Y1450740D01*
X1140740Y1448000D01*
X1143900Y1445780D01*
X1147420Y1444160D01*
X1151140Y1443160D01*
X1155000Y1442820D01*
X1158860Y1443160D01*
X1162580Y1444160D01*
X1166100Y1445780D01*
X1169260Y1448000D01*
X1172000Y1450740D01*
X1174220Y1453899D01*
X1175840Y1457420D01*
X1176840Y1461140D01*
X1177180Y1465000D01*
X1176840Y1468860D01*
X1175840Y1472580D01*
X1174540Y1475500D01*
X1172800Y1481320D01*
X1172640Y1482460D01*
X1172640Y1503920D01*
X1173060Y1505720D01*
X1175880Y1511339D01*
X1176480Y1512240D01*
X1177320Y1512940D01*
X1179540Y1514319D01*
X1181140Y1515940D01*
X1181620Y1516680D01*
X1182720Y1517840D01*
X1184200Y1518480D01*
X1185800Y1518480D01*
X1187280Y1517840D01*
X1188380Y1516680D01*
X1188860Y1515940D01*
X1190460Y1514319D01*
X1192400Y1513120D01*
X1194540Y1512360D01*
X1197040Y1512080D01*
X1202180Y1512080D01*
X1202180Y1528640D01*
X1187400Y1528640D01*
X1185860Y1528940D01*
X1184560Y1529820D01*
X1183700Y1531120D01*
X1183400Y1532640D01*
X1183400Y1547360D01*
X1183700Y1548880D01*
X1184560Y1550180D01*
X1185860Y1551060D01*
X1187400Y1551360D01*
X1202180Y1551360D01*
X1202180Y1567920D01*
X1197040Y1567920D01*
X1194540Y1567640D01*
X1192400Y1566879D01*
X1190460Y1565680D01*
X1188860Y1564060D01*
X1188380Y1563320D01*
X1187280Y1562160D01*
X1185800Y1561519D01*
X1184200Y1561519D01*
X1182720Y1562160D01*
X1181620Y1563320D01*
X1181140Y1564060D01*
X1179540Y1565680D01*
X1177600Y1566879D01*
X1175460Y1567640D01*
X1173260Y1567880D01*
X1171980Y1568240D01*
X1170900Y1569000D01*
X1170120Y1570080D01*
X1168020Y1574280D01*
X1167600Y1576080D01*
X1167600Y1615800D01*
X1167900Y1617340D01*
X1168780Y1618620D01*
X1170060Y1619500D01*
X1171600Y1619800D01*
X1207580Y1619800D01*
X1208580Y1619680D01*
X1209520Y1619300D01*
X1215360Y1616060D01*
X1216900Y1614940D01*
X1220380Y1613060D01*
X1224120Y1611759D01*
X1228020Y1611120D01*
X1231980Y1611120D01*
X1235880Y1611759D01*
X1239620Y1613060D01*
X1243100Y1614940D01*
X1246240Y1617360D01*
X1248920Y1620280D01*
X1251080Y1623600D01*
X1252660Y1627220D01*
X1253640Y1631060D01*
X1253960Y1635000D01*
X1253640Y1638940D01*
X1252660Y1642780D01*
X1251080Y1646399D01*
X1248920Y1649720D01*
X1246240Y1652640D01*
X1243100Y1655060D01*
X1239620Y1656940D01*
X1235880Y1658240D01*
X1231980Y1658880D01*
X1228020Y1658880D01*
X1224120Y1658240D01*
X1220380Y1656940D01*
X1216900Y1655060D01*
X1215360Y1653940D01*
X1209520Y1650700D01*
X1208580Y1650320D01*
X1207580Y1650200D01*
X1160360Y1650200D01*
X1158820Y1650500D01*
X1157520Y1651380D01*
X1143120Y1665780D01*
X1142340Y1666879D01*
X1140480Y1670780D01*
X1140100Y1672340D01*
X1140360Y1673920D01*
X1141200Y1675260D01*
X1142520Y1676180D01*
X1144100Y1676500D01*
X1243380Y1676500D01*
X1258240Y1676220D01*
X1270820Y1676220D01*
X1272080Y1676020D01*
X1273200Y1675440D01*
X1289460Y1663440D01*
X1313839Y1639000D01*
X1325440Y1623200D01*
X1326020Y1622080D01*
X1326220Y1620840D01*
X1326220Y1608660D01*
X1326540Y1605440D01*
X1327420Y1602540D01*
X1328839Y1599860D01*
X1330780Y1597520D01*
X1333120Y1595580D01*
X1335800Y1594160D01*
X1338700Y1593280D01*
X1343460Y1592800D01*
X1344880Y1591960D01*
X1345860Y1590620D01*
X1346200Y1589000D01*
X1346200Y1478800D01*
X1346519Y1475640D01*
X1347380Y1472780D01*
X1348779Y1470160D01*
X1350800Y1467720D01*
X1358400Y1460100D01*
X1359019Y1459319D01*
X1359420Y1458380D01*
X1361180Y1452220D01*
X1361360Y1451060D01*
X1362060Y1448280D01*
X1362120Y1446600D01*
X1361500Y1445040D01*
X1360280Y1443880D01*
X1358700Y1443320D01*
X1357040Y1443460D01*
X1355560Y1444280D01*
X1343080Y1455100D01*
X1338380Y1458520D01*
X1333360Y1461279D01*
X1328040Y1463400D01*
X1322480Y1464820D01*
X1316800Y1465540D01*
X1311080Y1465540D01*
X1305380Y1464820D01*
X1299840Y1463400D01*
X1294520Y1461279D01*
X1289480Y1458520D01*
X1284860Y1455160D01*
X1280580Y1451140D01*
X1262200Y1431459D01*
X1260860Y1430540D01*
X1259280Y1430200D01*
X1098080Y1430200D01*
X1096700Y1430440D01*
X1095500Y1431140D01*
X1075440Y1448040D01*
X1070840Y1451100D01*
X1065960Y1453520D01*
X1060780Y1455260D01*
X1055440Y1456339D01*
X1050000Y1456680D01*
X1044560Y1456339D01*
X1039220Y1455260D01*
X1034040Y1453520D01*
X1029160Y1451100D01*
X1024620Y1448080D01*
X1020520Y1444480D01*
X1016919Y1440380D01*
X1013900Y1435840D01*
X1011480Y1430960D01*
X1009740Y1425780D01*
X1008660Y1420440D01*
X1008319Y1415000D01*
X1008660Y1409560D01*
X1009740Y1404220D01*
X1011480Y1399040D01*
X1013900Y1394160D01*
X1016919Y1389620D01*
X1020520Y1385520D01*
X1024620Y1381920D01*
X1029160Y1378899D01*
X1034040Y1376480D01*
X1039220Y1374740D01*
X1044560Y1373660D01*
X1050000Y1373320D01*
X1055440Y1373660D01*
X1060780Y1374740D01*
X1065960Y1376480D01*
X1070840Y1378899D01*
X1075380Y1381920D01*
X1095500Y1398860D01*
X1096700Y1399560D01*
X1098080Y1399800D01*
X1262000Y1399800D01*
X1263200Y1399620D01*
X1264300Y1399079D01*
X1287500Y1382800D01*
X1289420Y1381519D01*
X1294520Y1378720D01*
X1299840Y1376600D01*
X1305380Y1375180D01*
X1311080Y1374460D01*
X1316800Y1374460D01*
X1322480Y1375180D01*
X1328040Y1376600D01*
X1333360Y1378720D01*
X1338380Y1381480D01*
X1343100Y1384900D01*
X1364860Y1403820D01*
X1366100Y1404540D01*
X1367500Y1404800D01*
X1389820Y1404800D01*
X1392840Y1405080D01*
X1395700Y1405920D01*
X1398320Y1407300D01*
X1400800Y1409300D01*
X1431020Y1439019D01*
X1433060Y1441459D01*
X1434480Y1444079D01*
X1435360Y1446900D01*
X1435700Y1450200D01*
X1435700Y1498400D01*
X1436000Y1499940D01*
X1436879Y1501240D01*
X1438180Y1502100D01*
X1439720Y1502400D01*
X1441240Y1502080D01*
X1442540Y1501200D01*
X1464060Y1479460D01*
X1466500Y1477420D01*
X1469120Y1476000D01*
X1471960Y1475120D01*
X1475100Y1474800D01*
X1477040Y1474800D01*
X1478580Y1474500D01*
X1479880Y1473620D01*
X1483839Y1469660D01*
X1484680Y1468420D01*
X1485020Y1466980D01*
X1484780Y1465500D01*
X1484040Y1464199D01*
X1471900Y1450260D01*
X1471140Y1449220D01*
X1469160Y1446819D01*
X1466080Y1441980D01*
X1463640Y1436800D01*
X1461879Y1431339D01*
X1460800Y1425720D01*
X1460440Y1420000D01*
X1460800Y1414280D01*
X1461879Y1408660D01*
X1463640Y1403200D01*
X1466080Y1398020D01*
X1469160Y1393180D01*
X1472800Y1388760D01*
X1476980Y1384840D01*
X1481620Y1381480D01*
X1486639Y1378720D01*
X1491960Y1376600D01*
X1497520Y1375180D01*
X1503200Y1374460D01*
X1508920Y1374460D01*
X1514100Y1375080D01*
X1544760Y1379760D01*
X1697040Y1379800D01*
X1698580Y1379500D01*
X1699880Y1378620D01*
X1723620Y1354880D01*
X1724500Y1353580D01*
X1724800Y1352040D01*
X1724800Y1293080D01*
X1724560Y1291699D01*
X1723860Y1290500D01*
X1706960Y1270440D01*
X1703899Y1265840D01*
X1701480Y1260960D01*
X1699740Y1255780D01*
X1698660Y1250440D01*
X1698320Y1245000D01*
X1698660Y1239560D01*
X1699740Y1234220D01*
X1701480Y1229040D01*
X1703899Y1224160D01*
X1706920Y1219620D01*
X1710520Y1215520D01*
X1714620Y1211920D01*
X1719160Y1208900D01*
X1724040Y1206480D01*
X1729220Y1204740D01*
X1734560Y1203660D01*
G37*
G36*
X1031760Y1277620D02*
G01*
X1031760Y1296759D01*
X1012620Y1296759D01*
X1013900Y1294160D01*
X1016919Y1289620D01*
X1020520Y1285520D01*
X1024620Y1281920D01*
X1029160Y1278900D01*
G37*
G36*
X1068240Y1277620D02*
G01*
X1070840Y1278900D01*
X1075380Y1281920D01*
X1079480Y1285520D01*
X1083080Y1289620D01*
X1086100Y1294160D01*
X1087380Y1296759D01*
X1068240Y1296759D01*
G37*
G36*
X1012620Y1333240D02*
G01*
X1031760Y1333240D01*
X1031760Y1352380D01*
X1029160Y1351100D01*
X1024620Y1348080D01*
X1020520Y1344480D01*
X1016919Y1340380D01*
X1013900Y1335840D01*
G37*
G36*
X1068240Y1333240D02*
G01*
X1087380Y1333240D01*
X1086100Y1335840D01*
X1083080Y1340380D01*
X1079480Y1344480D01*
X1075380Y1348080D01*
X1070840Y1351100D01*
X1068240Y1352380D01*
G37*
G36*
X2393700Y1372640D02*
G01*
X2417160Y1372640D01*
X2417160Y1384280D01*
X2404140Y1384280D01*
X2401640Y1384000D01*
X2399500Y1383240D01*
X2397560Y1382020D01*
X2395960Y1380420D01*
X2394740Y1378480D01*
X2393980Y1376339D01*
X2393700Y1373839D01*
G37*
G36*
X2453660Y1372640D02*
G01*
X2477100Y1372640D01*
X2477100Y1373839D01*
X2476820Y1376339D01*
X2475360Y1380140D01*
X2475360Y1381620D01*
X2475880Y1383000D01*
X2476880Y1384079D01*
X2478020Y1384940D01*
X2481440Y1388340D01*
X2484320Y1392200D01*
X2486640Y1396440D01*
X2488320Y1400960D01*
X2489340Y1405680D01*
X2489680Y1410480D01*
X2489340Y1415300D01*
X2488320Y1420020D01*
X2486640Y1424540D01*
X2484320Y1428760D01*
X2481440Y1432640D01*
X2478020Y1436040D01*
X2474160Y1438940D01*
X2469920Y1441240D01*
X2465400Y1442940D01*
X2460680Y1443959D01*
X2455880Y1444300D01*
X2451060Y1443959D01*
X2446360Y1442940D01*
X2441840Y1441240D01*
X2437600Y1438940D01*
X2433740Y1436040D01*
X2430320Y1432640D01*
X2427440Y1428760D01*
X2425120Y1424540D01*
X2423440Y1420020D01*
X2422400Y1415300D01*
X2422060Y1410480D01*
X2422400Y1405680D01*
X2423440Y1400960D01*
X2425120Y1396440D01*
X2427440Y1392200D01*
X2430320Y1388340D01*
X2433740Y1384940D01*
X2437600Y1382040D01*
X2441840Y1379740D01*
X2446360Y1378040D01*
X2450500Y1377140D01*
X2451760Y1376639D01*
X2452760Y1375740D01*
X2453420Y1374560D01*
X2453660Y1373240D01*
G37*
G36*
X2553660Y1421940D02*
G01*
X2569120Y1421940D01*
X2574140Y1422280D01*
X2578920Y1423280D01*
X2583519Y1424920D01*
X2586420Y1426420D01*
X2587960Y1426860D01*
X2589560Y1426639D01*
X2590520Y1426080D01*
X2590380Y1427040D01*
X2590740Y1428540D01*
X2591640Y1429800D01*
X2595419Y1433320D01*
X2598500Y1437100D01*
X2601040Y1441279D01*
X2602980Y1445760D01*
X2604300Y1450460D01*
X2604960Y1455300D01*
X2604960Y1460180D01*
X2604300Y1465020D01*
X2602980Y1469720D01*
X2601040Y1474199D01*
X2598500Y1478360D01*
X2595419Y1482160D01*
X2591840Y1485480D01*
X2587860Y1488300D01*
X2583519Y1490560D01*
X2578920Y1492180D01*
X2574140Y1493180D01*
X2569120Y1493520D01*
X2553660Y1493520D01*
X2548640Y1493180D01*
X2543860Y1492180D01*
X2539260Y1490560D01*
X2534920Y1488300D01*
X2530940Y1485480D01*
X2527360Y1482160D01*
X2524280Y1478360D01*
X2521740Y1474199D01*
X2519800Y1469720D01*
X2518480Y1465020D01*
X2517820Y1460180D01*
X2517820Y1455300D01*
X2518480Y1450460D01*
X2519800Y1445760D01*
X2521740Y1441279D01*
X2524280Y1437100D01*
X2527360Y1433320D01*
X2530940Y1429980D01*
X2534920Y1427160D01*
X2539260Y1424920D01*
X2543860Y1423280D01*
X2548640Y1422280D01*
G37*
G36*
X368660Y1489840D02*
G01*
X374020Y1490020D01*
X379320Y1490900D01*
X384440Y1492500D01*
X389320Y1494760D01*
X393840Y1497640D01*
X396560Y1499820D01*
X413420Y1513880D01*
X414620Y1514560D01*
X415980Y1514800D01*
X662580Y1514800D01*
X663580Y1514680D01*
X664520Y1514300D01*
X670360Y1511060D01*
X671900Y1509940D01*
X675380Y1508060D01*
X679120Y1506759D01*
X683020Y1506120D01*
X686979Y1506120D01*
X690879Y1506759D01*
X694620Y1508060D01*
X698100Y1509940D01*
X701240Y1512360D01*
X703920Y1515280D01*
X706080Y1518600D01*
X707660Y1522220D01*
X708640Y1526060D01*
X708960Y1530000D01*
X708640Y1533940D01*
X707660Y1537780D01*
X706080Y1541399D01*
X703920Y1544720D01*
X701240Y1547640D01*
X698100Y1550060D01*
X694620Y1551940D01*
X690879Y1553240D01*
X686979Y1553880D01*
X683020Y1553880D01*
X679120Y1553240D01*
X675380Y1551940D01*
X671900Y1550060D01*
X670360Y1548940D01*
X664520Y1545700D01*
X663580Y1545320D01*
X662580Y1545200D01*
X415980Y1545200D01*
X414620Y1545440D01*
X413420Y1546120D01*
X396540Y1560200D01*
X395720Y1560780D01*
X393840Y1562360D01*
X389320Y1565240D01*
X384440Y1567500D01*
X379320Y1569100D01*
X374020Y1570000D01*
X368660Y1570160D01*
X363320Y1569640D01*
X358100Y1568380D01*
X353080Y1566459D01*
X348380Y1563880D01*
X344060Y1560700D01*
X340200Y1556960D01*
X336860Y1552740D01*
X334120Y1548120D01*
X332040Y1543180D01*
X330620Y1538000D01*
X329900Y1532680D01*
X329900Y1527320D01*
X330620Y1522000D01*
X332040Y1516819D01*
X334120Y1511879D01*
X336860Y1507260D01*
X340200Y1503040D01*
X344060Y1499300D01*
X348380Y1496120D01*
X353080Y1493540D01*
X358100Y1491620D01*
X363320Y1490360D01*
G37*
G36*
X1222920Y1512080D02*
G01*
X1228080Y1512080D01*
X1230560Y1512360D01*
X1232720Y1513120D01*
X1234640Y1514319D01*
X1236260Y1515940D01*
X1237480Y1517860D01*
X1238220Y1520020D01*
X1238500Y1522500D01*
X1238500Y1528640D01*
X1222920Y1528640D01*
G37*
G36*
X1222920Y1551360D02*
G01*
X1238500Y1551360D01*
X1238500Y1557500D01*
X1238220Y1559980D01*
X1237480Y1562140D01*
X1236260Y1564060D01*
X1234640Y1565680D01*
X1232720Y1566879D01*
X1230560Y1567640D01*
X1228080Y1567920D01*
X1222920Y1567920D01*
G37*
G36*
X352500Y1593860D02*
G01*
X352500Y1612500D01*
X333860Y1612500D01*
X334120Y1611879D01*
X336860Y1607260D01*
X340200Y1603040D01*
X344060Y1599300D01*
X348380Y1596120D01*
G37*
G36*
X387500Y1593920D02*
G01*
X389320Y1594760D01*
X393840Y1597640D01*
X397939Y1601120D01*
X401540Y1605100D01*
X404580Y1609520D01*
X406079Y1612500D01*
X387500Y1612500D01*
G37*
G36*
X701360Y1601500D02*
G01*
X707500Y1601500D01*
X709980Y1601780D01*
X712140Y1602520D01*
X714060Y1603740D01*
X715680Y1605360D01*
X716880Y1607280D01*
X717640Y1609440D01*
X717920Y1611920D01*
X717920Y1617080D01*
X701360Y1617080D01*
G37*
G36*
X672500Y1601500D02*
G01*
X678640Y1601500D01*
X678640Y1617080D01*
X662080Y1617080D01*
X662080Y1611920D01*
X662360Y1609440D01*
X663120Y1607280D01*
X664320Y1605360D01*
X665939Y1603740D01*
X667860Y1602520D01*
X670020Y1601780D01*
G37*
G36*
X995000Y1637820D02*
G01*
X998860Y1638160D01*
X1002580Y1639160D01*
X1006100Y1640780D01*
X1009260Y1643000D01*
X1012000Y1645740D01*
X1014220Y1648899D01*
X1015840Y1652420D01*
X1016840Y1656140D01*
X1017180Y1660000D01*
X1016840Y1663860D01*
X1015840Y1667580D01*
X1014220Y1671100D01*
X1012000Y1674259D01*
X1009260Y1677000D01*
X1006100Y1679220D01*
X1002580Y1680840D01*
X1001500Y1681140D01*
X999980Y1681940D01*
X998920Y1683300D01*
X998540Y1685000D01*
X998920Y1686699D01*
X999980Y1688060D01*
X1001500Y1688860D01*
X1002580Y1689160D01*
X1006100Y1690780D01*
X1009260Y1693000D01*
X1012000Y1695740D01*
X1014220Y1698899D01*
X1015840Y1702420D01*
X1016840Y1706140D01*
X1017180Y1710000D01*
X1016840Y1713860D01*
X1015840Y1717580D01*
X1014220Y1721100D01*
X1012000Y1724259D01*
X1009260Y1727000D01*
X1006100Y1729220D01*
X1002580Y1730840D01*
X997820Y1732060D01*
X993420Y1733620D01*
X991919Y1734560D01*
X905879Y1820600D01*
X903439Y1822620D01*
X900800Y1824019D01*
X897960Y1824880D01*
X894800Y1825200D01*
X700800Y1825200D01*
X699160Y1825560D01*
X697820Y1826540D01*
X696979Y1828000D01*
X696820Y1829660D01*
X697360Y1831260D01*
X698500Y1832480D01*
X699260Y1833000D01*
X702000Y1835740D01*
X704220Y1838899D01*
X705840Y1842420D01*
X706840Y1846140D01*
X707180Y1850000D01*
X706840Y1853860D01*
X705840Y1857580D01*
X704220Y1861100D01*
X702000Y1864259D01*
X699260Y1867000D01*
X696100Y1869220D01*
X692580Y1870840D01*
X688860Y1871840D01*
X685000Y1872180D01*
X681140Y1871840D01*
X677420Y1870840D01*
X673900Y1869220D01*
X671740Y1867760D01*
X667180Y1865580D01*
X665460Y1865200D01*
X635200Y1865200D01*
X632040Y1864880D01*
X629200Y1864019D01*
X626560Y1862620D01*
X624120Y1860600D01*
X594400Y1830880D01*
X592380Y1828440D01*
X590980Y1825800D01*
X590120Y1822960D01*
X589800Y1819800D01*
X589800Y1795200D01*
X590120Y1792040D01*
X590980Y1789199D01*
X592380Y1786560D01*
X594400Y1784120D01*
X609120Y1769400D01*
X611560Y1767380D01*
X614200Y1765980D01*
X617040Y1765120D01*
X620200Y1764800D01*
X867039Y1764800D01*
X868580Y1764500D01*
X869880Y1763620D01*
X970440Y1663080D01*
X971380Y1661579D01*
X972940Y1657180D01*
X974160Y1652420D01*
X975780Y1648899D01*
X978000Y1645740D01*
X980740Y1643000D01*
X983900Y1640780D01*
X987420Y1639160D01*
X991140Y1638160D01*
G37*
G36*
X662080Y1637820D02*
G01*
X678640Y1637820D01*
X678640Y1652600D01*
X678940Y1654139D01*
X679820Y1655440D01*
X681120Y1656300D01*
X682640Y1656600D01*
X697360Y1656600D01*
X698880Y1656300D01*
X700180Y1655440D01*
X701060Y1654139D01*
X701360Y1652600D01*
X701360Y1637820D01*
X717920Y1637820D01*
X717920Y1642960D01*
X717640Y1645460D01*
X716880Y1647600D01*
X715680Y1649540D01*
X714060Y1651140D01*
X713319Y1651620D01*
X712159Y1652720D01*
X711520Y1654199D01*
X711520Y1655800D01*
X712159Y1657280D01*
X713319Y1658380D01*
X714060Y1658860D01*
X715680Y1660460D01*
X716880Y1662400D01*
X717640Y1664540D01*
X717920Y1667040D01*
X717920Y1698080D01*
X717640Y1700560D01*
X716880Y1702720D01*
X715680Y1704640D01*
X714060Y1706260D01*
X712140Y1707480D01*
X709980Y1708220D01*
X707500Y1708500D01*
X696380Y1708500D01*
X695120Y1708720D01*
X681320Y1713340D01*
X679760Y1714300D01*
X648439Y1745600D01*
X646000Y1747620D01*
X643360Y1749019D01*
X640520Y1749880D01*
X637360Y1750200D01*
X602960Y1750200D01*
X601420Y1750500D01*
X600120Y1751380D01*
X571380Y1780120D01*
X570500Y1781420D01*
X570200Y1782960D01*
X570200Y2017440D01*
X570440Y2018800D01*
X571140Y2020020D01*
X572220Y2020900D01*
X573540Y2021380D01*
X575880Y2021759D01*
X579620Y2023060D01*
X583100Y2024940D01*
X586240Y2027360D01*
X588920Y2030280D01*
X591080Y2033600D01*
X592660Y2037220D01*
X593640Y2041060D01*
X593960Y2045000D01*
X593640Y2048940D01*
X592660Y2052780D01*
X591080Y2056399D01*
X588920Y2059720D01*
X586240Y2062640D01*
X583100Y2065060D01*
X579620Y2066940D01*
X575880Y2068240D01*
X571980Y2068880D01*
X568020Y2068880D01*
X564120Y2068240D01*
X560380Y2066940D01*
X556900Y2065060D01*
X553760Y2062640D01*
X551080Y2059720D01*
X548920Y2056399D01*
X547340Y2052780D01*
X546360Y2048940D01*
X546180Y2047780D01*
X544320Y2041320D01*
X543580Y2039900D01*
X542380Y2038440D01*
X540980Y2035800D01*
X540120Y2032960D01*
X539800Y2029800D01*
X539800Y1951360D01*
X539500Y1949820D01*
X538620Y1948520D01*
X537340Y1947660D01*
X535800Y1947360D01*
X534260Y1947660D01*
X532980Y1948520D01*
X528440Y1953040D01*
X526000Y1955060D01*
X523360Y1956459D01*
X520520Y1957320D01*
X517360Y1957640D01*
X506060Y1957640D01*
X504280Y1958060D01*
X498660Y1960880D01*
X497760Y1961480D01*
X497060Y1962320D01*
X495680Y1964540D01*
X494060Y1966140D01*
X493320Y1966620D01*
X492160Y1967720D01*
X491520Y1969199D01*
X491520Y1970800D01*
X492160Y1972280D01*
X493320Y1973380D01*
X494060Y1973860D01*
X495680Y1975460D01*
X496880Y1977400D01*
X497640Y1979540D01*
X497920Y1982040D01*
X497920Y1987180D01*
X481360Y1987180D01*
X481360Y1972400D01*
X481060Y1970860D01*
X480180Y1969560D01*
X478880Y1968700D01*
X477360Y1968400D01*
X462640Y1968400D01*
X461120Y1968700D01*
X459820Y1969560D01*
X458940Y1970860D01*
X458640Y1972400D01*
X458640Y1987180D01*
X442080Y1987180D01*
X442080Y1982040D01*
X442360Y1979540D01*
X443120Y1977400D01*
X444320Y1975460D01*
X445940Y1973860D01*
X446680Y1973380D01*
X447840Y1972280D01*
X448480Y1970800D01*
X448480Y1969199D01*
X447840Y1967720D01*
X446680Y1966620D01*
X445940Y1966140D01*
X444320Y1964540D01*
X442939Y1962320D01*
X442239Y1961480D01*
X441340Y1960860D01*
X435720Y1958060D01*
X433940Y1957640D01*
X410020Y1957640D01*
X408540Y1957920D01*
X384540Y1967480D01*
X379320Y1969100D01*
X374020Y1970000D01*
X368660Y1970160D01*
X363320Y1969640D01*
X358100Y1968380D01*
X353080Y1966459D01*
X348380Y1963880D01*
X344060Y1960700D01*
X340200Y1956960D01*
X336860Y1952740D01*
X334120Y1948120D01*
X332040Y1943180D01*
X330620Y1938000D01*
X329900Y1932680D01*
X329900Y1927320D01*
X330620Y1922000D01*
X332040Y1916819D01*
X334120Y1911879D01*
X336860Y1907260D01*
X340200Y1903040D01*
X344060Y1899300D01*
X348380Y1896120D01*
X353080Y1893540D01*
X358100Y1891620D01*
X363320Y1890360D01*
X368660Y1889840D01*
X374020Y1890020D01*
X379320Y1890900D01*
X384440Y1892500D01*
X389320Y1894760D01*
X393840Y1897640D01*
X397939Y1901120D01*
X401560Y1905100D01*
X404360Y1909139D01*
X414880Y1925420D01*
X415760Y1926380D01*
X416920Y1927020D01*
X418240Y1927240D01*
X433920Y1927240D01*
X435720Y1926819D01*
X441340Y1924000D01*
X442239Y1923380D01*
X442939Y1922560D01*
X444320Y1920360D01*
X445940Y1918740D01*
X447860Y1917520D01*
X450020Y1916780D01*
X452500Y1916500D01*
X487500Y1916500D01*
X489980Y1916780D01*
X492140Y1917520D01*
X494060Y1918740D01*
X495680Y1920360D01*
X497060Y1922560D01*
X497760Y1923380D01*
X498660Y1924000D01*
X504280Y1926819D01*
X506079Y1927240D01*
X509600Y1927240D01*
X511140Y1926940D01*
X512440Y1926060D01*
X538620Y1899880D01*
X539500Y1898580D01*
X539800Y1897040D01*
X539800Y1775200D01*
X540120Y1772040D01*
X540980Y1769199D01*
X542380Y1766560D01*
X544400Y1764120D01*
X584120Y1724400D01*
X586560Y1722380D01*
X589200Y1720980D01*
X592040Y1720120D01*
X595200Y1719800D01*
X629600Y1719800D01*
X631140Y1719500D01*
X632440Y1718620D01*
X656900Y1694160D01*
X657700Y1693040D01*
X661700Y1684540D01*
X662080Y1682840D01*
X662080Y1667040D01*
X662360Y1664540D01*
X663120Y1662400D01*
X664320Y1660460D01*
X665939Y1658860D01*
X666680Y1658380D01*
X667840Y1657280D01*
X668480Y1655800D01*
X668480Y1654199D01*
X667840Y1652720D01*
X666680Y1651620D01*
X665939Y1651140D01*
X664320Y1649540D01*
X663120Y1647600D01*
X662360Y1645460D01*
X662080Y1642960D01*
G37*
G36*
X387500Y1647500D02*
G01*
X406079Y1647500D01*
X404580Y1650480D01*
X401540Y1654900D01*
X397939Y1658899D01*
X393840Y1662360D01*
X389320Y1665240D01*
X387500Y1666080D01*
G37*
G36*
X333860Y1647500D02*
G01*
X352500Y1647500D01*
X352500Y1666140D01*
X348380Y1663880D01*
X344060Y1660700D01*
X340200Y1656960D01*
X336860Y1652740D01*
X334120Y1648120D01*
G37*
G36*
X2582500Y1678920D02*
G01*
X2585480Y1680420D01*
X2589900Y1683460D01*
X2593900Y1687060D01*
X2597360Y1691160D01*
X2600240Y1695680D01*
X2601080Y1697500D01*
X2582500Y1697500D01*
G37*
G36*
X2547500Y1678920D02*
G01*
X2547500Y1697500D01*
X2528920Y1697500D01*
X2529760Y1695680D01*
X2532640Y1691160D01*
X2536100Y1687060D01*
X2540100Y1683460D01*
X2544520Y1680420D01*
G37*
G36*
X368660Y1689840D02*
G01*
X374020Y1690020D01*
X379320Y1690900D01*
X384440Y1692500D01*
X389320Y1694760D01*
X393840Y1697640D01*
X397939Y1701120D01*
X401540Y1705100D01*
X404580Y1709520D01*
X407000Y1714319D01*
X408760Y1719379D01*
X409840Y1724640D01*
X410200Y1730000D01*
X409840Y1735360D01*
X408760Y1740620D01*
X407000Y1745700D01*
X404580Y1750480D01*
X401540Y1754900D01*
X397939Y1758899D01*
X393840Y1762360D01*
X389320Y1765240D01*
X384440Y1767500D01*
X379320Y1769100D01*
X374020Y1770000D01*
X368660Y1770160D01*
X363320Y1769640D01*
X358100Y1768380D01*
X353080Y1766459D01*
X348380Y1763880D01*
X344060Y1760700D01*
X340200Y1756960D01*
X336860Y1752740D01*
X334120Y1748120D01*
X332040Y1743180D01*
X330620Y1738000D01*
X329900Y1732680D01*
X329900Y1727320D01*
X330620Y1722000D01*
X332040Y1716819D01*
X334120Y1711879D01*
X336860Y1707260D01*
X340200Y1703040D01*
X344060Y1699300D01*
X348380Y1696120D01*
X353080Y1693540D01*
X358100Y1691620D01*
X363320Y1690360D01*
G37*
G36*
X2427080Y1697920D02*
G01*
X2443640Y1697920D01*
X2443640Y1713500D01*
X2437500Y1713500D01*
X2435020Y1713220D01*
X2432860Y1712480D01*
X2430940Y1711260D01*
X2429320Y1709640D01*
X2428120Y1707720D01*
X2427360Y1705560D01*
X2427080Y1703080D01*
G37*
G36*
X2466360Y1697920D02*
G01*
X2482920Y1697920D01*
X2482920Y1703080D01*
X2482640Y1705560D01*
X2481880Y1707720D01*
X2480680Y1709640D01*
X2479060Y1711260D01*
X2477140Y1712480D01*
X2474980Y1713220D01*
X2472500Y1713500D01*
X2466360Y1713500D01*
G37*
G36*
X2528860Y1732500D02*
G01*
X2547500Y1732500D01*
X2547500Y1751140D01*
X2546880Y1750880D01*
X2542260Y1748140D01*
X2538040Y1744800D01*
X2534300Y1740940D01*
X2531120Y1736620D01*
G37*
G36*
X2582500Y1732500D02*
G01*
X2601139Y1732500D01*
X2598880Y1736620D01*
X2595700Y1740940D01*
X2591960Y1744800D01*
X2587740Y1748140D01*
X2583120Y1750880D01*
X2582500Y1751140D01*
G37*
G36*
X1082080Y1742920D02*
G01*
X1098640Y1742920D01*
X1098640Y1758500D01*
X1092500Y1758500D01*
X1090020Y1758220D01*
X1087860Y1757480D01*
X1085940Y1756260D01*
X1084320Y1754640D01*
X1083120Y1752720D01*
X1082360Y1750560D01*
X1082080Y1748080D01*
G37*
G36*
X1121360Y1742920D02*
G01*
X1137920Y1742920D01*
X1137920Y1748080D01*
X1137640Y1750560D01*
X1136880Y1752720D01*
X1135680Y1754640D01*
X1134060Y1756260D01*
X1132140Y1757480D01*
X1129980Y1758220D01*
X1127500Y1758500D01*
X1121360Y1758500D01*
G37*
G36*
X368660Y1789840D02*
G01*
X374020Y1790020D01*
X379320Y1790900D01*
X384440Y1792500D01*
X389320Y1794760D01*
X393840Y1797640D01*
X397939Y1801120D01*
X401540Y1805100D01*
X404580Y1809520D01*
X407000Y1814319D01*
X408760Y1819379D01*
X409840Y1824640D01*
X410200Y1830000D01*
X409840Y1835360D01*
X408760Y1840620D01*
X407000Y1845700D01*
X404580Y1850480D01*
X401540Y1854900D01*
X397939Y1858899D01*
X393840Y1862360D01*
X389320Y1865240D01*
X384440Y1867500D01*
X379320Y1869100D01*
X374020Y1870000D01*
X368660Y1870160D01*
X363320Y1869640D01*
X358100Y1868380D01*
X353080Y1866459D01*
X348380Y1863880D01*
X344060Y1860700D01*
X340200Y1856960D01*
X336860Y1852740D01*
X334120Y1848120D01*
X332040Y1843180D01*
X330620Y1838000D01*
X329900Y1832680D01*
X329900Y1827320D01*
X330620Y1822000D01*
X332040Y1816819D01*
X334120Y1811879D01*
X336860Y1807260D01*
X340200Y1803040D01*
X344060Y1799300D01*
X348380Y1796120D01*
X353080Y1793540D01*
X358100Y1791620D01*
X363320Y1790360D01*
G37*
G36*
X1761360Y1856500D02*
G01*
X1767500Y1856500D01*
X1769980Y1856780D01*
X1772140Y1857520D01*
X1774060Y1858740D01*
X1775680Y1860360D01*
X1776879Y1862280D01*
X1777640Y1864440D01*
X1777920Y1866920D01*
X1777920Y1872080D01*
X1761360Y1872080D01*
G37*
G36*
X1732500Y1856500D02*
G01*
X1738640Y1856500D01*
X1738640Y1872080D01*
X1722080Y1872080D01*
X1722080Y1866920D01*
X1722360Y1864440D01*
X1723120Y1862280D01*
X1724319Y1860360D01*
X1725940Y1858740D01*
X1727860Y1857520D01*
X1730020Y1856780D01*
G37*
G36*
X2092920Y1866360D02*
G01*
X2108500Y1866360D01*
X2108500Y1872500D01*
X2108220Y1874980D01*
X2107480Y1877140D01*
X2106260Y1879060D01*
X2104640Y1880680D01*
X2102720Y1881879D01*
X2100560Y1882640D01*
X2098080Y1882920D01*
X2092920Y1882920D01*
G37*
G36*
X2565000Y1874800D02*
G01*
X2570360Y1875160D01*
X2575620Y1876240D01*
X2580700Y1878000D01*
X2585480Y1880420D01*
X2589900Y1883460D01*
X2593900Y1887060D01*
X2597360Y1891160D01*
X2600240Y1895680D01*
X2602500Y1900560D01*
X2604100Y1905680D01*
X2604980Y1910980D01*
X2605160Y1916339D01*
X2604640Y1921680D01*
X2603380Y1926900D01*
X2601460Y1931920D01*
X2598880Y1936620D01*
X2595700Y1940940D01*
X2591960Y1944800D01*
X2587740Y1948140D01*
X2583120Y1950880D01*
X2578180Y1952960D01*
X2573000Y1954379D01*
X2567679Y1955100D01*
X2562320Y1955100D01*
X2557000Y1954379D01*
X2551820Y1952960D01*
X2546880Y1950880D01*
X2542260Y1948140D01*
X2538040Y1944800D01*
X2534300Y1940940D01*
X2531120Y1936620D01*
X2528540Y1931920D01*
X2526620Y1926900D01*
X2525360Y1921680D01*
X2524840Y1916339D01*
X2525020Y1910980D01*
X2525900Y1905680D01*
X2527500Y1900560D01*
X2529760Y1895680D01*
X2532640Y1891160D01*
X2536100Y1887060D01*
X2540100Y1883460D01*
X2544520Y1880420D01*
X2549300Y1878000D01*
X2554380Y1876240D01*
X2559640Y1875160D01*
G37*
G36*
X1341720Y1927600D02*
G01*
X1344760Y1927900D01*
X1347660Y1928779D01*
X1349680Y1929880D01*
X1350920Y1930300D01*
X1352220Y1930300D01*
X1353460Y1929880D01*
X1355500Y1928779D01*
X1356260Y1928560D01*
X1356260Y1937320D01*
X1356440Y1938480D01*
X1356920Y1940080D01*
X1357240Y1943300D01*
X1357240Y1991339D01*
X1356920Y1994560D01*
X1356440Y1996160D01*
X1356260Y1997320D01*
X1356260Y2006080D01*
X1355500Y2005840D01*
X1353460Y2004760D01*
X1352220Y2004340D01*
X1350920Y2004340D01*
X1349680Y2004760D01*
X1347660Y2005840D01*
X1344760Y2006720D01*
X1341720Y2007020D01*
X1338700Y2006720D01*
X1335800Y2005840D01*
X1333120Y2004420D01*
X1330780Y2002480D01*
X1328839Y2000140D01*
X1327420Y1997460D01*
X1326540Y1994560D01*
X1326220Y1991339D01*
X1326220Y1988580D01*
X1325940Y1987140D01*
X1325180Y1985880D01*
X1324000Y1985000D01*
X1319860Y1982920D01*
X1318060Y1982500D01*
X1275660Y1982500D01*
X1274120Y1982800D01*
X1272820Y1983680D01*
X1271500Y1984980D01*
X1270580Y1986420D01*
X1270340Y1988120D01*
X1270840Y1989760D01*
X1273840Y1995180D01*
X1276080Y1998600D01*
X1277660Y2002220D01*
X1278640Y2006060D01*
X1278960Y2010000D01*
X1278640Y2013940D01*
X1277660Y2017780D01*
X1276080Y2021399D01*
X1273920Y2024720D01*
X1271240Y2027640D01*
X1268100Y2030060D01*
X1264620Y2031940D01*
X1260880Y2033240D01*
X1256980Y2033880D01*
X1253020Y2033880D01*
X1249120Y2033240D01*
X1245380Y2031940D01*
X1241900Y2030060D01*
X1238760Y2027640D01*
X1236080Y2024720D01*
X1233920Y2021399D01*
X1232340Y2017780D01*
X1231360Y2013940D01*
X1231040Y2010000D01*
X1231360Y2006060D01*
X1232340Y2002220D01*
X1233920Y1998600D01*
X1236300Y1994940D01*
X1239300Y1989520D01*
X1239680Y1988580D01*
X1239800Y1987580D01*
X1239800Y1980200D01*
X1240120Y1977040D01*
X1240980Y1974199D01*
X1242380Y1971560D01*
X1244400Y1969120D01*
X1256820Y1956699D01*
X1259260Y1954680D01*
X1261900Y1953280D01*
X1264740Y1952420D01*
X1267900Y1952100D01*
X1318060Y1952100D01*
X1319840Y1951680D01*
X1324000Y1949600D01*
X1325180Y1948720D01*
X1325940Y1947460D01*
X1326220Y1946020D01*
X1326220Y1943300D01*
X1326540Y1940080D01*
X1327420Y1937180D01*
X1328839Y1934500D01*
X1330780Y1932140D01*
X1333120Y1930220D01*
X1335800Y1928779D01*
X1338700Y1927900D01*
G37*
G36*
X352500Y1993860D02*
G01*
X352500Y2012500D01*
X333860Y2012500D01*
X334120Y2011879D01*
X336860Y2007260D01*
X340200Y2003040D01*
X344060Y1999300D01*
X348380Y1996120D01*
G37*
G36*
X387500Y1993920D02*
G01*
X389320Y1994760D01*
X393840Y1997640D01*
X397939Y2001120D01*
X401540Y2005100D01*
X404580Y2009520D01*
X406079Y2012500D01*
X387500Y2012500D01*
G37*
G36*
X481360Y2007920D02*
G01*
X497920Y2007920D01*
X497920Y2013080D01*
X497640Y2015560D01*
X496880Y2017720D01*
X495680Y2019640D01*
X494060Y2021260D01*
X492140Y2022480D01*
X489980Y2023220D01*
X487500Y2023500D01*
X481360Y2023500D01*
G37*
G36*
X442080Y2007920D02*
G01*
X458640Y2007920D01*
X458640Y2023500D01*
X452500Y2023500D01*
X450020Y2023220D01*
X447860Y2022480D01*
X445940Y2021260D01*
X444320Y2019640D01*
X443120Y2017720D01*
X442360Y2015560D01*
X442080Y2013080D01*
G37*
G36*
X387500Y2047500D02*
G01*
X406079Y2047500D01*
X404580Y2050480D01*
X401540Y2054900D01*
X397939Y2058899D01*
X393840Y2062360D01*
X389320Y2065240D01*
X387500Y2066080D01*
G37*
G36*
X333860Y2047500D02*
G01*
X352500Y2047500D01*
X352500Y2066140D01*
X348380Y2063880D01*
X344060Y2060700D01*
X340200Y2056960D01*
X336860Y2052740D01*
X334120Y2048120D01*
G37*
G36*
X2118220Y2094960D02*
G01*
X2139800Y2094960D01*
X2139800Y2112300D01*
X2107800Y2112300D01*
X2107800Y2105380D01*
X2108080Y2102900D01*
X2108820Y2100740D01*
X2110040Y2098820D01*
X2111640Y2097200D01*
X2113580Y2096000D01*
X2115720Y2095240D01*
G37*
G36*
X2193420Y2094960D02*
G01*
X2215020Y2094960D01*
X2217500Y2095240D01*
X2219660Y2096000D01*
X2221580Y2097200D01*
X2223200Y2098820D01*
X2224400Y2100740D01*
X2225160Y2102900D01*
X2225440Y2105380D01*
X2225440Y2112300D01*
X2193420Y2112300D01*
G37*
G36*
X1311500Y2106360D02*
G01*
X1327080Y2106360D01*
X1327080Y2122920D01*
X1321920Y2122920D01*
X1319440Y2122640D01*
X1317280Y2121880D01*
X1315360Y2120680D01*
X1313740Y2119060D01*
X1312520Y2117140D01*
X1311780Y2114980D01*
X1311500Y2112500D01*
G37*
G36*
X2107800Y2136600D02*
G01*
X2139800Y2136600D01*
X2139800Y2153940D01*
X2118220Y2153940D01*
X2115720Y2153660D01*
X2113580Y2152900D01*
X2111640Y2151700D01*
X2110040Y2150080D01*
X2108820Y2148160D01*
X2108080Y2146000D01*
X2107800Y2143520D01*
G37*
G36*
X2193420Y2136600D02*
G01*
X2225440Y2136600D01*
X2225440Y2143520D01*
X2225160Y2146000D01*
X2224400Y2148160D01*
X2223200Y2150080D01*
X2221580Y2151700D01*
X2219660Y2152900D01*
X2217500Y2153660D01*
X2215020Y2153940D01*
X2193420Y2153940D01*
G37*
G36*
X2503220Y2175620D02*
G01*
X2573639Y2175620D01*
X2576120Y2175900D01*
X2578279Y2176660D01*
X2580200Y2177880D01*
X2581820Y2179480D01*
X2583020Y2181420D01*
X2583780Y2183560D01*
X2584060Y2186060D01*
X2584060Y2256460D01*
X2583780Y2258960D01*
X2583020Y2261100D01*
X2581820Y2263040D01*
X2580200Y2264640D01*
X2578279Y2265860D01*
X2576680Y2266420D01*
X2575400Y2267160D01*
X2574460Y2268320D01*
X2574020Y2269720D01*
X2574120Y2271200D01*
X2574760Y2272540D01*
X2576940Y2275560D01*
X2579700Y2280580D01*
X2581820Y2285900D01*
X2583240Y2291460D01*
X2583960Y2297140D01*
X2583960Y2302860D01*
X2583240Y2308540D01*
X2581820Y2314100D01*
X2579700Y2319420D01*
X2576940Y2324440D01*
X2573580Y2329080D01*
X2569660Y2333260D01*
X2566000Y2336280D01*
X2564920Y2337660D01*
X2564540Y2339360D01*
X2564920Y2341080D01*
X2566000Y2342460D01*
X2569660Y2345480D01*
X2573580Y2349660D01*
X2576940Y2354300D01*
X2579700Y2359320D01*
X2581820Y2364640D01*
X2583240Y2370200D01*
X2583960Y2375880D01*
X2583960Y2381600D01*
X2583240Y2387280D01*
X2581820Y2392840D01*
X2579700Y2398160D01*
X2576940Y2403180D01*
X2573580Y2407820D01*
X2569660Y2412000D01*
X2565240Y2415660D01*
X2560400Y2418720D01*
X2555220Y2421160D01*
X2549780Y2422940D01*
X2544140Y2424000D01*
X2542440Y2424140D01*
X2517480Y2429000D01*
X2516360Y2429380D01*
X2515420Y2430100D01*
X2441400Y2504120D01*
X2440040Y2505360D01*
X2438660Y2506420D01*
X2437180Y2507360D01*
X2435640Y2508160D01*
X2434020Y2508840D01*
X2432360Y2509360D01*
X2430640Y2509740D01*
X2428920Y2509960D01*
X2427080Y2510040D01*
X2295080Y2510040D01*
X2293260Y2509960D01*
X2291520Y2509740D01*
X2289820Y2509360D01*
X2288140Y2508840D01*
X2286540Y2508160D01*
X2284980Y2507360D01*
X2283500Y2506420D01*
X2282120Y2505360D01*
X2280760Y2504120D01*
X2189340Y2412680D01*
X2185240Y2408960D01*
X2183860Y2408140D01*
X2180380Y2406940D01*
X2176900Y2405060D01*
X2173760Y2402640D01*
X2171080Y2399720D01*
X2168920Y2396400D01*
X2167340Y2392780D01*
X2166680Y2390660D01*
X2166120Y2389860D01*
X2162320Y2385660D01*
X2152480Y2375840D01*
X2151240Y2374480D01*
X2150180Y2373100D01*
X2149240Y2371620D01*
X2148440Y2370060D01*
X2147760Y2368460D01*
X2147240Y2366780D01*
X2146860Y2365080D01*
X2146640Y2363340D01*
X2146560Y2361520D01*
X2146560Y2357720D01*
X2146140Y2355940D01*
X2136800Y2337260D01*
X2135920Y2336080D01*
X2134660Y2335320D01*
X2133220Y2335040D01*
X2118220Y2335040D01*
X2115720Y2334760D01*
X2113580Y2334000D01*
X2111640Y2332800D01*
X2110040Y2331180D01*
X2108820Y2329260D01*
X2108080Y2327100D01*
X2107800Y2324620D01*
X2107800Y2286480D01*
X2108080Y2284000D01*
X2108820Y2281840D01*
X2110040Y2279920D01*
X2111640Y2278300D01*
X2113580Y2277100D01*
X2115720Y2276340D01*
X2118220Y2276060D01*
X2215020Y2276060D01*
X2217500Y2276340D01*
X2219660Y2277100D01*
X2221580Y2278300D01*
X2223200Y2279920D01*
X2224400Y2281840D01*
X2225160Y2284000D01*
X2225440Y2286480D01*
X2225440Y2324620D01*
X2225160Y2327100D01*
X2224400Y2329260D01*
X2223200Y2331180D01*
X2221580Y2332800D01*
X2219660Y2334000D01*
X2217500Y2334760D01*
X2215020Y2335040D01*
X2199980Y2335040D01*
X2198540Y2335320D01*
X2197300Y2336080D01*
X2196400Y2337260D01*
X2189100Y2351880D01*
X2188680Y2353480D01*
X2188940Y2355120D01*
X2189840Y2356500D01*
X2190780Y2357440D01*
X2194760Y2361040D01*
X2196160Y2361860D01*
X2199620Y2363060D01*
X2203100Y2364940D01*
X2206240Y2367360D01*
X2208920Y2370280D01*
X2211080Y2373600D01*
X2212660Y2377220D01*
X2213320Y2379340D01*
X2213880Y2380140D01*
X2217700Y2384340D01*
X2302140Y2468780D01*
X2303420Y2469660D01*
X2304960Y2469960D01*
X2417200Y2469960D01*
X2418740Y2469660D01*
X2420040Y2468780D01*
X2487080Y2401740D01*
X2487780Y2400800D01*
X2488180Y2399680D01*
X2493040Y2374660D01*
X2493600Y2370200D01*
X2495040Y2364640D01*
X2497140Y2359320D01*
X2499900Y2354300D01*
X2503280Y2349660D01*
X2507200Y2345480D01*
X2510860Y2342460D01*
X2511920Y2341080D01*
X2512300Y2339360D01*
X2511920Y2337660D01*
X2510860Y2336280D01*
X2507200Y2333260D01*
X2503280Y2329080D01*
X2499900Y2324440D01*
X2497140Y2319420D01*
X2495040Y2314100D01*
X2493600Y2308540D01*
X2492880Y2302860D01*
X2492880Y2297140D01*
X2493600Y2291460D01*
X2495040Y2285900D01*
X2497140Y2280580D01*
X2499900Y2275560D01*
X2502080Y2272540D01*
X2502720Y2271200D01*
X2502820Y2269720D01*
X2502380Y2268320D01*
X2501460Y2267160D01*
X2500180Y2266420D01*
X2498580Y2265860D01*
X2496640Y2264640D01*
X2495040Y2263040D01*
X2493820Y2261100D01*
X2493080Y2258960D01*
X2492800Y2256460D01*
X2492800Y2186060D01*
X2493080Y2183560D01*
X2493820Y2181420D01*
X2495040Y2179480D01*
X2496640Y2177880D01*
X2498580Y2176660D01*
X2500720Y2175900D01*
G37*
G36*
X2341580Y2175640D02*
G01*
X2347300Y2176000D01*
X2352920Y2177060D01*
X2358380Y2178840D01*
X2363560Y2181280D01*
X2368400Y2184340D01*
X2372800Y2188000D01*
X2376720Y2192180D01*
X2380100Y2196820D01*
X2382860Y2201840D01*
X2384960Y2207160D01*
X2386400Y2212720D01*
X2387120Y2218400D01*
X2387120Y2224120D01*
X2386400Y2229800D01*
X2384960Y2235360D01*
X2382860Y2240680D01*
X2380100Y2245700D01*
X2376720Y2250340D01*
X2372800Y2254520D01*
X2369140Y2257540D01*
X2368080Y2258920D01*
X2367700Y2260620D01*
X2368080Y2262340D01*
X2369140Y2263720D01*
X2372800Y2266740D01*
X2376720Y2270920D01*
X2380100Y2275560D01*
X2382860Y2280580D01*
X2384960Y2285900D01*
X2386400Y2291460D01*
X2387120Y2297140D01*
X2387120Y2302860D01*
X2386400Y2308540D01*
X2384960Y2314100D01*
X2382860Y2319420D01*
X2380100Y2324440D01*
X2376720Y2329080D01*
X2372800Y2333260D01*
X2369140Y2336280D01*
X2368080Y2337660D01*
X2367700Y2339360D01*
X2368080Y2341080D01*
X2369140Y2342460D01*
X2372800Y2345480D01*
X2376720Y2349660D01*
X2380100Y2354300D01*
X2382860Y2359320D01*
X2384960Y2364640D01*
X2386400Y2370200D01*
X2387120Y2375880D01*
X2387120Y2381600D01*
X2386400Y2387280D01*
X2384960Y2392840D01*
X2382860Y2398160D01*
X2380100Y2403180D01*
X2376720Y2407820D01*
X2372800Y2412000D01*
X2368400Y2415660D01*
X2363560Y2418720D01*
X2358380Y2421160D01*
X2352920Y2422940D01*
X2347300Y2424000D01*
X2341580Y2424360D01*
X2335860Y2424000D01*
X2330220Y2422940D01*
X2324780Y2421160D01*
X2319600Y2418720D01*
X2314760Y2415660D01*
X2310340Y2412000D01*
X2306420Y2407820D01*
X2303060Y2403180D01*
X2300300Y2398160D01*
X2298180Y2392840D01*
X2296760Y2387280D01*
X2296040Y2381600D01*
X2296040Y2375880D01*
X2296760Y2370200D01*
X2298180Y2364640D01*
X2300300Y2359320D01*
X2303060Y2354300D01*
X2306420Y2349660D01*
X2310340Y2345480D01*
X2314000Y2342460D01*
X2315080Y2341080D01*
X2315460Y2339360D01*
X2315080Y2337660D01*
X2314000Y2336280D01*
X2310340Y2333260D01*
X2306420Y2329080D01*
X2303060Y2324440D01*
X2300300Y2319420D01*
X2298180Y2314100D01*
X2296760Y2308540D01*
X2296040Y2302860D01*
X2296040Y2297140D01*
X2296760Y2291460D01*
X2298180Y2285900D01*
X2300300Y2280580D01*
X2303060Y2275560D01*
X2306420Y2270920D01*
X2310340Y2266740D01*
X2314000Y2263720D01*
X2315080Y2262340D01*
X2315460Y2260620D01*
X2315080Y2258920D01*
X2314000Y2257540D01*
X2310340Y2254520D01*
X2306420Y2250340D01*
X2303060Y2245700D01*
X2300300Y2240680D01*
X2298180Y2235360D01*
X2296760Y2229800D01*
X2296040Y2224120D01*
X2296040Y2218400D01*
X2296760Y2212720D01*
X2298180Y2207160D01*
X2300300Y2201840D01*
X2303060Y2196820D01*
X2306420Y2192180D01*
X2310340Y2188000D01*
X2314760Y2184340D01*
X2319600Y2181280D01*
X2324780Y2178840D01*
X2330220Y2177060D01*
X2335860Y2176000D01*
G37*
G36*
X2118220Y2185500D02*
G01*
X2215020Y2185500D01*
X2217500Y2185780D01*
X2219660Y2186540D01*
X2221580Y2187760D01*
X2223200Y2189360D01*
X2224400Y2191300D01*
X2225160Y2193440D01*
X2225440Y2195940D01*
X2225440Y2234060D01*
X2225160Y2236560D01*
X2224400Y2238700D01*
X2223200Y2240640D01*
X2221580Y2242240D01*
X2219660Y2243460D01*
X2217500Y2244220D01*
X2215020Y2244500D01*
X2118220Y2244500D01*
X2115720Y2244220D01*
X2113580Y2243460D01*
X2111640Y2242240D01*
X2110040Y2240640D01*
X2108820Y2238700D01*
X2108080Y2236560D01*
X2107800Y2234060D01*
X2107800Y2195940D01*
X2108080Y2193440D01*
X2108820Y2191300D01*
X2110040Y2189360D01*
X2111640Y2187760D01*
X2113580Y2186540D01*
X2115720Y2185780D01*
G37*
G36*
X412920Y2257920D02*
G01*
X420540Y2258480D01*
X428060Y2259760D01*
X435439Y2261780D01*
X442580Y2264480D01*
X449440Y2267880D01*
X455940Y2271900D01*
X462000Y2276540D01*
X467600Y2281760D01*
X472660Y2287480D01*
X477160Y2293660D01*
X481040Y2300240D01*
X484260Y2307180D01*
X486800Y2314380D01*
X488620Y2321800D01*
X489720Y2329360D01*
X490100Y2337000D01*
X489720Y2344640D01*
X488620Y2352200D01*
X486800Y2359620D01*
X484260Y2366820D01*
X481040Y2373760D01*
X477160Y2380340D01*
X472660Y2386520D01*
X467600Y2392240D01*
X462000Y2397460D01*
X455940Y2402100D01*
X449440Y2406120D01*
X442580Y2409520D01*
X435439Y2412220D01*
X428060Y2414220D01*
X420540Y2415520D01*
X412920Y2416080D01*
X405280Y2415880D01*
X397680Y2414960D01*
X390220Y2413320D01*
X382960Y2410960D01*
X375940Y2407900D01*
X369260Y2404180D01*
X362980Y2399840D01*
X357140Y2394920D01*
X351800Y2389440D01*
X347020Y2383480D01*
X342819Y2377100D01*
X339280Y2370320D01*
X336400Y2363260D01*
X334200Y2355920D01*
X332740Y2348420D01*
X332000Y2340820D01*
X332000Y2333180D01*
X332740Y2325580D01*
X334200Y2318080D01*
X336400Y2310740D01*
X339280Y2303660D01*
X342819Y2296900D01*
X347020Y2290520D01*
X351800Y2284560D01*
X357140Y2279080D01*
X362980Y2274160D01*
X369260Y2269820D01*
X375940Y2266100D01*
X382960Y2263040D01*
X390220Y2260680D01*
X397680Y2259040D01*
X405280Y2258120D01*
G37*
G36*
X1727920Y2257920D02*
G01*
X1735540Y2258480D01*
X1743060Y2259760D01*
X1750440Y2261780D01*
X1757580Y2264480D01*
X1764440Y2267880D01*
X1770940Y2271900D01*
X1777000Y2276540D01*
X1782600Y2281760D01*
X1787660Y2287480D01*
X1792160Y2293660D01*
X1796040Y2300240D01*
X1799259Y2307180D01*
X1801800Y2314380D01*
X1803620Y2321800D01*
X1804720Y2329360D01*
X1805100Y2337000D01*
X1804720Y2344640D01*
X1803620Y2352200D01*
X1801800Y2359620D01*
X1799259Y2366820D01*
X1796040Y2373760D01*
X1792160Y2380340D01*
X1787660Y2386520D01*
X1782600Y2392240D01*
X1777000Y2397460D01*
X1770940Y2402100D01*
X1764440Y2406120D01*
X1757580Y2409520D01*
X1750440Y2412220D01*
X1743060Y2414220D01*
X1735540Y2415520D01*
X1727920Y2416080D01*
X1720280Y2415880D01*
X1712680Y2414960D01*
X1705220Y2413320D01*
X1697960Y2410960D01*
X1690940Y2407900D01*
X1684259Y2404180D01*
X1677980Y2399840D01*
X1672140Y2394920D01*
X1666800Y2389440D01*
X1662020Y2383480D01*
X1657820Y2377100D01*
X1654280Y2370320D01*
X1651399Y2363260D01*
X1649199Y2355920D01*
X1647740Y2348420D01*
X1647000Y2340820D01*
X1647000Y2333180D01*
X1647740Y2325580D01*
X1649199Y2318080D01*
X1651399Y2310740D01*
X1654280Y2303660D01*
X1657820Y2296900D01*
X1662020Y2290520D01*
X1666800Y2284560D01*
X1672140Y2279080D01*
X1677980Y2274160D01*
X1684259Y2269820D01*
X1690940Y2266100D01*
X1697960Y2263040D01*
X1705220Y2260680D01*
X1712680Y2259040D01*
X1720280Y2258120D01*
G37*
G36*
X1107920Y2327080D02*
G01*
X1113080Y2327080D01*
X1115560Y2327360D01*
X1117720Y2328120D01*
X1119640Y2329320D01*
X1121260Y2330940D01*
X1122480Y2332860D01*
X1123220Y2335020D01*
X1123500Y2337500D01*
X1123500Y2343640D01*
X1107920Y2343640D01*
G37*
G36*
X1107920Y2366360D02*
G01*
X1123500Y2366360D01*
X1123500Y2372500D01*
X1123220Y2374980D01*
X1122480Y2377140D01*
X1121260Y2379060D01*
X1119640Y2380680D01*
X1117720Y2381880D01*
X1115560Y2382640D01*
X1113080Y2382920D01*
X1107920Y2382920D01*
G37*
G36*
X2045180Y2412420D02*
G01*
X2052740Y2412800D01*
X2060220Y2413900D01*
X2067560Y2415740D01*
X2074700Y2418300D01*
X2081540Y2421540D01*
X2088020Y2425420D01*
X2094100Y2429940D01*
X2099720Y2435020D01*
X2104800Y2440620D01*
X2109300Y2446700D01*
X2113200Y2453200D01*
X2116440Y2460040D01*
X2118980Y2467160D01*
X2120820Y2474500D01*
X2121940Y2482000D01*
X2122300Y2489540D01*
X2121940Y2497100D01*
X2120820Y2504600D01*
X2118980Y2511940D01*
X2116440Y2519060D01*
X2113200Y2525900D01*
X2109300Y2532400D01*
X2104800Y2538480D01*
X2099720Y2544080D01*
X2094100Y2549160D01*
X2088020Y2553680D01*
X2081540Y2557560D01*
X2074700Y2560800D01*
X2067560Y2563360D01*
X2060220Y2565200D01*
X2052740Y2566300D01*
X2045180Y2566680D01*
X2037620Y2566300D01*
X2030140Y2565200D01*
X2022800Y2563360D01*
X2015660Y2560800D01*
X2008820Y2557560D01*
X2002340Y2553680D01*
X1996260Y2549160D01*
X1990640Y2544080D01*
X1985560Y2538480D01*
X1981060Y2532400D01*
X1977160Y2525900D01*
X1973920Y2519060D01*
X1971380Y2511940D01*
X1969540Y2504600D01*
X1968420Y2497100D01*
X1968060Y2489540D01*
X1968420Y2482000D01*
X1969540Y2474500D01*
X1971380Y2467160D01*
X1973920Y2460040D01*
X1977160Y2453200D01*
X1981060Y2446700D01*
X1985560Y2440620D01*
X1990640Y2435020D01*
X1996260Y2429940D01*
X2002340Y2425420D01*
X2008820Y2421540D01*
X2015660Y2418300D01*
X2022800Y2415740D01*
X2030140Y2413900D01*
X2037620Y2412800D01*
G37*
G36*
X434860Y2529200D02*
G01*
X441960Y2529740D01*
X448980Y2531020D01*
X455820Y2533020D01*
X462420Y2535700D01*
X468720Y2539060D01*
X474640Y2543040D01*
X480100Y2547600D01*
X485080Y2552700D01*
X489520Y2558300D01*
X493340Y2564320D01*
X496520Y2570680D01*
X499040Y2577360D01*
X500860Y2584260D01*
X501960Y2591300D01*
X502320Y2598420D01*
X501960Y2605539D01*
X500860Y2612580D01*
X499040Y2619480D01*
X496520Y2626160D01*
X493340Y2632520D01*
X489520Y2638540D01*
X485080Y2644140D01*
X480100Y2649240D01*
X474640Y2653800D01*
X468720Y2657780D01*
X462420Y2661139D01*
X455820Y2663820D01*
X448980Y2665820D01*
X441960Y2667100D01*
X434860Y2667640D01*
X427720Y2667460D01*
X420660Y2666540D01*
X413720Y2664920D01*
X406980Y2662559D01*
X400520Y2659540D01*
X394420Y2655880D01*
X388700Y2651600D01*
X383480Y2646760D01*
X378760Y2641400D01*
X374640Y2635580D01*
X371120Y2629380D01*
X368280Y2622840D01*
X366100Y2616060D01*
X364640Y2609080D01*
X363920Y2601980D01*
X363920Y2594860D01*
X364640Y2587760D01*
X366100Y2580779D01*
X368280Y2574000D01*
X371120Y2567460D01*
X374640Y2561259D01*
X378760Y2555440D01*
X383480Y2550080D01*
X388700Y2545240D01*
X394420Y2540960D01*
X400520Y2537300D01*
X406980Y2534280D01*
X413720Y2531920D01*
X420660Y2530300D01*
X427720Y2529380D01*
G37*
G36*
X2482100Y2529200D02*
G01*
X2489200Y2529740D01*
X2496220Y2531020D01*
X2503060Y2533020D01*
X2509660Y2535700D01*
X2515960Y2539060D01*
X2521880Y2543040D01*
X2527340Y2547600D01*
X2532320Y2552700D01*
X2536760Y2558300D01*
X2540580Y2564320D01*
X2543760Y2570680D01*
X2546280Y2577360D01*
X2548100Y2584260D01*
X2549200Y2591300D01*
X2549560Y2598420D01*
X2549200Y2605539D01*
X2548100Y2612580D01*
X2546280Y2619480D01*
X2543760Y2626160D01*
X2540580Y2632520D01*
X2536760Y2638540D01*
X2532320Y2644140D01*
X2527340Y2649240D01*
X2521880Y2653800D01*
X2515960Y2657780D01*
X2509660Y2661139D01*
X2503060Y2663820D01*
X2496220Y2665820D01*
X2489200Y2667100D01*
X2482100Y2667640D01*
X2474960Y2667460D01*
X2467900Y2666540D01*
X2460960Y2664920D01*
X2454220Y2662559D01*
X2447760Y2659540D01*
X2441660Y2655880D01*
X2435940Y2651600D01*
X2430720Y2646760D01*
X2426000Y2641400D01*
X2421880Y2635580D01*
X2418360Y2629380D01*
X2415520Y2622840D01*
X2413340Y2616060D01*
X2411880Y2609080D01*
X2411160Y2601980D01*
X2411160Y2594860D01*
X2411880Y2587760D01*
X2413340Y2580779D01*
X2415520Y2574000D01*
X2418360Y2567460D01*
X2421880Y2561259D01*
X2426000Y2555440D01*
X2430720Y2550080D01*
X2435940Y2545240D01*
X2441660Y2540960D01*
X2447760Y2537300D01*
X2454220Y2534280D01*
X2460960Y2531920D01*
X2467900Y2530300D01*
X2474960Y2529380D01*
G37*
G36*
X1368000Y2663039D02*
G01*
X1370600Y2664320D01*
X1375080Y2667320D01*
X1379120Y2670880D01*
X1382680Y2674920D01*
X1385680Y2679400D01*
X1386960Y2682000D01*
X1368000Y2682000D01*
G37*
G36*
X1332000Y2663039D02*
G01*
X1332000Y2682000D01*
X1313040Y2682000D01*
X1314319Y2679400D01*
X1317320Y2674920D01*
X1320880Y2670880D01*
X1324920Y2667320D01*
X1329400Y2664320D01*
G37*
G36*
X1313040Y2718000D02*
G01*
X1332000Y2718000D01*
X1332000Y2736960D01*
X1329400Y2735680D01*
X1324920Y2732679D01*
X1320880Y2729120D01*
X1317320Y2725080D01*
X1314319Y2720600D01*
G37*
G36*
X1368000Y2718000D02*
G01*
X1386960Y2718000D01*
X1385680Y2720600D01*
X1382680Y2725080D01*
X1379120Y2729120D01*
X1375080Y2732679D01*
X1370600Y2735680D01*
X1368000Y2736960D01*
G37*

%LPD*%
G36*
X1532960Y1495200D02*
G01*
X1531420Y1495500D01*
X1530120Y1496380D01*
X1476220Y1550280D01*
X1475340Y1551579D01*
X1475040Y1553120D01*
X1475040Y1593460D01*
X1475360Y1608220D01*
X1475360Y1656699D01*
X1475040Y1659920D01*
X1474540Y1661519D01*
X1474379Y1662680D01*
X1474379Y1669480D01*
X1474680Y1671000D01*
X1475540Y1672300D01*
X1476840Y1673160D01*
X1478380Y1673480D01*
X1479900Y1673160D01*
X1481200Y1672300D01*
X1482740Y1670760D01*
X1483620Y1669420D01*
X1483920Y1667860D01*
X1483700Y1656860D01*
X1483700Y1608660D01*
X1484000Y1605440D01*
X1484520Y1603779D01*
X1484680Y1602620D01*
X1484680Y1593920D01*
X1485460Y1594160D01*
X1487480Y1595240D01*
X1488720Y1595660D01*
X1490020Y1595660D01*
X1491260Y1595240D01*
X1493280Y1594160D01*
X1496180Y1593280D01*
X1501060Y1592860D01*
X1502440Y1592120D01*
X1503440Y1590900D01*
X1503880Y1589420D01*
X1504019Y1588140D01*
X1504880Y1585300D01*
X1506279Y1582660D01*
X1508300Y1580220D01*
X1533620Y1554880D01*
X1534500Y1553580D01*
X1534800Y1552040D01*
X1534800Y1525200D01*
X1535120Y1522040D01*
X1535980Y1519199D01*
X1537380Y1516560D01*
X1539400Y1514120D01*
X1549120Y1504400D01*
X1551680Y1502300D01*
X1552700Y1501020D01*
X1553120Y1499460D01*
X1552900Y1497860D01*
X1552060Y1496459D01*
X1550720Y1495520D01*
X1549139Y1495200D01*
G37*

%LPD*%
G36*
X1735000Y1287880D02*
G01*
X1716380Y1265840D01*
X1763620Y1265840D01*
X1745000Y1287880D01*
G37*
G36*
X1070840Y1438620D02*
G01*
X1070840Y1391380D01*
X1092880Y1410000D01*
X1092880Y1420000D01*
G37*
G36*
X1539880Y1430580D02*
G01*
X1512340Y1385120D01*
X1544280Y1390000D01*
X1550340Y1400000D01*
G37*
G36*
X1501060Y1468240D02*
G01*
X1479480Y1443440D01*
X1532640Y1443440D01*
X1511060Y1468240D01*
G37*
G36*
X1337380Y1446579D02*
G01*
X1337380Y1393420D01*
X1362180Y1415000D01*
X1362180Y1425000D01*
G37*
G36*
X1287880Y1444000D02*
G01*
X1265440Y1420000D01*
X1266480Y1410000D01*
X1293380Y1391140D01*
G37*
G36*
X1321680Y2687380D02*
G01*
X1327560Y2662799D01*
X1347240Y2656640D01*
X1366060Y2673500D01*
G37*
G36*
X1226760Y2679500D02*
G01*
X1245000Y2657799D01*
X1255000Y2657799D01*
X1273240Y2679500D01*
G37*
G36*
X1126760Y2679500D02*
G01*
X1145000Y2657799D01*
X1155000Y2657799D01*
X1173240Y2679500D01*
G37*
G36*
X1023439Y2684020D02*
G01*
X1032560Y2660280D01*
X1052240Y2656680D01*
X1069180Y2675640D01*
G37*
G36*
X929500Y2723240D02*
G01*
X907800Y2709840D01*
X907800Y2690160D01*
X929500Y2676760D01*
G37*
G36*
X2511280Y2419820D02*
G01*
X2497360Y2405900D01*
X2503060Y2376520D01*
X2540640Y2414100D01*
G37*
G36*
X1730340Y952320D02*
G01*
X1703120Y949820D01*
X1734980Y918040D01*
X1737420Y945260D01*
G37*
G36*
X1603100Y949820D02*
G01*
X1634960Y918040D01*
X1633540Y941400D01*
X1626459Y948460D01*
G37*
G36*
X1500000Y960720D02*
G01*
X1482520Y939720D01*
X1527520Y939740D01*
X1510000Y960720D01*
G37*
G36*
X1175080Y921800D02*
G01*
X1172580Y894580D01*
X1179640Y887500D01*
X1206860Y889940D01*
G37*
G36*
X1100000Y960699D02*
G01*
X1082520Y939700D01*
X1127520Y939720D01*
X1110000Y960699D01*
G37*
G36*
X2538280Y2028640D02*
G01*
X2525040Y2005000D01*
X2528980Y1995000D01*
X2554800Y1986780D01*
G37*
G36*
X2548060Y1839760D02*
G01*
X2525080Y1825000D01*
X2523840Y1815000D01*
X2542560Y1795100D01*
G37*
G36*
X2535060Y1716879D02*
G01*
X2530640Y1694560D01*
X2544560Y1680640D01*
X2566880Y1685060D01*
G37*
G36*
X2556640Y1643800D02*
G01*
X2532680Y1642240D01*
X2523420Y1622560D01*
X2537460Y1603100D01*
G37*
G36*
X389840Y1552500D02*
G01*
X389840Y1507500D01*
X410840Y1525000D01*
X410840Y1535000D01*
G37*
G36*
X389840Y1652500D02*
G01*
X389840Y1607500D01*
X410840Y1620160D01*
X410840Y1639840D01*
G37*
G36*
X344660Y1662420D02*
G01*
X337580Y1655340D01*
X340060Y1628120D01*
X371880Y1659940D01*
G37*
G36*
X382040Y1957480D02*
G01*
X395760Y1914620D01*
X410500Y1937440D01*
X407299Y1947440D01*
G37*
G36*
X340840Y2037040D02*
G01*
X333640Y2010720D01*
X339460Y2002400D01*
X366659Y2000180D01*
G37*
G36*
X386940Y2154760D02*
G01*
X392440Y2110100D01*
X411760Y2125160D01*
X409320Y2144840D01*
G37*
G36*
X2255260Y2651800D02*
G01*
X2248200Y2644740D01*
X2251240Y2634140D01*
X2265860Y2648759D01*
G37*
G36*
X1375260Y1471800D02*
G01*
X1368200Y1464740D01*
X1371240Y1454139D01*
X1385860Y1468760D01*
G37*
G36*
X2359120Y1870340D02*
G01*
X2359120Y1849660D01*
X2368760Y1855000D01*
X2368760Y1865000D01*
G37*
G36*
X404739Y1172740D02*
G01*
X393980Y1171100D01*
X390540Y1161100D01*
X398020Y1153200D01*
G37*
G36*
X683760Y1985860D02*
G01*
X669140Y1971240D01*
X679740Y1968200D01*
X686800Y1975260D01*
G37*
G36*
X675879Y1540340D02*
G01*
X666240Y1535000D01*
X666240Y1525000D01*
X675879Y1519660D01*
G37*
G36*
X743760Y1995860D02*
G01*
X729140Y1981240D01*
X739740Y1978200D01*
X746800Y1985260D01*
G37*
G36*
X754659Y1195880D02*
G01*
X760000Y1186240D01*
X770000Y1186240D01*
X775340Y1195880D01*
G37*
G36*
X788760Y2015860D02*
G01*
X774140Y2001240D01*
X784740Y1998200D01*
X791800Y2005260D01*
G37*
G36*
X815260Y1221800D02*
G01*
X808199Y1214740D01*
X811240Y1204140D01*
X825860Y1218760D01*
G37*
G36*
X833760Y2030860D02*
G01*
X819140Y2016240D01*
X829740Y2013200D01*
X836800Y2020260D01*
G37*
G36*
X644659Y1125880D02*
G01*
X650000Y1116240D01*
X660000Y1116240D01*
X665340Y1125880D01*
G37*
G36*
X886540Y2047540D02*
G01*
X881040Y2027600D01*
X891700Y2030000D01*
X894460Y2040000D01*
G37*
G36*
X1013760Y2015860D02*
G01*
X999140Y2001240D01*
X1009740Y1998200D01*
X1016800Y2005260D01*
G37*
G36*
X1320260Y1131800D02*
G01*
X1313200Y1124740D01*
X1316240Y1114140D01*
X1330860Y1128760D01*
G37*
G36*
X1345900Y1898920D02*
G01*
X1336240Y1893600D01*
X1336240Y1883600D01*
X1345880Y1878260D01*
G37*
G36*
X1219120Y1250340D02*
G01*
X1219120Y1229660D01*
X1228760Y1235000D01*
X1228760Y1245000D01*
G37*
G36*
X1508959Y1247400D02*
G01*
X1498300Y1245000D01*
X1495540Y1235000D01*
X1503460Y1227460D01*
G37*
G36*
X2174760Y1274740D02*
G01*
X2173440Y1254100D01*
X2183100Y1253960D01*
X2184360Y1273640D01*
G37*
G36*
X2183700Y2050220D02*
G01*
X2169780Y2036300D01*
X2176240Y2029139D01*
X2190860Y2043760D01*
G37*
G36*
X2176740Y1901220D02*
G01*
X2172500Y1892560D01*
X2191360Y1883580D01*
X2195400Y1892320D01*
G37*
G36*
X1756300Y2205220D02*
G01*
X1749139Y2198760D01*
X1763760Y2184140D01*
X1770220Y2191300D01*
G37*
G36*
X1679660Y2015880D02*
G01*
X1680160Y2006240D01*
X1699840Y2006240D01*
X1700340Y2015880D01*
G37*
G36*
X1128700Y2265220D02*
G01*
X1114780Y2251300D01*
X1121240Y2244140D01*
X1135860Y2258760D01*
G37*
G36*
X1401500Y2312400D02*
G01*
X1381020Y2309540D01*
X1382760Y2300040D01*
X1402440Y2302800D01*
G37*
G36*
X1379660Y2310880D02*
G01*
X1385000Y2301240D01*
X1395000Y2301240D01*
X1400340Y2310880D01*
G37*
G36*
X610880Y1640340D02*
G01*
X601240Y1639840D01*
X601240Y1620160D01*
X610880Y1619660D01*
G37*
G36*
X576240Y1210860D02*
G01*
X569780Y1203700D01*
X583700Y1189780D01*
X590860Y1196240D01*
G37*
G36*
X600000Y1888760D02*
G01*
X594660Y1879120D01*
X615340Y1879120D01*
X610000Y1888760D01*
G37*
G36*
X2494660Y1540880D02*
G01*
X2500000Y1531240D01*
X2510000Y1531240D01*
X2515340Y1540880D01*
G37*
G36*
X2003760Y2040860D02*
G01*
X1989139Y2026240D01*
X1999740Y2023200D01*
X2006800Y2030260D01*
G37*
G36*
X1540880Y2075340D02*
G01*
X1531240Y2070000D01*
X1531240Y2060000D01*
X1540880Y2054660D01*
G37*
G36*
X2060880Y1760340D02*
G01*
X2051240Y1755000D01*
X2051240Y1745000D01*
X2060880Y1739660D01*
G37*
G36*
X1244660Y2000880D02*
G01*
X1250000Y1991240D01*
X1260000Y1991240D01*
X1265340Y2000880D01*
G37*
G36*
X1510880Y2170340D02*
G01*
X1501240Y2165000D01*
X1501240Y2155000D01*
X1510880Y2149660D01*
G37*
G36*
X1342420Y2030980D02*
G01*
X1334379Y2011940D01*
X1345200Y2012740D01*
X1349379Y2022680D01*
G37*
G36*
X1330860Y2038760D02*
G01*
X1323540Y2038540D01*
X1316459Y2031459D01*
X1316240Y2024139D01*
G37*
G36*
X1220880Y1645340D02*
G01*
X1211240Y1640000D01*
X1211240Y1630000D01*
X1220880Y1624660D01*
G37*
G36*
X556240Y2045860D02*
G01*
X553200Y2035260D01*
X560260Y2028200D01*
X570860Y2031240D01*
G37*
G36*
X1461240Y1735860D02*
G01*
X1458200Y1725260D01*
X1465280Y1718200D01*
X1475860Y1721240D01*
G37*
G36*
X1209660Y2315880D02*
G01*
X1215000Y2306240D01*
X1225000Y2306240D01*
X1230340Y2315880D01*
G37*
G36*
X2176240Y2385860D02*
G01*
X2169780Y2378700D01*
X2183700Y2364780D01*
X2190860Y2371240D01*
G37*
G36*
X2196300Y2405220D02*
G01*
X2189140Y2398760D01*
X2203760Y2384140D01*
X2210220Y2391300D01*
G37*
G36*
X2040880Y1225340D02*
G01*
X2031240Y1220000D01*
X2031240Y1210000D01*
X2040880Y1204660D01*
G37*
G36*
X2059740Y1231800D02*
G01*
X2049139Y1228760D01*
X2063760Y1214140D01*
X2066800Y1224740D01*
G37*
G36*
X1495900Y1893600D02*
G01*
X1490740Y1883600D01*
X1497160Y1875000D01*
X1506639Y1893360D01*
G37*
G36*
X1524100Y1893600D02*
G01*
X1513360Y1893360D01*
X1522840Y1875000D01*
X1529259Y1883600D01*
G37*
G36*
X1858160Y1080140D02*
G01*
X1847560Y1077100D01*
X1862180Y1062480D01*
X1865220Y1073080D01*
G37*
G36*
X1834680Y1064200D02*
G01*
X1831620Y1053620D01*
X1838700Y1046540D01*
X1849280Y1049580D01*
G37*
G36*
X666520Y1828320D02*
G01*
X656860Y1813140D01*
X666020Y1811900D01*
X671540Y1820540D01*
G37*
G36*
X986979Y1725080D02*
G01*
X979920Y1718020D01*
X983020Y1709240D01*
X995759Y1721980D01*
G37*
G36*
X1595000Y1566339D02*
G01*
X1591000Y1557940D01*
X1609000Y1557940D01*
X1605000Y1566339D01*
G37*
G36*
X677060Y1859000D02*
G01*
X668660Y1855000D01*
X668660Y1845000D01*
X677060Y1841000D01*
G37*
G36*
X986979Y1675080D02*
G01*
X979920Y1668020D01*
X983020Y1659240D01*
X995759Y1671980D01*
G37*
G36*
X1631980Y1625080D02*
G01*
X1624920Y1618020D01*
X1628020Y1609240D01*
X1640760Y1621980D01*
G37*
G36*
X897940Y2139000D02*
G01*
X897940Y2121000D01*
X906340Y2125000D01*
X906340Y2135000D01*
G37*
G36*
X955000Y2056339D02*
G01*
X951000Y2047940D01*
X969000Y2047940D01*
X965000Y2056339D01*
G37*
G36*
X901979Y1240760D02*
G01*
X889240Y1228020D01*
X898020Y1224920D01*
X905080Y1231980D01*
G37*
G36*
X1622060Y1489000D02*
G01*
X1613660Y1485000D01*
X1613660Y1475000D01*
X1622060Y1471000D01*
G37*
G36*
X968020Y1495760D02*
G01*
X964920Y1486980D01*
X971979Y1479920D01*
X980759Y1483020D01*
G37*
G36*
X850000Y1106340D02*
G01*
X846000Y1097940D01*
X864000Y1097940D01*
X860000Y1106340D01*
G37*
G36*
X766979Y2350080D02*
G01*
X759920Y2343020D01*
X763020Y2334240D01*
X775759Y2346980D01*
G37*
G36*
X1927940Y1094000D02*
G01*
X1927940Y1076000D01*
X1936339Y1080000D01*
X1936339Y1090000D01*
G37*
G36*
X1866980Y1280080D02*
G01*
X1859920Y1273020D01*
X1863020Y1264240D01*
X1875760Y1276980D01*
G37*
G36*
X1822060Y1729000D02*
G01*
X1813660Y1725000D01*
X1813660Y1715000D01*
X1822060Y1711000D01*
G37*
G36*
X957940Y2339000D02*
G01*
X957940Y2321000D01*
X966340Y2325000D01*
X966340Y2335000D01*
G37*
G36*
X1152440Y1481900D02*
G01*
X1147280Y1474199D01*
X1165080Y1471500D01*
X1162440Y1480400D01*
G37*
G36*
X2441100Y1715420D02*
G01*
X2425900Y1702780D01*
X2437280Y1673839D01*
X2472720Y1703300D01*
G37*
G36*
X2472720Y1703300D02*
G01*
X2472720Y1671819D01*
X2502240Y1677760D01*
X2502240Y1697440D01*
G37*
G36*
X2437280Y1648180D02*
G01*
X2412600Y1642240D01*
X2412600Y1622560D01*
X2437280Y1616699D01*
G37*
G36*
X2472720Y1648180D02*
G01*
X2472720Y1616699D01*
X2502240Y1622560D01*
X2502240Y1642240D01*
G37*
G36*
X2279000Y887500D02*
G01*
X2264000Y880000D01*
X2264000Y870000D01*
X2279000Y862500D01*
G37*
G36*
X587500Y2669000D02*
G01*
X595000Y2654000D01*
X605000Y2654000D01*
X612500Y2669000D01*
G37*
G36*
X2180540Y1048240D02*
G01*
X2165880Y1028000D01*
X2180280Y1022300D01*
X2186220Y1030520D01*
G37*
G36*
X2089460Y1057500D02*
G01*
X2074460Y1050000D01*
X2074460Y1040000D01*
X2089460Y1032500D01*
G37*
G36*
X2055540Y1057500D02*
G01*
X2055540Y1032500D01*
X2070540Y1040000D01*
X2070540Y1050000D01*
G37*
G36*
X1964720Y1067680D02*
G01*
X1958779Y1059480D01*
X1964460Y1041760D01*
X1979120Y1062000D01*
G37*
G36*
X1964460Y1057500D02*
G01*
X1949460Y1050000D01*
X1949460Y1040000D01*
X1964460Y1032500D01*
G37*
G36*
X1924760Y952000D02*
G01*
X1917220Y937000D01*
X1942220Y937000D01*
X1934760Y952000D01*
G37*
G36*
X2403920Y1374079D02*
G01*
X2388920Y1371200D01*
X2388920Y1361200D01*
X2403920Y1358320D01*
G37*
G36*
X2466900Y1374079D02*
G01*
X2466900Y1358320D01*
X2481200Y1361200D01*
X2481200Y1371200D01*
G37*
G36*
X881000Y2724600D02*
G01*
X881000Y2675400D01*
X910520Y2690160D01*
X910520Y2709840D01*
G37*
G36*
X825400Y2669000D02*
G01*
X840160Y2639480D01*
X859840Y2639480D01*
X874599Y2669000D01*
G37*
G36*
X373660Y1178600D02*
G01*
X373660Y1153600D01*
X388660Y1161100D01*
X388660Y1171100D01*
G37*
G36*
X338220Y1406300D02*
G01*
X346060Y1376759D01*
X365740Y1376759D01*
X373660Y1406300D01*
G37*
G36*
X491760Y1190700D02*
G01*
X491760Y1141500D01*
X521300Y1156260D01*
X521300Y1175940D01*
G37*
G36*
X491760Y1458500D02*
G01*
X491760Y1409300D01*
X521300Y1424060D01*
X521300Y1443740D01*
G37*
G36*
X2098300Y1872720D02*
G01*
X2098300Y1837280D01*
X2127840Y1845160D01*
X2127840Y1864840D01*
G37*
G36*
X2011699Y1872720D02*
G01*
X1982160Y1864840D01*
X1982160Y1845160D01*
X2011699Y1837280D01*
G37*
G36*
X2011699Y1837280D02*
G01*
X2017560Y1812600D01*
X2037240Y1812600D01*
X2043180Y1837280D01*
G37*
G36*
X487720Y1954940D02*
G01*
X487720Y1929940D01*
X502720Y1937440D01*
X502720Y1947440D01*
G37*
G36*
X452280Y1954940D02*
G01*
X437280Y1947440D01*
X437280Y1937440D01*
X452280Y1929940D01*
G37*
G36*
X1081820Y2337280D02*
G01*
X1087760Y2307760D01*
X1107440Y2307760D01*
X1113300Y2337280D01*
G37*
G36*
X1026700Y2359060D02*
G01*
X1020280Y2339900D01*
X1025380Y2330860D01*
X1038980Y2337280D01*
G37*
G36*
X1032560Y2402240D02*
G01*
X1026700Y2372720D01*
X1058180Y2372720D01*
X1052240Y2402240D01*
G37*
G36*
X1127720Y1673880D02*
G01*
X1105880Y1661699D01*
X1125100Y1655240D01*
X1134180Y1660300D01*
G37*
G36*
X1092280Y1745100D02*
G01*
X1077280Y1737600D01*
X1077280Y1727600D01*
X1092280Y1720100D01*
G37*
G36*
X1127720Y1729040D02*
G01*
X1105900Y1716819D01*
X1125080Y1710360D01*
X1134140Y1715440D01*
G37*
G36*
X1382760Y2142240D02*
G01*
X1376819Y2112720D01*
X1408300Y2112720D01*
X1402440Y2142240D01*
G37*
G36*
X1327560Y2142240D02*
G01*
X1321699Y2112720D01*
X1353180Y2112720D01*
X1347240Y2142240D01*
G37*
G36*
X1767720Y1953300D02*
G01*
X1767720Y1921819D01*
X1797240Y1927760D01*
X1797240Y1947440D01*
G37*
G36*
X1732280Y1953300D02*
G01*
X1717400Y1947440D01*
X1717400Y1927760D01*
X1732280Y1921819D01*
G37*
G36*
X1732280Y1950100D02*
G01*
X1717280Y1942600D01*
X1717280Y1932600D01*
X1732280Y1925100D01*
G37*
G36*
X1732280Y1898180D02*
G01*
X1717280Y1893600D01*
X1717280Y1883600D01*
X1732280Y1876100D01*
G37*
G36*
X1767720Y1878880D02*
G01*
X1745880Y1866699D01*
X1765100Y1860240D01*
X1774180Y1865300D01*
G37*
G36*
X1492500Y1006700D02*
G01*
X1500000Y991700D01*
X1510000Y991700D01*
X1517500Y1006700D01*
G37*
G36*
X674900Y1704720D02*
G01*
X665860Y1699620D01*
X672280Y1686020D01*
X694060Y1698300D01*
G37*
G36*
X1147400Y1572720D02*
G01*
X1141700Y1557720D01*
X1164900Y1557720D01*
X1157400Y1572720D01*
G37*
G36*
X1144940Y1522280D02*
G01*
X1152440Y1507280D01*
X1162440Y1507280D01*
X1169940Y1522280D01*
G37*
G36*
X611700Y1319600D02*
G01*
X582160Y1304840D01*
X582160Y1285160D01*
X611700Y1270400D01*
G37*
G36*
X710660Y1351100D02*
G01*
X695900Y1321579D01*
X745100Y1321579D01*
X730340Y1351100D01*
G37*
G36*
X1513080Y2668500D02*
G01*
X1530540Y2624220D01*
X1560060Y2624220D01*
X1577440Y2668500D01*
G37*
G36*
X1696920Y2731500D02*
G01*
X1696920Y2668500D01*
X1741220Y2685240D01*
X1741220Y2714760D01*
G37*
G36*
X1944460Y2717000D02*
G01*
X1900180Y2714760D01*
X1900180Y2685240D01*
X1944460Y2683000D01*
G37*
G36*
X2035540Y2712500D02*
G01*
X2035540Y2687500D01*
X2050540Y2695000D01*
X2050540Y2705000D01*
G37*
G36*
X2142000Y2105160D02*
G01*
X2156760Y2075620D01*
X2176440Y2075620D01*
X2191200Y2105160D01*
G37*
G36*
X2156760Y2354380D02*
G01*
X2142000Y2324840D01*
X2191200Y2324840D01*
X2176440Y2354380D01*
G37*
G36*
X1928640Y2330160D02*
G01*
X1906480Y2285860D01*
X1980300Y2285860D01*
X1958160Y2330160D01*
G37*
G36*
X1894760Y2269600D02*
G01*
X1865240Y2254840D01*
X1865240Y2235160D01*
X1894760Y2220400D01*
G37*
G36*
X1321420Y1660060D02*
G01*
X1321420Y1645920D01*
X1336420Y1625480D01*
X1336420Y1650480D01*
G37*
G36*
X1356100Y1608480D02*
G01*
X1356399Y1593480D01*
X1366399Y1593460D01*
X1366740Y1608460D01*
G37*
G36*
X1415160Y1608460D02*
G01*
X1415460Y1593460D01*
X1425460Y1593460D01*
X1425780Y1608460D01*
G37*
G36*
X1434840Y1608460D02*
G01*
X1435160Y1593460D01*
X1445160Y1593460D01*
X1445480Y1608460D01*
G37*
G36*
X1454520Y1608460D02*
G01*
X1454840Y1593460D01*
X1464840Y1593460D01*
X1465160Y1608460D01*
G37*
G36*
X1504199Y1671900D02*
G01*
X1494199Y1671879D01*
X1493899Y1656879D01*
X1504520Y1656900D01*
G37*
G36*
X1513580Y1608460D02*
G01*
X1513899Y1593460D01*
X1523899Y1593460D01*
X1524220Y1608460D01*
G37*
G36*
X1563580Y1643920D02*
G01*
X1563580Y1618920D01*
X1578580Y1609340D01*
X1578580Y1623480D01*
G37*
G36*
X1604820Y1686420D02*
G01*
X1612320Y1671420D01*
X1622320Y1671420D01*
X1629820Y1686420D01*
G37*
G36*
X1641540Y1795480D02*
G01*
X1641540Y1784840D01*
X1649840Y1785160D01*
X1649840Y1795160D01*
G37*
G36*
X1641519Y1893899D02*
G01*
X1641540Y1883260D01*
X1656540Y1883600D01*
X1656519Y1893600D01*
G37*
G36*
X1593120Y1893899D02*
G01*
X1578120Y1893600D01*
X1578100Y1883600D01*
X1593100Y1883260D01*
G37*
G36*
X1630520Y1928580D02*
G01*
X1610080Y1913580D01*
X1635080Y1913580D01*
X1644660Y1928580D01*
G37*
G36*
X1484500Y2006540D02*
G01*
X1474500Y2006519D01*
X1474220Y1991519D01*
X1484840Y1991540D01*
G37*
G36*
X1464800Y2006540D02*
G01*
X1454800Y2006519D01*
X1454520Y1991519D01*
X1465160Y1991540D01*
G37*
G36*
X1435200Y2006540D02*
G01*
X1434840Y1991540D01*
X1445480Y1991519D01*
X1445200Y2006519D01*
G37*
G36*
X1376100Y2006540D02*
G01*
X1375780Y1991540D01*
X1386420Y1991540D01*
X1386100Y2006540D01*
G37*
G36*
X1356100Y1943120D02*
G01*
X1356399Y1928120D01*
X1366399Y1928100D01*
X1366740Y1943100D01*
G37*
G36*
X1356399Y2003600D02*
G01*
X1356100Y1991519D01*
X1366740Y1991540D01*
X1366399Y2003600D01*
G37*
G36*
X1336420Y1979800D02*
G01*
X1321420Y1972300D01*
X1321420Y1962300D01*
X1336420Y1954800D01*
G37*
G36*
X1258480Y1913580D02*
G01*
X1243480Y1913300D01*
X1243460Y1903300D01*
X1258460Y1902960D01*
G37*
G36*
X1306879Y1893899D02*
G01*
X1306900Y1883260D01*
X1321900Y1883600D01*
X1321879Y1893600D01*
G37*
G36*
X1258460Y1874220D02*
G01*
X1243460Y1873899D01*
X1243460Y1863899D01*
X1258460Y1863580D01*
G37*
G36*
X1258460Y1854520D02*
G01*
X1243460Y1854199D01*
X1243480Y1844199D01*
X1258480Y1843899D01*
G37*
G36*
X1258460Y1834840D02*
G01*
X1243460Y1834500D01*
X1243480Y1824500D01*
X1258480Y1824220D01*
G37*
G36*
X1258460Y1815160D02*
G01*
X1243460Y1814800D01*
X1243480Y1804800D01*
X1258480Y1804520D01*
G37*
G36*
X1258480Y1795480D02*
G01*
X1243480Y1795200D01*
X1243460Y1785200D01*
X1258460Y1784840D01*
G37*
G36*
X1306879Y1775780D02*
G01*
X1306900Y1765160D01*
X1321900Y1765500D01*
X1321879Y1775500D01*
G37*
G36*
X1306879Y1775780D02*
G01*
X1306900Y1765160D01*
X1321900Y1765500D01*
X1321879Y1775500D01*
G37*
G36*
X1258480Y1756100D02*
G01*
X1243480Y1755800D01*
X1243460Y1745800D01*
X1258460Y1745480D01*
G37*
G36*
X1258460Y1716740D02*
G01*
X1243460Y1716399D01*
X1243480Y1706399D01*
X1258480Y1706100D01*
G37*
G36*
X1306900Y1716740D02*
G01*
X1306879Y1706100D01*
X1321879Y1706399D01*
X1321900Y1716399D01*
G37*
G36*
X1306900Y1716740D02*
G01*
X1306879Y1706100D01*
X1321879Y1706399D01*
X1321900Y1716399D01*
G37*
G36*
X1258460Y1697040D02*
G01*
X1243460Y1696699D01*
X1243480Y1686699D01*
X1258480Y1686420D01*
G37*
G36*
X1275480Y1686420D02*
G01*
X1295920Y1671420D01*
X1310060Y1671420D01*
X1300480Y1686420D01*
G37*
D10*
X1390000Y1420000D02*
G01*
X1420500Y1450000D01*
X1420500Y1632699D01*
X1313940Y1420000D02*
G01*
X1390000Y1420000D01*
X1740000Y1360000D02*
G01*
X1740000Y1245000D01*
X1313940Y1395000D02*
G01*
X1293940Y1415000D01*
X1050000Y1415000D01*
X1157399Y1540000D02*
G01*
X1152399Y1545000D01*
X1152399Y1635000D01*
X1155000Y1465000D02*
G01*
X1157399Y1467399D01*
X1157399Y1540000D01*
X1042399Y2355000D02*
G01*
X1017399Y2330000D01*
X955000Y2330000D01*
X950000Y2330000D01*
X570000Y2045000D02*
G01*
X555000Y2030000D01*
X555000Y1905000D01*
X690000Y1682600D02*
G01*
X637600Y1735000D01*
X595000Y1735000D01*
X555000Y1775000D01*
X555000Y1905000D01*
X517600Y1942399D01*
X470000Y1942399D01*
X1617299Y1790199D02*
G01*
X1649799Y1790199D01*
X1710000Y1730000D01*
X1720000Y1720000D01*
X1830000Y1720000D01*
X1550000Y1555000D02*
G01*
X1550000Y1560000D01*
X1518900Y1591100D01*
X1518900Y1632699D01*
X1875000Y1265000D02*
G01*
X1850000Y1290000D01*
X1850000Y1575000D01*
X1835000Y1590000D01*
X1695000Y1590000D01*
X1620000Y1515000D01*
X1560000Y1515000D01*
X1550000Y1525000D01*
X1550000Y1555000D01*
X1980299Y1045000D02*
G01*
X1940299Y1085000D01*
X1920000Y1085000D01*
X670000Y2385000D02*
G01*
X600000Y2455000D01*
X600000Y2700000D01*
X775000Y2335000D02*
G01*
X725000Y2385000D01*
X670000Y2385000D01*
X2164700Y1045000D02*
G01*
X2200000Y1009699D01*
X2200000Y885000D01*
X2210000Y875000D01*
X2310000Y875000D01*
X2039700Y1045000D02*
G01*
X2105299Y1045000D01*
X1929700Y920000D02*
G01*
X1930000Y1030000D01*
X1945000Y1045000D01*
X1980299Y1045000D01*
X980000Y1495000D02*
G01*
X950000Y1465000D01*
X950000Y1295000D01*
X930000Y1275000D01*
X865000Y1275000D01*
X855000Y1265000D01*
X855000Y1090000D01*
X1459799Y1632699D02*
G01*
X1459799Y1545199D01*
X1480000Y1525000D01*
X1525000Y1480000D01*
X1630000Y1480000D01*
X1505000Y919899D02*
G01*
X1505000Y1022399D01*
X890000Y1240000D02*
G01*
X935000Y1195000D01*
X960000Y1195000D01*
X890000Y2130000D02*
G01*
X930000Y2130000D01*
X960000Y2100000D01*
X960000Y2040000D01*
X370000Y1930000D02*
G01*
X382399Y1942399D01*
X470000Y1942399D01*
X1506059Y1395000D02*
G01*
X1705000Y1395000D01*
X1740000Y1360000D01*
X1506099Y1395000D02*
G01*
X1506099Y1468899D01*
X1485000Y1490000D01*
X1475000Y1490000D01*
X1440200Y1525199D01*
X1440200Y1632699D01*
X1640000Y1610000D02*
G01*
X1617299Y1632699D01*
X1617299Y1691700D01*
X685000Y1850000D02*
G01*
X635000Y1850000D01*
X605000Y1820000D01*
X605000Y1795000D01*
X620000Y1780000D01*
X875000Y1780000D01*
X980000Y1675000D01*
X995000Y1660000D01*
X1600000Y1550000D02*
G01*
X1600000Y1595000D01*
X1562299Y1632699D01*
X1558299Y1632699D01*
X655000Y1825000D02*
G01*
X660000Y1825000D01*
X675000Y1810000D01*
X895000Y1810000D01*
X995000Y1710000D01*
X1110000Y1677399D02*
G01*
X1152399Y1635000D01*
X1230000Y1635000D01*
D11*
X2166599Y2305500D02*
G01*
X2166599Y2361599D01*
X2190000Y2385000D01*
D10*
X1848428Y1063344D02*
G01*
X2000083Y1215000D01*
X2050000Y1215000D01*
D11*
X2190000Y2385000D02*
G01*
X2295000Y2490000D01*
X2427168Y2490000D01*
X2538428Y2378739D01*
X1337399Y2095000D02*
G01*
X1337399Y2687399D01*
X1350000Y2700000D01*
D10*
X1110000Y1732600D02*
G01*
X1027399Y1732600D01*
X870000Y1890000D01*
X700000Y1890000D01*
X605000Y1995000D01*
X605000Y1930000D01*
X605000Y1870000D01*
X825000Y1205000D02*
G01*
X790000Y1240000D01*
X750000Y1240000D01*
X710000Y1200000D01*
X710000Y1100000D01*
X800000Y1010000D01*
X1080000Y1010000D01*
X1105000Y985000D01*
X1105000Y919899D01*
D11*
X2166599Y2124499D02*
G01*
X2166599Y2053400D01*
X2190000Y2030000D01*
D10*
X2019700Y2700000D02*
G01*
X2200000Y2700000D01*
X2265000Y2635000D01*
X1385000Y1455000D02*
G01*
X1361400Y1478600D01*
X1361400Y1632699D01*
X1440200Y1967300D02*
G01*
X1440200Y2080199D01*
X1475000Y2115000D01*
X1830000Y2115000D01*
X1865000Y2080000D01*
X1865000Y2000000D01*
X1890000Y1975000D01*
X2430000Y1975000D01*
X2465000Y1940000D01*
X2465000Y1845000D01*
X2490000Y1820000D01*
X2560000Y1820000D01*
X2565000Y1815000D01*
X1459799Y1967300D02*
G01*
X1459799Y2059800D01*
X1495000Y2095000D01*
X1820000Y2095000D01*
X1845000Y2070000D01*
X1845000Y1990000D01*
X1885000Y1950000D01*
X2410000Y1950000D01*
X2440000Y1920000D01*
X2440000Y1880000D01*
X2420000Y1860000D01*
X2350000Y1860000D01*
X410000Y1160000D02*
G01*
X403899Y1166100D01*
X355900Y1166100D01*
X685000Y1530000D02*
G01*
X370001Y1530000D01*
X765000Y1205000D02*
G01*
X765000Y1100000D01*
X815000Y1050000D01*
X1595000Y1050000D01*
X1630000Y1015000D01*
X1630000Y944929D01*
X1604989Y919918D01*
X655000Y1135000D02*
G01*
X655000Y1095000D01*
X910000Y840000D01*
X1125069Y840000D01*
X1204989Y919920D01*
X1282700Y1750799D02*
G01*
X1189200Y1750799D01*
X1140000Y1800000D01*
X995000Y1800000D01*
X880000Y1915000D01*
X740000Y1915000D01*
X670000Y1985000D01*
X1282700Y1790199D02*
G01*
X1174799Y1790199D01*
X1140000Y1825000D01*
X1005000Y1825000D01*
X875000Y1955000D01*
X770000Y1955000D01*
X730000Y1995000D01*
X1282700Y1809800D02*
G01*
X1185200Y1809800D01*
X1150000Y1845000D01*
X1030000Y1845000D01*
X900000Y1975000D01*
X815000Y1975000D01*
X775000Y2015000D01*
X1282700Y1829499D02*
G01*
X1195500Y1829499D01*
X1160000Y1865000D01*
X1055000Y1865000D01*
X915000Y2005000D01*
X845000Y2005000D01*
X820000Y2030000D01*
X1282700Y1888600D02*
G01*
X1355000Y1888600D01*
X1282700Y1849200D02*
G01*
X1205799Y1849200D01*
X1165000Y1890000D01*
X1070000Y1890000D01*
X925000Y2035000D01*
X880000Y2035000D01*
X875000Y2040000D01*
X1282700Y1868899D02*
G01*
X1216099Y1868899D01*
X1165000Y1920000D01*
X1095000Y1920000D01*
X1000000Y2015000D01*
X960000Y1195000D02*
G01*
X1250000Y1195000D01*
X1330000Y1115000D01*
X1210000Y1240000D02*
G01*
X1510000Y1240000D01*
X1515000Y1235000D01*
D12*
X1664700Y2700000D02*
G01*
X1960299Y2700000D01*
X1545299Y2700000D02*
G01*
X1545299Y2604699D01*
X1630000Y2520000D01*
X1845000Y2520000D01*
X1943400Y2421599D01*
X1943400Y2245000D01*
D11*
X2165000Y1265000D02*
G01*
X2166199Y1263800D01*
X2430399Y1263800D01*
X2027399Y1855000D02*
G01*
X1935000Y1855000D01*
X1852399Y1937600D01*
X1750000Y1937600D01*
X2190000Y1905000D02*
G01*
X2190000Y1896138D01*
X2148861Y1855000D01*
X1943400Y2245000D02*
G01*
X1810000Y2245000D01*
X1750000Y2185000D01*
X1690000Y2025000D02*
G01*
X1690000Y1965000D01*
X1717399Y1937600D01*
X1750000Y1937600D01*
X1042399Y2355000D02*
G01*
X1042399Y2692399D01*
X1050000Y2700000D01*
X1097600Y2355000D02*
G01*
X1097600Y2282399D01*
X1135000Y2245000D01*
X1390000Y2320000D02*
G01*
X1392600Y2317399D01*
X1392600Y2095000D01*
X850000Y2700000D02*
G01*
X950000Y2700000D01*
X850000Y2700000D02*
G01*
X850000Y2235000D01*
X750000Y2135000D01*
X375000Y2135000D01*
X370000Y2130000D01*
X370000Y1629998D02*
G01*
X620000Y1629998D01*
X590000Y1210000D02*
G01*
X546100Y1166100D01*
X474099Y1166100D01*
X639499Y1295000D02*
G01*
X410000Y1295000D01*
X355900Y1349099D01*
X355900Y1433899D01*
X720500Y1295000D02*
G01*
X720500Y1379499D01*
X666100Y1433899D01*
X474099Y1433899D01*
D10*
X1110000Y1732600D02*
G01*
X1131099Y1711399D01*
X1282700Y1711399D01*
X1110000Y1677399D02*
G01*
X1124300Y1691700D01*
X1282700Y1691700D01*
X370000Y1629998D02*
G01*
X320000Y1679998D01*
X320000Y1990000D01*
X359998Y2029998D01*
X370000Y2029998D01*
X1282700Y1711399D02*
G01*
X1326400Y1711399D01*
X1340000Y1725000D01*
X1340000Y1755000D01*
X1324499Y1770500D01*
X1282700Y1770500D01*
X1282700Y1770500D02*
G01*
X1355500Y1770500D01*
X1385000Y1800000D01*
X1385000Y1900000D01*
X1361400Y1923600D01*
X1361400Y1967300D01*
X1282700Y1691700D02*
G01*
X1341700Y1632699D01*
X1705002Y919918D02*
G01*
X1848427Y1063344D01*
X2050000Y1215000D02*
G01*
X2201199Y1366199D01*
X2430399Y1366199D01*
X2430399Y1366199D02*
G01*
X2481199Y1366199D01*
X2500000Y1385000D01*
X2500000Y1385000D02*
G01*
X2505000Y1390000D01*
X2505000Y1550000D01*
X2565000Y2015000D02*
G01*
X2550000Y2000000D01*
X2030000Y2000000D01*
X1990000Y2040000D01*
X1550000Y2065000D02*
G01*
X1495000Y2065000D01*
X1479499Y2049499D01*
X1479499Y1967300D01*
X1617299Y1908299D02*
G01*
X1646599Y1937600D01*
X1750000Y1937600D01*
X1617299Y1888600D02*
G01*
X1743900Y1888600D01*
X1750000Y1882399D01*
X1750000Y1882399D02*
G01*
X1882399Y1750000D01*
X2070000Y1750000D01*
X1617299Y1888600D02*
G01*
X1396400Y1888600D01*
X1385000Y1900000D01*
X1150000Y2700000D02*
G01*
X1150000Y2505000D01*
X1190000Y2465000D01*
X1190000Y1945000D01*
X1226700Y1908299D01*
X1282700Y1908299D01*
X1520000Y2160000D02*
G01*
X1445000Y2160000D01*
X1390000Y2215000D01*
X1390000Y2320000D01*
X1250000Y2700000D02*
G01*
X1250000Y2075000D01*
X1270000Y2055000D01*
X1355000Y2055000D01*
X1381099Y2028899D01*
X1381099Y1967300D01*
X1341700Y1967300D02*
G01*
X1267700Y1967300D01*
X1255000Y1980000D01*
X1255000Y2010000D01*
X1361400Y1967300D02*
G01*
X1361400Y2003600D01*
X1340000Y2025000D01*
X1330000Y2025000D01*
X1282700Y1691700D02*
G01*
X1284399Y1690000D01*
X1485000Y1690000D01*
X1499200Y1675799D01*
X1499200Y1632699D01*
X1282700Y1711399D02*
G01*
X1451400Y1711399D01*
X1475000Y1735000D01*
X1330000Y2025000D02*
G01*
X1320000Y2035000D01*
X1230000Y2035000D01*
X1220000Y2045000D01*
X1220000Y2325000D01*
D11*
X2455000Y1687600D02*
G01*
X2287600Y1855000D01*
X2082600Y1855000D01*
X2455000Y1632399D02*
G01*
X2412600Y1632399D01*
X2245000Y1800000D01*
X2040000Y1800000D01*
X2027399Y1812600D01*
X2027399Y1855000D01*
X2455000Y1687600D02*
G01*
X2537600Y1687600D01*
X2565000Y1715000D01*
X2455000Y1632399D02*
G01*
X2547600Y1632399D01*
X2565000Y1615000D01*
D13*
G01*
X2455000Y1687559D03*
G01*
X2455000Y1632440D03*
D14*
G01*
X2164655Y1045000D03*
G01*
X2105344Y1045000D03*
G01*
X2039655Y1045000D03*
G01*
X1980344Y1045000D03*
G01*
X1929655Y920000D03*
G01*
X1870344Y920000D03*
D15*
G01*
X2614539Y1240210D03*
G01*
X2614539Y1389819D03*
D16*
G01*
X2435410Y1263840D03*
G01*
X2435410Y1289430D03*
G01*
X2435410Y1315019D03*
G01*
X2435410Y1340610D03*
G01*
X2435410Y1366199D03*
D17*
G01*
X355940Y1166140D03*
G01*
X355940Y1433850D03*
G01*
X474050Y1166140D03*
G01*
X474050Y1433850D03*
D18*
G01*
X2082560Y1855000D03*
G01*
X2027439Y1855000D03*
D13*
G01*
X470000Y1997559D03*
G01*
X470000Y1942440D03*
D18*
G01*
X1097560Y2355000D03*
G01*
X1042439Y2355000D03*
D13*
G01*
X1110000Y1677440D03*
G01*
X1110000Y1732559D03*
D18*
G01*
X1392560Y2095000D03*
G01*
X1337439Y2095000D03*
D13*
G01*
X1750000Y1937559D03*
G01*
X1750000Y1882440D03*
G01*
X1505000Y1022440D03*
G01*
X1505000Y1077559D03*
G01*
X690000Y1682559D03*
G01*
X690000Y1627440D03*
D18*
G01*
X1157439Y1540000D03*
G01*
X1212560Y1540000D03*
D19*
G01*
X639448Y1295000D03*
G01*
X720551Y1295000D03*
D20*
G01*
X1545259Y2700000D03*
G01*
X1664740Y2700000D03*
D21*
G01*
X1960344Y2700000D03*
G01*
X2019655Y2700000D03*
D22*
G01*
X1341729Y1632680D03*
G01*
X1361419Y1632680D03*
G01*
X1381099Y1632680D03*
G01*
X1400789Y1632680D03*
G01*
X1420469Y1632680D03*
G01*
X1440159Y1632680D03*
G01*
X1459840Y1632680D03*
G01*
X1479530Y1632680D03*
G01*
X1499210Y1632680D03*
G01*
X1518900Y1632680D03*
G01*
X1538580Y1632680D03*
G01*
X1558270Y1632680D03*
D23*
G01*
X1617319Y1691729D03*
G01*
X1617319Y1711419D03*
G01*
X1617319Y1731100D03*
G01*
X1617319Y1750790D03*
G01*
X1617319Y1770470D03*
G01*
X1617319Y1790160D03*
G01*
X1617319Y1809839D03*
G01*
X1617319Y1829529D03*
G01*
X1617319Y1849209D03*
G01*
X1617319Y1868899D03*
G01*
X1617319Y1888580D03*
G01*
X1617319Y1908270D03*
D22*
G01*
X1558270Y1967319D03*
G01*
X1538580Y1967319D03*
G01*
X1518900Y1967319D03*
G01*
X1499210Y1967319D03*
G01*
X1479530Y1967319D03*
G01*
X1459840Y1967319D03*
G01*
X1440159Y1967319D03*
G01*
X1420469Y1967319D03*
G01*
X1400789Y1967319D03*
G01*
X1381099Y1967319D03*
G01*
X1361419Y1967319D03*
G01*
X1341729Y1967319D03*
D23*
G01*
X1282680Y1908270D03*
G01*
X1282680Y1888580D03*
G01*
X1282680Y1868899D03*
G01*
X1282680Y1849209D03*
G01*
X1282680Y1829529D03*
G01*
X1282680Y1809839D03*
G01*
X1282680Y1790160D03*
G01*
X1282680Y1770470D03*
G01*
X1282680Y1750790D03*
G01*
X1282680Y1731100D03*
G01*
X1282680Y1711419D03*
G01*
X1282680Y1691729D03*
D24*
G01*
X2166614Y2124448D03*
G01*
X2166614Y2215000D03*
G01*
X2166614Y2305551D03*
D25*
G01*
X1943385Y2215000D03*
D26*
G01*
X2565000Y2015000D03*
G01*
X2565000Y1915000D03*
G01*
X2565000Y1815000D03*
G01*
X2565000Y1715000D03*
G01*
X2565000Y1615000D03*
G01*
X370000Y1530000D03*
G01*
X370000Y1630000D03*
G01*
X370000Y1730000D03*
G01*
X370000Y1830000D03*
G01*
X370000Y1930000D03*
G01*
X370000Y2030000D03*
G01*
X370000Y2130000D03*
D27*
G01*
X1740000Y1145000D03*
G01*
X1740000Y1245000D03*
G01*
X1050000Y1315000D03*
G01*
X1050000Y1415000D03*
D28*
G01*
X2310000Y875000D03*
D29*
G01*
X2310000Y975000D03*
D28*
G01*
X600000Y2700000D03*
D29*
G01*
X700000Y2700000D03*
D30*
G01*
X1506059Y1420000D03*
G01*
X1313940Y1420000D03*
D31*
G01*
X2455879Y1410479D03*
G01*
X2455879Y1219540D03*
D32*
G01*
X2561390Y1172289D03*
G01*
X2561390Y1457730D03*
D29*
G01*
X1350000Y2700000D03*
G01*
X1250000Y2700000D03*
G01*
X1150000Y2700000D03*
G01*
X1050000Y2700000D03*
G01*
X950000Y2700000D03*
D28*
G01*
X850000Y2700000D03*
D33*
G01*
X2538429Y2221260D03*
D30*
G01*
X2538429Y2300000D03*
G01*
X2538429Y2378739D03*
G01*
X2341580Y2378739D03*
G01*
X2341580Y2300000D03*
G01*
X2341580Y2221260D03*
D26*
G01*
X1705029Y919879D03*
G01*
X1605020Y919879D03*
G01*
X1505020Y919879D03*
G01*
X1405020Y919879D03*
G01*
X1305020Y919879D03*
G01*
X1205020Y919879D03*
G01*
X1105020Y919859D03*
G01*
X1005029Y920070D03*
D34*
G01*
X2265000Y2635000D03*
G01*
X1385000Y1455000D03*
G01*
X2350000Y1860000D03*
G01*
X410000Y1160000D03*
G01*
X670000Y1985000D03*
G01*
X685000Y1530000D03*
G01*
X730000Y1995000D03*
G01*
X765000Y1205000D03*
G01*
X775000Y2015000D03*
G01*
X825000Y1205000D03*
G01*
X820000Y2030000D03*
G01*
X655000Y1135000D03*
G01*
X875000Y2040000D03*
G01*
X1000000Y2015000D03*
G01*
X1330000Y1115000D03*
G01*
X1355000Y1888580D03*
G01*
X1210000Y1240000D03*
G01*
X1515000Y1235000D03*
G01*
X2165000Y1265000D03*
G01*
X2190000Y2030000D03*
G01*
X2190000Y1905000D03*
G01*
X1750000Y2185000D03*
G01*
X1690000Y2025000D03*
G01*
X1135000Y2245000D03*
G01*
X1390000Y2320000D03*
G01*
X620000Y1630000D03*
G01*
X590000Y1210000D03*
G01*
X605000Y1870000D03*
G01*
X2505000Y1550000D03*
G01*
X1990000Y2040000D03*
G01*
X1550000Y2065000D03*
G01*
X2070000Y1750000D03*
G01*
X1255000Y2010000D03*
G01*
X1520000Y2160000D03*
G01*
X1330000Y2025000D03*
G01*
X1230000Y1635000D03*
G01*
X570000Y2045000D03*
G01*
X1475000Y1735000D03*
G01*
X1520000Y1550000D03*
G01*
X1220000Y2325000D03*
G01*
X2190000Y2385000D03*
G01*
X2050000Y1215000D03*
G01*
X1510000Y1880000D03*
G01*
X1535000Y1725000D03*
G01*
X1600000Y1975000D03*
G01*
X1848429Y1063339D03*
G01*
X565000Y975000D03*
D35*
G01*
X655000Y1825000D03*
G01*
X995000Y1710000D03*
G01*
X1600000Y1550000D03*
G01*
X685000Y1850000D03*
G01*
X995000Y1660000D03*
G01*
X1640000Y1610000D03*
G01*
X890000Y2130000D03*
G01*
X960000Y2040000D03*
G01*
X890000Y1240000D03*
G01*
X1630000Y1480000D03*
G01*
X980000Y1495000D03*
G01*
X855000Y1090000D03*
G01*
X775000Y2335000D03*
G01*
X1920000Y1085000D03*
G01*
X1875000Y1265000D03*
G01*
X1830000Y1720000D03*
G01*
X950000Y2330000D03*
D34*
G01*
X565000Y2215000D03*
G01*
X440000Y2210000D03*
D35*
G01*
X1155000Y1465000D03*
D34*
G01*
X1050000Y2125000D03*
G01*
X1450000Y2520000D03*
G01*
X1075000Y1485000D03*
G01*
X900000Y910000D03*
G01*
X2010000Y1445000D03*
M02*
