G04 Layer: TopPasteMaskLayer*
G04 EasyEDA v6.5.28, 2023-05-12 23:13:51*
G04 2c4de912aade46c3ae8d467baab15760,9779bb66b829476cac46641fb3e7303a,10*
G04 Gerber Generator version 0.2*
G04 Scale: 100 percent, Rotated: No, Reflected: No *
G04 Dimensions in inches *
G04 leading zeros omitted , absolute positions ,3 integer and 6 decimal *
%FSLAX36Y36*%
%MOIN*%

%AMMACRO1*21,1,$1,$2,0,0,$3*%
%ADD10R,0.0354X0.0315*%
%ADD11R,0.0354X0.0551*%
%ADD12R,0.0315X0.0354*%
%ADD13O,0.010629999999999999X0.059054999999999996*%
%ADD14O,0.059054999999999996X0.010629999999999999*%
%ADD15MACRO1,0.0386X0.0972X90.0000*%
%ADD16MACRO1,0.1417X0.0972X-90.0000*%
%ADD17C,0.0236*%
%ADD18C,0.0128*%

%LPD*%
G36*
X2150560Y1062720D02*
G01*
X2148580Y1060740D01*
X2148580Y1051780D01*
X2163140Y1051780D01*
X2163140Y1038780D01*
X2148580Y1038780D01*
X2148580Y1029260D01*
X2150560Y1027280D01*
X2182040Y1027280D01*
X2184020Y1029260D01*
X2184020Y1060740D01*
X2182040Y1062720D01*
G37*
G36*
X2087960Y1062720D02*
G01*
X2085980Y1060740D01*
X2085980Y1029260D01*
X2087960Y1027280D01*
X2119060Y1027280D01*
X2121020Y1029260D01*
X2121020Y1038780D01*
X2106060Y1038780D01*
X2106060Y1051780D01*
X2121020Y1051780D01*
X2121020Y1060740D01*
X2119060Y1062720D01*
G37*
G36*
X2025560Y1062720D02*
G01*
X2023580Y1060740D01*
X2023580Y1051780D01*
X2038140Y1051780D01*
X2038140Y1038780D01*
X2023580Y1038780D01*
X2023580Y1029260D01*
X2025560Y1027280D01*
X2057040Y1027280D01*
X2059019Y1029260D01*
X2059019Y1060740D01*
X2057040Y1062720D01*
G37*
G36*
X1962960Y1062720D02*
G01*
X1960980Y1060740D01*
X1960980Y1029260D01*
X1962960Y1027280D01*
X1994060Y1027280D01*
X1996020Y1029260D01*
X1996020Y1038780D01*
X1981060Y1038780D01*
X1981060Y1051780D01*
X1996020Y1051780D01*
X1996020Y1060740D01*
X1994060Y1062720D01*
G37*
G36*
X1915560Y937720D02*
G01*
X1913580Y935740D01*
X1913580Y926780D01*
X1928140Y926780D01*
X1928140Y913780D01*
X1913580Y913780D01*
X1913580Y904260D01*
X1915560Y902280D01*
X1947040Y902280D01*
X1949019Y904260D01*
X1949019Y935740D01*
X1947040Y937720D01*
G37*
G36*
X1852960Y937720D02*
G01*
X1850980Y935740D01*
X1850980Y904260D01*
X1852960Y902280D01*
X1884060Y902280D01*
X1886020Y904260D01*
X1886020Y913780D01*
X1871060Y913780D01*
X1871060Y926780D01*
X1886020Y926780D01*
X1886020Y935740D01*
X1884060Y937720D01*
G37*
G36*
X2403900Y1374079D02*
G01*
X2403900Y1358320D01*
X2466900Y1358320D01*
X2466900Y1374079D01*
G37*
G36*
X2403900Y1348480D02*
G01*
X2403900Y1332740D01*
X2466900Y1332740D01*
X2466900Y1348480D01*
G37*
G36*
X2403900Y1322900D02*
G01*
X2403900Y1307140D01*
X2466900Y1307140D01*
X2466900Y1322900D01*
G37*
G36*
X2403900Y1297300D02*
G01*
X2403900Y1281560D01*
X2466900Y1281560D01*
X2466900Y1297300D01*
G37*
G36*
X2403900Y1271720D02*
G01*
X2403900Y1255960D01*
X2466900Y1255960D01*
X2466900Y1271720D01*
G37*
G36*
X2598800Y1413440D02*
G01*
X2598800Y1366200D01*
X2630280Y1366200D01*
X2630280Y1413440D01*
G37*
G36*
X2598800Y1263840D02*
G01*
X2598800Y1216600D01*
X2630280Y1216600D01*
X2630280Y1263840D01*
G37*
G36*
X2553520Y1483320D02*
G01*
X2550600Y1483140D01*
X2547740Y1482640D01*
X2544960Y1481800D01*
X2542280Y1480660D01*
X2539740Y1479199D01*
X2537400Y1477500D01*
X2535260Y1475520D01*
X2533360Y1473320D01*
X2531720Y1470900D01*
X2530380Y1468320D01*
X2529800Y1466980D01*
X2528920Y1464220D01*
X2528580Y1462800D01*
X2528180Y1459920D01*
X2528100Y1457000D01*
X2528340Y1454100D01*
X2528920Y1451260D01*
X2529800Y1448480D01*
X2531020Y1445840D01*
X2531720Y1444560D01*
X2533360Y1442160D01*
X2535260Y1439960D01*
X2537400Y1437980D01*
X2539740Y1436260D01*
X2542280Y1434820D01*
X2544960Y1433680D01*
X2547740Y1432840D01*
X2550600Y1432320D01*
X2553520Y1432140D01*
X2569260Y1432140D01*
X2572160Y1432320D01*
X2575020Y1432840D01*
X2577820Y1433680D01*
X2580500Y1434820D01*
X2583020Y1436260D01*
X2585360Y1437980D01*
X2587500Y1439960D01*
X2589400Y1442160D01*
X2591040Y1444560D01*
X2592400Y1447140D01*
X2593440Y1449860D01*
X2593860Y1451260D01*
X2594440Y1454100D01*
X2594680Y1457000D01*
X2594600Y1459920D01*
X2594180Y1462800D01*
X2593860Y1464220D01*
X2592960Y1466980D01*
X2591760Y1469640D01*
X2590260Y1472140D01*
X2588480Y1474440D01*
X2586460Y1476540D01*
X2584220Y1478380D01*
X2581780Y1479960D01*
X2580500Y1480660D01*
X2577820Y1481800D01*
X2575020Y1482640D01*
X2572160Y1483140D01*
X2570720Y1483280D01*
G37*
G36*
X2553520Y1197880D02*
G01*
X2550640Y1197720D01*
X2547820Y1197240D01*
X2545060Y1196460D01*
X2542400Y1195360D01*
X2539900Y1193960D01*
X2537560Y1192300D01*
X2535420Y1190400D01*
X2533500Y1188260D01*
X2531840Y1185920D01*
X2530460Y1183400D01*
X2529860Y1182100D01*
X2528920Y1179380D01*
X2528280Y1176580D01*
X2527960Y1173740D01*
X2527960Y1170860D01*
X2528280Y1168020D01*
X2528920Y1165220D01*
X2529860Y1162500D01*
X2531120Y1159920D01*
X2532640Y1157480D01*
X2534420Y1155240D01*
X2536460Y1153220D01*
X2538700Y1151420D01*
X2541140Y1149900D01*
X2543720Y1148660D01*
X2546420Y1147700D01*
X2549220Y1147060D01*
X2552080Y1146740D01*
X2569260Y1146700D01*
X2572120Y1146860D01*
X2574960Y1147340D01*
X2577720Y1148140D01*
X2580360Y1149240D01*
X2582880Y1150620D01*
X2585220Y1152280D01*
X2587360Y1154200D01*
X2589260Y1156340D01*
X2590140Y1157480D01*
X2591660Y1159920D01*
X2592900Y1162500D01*
X2593860Y1165220D01*
X2594480Y1168020D01*
X2594820Y1170860D01*
X2594820Y1173740D01*
X2594480Y1176580D01*
X2593860Y1179380D01*
X2592900Y1182100D01*
X2591660Y1184680D01*
X2590140Y1187100D01*
X2588340Y1189340D01*
X2586320Y1191380D01*
X2584060Y1193160D01*
X2581640Y1194700D01*
X2579060Y1195940D01*
X2577720Y1196460D01*
X2574960Y1197240D01*
X2572120Y1197720D01*
X2569260Y1197880D01*
G37*
G36*
X698700Y1321380D02*
G01*
X696740Y1319400D01*
X696919Y1302880D01*
X714260Y1302880D01*
X714260Y1285160D01*
X696540Y1285160D01*
X696740Y1269020D01*
X698700Y1267040D01*
X743980Y1267040D01*
X745939Y1269020D01*
X745939Y1319400D01*
X743980Y1321380D01*
G37*
G36*
X614060Y1321380D02*
G01*
X612080Y1319400D01*
X612080Y1269020D01*
X614060Y1267040D01*
X659340Y1267040D01*
X661300Y1269020D01*
X661100Y1285160D01*
X643780Y1285160D01*
X643780Y1302880D01*
X661300Y1302880D01*
X661300Y1319400D01*
X659340Y1321380D01*
G37*
G36*
X1636500Y2731500D02*
G01*
X1632560Y2727559D01*
X1632560Y2712980D01*
X1636500Y2709040D01*
X1650500Y2709040D01*
X1654440Y2705100D01*
X1654440Y2694900D01*
X1650500Y2690960D01*
X1636500Y2690960D01*
X1632560Y2687020D01*
X1632560Y2672440D01*
X1636500Y2668500D01*
X1693000Y2668500D01*
X1696920Y2672440D01*
X1696920Y2727559D01*
X1693000Y2731500D01*
G37*
G36*
X1517000Y2731500D02*
G01*
X1513080Y2727559D01*
X1513080Y2672440D01*
X1517000Y2668500D01*
X1573500Y2668500D01*
X1577440Y2672440D01*
X1577440Y2687020D01*
X1573500Y2690960D01*
X1559500Y2690960D01*
X1555560Y2694900D01*
X1555560Y2705100D01*
X1559500Y2709040D01*
X1573500Y2709040D01*
X1577440Y2712980D01*
X1577440Y2727559D01*
X1573500Y2731500D01*
G37*
G36*
X1942960Y2717720D02*
G01*
X1940980Y2715740D01*
X1940980Y2684260D01*
X1942960Y2682280D01*
X1974440Y2682280D01*
X1976420Y2684260D01*
X1976420Y2693220D01*
X1961860Y2693220D01*
X1961860Y2706220D01*
X1976420Y2706220D01*
X1976420Y2715740D01*
X1974440Y2717720D01*
G37*
G36*
X2005940Y2717720D02*
G01*
X2003980Y2715740D01*
X2003980Y2706220D01*
X2018940Y2706220D01*
X2018940Y2693220D01*
X2003980Y2693220D01*
X2003980Y2684260D01*
X2005940Y2682280D01*
X2037040Y2682280D01*
X2039019Y2684260D01*
X2039019Y2715740D01*
X2037040Y2717720D01*
G37*
D10*
G01*
X2455000Y1687559D03*
G01*
X2455000Y1632440D03*
D11*
G01*
X355940Y1166140D03*
G01*
X355940Y1433850D03*
G01*
X474050Y1166140D03*
G01*
X474050Y1433850D03*
D12*
G01*
X2082560Y1855000D03*
G01*
X2027439Y1855000D03*
D10*
G01*
X470000Y1997559D03*
G01*
X470000Y1942440D03*
D12*
G01*
X1097560Y2355000D03*
G01*
X1042439Y2355000D03*
D10*
G01*
X1110000Y1677440D03*
G01*
X1110000Y1732559D03*
D12*
G01*
X1392560Y2095000D03*
G01*
X1337439Y2095000D03*
D10*
G01*
X1750000Y1937559D03*
G01*
X1750000Y1882440D03*
G01*
X1505000Y1022440D03*
G01*
X1505000Y1077559D03*
G01*
X690000Y1682559D03*
G01*
X690000Y1627440D03*
D12*
G01*
X1157439Y1540000D03*
G01*
X1212560Y1540000D03*
D13*
G01*
X1341729Y1632680D03*
G01*
X1361419Y1632680D03*
G01*
X1381099Y1632680D03*
G01*
X1400789Y1632680D03*
G01*
X1420469Y1632680D03*
G01*
X1440159Y1632680D03*
G01*
X1459840Y1632680D03*
G01*
X1479530Y1632680D03*
G01*
X1499210Y1632680D03*
G01*
X1518900Y1632680D03*
G01*
X1538580Y1632680D03*
G01*
X1558270Y1632680D03*
D14*
G01*
X1617319Y1691729D03*
G01*
X1617319Y1711419D03*
G01*
X1617319Y1731100D03*
G01*
X1617319Y1750790D03*
G01*
X1617319Y1770470D03*
G01*
X1617319Y1790160D03*
G01*
X1617319Y1809839D03*
G01*
X1617319Y1829529D03*
G01*
X1617319Y1849209D03*
G01*
X1617319Y1868899D03*
G01*
X1617319Y1888580D03*
G01*
X1617319Y1908270D03*
D13*
G01*
X1558270Y1967319D03*
G01*
X1538580Y1967319D03*
G01*
X1518900Y1967319D03*
G01*
X1499210Y1967319D03*
G01*
X1479530Y1967319D03*
G01*
X1459840Y1967319D03*
G01*
X1440159Y1967319D03*
G01*
X1420469Y1967319D03*
G01*
X1400789Y1967319D03*
G01*
X1381099Y1967319D03*
G01*
X1361419Y1967319D03*
G01*
X1341729Y1967319D03*
D14*
G01*
X1282680Y1908270D03*
G01*
X1282680Y1888580D03*
G01*
X1282680Y1868899D03*
G01*
X1282680Y1849209D03*
G01*
X1282680Y1829529D03*
G01*
X1282680Y1809839D03*
G01*
X1282680Y1790160D03*
G01*
X1282680Y1770470D03*
G01*
X1282680Y1750790D03*
G01*
X1282680Y1731100D03*
G01*
X1282680Y1711419D03*
G01*
X1282680Y1691729D03*
D15*
G01*
X2166614Y2124448D03*
G01*
X2166614Y2215000D03*
G01*
X2166614Y2305551D03*
D16*
G01*
X1943385Y2215000D03*
D17*
G75*
G01
X2467690Y1219540D02*
G03X2467690Y1219540I-11810J0D01*
G75*
G01
X2467690Y1410480D02*
G03X2467690Y1410480I-11810J0D01*
M02*
